<svg version="1.1" xmlns="http://www.w3.org/2000/svg" xmlns:xlink="http://www.w3.org/1999/xlink" width="1220" height="736"><defs><clipPath id="vvEViueNLJLJ"><path fill="none" stroke="none" d=" M 0 0 L 1220 0 L 1220 736 L 0 736 L 0 0 Z"/></clipPath></defs><g transform="scale(1,1)" clip-path="url(#vvEViueNLJLJ)"><g><rect fill="rgb(255,255,255)" stroke="none" x="0" y="0" width="1220" height="736" fill-opacity="1"/><path fill="none" stroke="rgb(97,97,97)" paint-order="fill stroke markers" d=" M 774.4656617880397 364.8743050755741 C 774.4656617880397 501.7073344608213 663.5405746814416 612.6324215674192 526.7075452961942 612.6324215674192 C 389.8745159109468 612.6324215674192 278.9494288043487 501.7073344608213 278.9494288043487 364.8743050755741 C 278.9494288043487 228.04127569032693 389.8745159109468 117.11618858372907 526.7075452961942 117.11618858372907 C 663.5405746814416 117.11618858372907 774.4656617880397 228.04127569032693 774.4656617880397 364.8743050755741 Z" stroke-opacity="0.8" stroke-linecap="round" stroke-linejoin="round" stroke-miterlimit="10" stroke-width="2.5"/><path fill="rgb(21,101,192)" stroke="none" paint-order="stroke fill markers" d=" M 554.6653639445254 365.0764097886946 C 554.698512799132 360.49081823477684 553.6032226514168 355.9674673517951 551.4760181656576 351.9049866045559 L 526.7075452961942 364.8743050755741 Z" fill-opacity="0.09803921568627451"/><path fill="none" stroke="rgb(21,101,192)" paint-order="fill stroke markers" d=" M 554.6653639445254 365.0764097886946 C 554.698512799132 360.49081823477684 553.6032226514168 355.9674673517951 551.4760181656576 351.9049866045559 L 526.7075452961942 364.8743050755741 Z" stroke-opacity="0.8" stroke-linecap="round" stroke-linejoin="round" stroke-miterlimit="10" stroke-width="2.5"/><path fill="none" stroke="rgb(97,97,97)" paint-order="fill stroke markers" d=" M 526.7075452961942 364.8743050755741 L 889.518472999621 367.4970346734302" stroke-opacity="0.8" stroke-linecap="round" stroke-linejoin="round" stroke-miterlimit="10" stroke-width="2.5"/><path fill="none" stroke="rgb(97,97,97)" paint-order="fill stroke markers" d=" M 526.7075452961942 364.8743050755741 L 731.136112729236 257.83100008110756" stroke-opacity="0.8" stroke-linecap="round" stroke-linejoin="round" stroke-miterlimit="10" stroke-width="2.5"/><path fill="rgb(97,97,97)" stroke="none" paint-order="stroke fill markers" fill-rule="evenodd" d=" M 746.1964091954906 249.94509681334435 L 733.1075885461768 261.5960741976712 L 729.1646369122951 254.0659259645439 Z" fill-opacity="0.8"/><path fill="none" stroke="rgb(97,97,97)" paint-order="fill stroke markers" d=" M 526.7075452961942 364.8743050755741 L 714.2734840070077 230.45582806294226" stroke-opacity="0.8" stroke-linecap="round" stroke-linejoin="round" stroke-miterlimit="10" stroke-width="2.5"/><path fill="rgb(97,97,97)" stroke="none" paint-order="stroke fill markers" fill-rule="evenodd" d=" M 728.091506993846 220.55318999345752 L 716.749143524379 233.91033380965183 L 711.7978244896365 227.0013223162327 Z" fill-opacity="0.8"/><path fill="none" stroke="rgb(97,97,97)" paint-order="fill stroke markers" d=" M 746.1964091954906 249.94509681334435 L 737.0074400115486 235.02751686636736" stroke-opacity="0.8" stroke-linecap="round" stroke-linejoin="round" stroke-miterlimit="10" stroke-width="2.5"/><path fill="rgb(97,97,97)" stroke="none" paint-order="stroke fill markers" fill-rule="evenodd" d=" M 728.091506993846 220.55318999345752 L 740.6260217297761 232.7985336119417 L 733.3888582933212 237.25650012079302 Z" fill-opacity="0.8"/><path fill="rgb(21,101,192)" stroke="none" paint-order="stroke fill markers" d=" M 527.7075452961942 364.8743050755741 C 527.7075452961942 365.4265898254049 527.2598300460251 365.8743050755741 526.7075452961942 365.8743050755741 C 526.1552605463634 365.8743050755741 525.7075452961942 365.4265898254049 525.7075452961942 364.8743050755741 C 525.7075452961942 364.3220203257433 526.1552605463634 363.8743050755741 526.7075452961942 363.8743050755741 C 527.2598300460251 363.8743050755741 527.7075452961942 364.3220203257433 527.7075452961942 364.8743050755741 Z" fill-opacity="1"/><path fill="none" stroke="rgb(0,0,0)" paint-order="fill stroke markers" d=" M 527.7075452961942 364.8743050755741 C 527.7075452961942 365.4265898254049 527.2598300460251 365.8743050755741 526.7075452961942 365.8743050755741 C 526.1552605463634 365.8743050755741 525.7075452961942 365.4265898254049 525.7075452961942 364.8743050755741 C 525.7075452961942 364.3220203257433 526.1552605463634 363.8743050755741 526.7075452961942 363.8743050755741 C 527.2598300460251 363.8743050755741 527.7075452961942 364.3220203257433 527.7075452961942 364.8743050755741 Z" stroke-opacity="1" stroke-linecap="round" stroke-linejoin="round" stroke-miterlimit="10"/><path fill="rgb(21,101,192)" stroke="none" paint-order="stroke fill markers" d=" M 775.1183706939527 351.76065708629363 C 775.1183706939527 352.3129418361244 774.6706554437835 352.76065708629363 774.1183706939527 352.76065708629363 C 773.5660859441218 352.76065708629363 773.1183706939527 352.3129418361244 773.1183706939527 351.76065708629363 C 773.1183706939527 351.20837233646284 773.5660859441218 350.76065708629363 774.1183706939527 350.76065708629363 C 774.6706554437835 350.76065708629363 775.1183706939527 351.20837233646284 775.1183706939527 351.76065708629363 Z" fill-opacity="1"/><path fill="none" stroke="rgb(0,0,0)" paint-order="fill stroke markers" d=" M 775.1183706939527 351.76065708629363 C 775.1183706939527 352.3129418361244 774.6706554437835 352.76065708629363 774.1183706939527 352.76065708629363 C 773.5660859441218 352.76065708629363 773.1183706939527 352.3129418361244 773.1183706939527 351.76065708629363 C 773.1183706939527 351.20837233646284 773.5660859441218 350.76065708629363 774.1183706939527 350.76065708629363 C 774.6706554437835 350.76065708629363 775.1183706939527 351.20837233646284 775.1183706939527 351.76065708629363 Z" stroke-opacity="1" stroke-linecap="round" stroke-linejoin="round" stroke-miterlimit="10"/><path fill="rgb(21,101,192)" stroke="none" paint-order="stroke fill markers" d=" M 747.1964091954906 249.94509681334435 C 747.1964091954906 250.49738156317514 746.7486939453214 250.94509681334435 746.1964091954906 250.94509681334435 C 745.6441244456597 250.94509681334435 745.1964091954906 250.49738156317514 745.1964091954906 249.94509681334435 C 745.1964091954906 249.39281206351356 745.6441244456597 248.94509681334435 746.1964091954906 248.94509681334435 C 746.7486939453214 248.94509681334435 747.1964091954906 249.39281206351356 747.1964091954906 249.94509681334435 Z" fill-opacity="1"/><path fill="none" stroke="rgb(0,0,0)" paint-order="fill stroke markers" d=" M 747.1964091954906 249.94509681334435 C 747.1964091954906 250.49738156317514 746.7486939453214 250.94509681334435 746.1964091954906 250.94509681334435 C 745.6441244456597 250.94509681334435 745.1964091954906 250.49738156317514 745.1964091954906 249.94509681334435 C 745.1964091954906 249.39281206351356 745.6441244456597 248.94509681334435 746.1964091954906 248.94509681334435 C 746.7486939453214 248.94509681334435 747.1964091954906 249.39281206351356 747.1964091954906 249.94509681334435 Z" stroke-opacity="1" stroke-linecap="round" stroke-linejoin="round" stroke-miterlimit="10"/><path fill="rgb(21,101,192)" stroke="none" paint-order="stroke fill markers" d=" M 890.518472999621 367.4970346734302 C 890.518472999621 368.049319423261 890.0707577494519 368.4970346734302 889.518472999621 368.4970346734302 C 888.9661882497902 368.4970346734302 888.518472999621 368.049319423261 888.518472999621 367.4970346734302 C 888.518472999621 366.94474992359943 888.9661882497902 366.4970346734302 889.518472999621 366.4970346734302 C 890.0707577494519 366.4970346734302 890.518472999621 366.94474992359943 890.518472999621 367.4970346734302 Z" fill-opacity="1"/><path fill="none" stroke="rgb(0,0,0)" paint-order="fill stroke markers" d=" M 890.518472999621 367.4970346734302 C 890.518472999621 368.049319423261 890.0707577494519 368.4970346734302 889.518472999621 368.4970346734302 C 888.9661882497902 368.4970346734302 888.518472999621 368.049319423261 888.518472999621 367.4970346734302 C 888.518472999621 366.94474992359943 888.9661882497902 366.4970346734302 889.518472999621 366.4970346734302 C 890.0707577494519 366.4970346734302 890.518472999621 366.94474992359943 890.518472999621 367.4970346734302 Z" stroke-opacity="1" stroke-linecap="round" stroke-linejoin="round" stroke-miterlimit="10"/><path fill="rgb(21,101,192)" stroke="none" paint-order="stroke fill markers" d=" M 729.091506993846 220.55318999345752 C 729.091506993846 221.1054747432883 728.6437917436768 221.55318999345752 728.091506993846 221.55318999345752 C 727.5392222440151 221.55318999345752 727.091506993846 221.1054747432883 727.091506993846 220.55318999345752 C 727.091506993846 220.00090524362673 727.5392222440151 219.55318999345752 728.091506993846 219.55318999345752 C 728.6437917436768 219.55318999345752 729.091506993846 220.00090524362673 729.091506993846 220.55318999345752 Z" fill-opacity="1"/><path fill="none" stroke="rgb(0,0,0)" paint-order="fill stroke markers" d=" M 729.091506993846 220.55318999345752 C 729.091506993846 221.1054747432883 728.6437917436768 221.55318999345752 728.091506993846 221.55318999345752 C 727.5392222440151 221.55318999345752 727.091506993846 221.1054747432883 727.091506993846 220.55318999345752 C 727.091506993846 220.00090524362673 727.5392222440151 219.55318999345752 728.091506993846 219.55318999345752 C 728.6437917436768 219.55318999345752 729.091506993846 220.00090524362673 729.091506993846 220.55318999345752 Z" stroke-opacity="1" stroke-linecap="round" stroke-linejoin="round" stroke-miterlimit="10"/><path fill="rgb(0,0,0)" stroke="none" paint-order="stroke fill markers" d=" M 555.6653639445253 365.0764097886946 C 555.6653639445253 365.6286945385254 555.2176486943562 366.0764097886946 554.6653639445253 366.0764097886946 C 554.1130791946945 366.0764097886946 553.6653639445253 365.6286945385254 553.6653639445253 365.0764097886946 C 553.6653639445253 364.5241250388638 554.1130791946945 364.0764097886946 554.6653639445253 364.0764097886946 C 555.2176486943562 364.0764097886946 555.6653639445253 364.5241250388638 555.6653639445253 365.0764097886946 Z" fill-opacity="1"/><path fill="none" stroke="rgb(0,0,0)" paint-order="fill stroke markers" d=" M 555.6653639445253 365.0764097886946 C 555.6653639445253 365.6286945385254 555.2176486943562 366.0764097886946 554.6653639445253 366.0764097886946 C 554.1130791946945 366.0764097886946 553.6653639445253 365.6286945385254 553.6653639445253 365.0764097886946 C 553.6653639445253 364.5241250388638 554.1130791946945 364.0764097886946 554.6653639445253 364.0764097886946 C 555.2176486943562 364.0764097886946 555.6653639445253 364.5241250388638 555.6653639445253 365.0764097886946 Z" stroke-opacity="1" stroke-linecap="round" stroke-linejoin="round" stroke-miterlimit="10"/><path fill="rgb(0,0,0)" stroke="none" paint-order="stroke fill markers" d=" M 553.1065106277035 351.5748468508075 C 553.1065106277035 352.1271316006383 552.6587953775344 352.5748468508075 552.1065106277035 352.5748468508075 C 551.5542258778727 352.5748468508075 551.1065106277035 352.1271316006383 551.1065106277035 351.5748468508075 C 551.1065106277035 351.0225621009767 551.5542258778727 350.5748468508075 552.1065106277035 350.5748468508075 C 552.6587953775344 350.5748468508075 553.1065106277035 351.0225621009767 553.1065106277035 351.5748468508075 Z" fill-opacity="1"/><path fill="none" stroke="rgb(0,0,0)" paint-order="fill stroke markers" d=" M 553.1065106277035 351.5748468508075 C 553.1065106277035 352.1271316006383 552.6587953775344 352.5748468508075 552.1065106277035 352.5748468508075 C 551.5542258778727 352.5748468508075 551.1065106277035 352.1271316006383 551.1065106277035 351.5748468508075 C 551.1065106277035 351.0225621009767 551.5542258778727 350.5748468508075 552.1065106277035 350.5748468508075 C 552.6587953775344 350.5748468508075 553.1065106277035 351.0225621009767 553.1065106277035 351.5748468508075 Z" stroke-opacity="1" stroke-linecap="round" stroke-linejoin="round" stroke-miterlimit="10"/><path fill="rgb(21,101,192)" stroke="none" paint-order="stroke fill markers" d=" M 663.482468895507 157.6322861479747 C 663.482468895507 158.1845708978055 663.0347536453379 158.6322861479747 662.482468895507 158.6322861479747 C 661.9301841456762 158.6322861479747 661.482468895507 158.1845708978055 661.482468895507 157.6322861479747 C 661.482468895507 157.0800013981439 661.9301841456762 156.6322861479747 662.482468895507 156.6322861479747 C 663.0347536453379 156.6322861479747 663.482468895507 157.0800013981439 663.482468895507 157.6322861479747 Z" fill-opacity="1"/><path fill="none" stroke="rgb(0,0,0)" paint-order="fill stroke markers" d=" M 663.482468895507 157.6322861479747 C 663.482468895507 158.1845708978055 663.0347536453379 158.6322861479747 662.482468895507 158.6322861479747 C 661.9301841456762 158.6322861479747 661.482468895507 158.1845708978055 661.482468895507 157.6322861479747 C 661.482468895507 157.0800013981439 661.9301841456762 156.6322861479747 662.482468895507 156.6322861479747 C 663.0347536453379 156.6322861479747 663.482468895507 157.0800013981439 663.482468895507 157.6322861479747 Z" stroke-opacity="1" stroke-linecap="round" stroke-linejoin="round" stroke-miterlimit="10"/><path fill="rgb(21,101,192)" stroke="none" paint-order="stroke fill markers" d=" M 614.4201720482284 132.78594981114233 C 614.4201720482284 133.33823456097312 613.9724567980593 133.78594981114233 613.4201720482284 133.78594981114233 C 612.8678872983976 133.78594981114233 612.4201720482284 133.33823456097312 612.4201720482284 132.78594981114233 C 612.4201720482284 132.23366506131154 612.8678872983976 131.78594981114233 613.4201720482284 131.78594981114233 C 613.9724567980593 131.78594981114233 614.4201720482284 132.23366506131154 614.4201720482284 132.78594981114233 Z" fill-opacity="1"/><path fill="none" stroke="rgb(0,0,0)" paint-order="fill stroke markers" d=" M 614.4201720482284 132.78594981114233 C 614.4201720482284 133.33823456097312 613.9724567980593 133.78594981114233 613.4201720482284 133.78594981114233 C 612.8678872983976 133.78594981114233 612.4201720482284 133.33823456097312 612.4201720482284 132.78594981114233 C 612.4201720482284 132.23366506131154 612.8678872983976 131.78594981114233 613.4201720482284 131.78594981114233 C 613.9724567980593 131.78594981114233 614.4201720482284 132.23366506131154 614.4201720482284 132.78594981114233 Z" stroke-opacity="1" stroke-linecap="round" stroke-linejoin="round" stroke-miterlimit="10"/><g transform="scale(25,25)"><g transform="translate(23.16,14.814445)"><path fill="rgb(0,0,0)" stroke="none" paint-order="stroke fill markers" d=" M 0.455 -0.5 L 0.455 -0.5 Q 0.455 -0.34700000000000003 0.377 -0.19 Q 0.307 -0.05 0.222 -0.005 Q 0.191 0.011 0.162 0.011 Q 0.08 0.011 0.052000000000000005 -0.101 Q 0.042 -0.14300000000000002 0.042 -0.194 Q 0.042 -0.35100000000000003 0.122 -0.509 Q 0.192 -0.646 0.277 -0.6900000000000001 Q 0.307 -0.705 0.335 -0.705 Q 0.422 -0.705 0.447 -0.578 Q 0.455 -0.54 0.455 -0.5 M 0.148 -0.363 L 0.148 -0.363 L 0.357 -0.363 Q 0.389 -0.495 0.389 -0.562 Q 0.389 -0.675 0.342 -0.682 Q 0.338 -0.683 0.334 -0.683 Q 0.28300000000000003 -0.683 0.225 -0.578 Q 0.187 -0.511 0.149 -0.368 Q 0.149 -0.365 0.148 -0.363 M 0.34800000000000003 -0.331 L 0.14 -0.331 Q 0.108 -0.21 0.108 -0.133 Q 0.108 -0.013000000000000001 0.162 -0.011 Q 0.218 -0.011 0.278 -0.128 Q 0.317 -0.202 0.34800000000000003 -0.331 Z"/></g></g><g transform="scale(25,25)"><g transform="translate(23.8,13.454445)"><path fill="rgb(0,0,0)" stroke="none" paint-order="stroke fill markers" d=" M 0.516 -0.683 L 0.372 -0.105 Q 0.366 -0.08 0.366 -0.057 Q 0.366 -0.011 0.396 -0.011 Q 0.434 -0.011 0.46 -0.091 Q 0.465 -0.108 0.47200000000000003 -0.135 Q 0.48 -0.152 0.486 -0.153 Q 0.498 -0.153 0.498 -0.14300000000000002 Q 0.498 -0.128 0.48 -0.073 Q 0.47400000000000003 -0.056 0.468 -0.044 Q 0.44 0.011 0.394 0.011 Q 0.338 0.011 0.313 -0.037 Q 0.306 -0.049 0.303 -0.064 Q 0.24 0.011 0.17300000000000001 0.011 Q 0.098 0.011 0.062 -0.057 Q 0.04 -0.097 0.04 -0.149 Q 0.04 -0.257 0.115 -0.34900000000000003 Q 0.185 -0.433 0.267 -0.441 Q 0.274 -0.442 0.281 -0.442 Q 0.342 -0.442 0.373 -0.378 L 0.433 -0.615 L 0.436 -0.635 Q 0.436 -0.646 0.422 -0.649 Q 0.41000000000000003 -0.652 0.386 -0.652 Q 0.364 -0.652 0.362 -0.664 Q 0.362 -0.681 0.376 -0.683 Q 0.47000000000000003 -0.6940000000000001 0.503 -0.6940000000000001 Q 0.516 -0.6940000000000001 0.516 -0.683 M 0.308 -0.11900000000000001 L 0.308 -0.11900000000000001 L 0.358 -0.315 Q 0.361 -0.33 0.361 -0.332 Q 0.361 -0.353 0.343 -0.383 Q 0.321 -0.42 0.28200000000000003 -0.42 Q 0.23 -0.42 0.183 -0.352 Q 0.17400000000000002 -0.339 0.166 -0.324 Q 0.137 -0.266 0.117 -0.159 Q 0.111 -0.125 0.111 -0.105 Q 0.111 -0.037 0.149 -0.017 Q 0.16 -0.011 0.17500000000000002 -0.011 Q 0.231 -0.011 0.28800000000000003 -0.082 Q 0.302 -0.098 0.307 -0.115 L 0.307 -0.116 Q 0.308 -0.11800000000000001 0.308 -0.11900000000000001 Z"/></g><g transform="translate(24.320488,13.454445)"><path fill="rgb(0,0,0)" stroke="none" paint-order="stroke fill markers" d=" M 0.455 -0.5 L 0.455 -0.5 Q 0.455 -0.34700000000000003 0.377 -0.19 Q 0.307 -0.05 0.222 -0.005 Q 0.191 0.011 0.162 0.011 Q 0.08 0.011 0.052000000000000005 -0.101 Q 0.042 -0.14300000000000002 0.042 -0.194 Q 0.042 -0.35100000000000003 0.122 -0.509 Q 0.192 -0.646 0.277 -0.6900000000000001 Q 0.307 -0.705 0.335 -0.705 Q 0.422 -0.705 0.447 -0.578 Q 0.455 -0.54 0.455 -0.5 M 0.148 -0.363 L 0.148 -0.363 L 0.357 -0.363 Q 0.389 -0.495 0.389 -0.562 Q 0.389 -0.675 0.342 -0.682 Q 0.338 -0.683 0.334 -0.683 Q 0.28300000000000003 -0.683 0.225 -0.578 Q 0.187 -0.511 0.149 -0.368 Q 0.149 -0.365 0.148 -0.363 M 0.34800000000000003 -0.331 L 0.14 -0.331 Q 0.108 -0.21 0.108 -0.133 Q 0.108 -0.013000000000000001 0.162 -0.011 Q 0.218 -0.011 0.278 -0.128 Q 0.317 -0.202 0.34800000000000003 -0.331 Z"/></g></g><g transform="scale(25,25)"><g transform="translate(29.88,9.614445)"><path fill="rgb(0,0,0)" stroke="none" paint-order="stroke fill markers" d=" M 0.516 -0.683 L 0.372 -0.105 Q 0.366 -0.08 0.366 -0.057 Q 0.366 -0.011 0.396 -0.011 Q 0.434 -0.011 0.46 -0.091 Q 0.465 -0.108 0.47200000000000003 -0.135 Q 0.48 -0.152 0.486 -0.153 Q 0.498 -0.153 0.498 -0.14300000000000002 Q 0.498 -0.128 0.48 -0.073 Q 0.47400000000000003 -0.056 0.468 -0.044 Q 0.44 0.011 0.394 0.011 Q 0.338 0.011 0.313 -0.037 Q 0.306 -0.049 0.303 -0.064 Q 0.24 0.011 0.17300000000000001 0.011 Q 0.098 0.011 0.062 -0.057 Q 0.04 -0.097 0.04 -0.149 Q 0.04 -0.257 0.115 -0.34900000000000003 Q 0.185 -0.433 0.267 -0.441 Q 0.274 -0.442 0.281 -0.442 Q 0.342 -0.442 0.373 -0.378 L 0.433 -0.615 L 0.436 -0.635 Q 0.436 -0.646 0.422 -0.649 Q 0.41000000000000003 -0.652 0.386 -0.652 Q 0.364 -0.652 0.362 -0.664 Q 0.362 -0.681 0.376 -0.683 Q 0.47000000000000003 -0.6940000000000001 0.503 -0.6940000000000001 Q 0.516 -0.6940000000000001 0.516 -0.683 M 0.308 -0.11900000000000001 L 0.308 -0.11900000000000001 L 0.358 -0.315 Q 0.361 -0.33 0.361 -0.332 Q 0.361 -0.353 0.343 -0.383 Q 0.321 -0.42 0.28200000000000003 -0.42 Q 0.23 -0.42 0.183 -0.352 Q 0.17400000000000002 -0.339 0.166 -0.324 Q 0.137 -0.266 0.117 -0.159 Q 0.111 -0.125 0.111 -0.105 Q 0.111 -0.037 0.149 -0.017 Q 0.16 -0.011 0.17500000000000002 -0.011 Q 0.231 -0.011 0.28800000000000003 -0.082 Q 0.302 -0.098 0.307 -0.115 L 0.307 -0.116 Q 0.308 -0.11800000000000001 0.308 -0.11900000000000001 Z"/></g><g transform="translate(30.400488,9.614445)"><path fill="rgb(0,0,0)" stroke="none" paint-order="stroke fill markers" d=" M 0.258 -0.683 L 0.114 -0.105 Q 0.108 -0.082 0.108 -0.057 Q 0.108 -0.011 0.138 -0.011 Q 0.177 -0.011 0.203 -0.097 Q 0.20800000000000002 -0.112 0.214 -0.135 Q 0.222 -0.152 0.228 -0.153 Q 0.24 -0.153 0.24 -0.14300000000000002 Q 0.24 -0.128 0.222 -0.074 Q 0.216 -0.057 0.21 -0.045 Q 0.184 0.011 0.135 0.011 Q 0.083 0.011 0.057 -0.031 Q 0.044 -0.053 0.044 -0.081 Q 0.044 -0.097 0.049 -0.115 L 0.17500000000000002 -0.615 L 0.178 -0.635 Q 0.178 -0.646 0.164 -0.649 Q 0.152 -0.652 0.129 -0.652 Q 0.106 -0.652 0.10400000000000001 -0.663 Q 0.10400000000000001 -0.681 0.123 -0.684 L 0.245 -0.6940000000000001 Q 0.258 -0.6940000000000001 0.258 -0.683 Z"/></g><g transform="translate(30.99632461111111,9.614445)"><path fill="rgb(0,0,0)" stroke="none" paint-order="stroke fill markers" d=" M 0.687 -0.327 L 0.09 -0.327 Q 0.058 -0.327 0.056 -0.34700000000000003 Q 0.056 -0.367 0.089 -0.367 L 0.6880000000000001 -0.367 Q 0.72 -0.367 0.721 -0.34700000000000003 Q 0.721 -0.327 0.687 -0.327 M 0.6880000000000001 -0.133 L 0.089 -0.133 Q 0.057 -0.133 0.056 -0.153 Q 0.056 -0.17300000000000001 0.09 -0.17300000000000001 L 0.687 -0.17300000000000001 Q 0.719 -0.17300000000000001 0.721 -0.153 Q 0.721 -0.133 0.6880000000000001 -0.133 Z"/></g><g transform="translate(32.05188422222222,9.614445)"><path fill="rgb(0,0,0)" stroke="none" paint-order="stroke fill markers" d=" M 0.088 -0.059000000000000004 L 0.088 -0.059000000000000004 L 0.146 -0.29 Q 0.162 -0.354 0.162 -0.374 Q 0.162 -0.42 0.131 -0.42 Q 0.09 -0.42 0.064 -0.325 Q 0.061 -0.314 0.058 -0.301 Q 0.047 -0.279 0.041 -0.278 Q 0.029 -0.278 0.029 -0.28800000000000003 Q 0.029 -0.304 0.047 -0.355 Q 0.054 -0.373 0.06 -0.385 Q 0.084 -0.434 0.12 -0.441 Q 0.127 -0.442 0.134 -0.442 Q 0.19 -0.442 0.215 -0.394 Q 0.221 -0.383 0.224 -0.37 Q 0.225 -0.368 0.225 -0.365 Q 0.28300000000000003 -0.437 0.353 -0.442 Q 0.40900000000000003 -0.442 0.429 -0.403 Q 0.436 -0.391 0.436 -0.377 Q 0.436 -0.338 0.403 -0.323 Q 0.392 -0.318 0.381 -0.318 Q 0.35000000000000003 -0.318 0.34400000000000003 -0.34500000000000003 Q 0.343 -0.34900000000000003 0.343 -0.353 Q 0.343 -0.386 0.377 -0.402 L 0.378 -0.403 Q 0.386 -0.406 0.395 -0.40800000000000003 L 0.375 -0.417 Q 0.362 -0.419 0.353 -0.42 Q 0.311 -0.42 0.273 -0.387 Q 0.242 -0.359 0.22 -0.313 Q 0.218 -0.308 0.217 -0.305 L 0.185 -0.17500000000000002 L 0.145 -0.017 Q 0.136 0.009000000000000001 0.108 0.011 Q 0.083 0.006 0.079 -0.016 Q 0.079 -0.014 0.088 -0.059000000000000004 Z"/></g><g transform="translate(32.53082272222222,9.614445)"><path fill="rgb(0,0,0)" stroke="none" paint-order="stroke fill markers" d=" M 0.516 -0.683 L 0.372 -0.105 Q 0.366 -0.08 0.366 -0.057 Q 0.366 -0.011 0.396 -0.011 Q 0.434 -0.011 0.46 -0.091 Q 0.465 -0.108 0.47200000000000003 -0.135 Q 0.48 -0.152 0.486 -0.153 Q 0.498 -0.153 0.498 -0.14300000000000002 Q 0.498 -0.128 0.48 -0.073 Q 0.47400000000000003 -0.056 0.468 -0.044 Q 0.44 0.011 0.394 0.011 Q 0.338 0.011 0.313 -0.037 Q 0.306 -0.049 0.303 -0.064 Q 0.24 0.011 0.17300000000000001 0.011 Q 0.098 0.011 0.062 -0.057 Q 0.04 -0.097 0.04 -0.149 Q 0.04 -0.257 0.115 -0.34900000000000003 Q 0.185 -0.433 0.267 -0.441 Q 0.274 -0.442 0.281 -0.442 Q 0.342 -0.442 0.373 -0.378 L 0.433 -0.615 L 0.436 -0.635 Q 0.436 -0.646 0.422 -0.649 Q 0.41000000000000003 -0.652 0.386 -0.652 Q 0.364 -0.652 0.362 -0.664 Q 0.362 -0.681 0.376 -0.683 Q 0.47000000000000003 -0.6940000000000001 0.503 -0.6940000000000001 Q 0.516 -0.6940000000000001 0.516 -0.683 M 0.308 -0.11900000000000001 L 0.308 -0.11900000000000001 L 0.358 -0.315 Q 0.361 -0.33 0.361 -0.332 Q 0.361 -0.353 0.343 -0.383 Q 0.321 -0.42 0.28200000000000003 -0.42 Q 0.23 -0.42 0.183 -0.352 Q 0.17400000000000002 -0.339 0.166 -0.324 Q 0.137 -0.266 0.117 -0.159 Q 0.111 -0.125 0.111 -0.105 Q 0.111 -0.037 0.149 -0.017 Q 0.16 -0.011 0.17500000000000002 -0.011 Q 0.231 -0.011 0.28800000000000003 -0.082 Q 0.302 -0.098 0.307 -0.115 L 0.307 -0.116 Q 0.308 -0.11800000000000001 0.308 -0.11900000000000001 Z"/></g><g transform="translate(33.05131072222222,9.614445)"><path fill="rgb(0,0,0)" stroke="none" paint-order="stroke fill markers" d=" M 0.455 -0.5 L 0.455 -0.5 Q 0.455 -0.34700000000000003 0.377 -0.19 Q 0.307 -0.05 0.222 -0.005 Q 0.191 0.011 0.162 0.011 Q 0.08 0.011 0.052000000000000005 -0.101 Q 0.042 -0.14300000000000002 0.042 -0.194 Q 0.042 -0.35100000000000003 0.122 -0.509 Q 0.192 -0.646 0.277 -0.6900000000000001 Q 0.307 -0.705 0.335 -0.705 Q 0.422 -0.705 0.447 -0.578 Q 0.455 -0.54 0.455 -0.5 M 0.148 -0.363 L 0.148 -0.363 L 0.357 -0.363 Q 0.389 -0.495 0.389 -0.562 Q 0.389 -0.675 0.342 -0.682 Q 0.338 -0.683 0.334 -0.683 Q 0.28300000000000003 -0.683 0.225 -0.578 Q 0.187 -0.511 0.149 -0.368 Q 0.149 -0.365 0.148 -0.363 M 0.34800000000000003 -0.331 L 0.14 -0.331 Q 0.108 -0.21 0.108 -0.133 Q 0.108 -0.013000000000000001 0.162 -0.011 Q 0.218 -0.011 0.278 -0.128 Q 0.317 -0.202 0.34800000000000003 -0.331 Z"/></g></g><g transform="scale(25,25)"><g transform="translate(25.28,11.390555)"><path fill="rgb(0,0,0)" stroke="none" paint-order="stroke fill markers" d=" M 0.088 -0.059000000000000004 L 0.088 -0.059000000000000004 L 0.146 -0.29 Q 0.162 -0.354 0.162 -0.374 Q 0.162 -0.42 0.131 -0.42 Q 0.09 -0.42 0.064 -0.325 Q 0.061 -0.314 0.058 -0.301 Q 0.047 -0.279 0.041 -0.278 Q 0.029 -0.278 0.029 -0.28800000000000003 Q 0.029 -0.304 0.047 -0.355 Q 0.054 -0.373 0.06 -0.385 Q 0.084 -0.434 0.12 -0.441 Q 0.127 -0.442 0.134 -0.442 Q 0.19 -0.442 0.215 -0.394 Q 0.221 -0.383 0.224 -0.37 Q 0.225 -0.368 0.225 -0.365 Q 0.28300000000000003 -0.437 0.353 -0.442 Q 0.40900000000000003 -0.442 0.429 -0.403 Q 0.436 -0.391 0.436 -0.377 Q 0.436 -0.338 0.403 -0.323 Q 0.392 -0.318 0.381 -0.318 Q 0.35000000000000003 -0.318 0.34400000000000003 -0.34500000000000003 Q 0.343 -0.34900000000000003 0.343 -0.353 Q 0.343 -0.386 0.377 -0.402 L 0.378 -0.403 Q 0.386 -0.406 0.395 -0.40800000000000003 L 0.375 -0.417 Q 0.362 -0.419 0.353 -0.42 Q 0.311 -0.42 0.273 -0.387 Q 0.242 -0.359 0.22 -0.313 Q 0.218 -0.308 0.217 -0.305 L 0.185 -0.17500000000000002 L 0.145 -0.017 Q 0.136 0.009000000000000001 0.108 0.011 Q 0.083 0.006 0.079 -0.016 Q 0.079 -0.014 0.088 -0.059000000000000004 Z"/></g></g></g></g></svg>