<svg version="1.1" xmlns="http://www.w3.org/2000/svg" xmlns:xlink="http://www.w3.org/1999/xlink" width="1212" height="716"><defs><clipPath id="qyWcCddMAhXa"><path fill="none" stroke="none" d=" M 0 0 L 1212 0 L 1212 716 L 0 716 L 0 0 Z"/></clipPath></defs><g transform="scale(1,1)" clip-path="url(#qyWcCddMAhXa)"><g><rect fill="rgb(255,255,255)" stroke="none" x="0" y="0" width="1212" height="716" fill-opacity="1"/><path fill="none" stroke="rgb(192,192,192)" paint-order="fill stroke markers" d=" M 20.5 0.5 L 20.5 716.5 M 20.5 0.5 L 20.5 716.5 M 69.5 0.5 L 69.5 716.5 M 119.5 0.5 L 119.5 716.5 M 169.5 0.5 L 169.5 716.5 M 269.5 0.5 L 269.5 716.5 M 319.5 0.5 L 319.5 716.5 M 369.5 0.5 L 369.5 716.5 M 419.5 0.5 L 419.5 716.5 M 469.5 0.5 L 469.5 716.5 M 519.5 0.5 L 519.5 716.5 M 569.5 0.5 L 569.5 716.5 M 619.5 0.5 L 619.5 716.5 M 669.5 0.5 L 669.5 716.5 M 719.5 0.5 L 719.5 716.5 M 769.5 0.5 L 769.5 716.5 M 819.5 0.5 L 819.5 716.5 M 869.5 0.5 L 869.5 716.5 M 919.5 0.5 L 919.5 716.5 M 969.5 0.5 L 969.5 716.5 M 1019.5 0.5 L 1019.5 716.5 M 1069.5 0.5 L 1069.5 716.5 M 1119.5 0.5 L 1119.5 716.5 M 1169.5 0.5 L 1169.5 716.5" stroke-opacity="1" stroke-linecap="round" stroke-linejoin="round" stroke-miterlimit="10"/><path fill="none" stroke="rgb(192,192,192)" paint-order="fill stroke markers" d=" M 0.5 0.5 L 0.5 716.5 M 10.5 0.5 L 10.5 716.5 M 29.5 0.5 L 29.5 716.5 M 39.5 0.5 L 39.5 716.5 M 49.5 0.5 L 49.5 716.5 M 59.5 0.5 L 59.5 716.5 M 79.5 0.5 L 79.5 716.5 M 89.5 0.5 L 89.5 716.5 M 99.5 0.5 L 99.5 716.5 M 109.5 0.5 L 109.5 716.5 M 129.5 0.5 L 129.5 716.5 M 139.5 0.5 L 139.5 716.5 M 149.5 0.5 L 149.5 716.5 M 159.5 0.5 L 159.5 716.5 M 179.5 0.5 L 179.5 716.5 M 189.5 0.5 L 189.5 716.5 M 199.5 0.5 L 199.5 716.5 M 209.5 0.5 L 209.5 716.5 M 229.5 0.5 L 229.5 716.5 M 239.5 0.5 L 239.5 716.5 M 249.5 0.5 L 249.5 716.5 M 259.5 0.5 L 259.5 716.5 M 279.5 0.5 L 279.5 716.5 M 289.5 0.5 L 289.5 716.5 M 299.5 0.5 L 299.5 716.5 M 309.5 0.5 L 309.5 716.5 M 329.5 0.5 L 329.5 716.5 M 339.5 0.5 L 339.5 716.5 M 349.5 0.5 L 349.5 716.5 M 359.5 0.5 L 359.5 716.5 M 379.5 0.5 L 379.5 716.5 M 389.5 0.5 L 389.5 716.5 M 399.5 0.5 L 399.5 716.5 M 409.5 0.5 L 409.5 716.5 M 429.5 0.5 L 429.5 716.5 M 439.5 0.5 L 439.5 716.5 M 449.5 0.5 L 449.5 716.5 M 459.5 0.5 L 459.5 716.5 M 479.5 0.5 L 479.5 716.5 M 489.5 0.5 L 489.5 716.5 M 499.5 0.5 L 499.5 716.5 M 509.5 0.5 L 509.5 716.5 M 529.5 0.5 L 529.5 716.5 M 539.5 0.5 L 539.5 716.5 M 549.5 0.5 L 549.5 716.5 M 559.5 0.5 L 559.5 716.5 M 579.5 0.5 L 579.5 716.5 M 589.5 0.5 L 589.5 716.5 M 599.5 0.5 L 599.5 716.5 M 609.5 0.5 L 609.5 716.5 M 629.5 0.5 L 629.5 716.5 M 639.5 0.5 L 639.5 716.5 M 649.5 0.5 L 649.5 716.5 M 659.5 0.5 L 659.5 716.5 M 679.5 0.5 L 679.5 716.5 M 689.5 0.5 L 689.5 716.5 M 699.5 0.5 L 699.5 716.5 M 709.5 0.5 L 709.5 716.5 M 729.5 0.5 L 729.5 716.5 M 739.5 0.5 L 739.5 716.5 M 749.5 0.5 L 749.5 716.5 M 759.5 0.5 L 759.5 716.5 M 779.5 0.5 L 779.5 716.5 M 789.5 0.5 L 789.5 716.5 M 799.5 0.5 L 799.5 716.5 M 809.5 0.5 L 809.5 716.5 M 829.5 0.5 L 829.5 716.5 M 839.5 0.5 L 839.5 716.5 M 849.5 0.5 L 849.5 716.5 M 859.5 0.5 L 859.5 716.5 M 879.5 0.5 L 879.5 716.5 M 889.5 0.5 L 889.5 716.5 M 899.5 0.5 L 899.5 716.5 M 909.5 0.5 L 909.5 716.5 M 929.5 0.5 L 929.5 716.5 M 939.5 0.5 L 939.5 716.5 M 949.5 0.5 L 949.5 716.5 M 959.5 0.5 L 959.5 716.5 M 979.5 0.5 L 979.5 716.5 M 989.5 0.5 L 989.5 716.5 M 999.5 0.5 L 999.5 716.5 M 1009.5 0.5 L 1009.5 716.5 M 1029.5 0.5 L 1029.5 716.5 M 1039.5 0.5 L 1039.5 716.5 M 1049.5 0.5 L 1049.5 716.5 M 1059.5 0.5 L 1059.5 716.5 M 1079.5 0.5 L 1079.5 716.5 M 1089.5 0.5 L 1089.5 716.5 M 1099.5 0.5 L 1099.5 716.5 M 1109.5 0.5 L 1109.5 716.5 M 1129.5 0.5 L 1129.5 716.5 M 1139.5 0.5 L 1139.5 716.5 M 1149.5 0.5 L 1149.5 716.5 M 1159.5 0.5 L 1159.5 716.5 M 1179.5 0.5 L 1179.5 716.5 M 1189.5 0.5 L 1189.5 716.5 M 1199.5 0.5 L 1199.5 716.5 M 1209.5 0.5 L 1209.5 716.5" stroke-opacity="0.23529411764705882" stroke-linecap="round" stroke-linejoin="round" stroke-miterlimit="10"/><path fill="none" stroke="rgb(192,192,192)" paint-order="fill stroke markers" d=" M 0.5 49.5 L 1212.5 49.5 M 0.5 49.5 L 1212.5 49.5 M 0.5 99.5 L 1212.5 99.5 M 0.5 149.5 L 1212.5 149.5 M 0.5 199.5 L 1212.5 199.5 M 0.5 249.5 L 1212.5 249.5 M 0.5 299.5 L 1212.5 299.5 M 0.5 349.5 L 1212.5 349.5 M 0.5 399.5 L 1212.5 399.5 M 0.5 449.5 L 1212.5 449.5 M 0.5 499.5 L 1212.5 499.5 M 0.5 599.5 L 1212.5 599.5 M 0.5 649.5 L 1212.5 649.5 M 0.5 699.5 L 1212.5 699.5" stroke-opacity="1" stroke-linecap="round" stroke-linejoin="round" stroke-miterlimit="10"/><path fill="none" stroke="rgb(192,192,192)" paint-order="fill stroke markers" d=" M 0.5 9.5 L 1212.5 9.5 M 0.5 19.5 L 1212.5 19.5 M 0.5 29.5 L 1212.5 29.5 M 0.5 39.5 L 1212.5 39.5 M 0.5 59.5 L 1212.5 59.5 M 0.5 69.5 L 1212.5 69.5 M 0.5 79.5 L 1212.5 79.5 M 0.5 89.5 L 1212.5 89.5 M 0.5 109.5 L 1212.5 109.5 M 0.5 119.5 L 1212.5 119.5 M 0.5 129.5 L 1212.5 129.5 M 0.5 139.5 L 1212.5 139.5 M 0.5 159.5 L 1212.5 159.5 M 0.5 169.5 L 1212.5 169.5 M 0.5 179.5 L 1212.5 179.5 M 0.5 189.5 L 1212.5 189.5 M 0.5 209.5 L 1212.5 209.5 M 0.5 219.5 L 1212.5 219.5 M 0.5 229.5 L 1212.5 229.5 M 0.5 239.5 L 1212.5 239.5 M 0.5 259.5 L 1212.5 259.5 M 0.5 269.5 L 1212.5 269.5 M 0.5 279.5 L 1212.5 279.5 M 0.5 289.5 L 1212.5 289.5 M 0.5 309.5 L 1212.5 309.5 M 0.5 319.5 L 1212.5 319.5 M 0.5 329.5 L 1212.5 329.5 M 0.5 339.5 L 1212.5 339.5 M 0.5 359.5 L 1212.5 359.5 M 0.5 369.5 L 1212.5 369.5 M 0.5 379.5 L 1212.5 379.5 M 0.5 389.5 L 1212.5 389.5 M 0.5 409.5 L 1212.5 409.5 M 0.5 419.5 L 1212.5 419.5 M 0.5 429.5 L 1212.5 429.5 M 0.5 439.5 L 1212.5 439.5 M 0.5 459.5 L 1212.5 459.5 M 0.5 469.5 L 1212.5 469.5 M 0.5 479.5 L 1212.5 479.5 M 0.5 489.5 L 1212.5 489.5 M 0.5 509.5 L 1212.5 509.5 M 0.5 519.5 L 1212.5 519.5 M 0.5 529.5 L 1212.5 529.5 M 0.5 539.5 L 1212.5 539.5 M 0.5 559.5 L 1212.5 559.5 M 0.5 569.5 L 1212.5 569.5 M 0.5 579.5 L 1212.5 579.5 M 0.5 589.5 L 1212.5 589.5 M 0.5 609.5 L 1212.5 609.5 M 0.5 619.5 L 1212.5 619.5 M 0.5 629.5 L 1212.5 629.5 M 0.5 639.5 L 1212.5 639.5 M 0.5 659.5 L 1212.5 659.5 M 0.5 669.5 L 1212.5 669.5 M 0.5 679.5 L 1212.5 679.5 M 0.5 689.5 L 1212.5 689.5 M 0.5 709.5 L 1212.5 709.5" stroke-opacity="0.23529411764705882" stroke-linecap="round" stroke-linejoin="round" stroke-miterlimit="10"/><path fill="none" stroke="rgb(0,0,0)" paint-order="fill stroke markers" d=" M 219.5 2.5 L 219.5 716.5" stroke-opacity="1" stroke-miterlimit="10"/><path fill="none" stroke="rgb(0,0,0)" paint-order="fill stroke markers" d=" M 219.5 1.5 L 215.5 5.5" stroke-opacity="1" stroke-miterlimit="10"/><path fill="none" stroke="rgb(0,0,0)" paint-order="fill stroke markers" d=" M 219.5 1.5 L 223.5 5.5" stroke-opacity="1" stroke-miterlimit="10"/><path fill="none" stroke="rgb(0,0,0)" paint-order="fill stroke markers" d=" M 0.5 549.5 L 1210.5 549.5" stroke-opacity="1" stroke-miterlimit="10"/><path fill="none" stroke="rgb(0,0,0)" paint-order="fill stroke markers" d=" M 1211.5 549.5 L 1207.5 545.5" stroke-opacity="1" stroke-miterlimit="10"/><path fill="none" stroke="rgb(0,0,0)" paint-order="fill stroke markers" d=" M 1211.5 549.5 L 1207.5 553.5" stroke-opacity="1" stroke-miterlimit="10"/><text fill="none" stroke="rgb(255,255,255)" font-family="geogebra-sans-serif, sans-serif" font-size="12px" font-style="normal" font-weight="normal" text-decoration="normal" x="15" y="565" text-anchor="start" dominant-baseline="alphabetic" stroke-opacity="1" stroke-linejoin="bevel" stroke-miterlimit="10" stroke-width="3">–4</text><text fill="rgb(0,0,0)" stroke="none" font-family="geogebra-sans-serif, sans-serif" font-size="12px" font-style="normal" font-weight="normal" text-decoration="normal" x="15" y="565" text-anchor="start" dominant-baseline="alphabetic" fill-opacity="1">–4</text><text fill="none" stroke="rgb(255,255,255)" font-family="geogebra-sans-serif, sans-serif" font-size="12px" font-style="normal" font-weight="normal" text-decoration="normal" x="64" y="565" text-anchor="start" dominant-baseline="alphabetic" stroke-opacity="1" stroke-linejoin="bevel" stroke-miterlimit="10" stroke-width="3">–3</text><text fill="rgb(0,0,0)" stroke="none" font-family="geogebra-sans-serif, sans-serif" font-size="12px" font-style="normal" font-weight="normal" text-decoration="normal" x="64" y="565" text-anchor="start" dominant-baseline="alphabetic" fill-opacity="1">–3</text><text fill="none" stroke="rgb(255,255,255)" font-family="geogebra-sans-serif, sans-serif" font-size="12px" font-style="normal" font-weight="normal" text-decoration="normal" x="114" y="565" text-anchor="start" dominant-baseline="alphabetic" stroke-opacity="1" stroke-linejoin="bevel" stroke-miterlimit="10" stroke-width="3">–2</text><text fill="rgb(0,0,0)" stroke="none" font-family="geogebra-sans-serif, sans-serif" font-size="12px" font-style="normal" font-weight="normal" text-decoration="normal" x="114" y="565" text-anchor="start" dominant-baseline="alphabetic" fill-opacity="1">–2</text><text fill="none" stroke="rgb(255,255,255)" font-family="geogebra-sans-serif, sans-serif" font-size="12px" font-style="normal" font-weight="normal" text-decoration="normal" x="164" y="565" text-anchor="start" dominant-baseline="alphabetic" stroke-opacity="1" stroke-linejoin="bevel" stroke-miterlimit="10" stroke-width="3">–1</text><text fill="rgb(0,0,0)" stroke="none" font-family="geogebra-sans-serif, sans-serif" font-size="12px" font-style="normal" font-weight="normal" text-decoration="normal" x="164" y="565" text-anchor="start" dominant-baseline="alphabetic" fill-opacity="1">–1</text><text fill="none" stroke="rgb(255,255,255)" font-family="geogebra-sans-serif, sans-serif" font-size="12px" font-style="normal" font-weight="normal" text-decoration="normal" x="267" y="565" text-anchor="start" dominant-baseline="alphabetic" stroke-opacity="1" stroke-linejoin="bevel" stroke-miterlimit="10" stroke-width="3">1</text><text fill="rgb(0,0,0)" stroke="none" font-family="geogebra-sans-serif, sans-serif" font-size="12px" font-style="normal" font-weight="normal" text-decoration="normal" x="267" y="565" text-anchor="start" dominant-baseline="alphabetic" fill-opacity="1">1</text><text fill="none" stroke="rgb(255,255,255)" font-family="geogebra-sans-serif, sans-serif" font-size="12px" font-style="normal" font-weight="normal" text-decoration="normal" x="317" y="565" text-anchor="start" dominant-baseline="alphabetic" stroke-opacity="1" stroke-linejoin="bevel" stroke-miterlimit="10" stroke-width="3">2</text><text fill="rgb(0,0,0)" stroke="none" font-family="geogebra-sans-serif, sans-serif" font-size="12px" font-style="normal" font-weight="normal" text-decoration="normal" x="317" y="565" text-anchor="start" dominant-baseline="alphabetic" fill-opacity="1">2</text><text fill="none" stroke="rgb(255,255,255)" font-family="geogebra-sans-serif, sans-serif" font-size="12px" font-style="normal" font-weight="normal" text-decoration="normal" x="367" y="565" text-anchor="start" dominant-baseline="alphabetic" stroke-opacity="1" stroke-linejoin="bevel" stroke-miterlimit="10" stroke-width="3">3</text><text fill="rgb(0,0,0)" stroke="none" font-family="geogebra-sans-serif, sans-serif" font-size="12px" font-style="normal" font-weight="normal" text-decoration="normal" x="367" y="565" text-anchor="start" dominant-baseline="alphabetic" fill-opacity="1">3</text><text fill="none" stroke="rgb(255,255,255)" font-family="geogebra-sans-serif, sans-serif" font-size="12px" font-style="normal" font-weight="normal" text-decoration="normal" x="417" y="565" text-anchor="start" dominant-baseline="alphabetic" stroke-opacity="1" stroke-linejoin="bevel" stroke-miterlimit="10" stroke-width="3">4</text><text fill="rgb(0,0,0)" stroke="none" font-family="geogebra-sans-serif, sans-serif" font-size="12px" font-style="normal" font-weight="normal" text-decoration="normal" x="417" y="565" text-anchor="start" dominant-baseline="alphabetic" fill-opacity="1">4</text><text fill="none" stroke="rgb(255,255,255)" font-family="geogebra-sans-serif, sans-serif" font-size="12px" font-style="normal" font-weight="normal" text-decoration="normal" x="467" y="565" text-anchor="start" dominant-baseline="alphabetic" stroke-opacity="1" stroke-linejoin="bevel" stroke-miterlimit="10" stroke-width="3">5</text><text fill="rgb(0,0,0)" stroke="none" font-family="geogebra-sans-serif, sans-serif" font-size="12px" font-style="normal" font-weight="normal" text-decoration="normal" x="467" y="565" text-anchor="start" dominant-baseline="alphabetic" fill-opacity="1">5</text><text fill="none" stroke="rgb(255,255,255)" font-family="geogebra-sans-serif, sans-serif" font-size="12px" font-style="normal" font-weight="normal" text-decoration="normal" x="517" y="565" text-anchor="start" dominant-baseline="alphabetic" stroke-opacity="1" stroke-linejoin="bevel" stroke-miterlimit="10" stroke-width="3">6</text><text fill="rgb(0,0,0)" stroke="none" font-family="geogebra-sans-serif, sans-serif" font-size="12px" font-style="normal" font-weight="normal" text-decoration="normal" x="517" y="565" text-anchor="start" dominant-baseline="alphabetic" fill-opacity="1">6</text><text fill="none" stroke="rgb(255,255,255)" font-family="geogebra-sans-serif, sans-serif" font-size="12px" font-style="normal" font-weight="normal" text-decoration="normal" x="567" y="565" text-anchor="start" dominant-baseline="alphabetic" stroke-opacity="1" stroke-linejoin="bevel" stroke-miterlimit="10" stroke-width="3">7</text><text fill="rgb(0,0,0)" stroke="none" font-family="geogebra-sans-serif, sans-serif" font-size="12px" font-style="normal" font-weight="normal" text-decoration="normal" x="567" y="565" text-anchor="start" dominant-baseline="alphabetic" fill-opacity="1">7</text><text fill="none" stroke="rgb(255,255,255)" font-family="geogebra-sans-serif, sans-serif" font-size="12px" font-style="normal" font-weight="normal" text-decoration="normal" x="617" y="565" text-anchor="start" dominant-baseline="alphabetic" stroke-opacity="1" stroke-linejoin="bevel" stroke-miterlimit="10" stroke-width="3">8</text><text fill="rgb(0,0,0)" stroke="none" font-family="geogebra-sans-serif, sans-serif" font-size="12px" font-style="normal" font-weight="normal" text-decoration="normal" x="617" y="565" text-anchor="start" dominant-baseline="alphabetic" fill-opacity="1">8</text><text fill="none" stroke="rgb(255,255,255)" font-family="geogebra-sans-serif, sans-serif" font-size="12px" font-style="normal" font-weight="normal" text-decoration="normal" x="667" y="565" text-anchor="start" dominant-baseline="alphabetic" stroke-opacity="1" stroke-linejoin="bevel" stroke-miterlimit="10" stroke-width="3">9</text><text fill="rgb(0,0,0)" stroke="none" font-family="geogebra-sans-serif, sans-serif" font-size="12px" font-style="normal" font-weight="normal" text-decoration="normal" x="667" y="565" text-anchor="start" dominant-baseline="alphabetic" fill-opacity="1">9</text><text fill="none" stroke="rgb(255,255,255)" font-family="geogebra-sans-serif, sans-serif" font-size="12px" font-style="normal" font-weight="normal" text-decoration="normal" x="714" y="565" text-anchor="start" dominant-baseline="alphabetic" stroke-opacity="1" stroke-linejoin="bevel" stroke-miterlimit="10" stroke-width="3">10</text><text fill="rgb(0,0,0)" stroke="none" font-family="geogebra-sans-serif, sans-serif" font-size="12px" font-style="normal" font-weight="normal" text-decoration="normal" x="714" y="565" text-anchor="start" dominant-baseline="alphabetic" fill-opacity="1">10</text><text fill="none" stroke="rgb(255,255,255)" font-family="geogebra-sans-serif, sans-serif" font-size="12px" font-style="normal" font-weight="normal" text-decoration="normal" x="764" y="565" text-anchor="start" dominant-baseline="alphabetic" stroke-opacity="1" stroke-linejoin="bevel" stroke-miterlimit="10" stroke-width="3">11</text><text fill="rgb(0,0,0)" stroke="none" font-family="geogebra-sans-serif, sans-serif" font-size="12px" font-style="normal" font-weight="normal" text-decoration="normal" x="764" y="565" text-anchor="start" dominant-baseline="alphabetic" fill-opacity="1">11</text><text fill="none" stroke="rgb(255,255,255)" font-family="geogebra-sans-serif, sans-serif" font-size="12px" font-style="normal" font-weight="normal" text-decoration="normal" x="814" y="565" text-anchor="start" dominant-baseline="alphabetic" stroke-opacity="1" stroke-linejoin="bevel" stroke-miterlimit="10" stroke-width="3">12</text><text fill="rgb(0,0,0)" stroke="none" font-family="geogebra-sans-serif, sans-serif" font-size="12px" font-style="normal" font-weight="normal" text-decoration="normal" x="814" y="565" text-anchor="start" dominant-baseline="alphabetic" fill-opacity="1">12</text><text fill="none" stroke="rgb(255,255,255)" font-family="geogebra-sans-serif, sans-serif" font-size="12px" font-style="normal" font-weight="normal" text-decoration="normal" x="864" y="565" text-anchor="start" dominant-baseline="alphabetic" stroke-opacity="1" stroke-linejoin="bevel" stroke-miterlimit="10" stroke-width="3">13</text><text fill="rgb(0,0,0)" stroke="none" font-family="geogebra-sans-serif, sans-serif" font-size="12px" font-style="normal" font-weight="normal" text-decoration="normal" x="864" y="565" text-anchor="start" dominant-baseline="alphabetic" fill-opacity="1">13</text><text fill="none" stroke="rgb(255,255,255)" font-family="geogebra-sans-serif, sans-serif" font-size="12px" font-style="normal" font-weight="normal" text-decoration="normal" x="914" y="565" text-anchor="start" dominant-baseline="alphabetic" stroke-opacity="1" stroke-linejoin="bevel" stroke-miterlimit="10" stroke-width="3">14</text><text fill="rgb(0,0,0)" stroke="none" font-family="geogebra-sans-serif, sans-serif" font-size="12px" font-style="normal" font-weight="normal" text-decoration="normal" x="914" y="565" text-anchor="start" dominant-baseline="alphabetic" fill-opacity="1">14</text><text fill="none" stroke="rgb(255,255,255)" font-family="geogebra-sans-serif, sans-serif" font-size="12px" font-style="normal" font-weight="normal" text-decoration="normal" x="964" y="565" text-anchor="start" dominant-baseline="alphabetic" stroke-opacity="1" stroke-linejoin="bevel" stroke-miterlimit="10" stroke-width="3">15</text><text fill="rgb(0,0,0)" stroke="none" font-family="geogebra-sans-serif, sans-serif" font-size="12px" font-style="normal" font-weight="normal" text-decoration="normal" x="964" y="565" text-anchor="start" dominant-baseline="alphabetic" fill-opacity="1">15</text><text fill="none" stroke="rgb(255,255,255)" font-family="geogebra-sans-serif, sans-serif" font-size="12px" font-style="normal" font-weight="normal" text-decoration="normal" x="1014" y="565" text-anchor="start" dominant-baseline="alphabetic" stroke-opacity="1" stroke-linejoin="bevel" stroke-miterlimit="10" stroke-width="3">16</text><text fill="rgb(0,0,0)" stroke="none" font-family="geogebra-sans-serif, sans-serif" font-size="12px" font-style="normal" font-weight="normal" text-decoration="normal" x="1014" y="565" text-anchor="start" dominant-baseline="alphabetic" fill-opacity="1">16</text><text fill="none" stroke="rgb(255,255,255)" font-family="geogebra-sans-serif, sans-serif" font-size="12px" font-style="normal" font-weight="normal" text-decoration="normal" x="1064" y="565" text-anchor="start" dominant-baseline="alphabetic" stroke-opacity="1" stroke-linejoin="bevel" stroke-miterlimit="10" stroke-width="3">17</text><text fill="rgb(0,0,0)" stroke="none" font-family="geogebra-sans-serif, sans-serif" font-size="12px" font-style="normal" font-weight="normal" text-decoration="normal" x="1064" y="565" text-anchor="start" dominant-baseline="alphabetic" fill-opacity="1">17</text><text fill="none" stroke="rgb(255,255,255)" font-family="geogebra-sans-serif, sans-serif" font-size="12px" font-style="normal" font-weight="normal" text-decoration="normal" x="1114" y="565" text-anchor="start" dominant-baseline="alphabetic" stroke-opacity="1" stroke-linejoin="bevel" stroke-miterlimit="10" stroke-width="3">18</text><text fill="rgb(0,0,0)" stroke="none" font-family="geogebra-sans-serif, sans-serif" font-size="12px" font-style="normal" font-weight="normal" text-decoration="normal" x="1114" y="565" text-anchor="start" dominant-baseline="alphabetic" fill-opacity="1">18</text><text fill="none" stroke="rgb(255,255,255)" font-family="geogebra-sans-serif, sans-serif" font-size="12px" font-style="normal" font-weight="normal" text-decoration="normal" x="1164" y="565" text-anchor="start" dominant-baseline="alphabetic" stroke-opacity="1" stroke-linejoin="bevel" stroke-miterlimit="10" stroke-width="3">19</text><text fill="rgb(0,0,0)" stroke="none" font-family="geogebra-sans-serif, sans-serif" font-size="12px" font-style="normal" font-weight="normal" text-decoration="normal" x="1164" y="565" text-anchor="start" dominant-baseline="alphabetic" fill-opacity="1">19</text><text fill="none" stroke="rgb(255,255,255)" font-family="geogebra-sans-serif, sans-serif" font-size="12px" font-style="normal" font-weight="normal" text-decoration="normal" x="199" y="704" text-anchor="start" dominant-baseline="alphabetic" stroke-opacity="1" stroke-linejoin="bevel" stroke-miterlimit="10" stroke-width="3">–3</text><text fill="rgb(0,0,0)" stroke="none" font-family="geogebra-sans-serif, sans-serif" font-size="12px" font-style="normal" font-weight="normal" text-decoration="normal" x="199" y="704" text-anchor="start" dominant-baseline="alphabetic" fill-opacity="1">–3</text><text fill="none" stroke="rgb(255,255,255)" font-family="geogebra-sans-serif, sans-serif" font-size="12px" font-style="normal" font-weight="normal" text-decoration="normal" x="199" y="654" text-anchor="start" dominant-baseline="alphabetic" stroke-opacity="1" stroke-linejoin="bevel" stroke-miterlimit="10" stroke-width="3">–2</text><text fill="rgb(0,0,0)" stroke="none" font-family="geogebra-sans-serif, sans-serif" font-size="12px" font-style="normal" font-weight="normal" text-decoration="normal" x="199" y="654" text-anchor="start" dominant-baseline="alphabetic" fill-opacity="1">–2</text><text fill="none" stroke="rgb(255,255,255)" font-family="geogebra-sans-serif, sans-serif" font-size="12px" font-style="normal" font-weight="normal" text-decoration="normal" x="199" y="604" text-anchor="start" dominant-baseline="alphabetic" stroke-opacity="1" stroke-linejoin="bevel" stroke-miterlimit="10" stroke-width="3">–1</text><text fill="rgb(0,0,0)" stroke="none" font-family="geogebra-sans-serif, sans-serif" font-size="12px" font-style="normal" font-weight="normal" text-decoration="normal" x="199" y="604" text-anchor="start" dominant-baseline="alphabetic" fill-opacity="1">–1</text><text fill="none" stroke="rgb(255,255,255)" font-family="geogebra-sans-serif, sans-serif" font-size="12px" font-style="normal" font-weight="normal" text-decoration="normal" x="205" y="504" text-anchor="start" dominant-baseline="alphabetic" stroke-opacity="1" stroke-linejoin="bevel" stroke-miterlimit="10" stroke-width="3">1</text><text fill="rgb(0,0,0)" stroke="none" font-family="geogebra-sans-serif, sans-serif" font-size="12px" font-style="normal" font-weight="normal" text-decoration="normal" x="205" y="504" text-anchor="start" dominant-baseline="alphabetic" fill-opacity="1">1</text><text fill="none" stroke="rgb(255,255,255)" font-family="geogebra-sans-serif, sans-serif" font-size="12px" font-style="normal" font-weight="normal" text-decoration="normal" x="205" y="454" text-anchor="start" dominant-baseline="alphabetic" stroke-opacity="1" stroke-linejoin="bevel" stroke-miterlimit="10" stroke-width="3">2</text><text fill="rgb(0,0,0)" stroke="none" font-family="geogebra-sans-serif, sans-serif" font-size="12px" font-style="normal" font-weight="normal" text-decoration="normal" x="205" y="454" text-anchor="start" dominant-baseline="alphabetic" fill-opacity="1">2</text><text fill="none" stroke="rgb(255,255,255)" font-family="geogebra-sans-serif, sans-serif" font-size="12px" font-style="normal" font-weight="normal" text-decoration="normal" x="205" y="404" text-anchor="start" dominant-baseline="alphabetic" stroke-opacity="1" stroke-linejoin="bevel" stroke-miterlimit="10" stroke-width="3">3</text><text fill="rgb(0,0,0)" stroke="none" font-family="geogebra-sans-serif, sans-serif" font-size="12px" font-style="normal" font-weight="normal" text-decoration="normal" x="205" y="404" text-anchor="start" dominant-baseline="alphabetic" fill-opacity="1">3</text><text fill="none" stroke="rgb(255,255,255)" font-family="geogebra-sans-serif, sans-serif" font-size="12px" font-style="normal" font-weight="normal" text-decoration="normal" x="205" y="354" text-anchor="start" dominant-baseline="alphabetic" stroke-opacity="1" stroke-linejoin="bevel" stroke-miterlimit="10" stroke-width="3">4</text><text fill="rgb(0,0,0)" stroke="none" font-family="geogebra-sans-serif, sans-serif" font-size="12px" font-style="normal" font-weight="normal" text-decoration="normal" x="205" y="354" text-anchor="start" dominant-baseline="alphabetic" fill-opacity="1">4</text><text fill="none" stroke="rgb(255,255,255)" font-family="geogebra-sans-serif, sans-serif" font-size="12px" font-style="normal" font-weight="normal" text-decoration="normal" x="205" y="304" text-anchor="start" dominant-baseline="alphabetic" stroke-opacity="1" stroke-linejoin="bevel" stroke-miterlimit="10" stroke-width="3">5</text><text fill="rgb(0,0,0)" stroke="none" font-family="geogebra-sans-serif, sans-serif" font-size="12px" font-style="normal" font-weight="normal" text-decoration="normal" x="205" y="304" text-anchor="start" dominant-baseline="alphabetic" fill-opacity="1">5</text><text fill="none" stroke="rgb(255,255,255)" font-family="geogebra-sans-serif, sans-serif" font-size="12px" font-style="normal" font-weight="normal" text-decoration="normal" x="205" y="254" text-anchor="start" dominant-baseline="alphabetic" stroke-opacity="1" stroke-linejoin="bevel" stroke-miterlimit="10" stroke-width="3">6</text><text fill="rgb(0,0,0)" stroke="none" font-family="geogebra-sans-serif, sans-serif" font-size="12px" font-style="normal" font-weight="normal" text-decoration="normal" x="205" y="254" text-anchor="start" dominant-baseline="alphabetic" fill-opacity="1">6</text><text fill="none" stroke="rgb(255,255,255)" font-family="geogebra-sans-serif, sans-serif" font-size="12px" font-style="normal" font-weight="normal" text-decoration="normal" x="205" y="204" text-anchor="start" dominant-baseline="alphabetic" stroke-opacity="1" stroke-linejoin="bevel" stroke-miterlimit="10" stroke-width="3">7</text><text fill="rgb(0,0,0)" stroke="none" font-family="geogebra-sans-serif, sans-serif" font-size="12px" font-style="normal" font-weight="normal" text-decoration="normal" x="205" y="204" text-anchor="start" dominant-baseline="alphabetic" fill-opacity="1">7</text><text fill="none" stroke="rgb(255,255,255)" font-family="geogebra-sans-serif, sans-serif" font-size="12px" font-style="normal" font-weight="normal" text-decoration="normal" x="205" y="154" text-anchor="start" dominant-baseline="alphabetic" stroke-opacity="1" stroke-linejoin="bevel" stroke-miterlimit="10" stroke-width="3">8</text><text fill="rgb(0,0,0)" stroke="none" font-family="geogebra-sans-serif, sans-serif" font-size="12px" font-style="normal" font-weight="normal" text-decoration="normal" x="205" y="154" text-anchor="start" dominant-baseline="alphabetic" fill-opacity="1">8</text><text fill="none" stroke="rgb(255,255,255)" font-family="geogebra-sans-serif, sans-serif" font-size="12px" font-style="normal" font-weight="normal" text-decoration="normal" x="205" y="104" text-anchor="start" dominant-baseline="alphabetic" stroke-opacity="1" stroke-linejoin="bevel" stroke-miterlimit="10" stroke-width="3">9</text><text fill="rgb(0,0,0)" stroke="none" font-family="geogebra-sans-serif, sans-serif" font-size="12px" font-style="normal" font-weight="normal" text-decoration="normal" x="205" y="104" text-anchor="start" dominant-baseline="alphabetic" fill-opacity="1">9</text><text fill="none" stroke="rgb(255,255,255)" font-family="geogebra-sans-serif, sans-serif" font-size="12px" font-style="normal" font-weight="normal" text-decoration="normal" x="198" y="54" text-anchor="start" dominant-baseline="alphabetic" stroke-opacity="1" stroke-linejoin="bevel" stroke-miterlimit="10" stroke-width="3">10</text><text fill="rgb(0,0,0)" stroke="none" font-family="geogebra-sans-serif, sans-serif" font-size="12px" font-style="normal" font-weight="normal" text-decoration="normal" x="198" y="54" text-anchor="start" dominant-baseline="alphabetic" fill-opacity="1">10</text><text fill="none" stroke="rgb(255,255,255)" font-family="geogebra-sans-serif, sans-serif" font-size="12px" font-style="normal" font-weight="normal" text-decoration="normal" x="205" y="565" text-anchor="start" dominant-baseline="alphabetic" stroke-opacity="1" stroke-linejoin="bevel" stroke-miterlimit="10" stroke-width="3">0</text><text fill="rgb(0,0,0)" stroke="none" font-family="geogebra-sans-serif, sans-serif" font-size="12px" font-style="normal" font-weight="normal" text-decoration="normal" x="205" y="565" text-anchor="start" dominant-baseline="alphabetic" fill-opacity="1">0</text><path fill="none" stroke="rgb(0,0,0)" paint-order="fill stroke markers" d=" M 219.99999999999986 149 L 269.99999999999983 149" stroke-opacity="0.6980392156862745" stroke-linecap="round" stroke-linejoin="round" stroke-miterlimit="10" stroke-width="2.5"/><path fill="none" stroke="rgb(0,0,0)" paint-order="fill stroke markers" d=" M 269.99999999999983 149 L 269.99999999999983 549" stroke-opacity="0.6980392156862745" stroke-linecap="round" stroke-linejoin="round" stroke-miterlimit="10" stroke-width="2.5"/><path fill="none" stroke="rgb(0,0,0)" paint-order="fill stroke markers" d=" M 219.99999999999986 249 L 319.9999999999998 249" stroke-opacity="0.6980392156862745" stroke-linecap="round" stroke-linejoin="round" stroke-miterlimit="10" stroke-width="2.5"/><path fill="none" stroke="rgb(0,0,0)" paint-order="fill stroke markers" d=" M 319.9999999999998 249 L 319.9999999999998 549" stroke-opacity="0.6980392156862745" stroke-linecap="round" stroke-linejoin="round" stroke-miterlimit="10" stroke-width="2.5"/><path fill="none" stroke="rgb(0,0,0)" paint-order="fill stroke markers" d=" M 219.99999999999986 299 L 419.9999999999997 299" stroke-opacity="0.6980392156862745" stroke-linecap="round" stroke-linejoin="round" stroke-miterlimit="10" stroke-width="2.5"/><path fill="none" stroke="rgb(0,0,0)" paint-order="fill stroke markers" d=" M 419.9999999999997 549 L 419.9999999999997 299" stroke-opacity="0.6980392156862745" stroke-linecap="round" stroke-linejoin="round" stroke-miterlimit="10" stroke-width="2.5"/><path fill="none" stroke="rgb(0,0,0)" paint-order="fill stroke markers" d=" M 219.99999999999986 349 L 519.9999999999997 349" stroke-opacity="0.6980392156862745" stroke-linecap="round" stroke-linejoin="round" stroke-miterlimit="10" stroke-width="2.5"/><path fill="none" stroke="rgb(0,0,0)" paint-order="fill stroke markers" d=" M 519.9999999999997 549 L 519.9999999999997 349" stroke-opacity="0.6980392156862745" stroke-linecap="round" stroke-linejoin="round" stroke-miterlimit="10" stroke-width="2.5"/><path fill="none" stroke="rgb(0,0,0)" paint-order="fill stroke markers" d=" M 219.99999999999986 399 L 569.9999999999997 399" stroke-opacity="0.6980392156862745" stroke-linecap="round" stroke-linejoin="round" stroke-miterlimit="10" stroke-width="2.5"/><path fill="none" stroke="rgb(0,0,0)" paint-order="fill stroke markers" d=" M 569.9999999999997 399 L 569.9999999999997 549" stroke-opacity="0.6980392156862745" stroke-linecap="round" stroke-linejoin="round" stroke-miterlimit="10" stroke-width="2.5"/><path fill="none" stroke="rgb(0,0,0)" paint-order="fill stroke markers" d=" M 219.99999999999986 449 L 669.9999999999995 449" stroke-opacity="0.6980392156862745" stroke-linecap="round" stroke-linejoin="round" stroke-miterlimit="10" stroke-width="2.5"/><path fill="none" stroke="rgb(0,0,0)" paint-order="fill stroke markers" d=" M 669.9999999999995 449 L 669.9999999999995 549" stroke-opacity="0.6980392156862745" stroke-linecap="round" stroke-linejoin="round" stroke-miterlimit="10" stroke-width="2.5"/><path fill="none" stroke="rgb(0,0,0)" paint-order="fill stroke markers" d=" M 219.99999999999986 499 L 719.9999999999995 499" stroke-opacity="0.6980392156862745" stroke-linecap="round" stroke-linejoin="round" stroke-miterlimit="10" stroke-width="2.5"/><path fill="none" stroke="rgb(0,0,0)" paint-order="fill stroke markers" d=" M 719.9999999999995 499 L 719.9999999999995 549" stroke-opacity="0.6980392156862745" stroke-linecap="round" stroke-linejoin="round" stroke-miterlimit="10" stroke-width="2.5"/><path fill="rgb(77,77,255)" stroke="none" paint-order="stroke fill markers" d=" M 274.99999999999983 149 C 274.99999999999983 151.76142374915398 272.7614237491538 154 269.99999999999983 154 C 267.2385762508459 154 264.99999999999983 151.76142374915398 264.99999999999983 149 C 264.99999999999983 146.23857625084602 267.2385762508459 144 269.99999999999983 144 C 272.7614237491538 144 274.99999999999983 146.23857625084602 274.99999999999983 149 Z" fill-opacity="1"/><path fill="none" stroke="rgb(0,0,0)" paint-order="fill stroke markers" d=" M 274.99999999999983 149 C 274.99999999999983 151.76142374915398 272.7614237491538 154 269.99999999999983 154 C 267.2385762508459 154 264.99999999999983 151.76142374915398 264.99999999999983 149 C 264.99999999999983 146.23857625084602 267.2385762508459 144 269.99999999999983 144 C 272.7614237491538 144 274.99999999999983 146.23857625084602 274.99999999999983 149 Z" stroke-opacity="1" stroke-linecap="round" stroke-linejoin="round" stroke-miterlimit="10"/><path fill="rgb(77,77,255)" stroke="none" paint-order="stroke fill markers" d=" M 324.9999999999998 249 C 324.9999999999998 251.76142374915398 322.7614237491537 254 319.9999999999998 254 C 317.2385762508458 254 314.9999999999998 251.76142374915398 314.9999999999998 249 C 314.9999999999998 246.23857625084602 317.2385762508458 244 319.9999999999998 244 C 322.7614237491537 244 324.9999999999998 246.23857625084602 324.9999999999998 249 Z" fill-opacity="1"/><path fill="none" stroke="rgb(0,0,0)" paint-order="fill stroke markers" d=" M 324.9999999999998 249 C 324.9999999999998 251.76142374915398 322.7614237491537 254 319.9999999999998 254 C 317.2385762508458 254 314.9999999999998 251.76142374915398 314.9999999999998 249 C 314.9999999999998 246.23857625084602 317.2385762508458 244 319.9999999999998 244 C 322.7614237491537 244 324.9999999999998 246.23857625084602 324.9999999999998 249 Z" stroke-opacity="1" stroke-linecap="round" stroke-linejoin="round" stroke-miterlimit="10"/><path fill="rgb(77,77,255)" stroke="none" paint-order="stroke fill markers" d=" M 424.9999999999997 299 C 424.9999999999997 301.76142374915395 422.76142374915366 304 419.9999999999997 304 C 417.23857625084577 304 414.9999999999997 301.76142374915395 414.9999999999997 299 C 414.9999999999997 296.23857625084605 417.23857625084577 294 419.9999999999997 294 C 422.76142374915366 294 424.9999999999997 296.23857625084605 424.9999999999997 299 Z" fill-opacity="1"/><path fill="none" stroke="rgb(0,0,0)" paint-order="fill stroke markers" d=" M 424.9999999999997 299 C 424.9999999999997 301.76142374915395 422.76142374915366 304 419.9999999999997 304 C 417.23857625084577 304 414.9999999999997 301.76142374915395 414.9999999999997 299 C 414.9999999999997 296.23857625084605 417.23857625084577 294 419.9999999999997 294 C 422.76142374915366 294 424.9999999999997 296.23857625084605 424.9999999999997 299 Z" stroke-opacity="1" stroke-linecap="round" stroke-linejoin="round" stroke-miterlimit="10"/><path fill="rgb(77,77,255)" stroke="none" paint-order="stroke fill markers" d=" M 524.9999999999997 349 C 524.9999999999997 351.76142374915395 522.7614237491537 354 519.9999999999997 354 C 517.2385762508457 354 514.9999999999997 351.76142374915395 514.9999999999997 349 C 514.9999999999997 346.23857625084605 517.2385762508457 344 519.9999999999997 344 C 522.7614237491537 344 524.9999999999997 346.23857625084605 524.9999999999997 349 Z" fill-opacity="1"/><path fill="none" stroke="rgb(0,0,0)" paint-order="fill stroke markers" d=" M 524.9999999999997 349 C 524.9999999999997 351.76142374915395 522.7614237491537 354 519.9999999999997 354 C 517.2385762508457 354 514.9999999999997 351.76142374915395 514.9999999999997 349 C 514.9999999999997 346.23857625084605 517.2385762508457 344 519.9999999999997 344 C 522.7614237491537 344 524.9999999999997 346.23857625084605 524.9999999999997 349 Z" stroke-opacity="1" stroke-linecap="round" stroke-linejoin="round" stroke-miterlimit="10"/><path fill="rgb(77,77,255)" stroke="none" paint-order="stroke fill markers" d=" M 574.9999999999997 399 C 574.9999999999997 401.76142374915395 572.7614237491537 404 569.9999999999997 404 C 567.2385762508457 404 564.9999999999997 401.76142374915395 564.9999999999997 399 C 564.9999999999997 396.23857625084605 567.2385762508457 394 569.9999999999997 394 C 572.7614237491537 394 574.9999999999997 396.23857625084605 574.9999999999997 399 Z" fill-opacity="1"/><path fill="none" stroke="rgb(0,0,0)" paint-order="fill stroke markers" d=" M 574.9999999999997 399 C 574.9999999999997 401.76142374915395 572.7614237491537 404 569.9999999999997 404 C 567.2385762508457 404 564.9999999999997 401.76142374915395 564.9999999999997 399 C 564.9999999999997 396.23857625084605 567.2385762508457 394 569.9999999999997 394 C 572.7614237491537 394 574.9999999999997 396.23857625084605 574.9999999999997 399 Z" stroke-opacity="1" stroke-linecap="round" stroke-linejoin="round" stroke-miterlimit="10"/><path fill="rgb(77,77,255)" stroke="none" paint-order="stroke fill markers" d=" M 674.9999999999995 449 C 674.9999999999995 451.76142374915395 672.7614237491536 454 669.9999999999995 454 C 667.2385762508455 454 664.9999999999995 451.76142374915395 664.9999999999995 449 C 664.9999999999995 446.23857625084605 667.2385762508455 444 669.9999999999995 444 C 672.7614237491536 444 674.9999999999995 446.23857625084605 674.9999999999995 449 Z" fill-opacity="1"/><path fill="none" stroke="rgb(0,0,0)" paint-order="fill stroke markers" d=" M 674.9999999999995 449 C 674.9999999999995 451.76142374915395 672.7614237491536 454 669.9999999999995 454 C 667.2385762508455 454 664.9999999999995 451.76142374915395 664.9999999999995 449 C 664.9999999999995 446.23857625084605 667.2385762508455 444 669.9999999999995 444 C 672.7614237491536 444 674.9999999999995 446.23857625084605 674.9999999999995 449 Z" stroke-opacity="1" stroke-linecap="round" stroke-linejoin="round" stroke-miterlimit="10"/><path fill="rgb(77,77,255)" stroke="none" paint-order="stroke fill markers" d=" M 724.9999999999995 499 C 724.9999999999995 501.76142374915395 722.7614237491536 504 719.9999999999995 504 C 717.2385762508455 504 714.9999999999995 501.76142374915395 714.9999999999995 499 C 714.9999999999995 496.23857625084605 717.2385762508455 494 719.9999999999995 494 C 722.7614237491536 494 724.9999999999995 496.23857625084605 724.9999999999995 499 Z" fill-opacity="1"/><path fill="none" stroke="rgb(0,0,0)" paint-order="fill stroke markers" d=" M 724.9999999999995 499 C 724.9999999999995 501.76142374915395 722.7614237491536 504 719.9999999999995 504 C 717.2385762508455 504 714.9999999999995 501.76142374915395 714.9999999999995 499 C 714.9999999999995 496.23857625084605 717.2385762508455 494 719.9999999999995 494 C 722.7614237491536 494 724.9999999999995 496.23857625084605 724.9999999999995 499 Z" stroke-opacity="1" stroke-linecap="round" stroke-linejoin="round" stroke-miterlimit="10"/><path fill="rgb(125,125,255)" stroke="none" paint-order="stroke fill markers" d=" M 220.99999999999986 149 C 220.99999999999986 149.5522847498308 220.55228474983065 150 219.99999999999986 150 C 219.44771525016907 150 218.99999999999986 149.5522847498308 218.99999999999986 149 C 218.99999999999986 148.4477152501692 219.44771525016907 148 219.99999999999986 148 C 220.55228474983065 148 220.99999999999986 148.4477152501692 220.99999999999986 149 Z" fill-opacity="1"/><path fill="none" stroke="rgb(0,0,0)" paint-order="fill stroke markers" d=" M 220.99999999999986 149 C 220.99999999999986 149.5522847498308 220.55228474983065 150 219.99999999999986 150 C 219.44771525016907 150 218.99999999999986 149.5522847498308 218.99999999999986 149 C 218.99999999999986 148.4477152501692 219.44771525016907 148 219.99999999999986 148 C 220.55228474983065 148 220.99999999999986 148.4477152501692 220.99999999999986 149 Z" stroke-opacity="1" stroke-linecap="round" stroke-linejoin="round" stroke-miterlimit="10"/><path fill="rgb(125,125,255)" stroke="none" paint-order="stroke fill markers" d=" M 270.99999999999983 549 C 270.99999999999983 549.5522847498308 270.5522847498306 550 269.99999999999983 550 C 269.44771525016904 550 268.99999999999983 549.5522847498308 268.99999999999983 549 C 268.99999999999983 548.4477152501692 269.44771525016904 548 269.99999999999983 548 C 270.5522847498306 548 270.99999999999983 548.4477152501692 270.99999999999983 549 Z" fill-opacity="1"/><path fill="none" stroke="rgb(0,0,0)" paint-order="fill stroke markers" d=" M 270.99999999999983 549 C 270.99999999999983 549.5522847498308 270.5522847498306 550 269.99999999999983 550 C 269.44771525016904 550 268.99999999999983 549.5522847498308 268.99999999999983 549 C 268.99999999999983 548.4477152501692 269.44771525016904 548 269.99999999999983 548 C 270.5522847498306 548 270.99999999999983 548.4477152501692 270.99999999999983 549 Z" stroke-opacity="1" stroke-linecap="round" stroke-linejoin="round" stroke-miterlimit="10"/><path fill="rgb(125,125,255)" stroke="none" paint-order="stroke fill markers" d=" M 220.99999999999986 249 C 220.99999999999986 249.5522847498308 220.55228474983065 250 219.99999999999986 250 C 219.44771525016907 250 218.99999999999986 249.5522847498308 218.99999999999986 249 C 218.99999999999986 248.4477152501692 219.44771525016907 248 219.99999999999986 248 C 220.55228474983065 248 220.99999999999986 248.4477152501692 220.99999999999986 249 Z" fill-opacity="1"/><path fill="none" stroke="rgb(0,0,0)" paint-order="fill stroke markers" d=" M 220.99999999999986 249 C 220.99999999999986 249.5522847498308 220.55228474983065 250 219.99999999999986 250 C 219.44771525016907 250 218.99999999999986 249.5522847498308 218.99999999999986 249 C 218.99999999999986 248.4477152501692 219.44771525016907 248 219.99999999999986 248 C 220.55228474983065 248 220.99999999999986 248.4477152501692 220.99999999999986 249 Z" stroke-opacity="1" stroke-linecap="round" stroke-linejoin="round" stroke-miterlimit="10"/><path fill="rgb(125,125,255)" stroke="none" paint-order="stroke fill markers" d=" M 320.9999999999998 549 C 320.9999999999998 549.5522847498308 320.55228474983056 550 319.9999999999998 550 C 319.447715250169 550 318.9999999999998 549.5522847498308 318.9999999999998 549 C 318.9999999999998 548.4477152501692 319.447715250169 548 319.9999999999998 548 C 320.55228474983056 548 320.9999999999998 548.4477152501692 320.9999999999998 549 Z" fill-opacity="1"/><path fill="none" stroke="rgb(0,0,0)" paint-order="fill stroke markers" d=" M 320.9999999999998 549 C 320.9999999999998 549.5522847498308 320.55228474983056 550 319.9999999999998 550 C 319.447715250169 550 318.9999999999998 549.5522847498308 318.9999999999998 549 C 318.9999999999998 548.4477152501692 319.447715250169 548 319.9999999999998 548 C 320.55228474983056 548 320.9999999999998 548.4477152501692 320.9999999999998 549 Z" stroke-opacity="1" stroke-linecap="round" stroke-linejoin="round" stroke-miterlimit="10"/><path fill="rgb(125,125,255)" stroke="none" paint-order="stroke fill markers" d=" M 220.99999999999986 299 C 220.99999999999986 299.5522847498308 220.55228474983065 300 219.99999999999986 300 C 219.44771525016907 300 218.99999999999986 299.5522847498308 218.99999999999986 299 C 218.99999999999986 298.4477152501692 219.44771525016907 298 219.99999999999986 298 C 220.55228474983065 298 220.99999999999986 298.4477152501692 220.99999999999986 299 Z" fill-opacity="1"/><path fill="none" stroke="rgb(0,0,0)" paint-order="fill stroke markers" d=" M 220.99999999999986 299 C 220.99999999999986 299.5522847498308 220.55228474983065 300 219.99999999999986 300 C 219.44771525016907 300 218.99999999999986 299.5522847498308 218.99999999999986 299 C 218.99999999999986 298.4477152501692 219.44771525016907 298 219.99999999999986 298 C 220.55228474983065 298 220.99999999999986 298.4477152501692 220.99999999999986 299 Z" stroke-opacity="1" stroke-linecap="round" stroke-linejoin="round" stroke-miterlimit="10"/><path fill="rgb(77,77,255)" stroke="none" paint-order="stroke fill markers" d=" M 420.9999999999997 549 C 420.9999999999997 549.5522847498308 420.5522847498305 550 419.9999999999997 550 C 419.4477152501689 550 418.9999999999997 549.5522847498308 418.9999999999997 549 C 418.9999999999997 548.4477152501692 419.4477152501689 548 419.9999999999997 548 C 420.5522847498305 548 420.9999999999997 548.4477152501692 420.9999999999997 549 Z" fill-opacity="1"/><path fill="none" stroke="rgb(0,0,0)" paint-order="fill stroke markers" d=" M 420.9999999999997 549 C 420.9999999999997 549.5522847498308 420.5522847498305 550 419.9999999999997 550 C 419.4477152501689 550 418.9999999999997 549.5522847498308 418.9999999999997 549 C 418.9999999999997 548.4477152501692 419.4477152501689 548 419.9999999999997 548 C 420.5522847498305 548 420.9999999999997 548.4477152501692 420.9999999999997 549 Z" stroke-opacity="1" stroke-linecap="round" stroke-linejoin="round" stroke-miterlimit="10"/><path fill="rgb(125,125,255)" stroke="none" paint-order="stroke fill markers" d=" M 220.99999999999986 349 C 220.99999999999986 349.5522847498308 220.55228474983065 350 219.99999999999986 350 C 219.44771525016907 350 218.99999999999986 349.5522847498308 218.99999999999986 349 C 218.99999999999986 348.4477152501692 219.44771525016907 348 219.99999999999986 348 C 220.55228474983065 348 220.99999999999986 348.4477152501692 220.99999999999986 349 Z" fill-opacity="1"/><path fill="none" stroke="rgb(0,0,0)" paint-order="fill stroke markers" d=" M 220.99999999999986 349 C 220.99999999999986 349.5522847498308 220.55228474983065 350 219.99999999999986 350 C 219.44771525016907 350 218.99999999999986 349.5522847498308 218.99999999999986 349 C 218.99999999999986 348.4477152501692 219.44771525016907 348 219.99999999999986 348 C 220.55228474983065 348 220.99999999999986 348.4477152501692 220.99999999999986 349 Z" stroke-opacity="1" stroke-linecap="round" stroke-linejoin="round" stroke-miterlimit="10"/><path fill="rgb(125,125,255)" stroke="none" paint-order="stroke fill markers" d=" M 520.9999999999997 549 C 520.9999999999997 549.5522847498308 520.5522847498305 550 519.9999999999997 550 C 519.4477152501688 550 518.9999999999997 549.5522847498308 518.9999999999997 549 C 518.9999999999997 548.4477152501692 519.4477152501688 548 519.9999999999997 548 C 520.5522847498305 548 520.9999999999997 548.4477152501692 520.9999999999997 549 Z" fill-opacity="1"/><path fill="none" stroke="rgb(0,0,0)" paint-order="fill stroke markers" d=" M 520.9999999999997 549 C 520.9999999999997 549.5522847498308 520.5522847498305 550 519.9999999999997 550 C 519.4477152501688 550 518.9999999999997 549.5522847498308 518.9999999999997 549 C 518.9999999999997 548.4477152501692 519.4477152501688 548 519.9999999999997 548 C 520.5522847498305 548 520.9999999999997 548.4477152501692 520.9999999999997 549 Z" stroke-opacity="1" stroke-linecap="round" stroke-linejoin="round" stroke-miterlimit="10"/><path fill="rgb(125,125,255)" stroke="none" paint-order="stroke fill markers" d=" M 220.99999999999986 399 C 220.99999999999986 399.5522847498308 220.55228474983065 400 219.99999999999986 400 C 219.44771525016907 400 218.99999999999986 399.5522847498308 218.99999999999986 399 C 218.99999999999986 398.4477152501692 219.44771525016907 398 219.99999999999986 398 C 220.55228474983065 398 220.99999999999986 398.4477152501692 220.99999999999986 399 Z" fill-opacity="1"/><path fill="none" stroke="rgb(0,0,0)" paint-order="fill stroke markers" d=" M 220.99999999999986 399 C 220.99999999999986 399.5522847498308 220.55228474983065 400 219.99999999999986 400 C 219.44771525016907 400 218.99999999999986 399.5522847498308 218.99999999999986 399 C 218.99999999999986 398.4477152501692 219.44771525016907 398 219.99999999999986 398 C 220.55228474983065 398 220.99999999999986 398.4477152501692 220.99999999999986 399 Z" stroke-opacity="1" stroke-linecap="round" stroke-linejoin="round" stroke-miterlimit="10"/><path fill="rgb(125,125,255)" stroke="none" paint-order="stroke fill markers" d=" M 570.9999999999997 549 C 570.9999999999997 549.5522847498308 570.5522847498305 550 569.9999999999997 550 C 569.4477152501688 550 568.9999999999997 549.5522847498308 568.9999999999997 549 C 568.9999999999997 548.4477152501692 569.4477152501688 548 569.9999999999997 548 C 570.5522847498305 548 570.9999999999997 548.4477152501692 570.9999999999997 549 Z" fill-opacity="1"/><path fill="none" stroke="rgb(0,0,0)" paint-order="fill stroke markers" d=" M 570.9999999999997 549 C 570.9999999999997 549.5522847498308 570.5522847498305 550 569.9999999999997 550 C 569.4477152501688 550 568.9999999999997 549.5522847498308 568.9999999999997 549 C 568.9999999999997 548.4477152501692 569.4477152501688 548 569.9999999999997 548 C 570.5522847498305 548 570.9999999999997 548.4477152501692 570.9999999999997 549 Z" stroke-opacity="1" stroke-linecap="round" stroke-linejoin="round" stroke-miterlimit="10"/><path fill="rgb(125,125,255)" stroke="none" paint-order="stroke fill markers" d=" M 220.99999999999986 449 C 220.99999999999986 449.5522847498308 220.55228474983065 450 219.99999999999986 450 C 219.44771525016907 450 218.99999999999986 449.5522847498308 218.99999999999986 449 C 218.99999999999986 448.4477152501692 219.44771525016907 448 219.99999999999986 448 C 220.55228474983065 448 220.99999999999986 448.4477152501692 220.99999999999986 449 Z" fill-opacity="1"/><path fill="none" stroke="rgb(0,0,0)" paint-order="fill stroke markers" d=" M 220.99999999999986 449 C 220.99999999999986 449.5522847498308 220.55228474983065 450 219.99999999999986 450 C 219.44771525016907 450 218.99999999999986 449.5522847498308 218.99999999999986 449 C 218.99999999999986 448.4477152501692 219.44771525016907 448 219.99999999999986 448 C 220.55228474983065 448 220.99999999999986 448.4477152501692 220.99999999999986 449 Z" stroke-opacity="1" stroke-linecap="round" stroke-linejoin="round" stroke-miterlimit="10"/><path fill="rgb(125,125,255)" stroke="none" paint-order="stroke fill markers" d=" M 670.9999999999995 549 C 670.9999999999995 549.5522847498308 670.5522847498304 550 669.9999999999995 550 C 669.4477152501687 550 668.9999999999995 549.5522847498308 668.9999999999995 549 C 668.9999999999995 548.4477152501692 669.4477152501687 548 669.9999999999995 548 C 670.5522847498304 548 670.9999999999995 548.4477152501692 670.9999999999995 549 Z" fill-opacity="1"/><path fill="none" stroke="rgb(0,0,0)" paint-order="fill stroke markers" d=" M 670.9999999999995 549 C 670.9999999999995 549.5522847498308 670.5522847498304 550 669.9999999999995 550 C 669.4477152501687 550 668.9999999999995 549.5522847498308 668.9999999999995 549 C 668.9999999999995 548.4477152501692 669.4477152501687 548 669.9999999999995 548 C 670.5522847498304 548 670.9999999999995 548.4477152501692 670.9999999999995 549 Z" stroke-opacity="1" stroke-linecap="round" stroke-linejoin="round" stroke-miterlimit="10"/><path fill="rgb(77,77,255)" stroke="none" paint-order="stroke fill markers" d=" M 220.99999999999986 499 C 220.99999999999986 499.5522847498308 220.55228474983065 500 219.99999999999986 500 C 219.44771525016907 500 218.99999999999986 499.5522847498308 218.99999999999986 499 C 218.99999999999986 498.4477152501692 219.44771525016907 498 219.99999999999986 498 C 220.55228474983065 498 220.99999999999986 498.4477152501692 220.99999999999986 499 Z" fill-opacity="1"/><path fill="none" stroke="rgb(0,0,0)" paint-order="fill stroke markers" d=" M 220.99999999999986 499 C 220.99999999999986 499.5522847498308 220.55228474983065 500 219.99999999999986 500 C 219.44771525016907 500 218.99999999999986 499.5522847498308 218.99999999999986 499 C 218.99999999999986 498.4477152501692 219.44771525016907 498 219.99999999999986 498 C 220.55228474983065 498 220.99999999999986 498.4477152501692 220.99999999999986 499 Z" stroke-opacity="1" stroke-linecap="round" stroke-linejoin="round" stroke-miterlimit="10"/><path fill="rgb(125,125,255)" stroke="none" paint-order="stroke fill markers" d=" M 720.9999999999995 549 C 720.9999999999995 549.5522847498308 720.5522847498304 550 719.9999999999995 550 C 719.4477152501687 550 718.9999999999995 549.5522847498308 718.9999999999995 549 C 718.9999999999995 548.4477152501692 719.4477152501687 548 719.9999999999995 548 C 720.5522847498304 548 720.9999999999995 548.4477152501692 720.9999999999995 549 Z" fill-opacity="1"/><path fill="none" stroke="rgb(0,0,0)" paint-order="fill stroke markers" d=" M 720.9999999999995 549 C 720.9999999999995 549.5522847498308 720.5522847498304 550 719.9999999999995 550 C 719.4477152501687 550 718.9999999999995 549.5522847498308 718.9999999999995 549 C 718.9999999999995 548.4477152501692 719.4477152501687 548 719.9999999999995 548 C 720.5522847498304 548 720.9999999999995 548.4477152501692 720.9999999999995 549 Z" stroke-opacity="1" stroke-linecap="round" stroke-linejoin="round" stroke-miterlimit="10"/></g></g></svg>