<svg version="1.1" xmlns="http://www.w3.org/2000/svg" xmlns:xlink="http://www.w3.org/1999/xlink" width="1220" height="736"><defs><clipPath id="TTKpfsFRvkwR"><path fill="none" stroke="none" d=" M 0 0 L 1220 0 L 1220 736 L 0 736 L 0 0 Z"/></clipPath></defs><g transform="scale(1,1)" clip-path="url(#TTKpfsFRvkwR)"><g><rect fill="rgb(255,255,255)" stroke="none" x="0" y="0" width="1220" height="736" fill-opacity="1"/><path fill="none" stroke="rgb(0,0,0)" paint-order="fill stroke markers" d=" M 0.5 558.5 L 1218.5 558.5" stroke-opacity="1" stroke-miterlimit="10"/><path fill="none" stroke="rgb(0,0,0)" paint-order="fill stroke markers" d=" M 1219.5 558.5 L 1215.5 554.5" stroke-opacity="1" stroke-miterlimit="10"/><path fill="none" stroke="rgb(0,0,0)" paint-order="fill stroke markers" d=" M 1219.5 558.5 L 1215.5 562.5" stroke-opacity="1" stroke-miterlimit="10"/><text fill="none" stroke="rgb(255,255,255)" font-family="geogebra-sans-serif, sans-serif" font-size="12px" font-style="normal" font-weight="normal" text-decoration="normal" x="60" y="574" text-anchor="start" dominant-baseline="alphabetic" stroke-opacity="1" stroke-linejoin="bevel" stroke-miterlimit="10" stroke-width="3">–1</text><text fill="rgb(0,0,0)" stroke="none" font-family="geogebra-sans-serif, sans-serif" font-size="12px" font-style="normal" font-weight="normal" text-decoration="normal" x="60" y="574" text-anchor="start" dominant-baseline="alphabetic" fill-opacity="1">–1</text><path fill="none" stroke="rgb(0,0,0)" paint-order="fill stroke markers" d=" M 65.5 558.5 L 65.5 561.5" stroke-opacity="1" stroke-miterlimit="10"/><path fill="none" stroke="rgb(0,0,0)" paint-order="fill stroke markers" d=" M 145.5 558.5 L 145.5 561.5" stroke-opacity="1" stroke-miterlimit="10"/><text fill="none" stroke="rgb(255,255,255)" font-family="geogebra-sans-serif, sans-serif" font-size="12px" font-style="normal" font-weight="normal" text-decoration="normal" x="224" y="574" text-anchor="start" dominant-baseline="alphabetic" stroke-opacity="1" stroke-linejoin="bevel" stroke-miterlimit="10" stroke-width="3">1</text><text fill="rgb(0,0,0)" stroke="none" font-family="geogebra-sans-serif, sans-serif" font-size="12px" font-style="normal" font-weight="normal" text-decoration="normal" x="224" y="574" text-anchor="start" dominant-baseline="alphabetic" fill-opacity="1">1</text><path fill="none" stroke="rgb(0,0,0)" paint-order="fill stroke markers" d=" M 226.5 558.5 L 226.5 561.5" stroke-opacity="1" stroke-miterlimit="10"/><text fill="none" stroke="rgb(255,255,255)" font-family="geogebra-sans-serif, sans-serif" font-size="12px" font-style="normal" font-weight="normal" text-decoration="normal" x="304" y="574" text-anchor="start" dominant-baseline="alphabetic" stroke-opacity="1" stroke-linejoin="bevel" stroke-miterlimit="10" stroke-width="3">2</text><text fill="rgb(0,0,0)" stroke="none" font-family="geogebra-sans-serif, sans-serif" font-size="12px" font-style="normal" font-weight="normal" text-decoration="normal" x="304" y="574" text-anchor="start" dominant-baseline="alphabetic" fill-opacity="1">2</text><path fill="none" stroke="rgb(0,0,0)" paint-order="fill stroke markers" d=" M 306.5 558.5 L 306.5 561.5" stroke-opacity="1" stroke-miterlimit="10"/><text fill="none" stroke="rgb(255,255,255)" font-family="geogebra-sans-serif, sans-serif" font-size="12px" font-style="normal" font-weight="normal" text-decoration="normal" x="385" y="574" text-anchor="start" dominant-baseline="alphabetic" stroke-opacity="1" stroke-linejoin="bevel" stroke-miterlimit="10" stroke-width="3">3</text><text fill="rgb(0,0,0)" stroke="none" font-family="geogebra-sans-serif, sans-serif" font-size="12px" font-style="normal" font-weight="normal" text-decoration="normal" x="385" y="574" text-anchor="start" dominant-baseline="alphabetic" fill-opacity="1">3</text><path fill="none" stroke="rgb(0,0,0)" paint-order="fill stroke markers" d=" M 387.5 558.5 L 387.5 561.5" stroke-opacity="1" stroke-miterlimit="10"/><text fill="none" stroke="rgb(255,255,255)" font-family="geogebra-sans-serif, sans-serif" font-size="12px" font-style="normal" font-weight="normal" text-decoration="normal" x="465" y="574" text-anchor="start" dominant-baseline="alphabetic" stroke-opacity="1" stroke-linejoin="bevel" stroke-miterlimit="10" stroke-width="3">4</text><text fill="rgb(0,0,0)" stroke="none" font-family="geogebra-sans-serif, sans-serif" font-size="12px" font-style="normal" font-weight="normal" text-decoration="normal" x="465" y="574" text-anchor="start" dominant-baseline="alphabetic" fill-opacity="1">4</text><path fill="none" stroke="rgb(0,0,0)" paint-order="fill stroke markers" d=" M 467.5 558.5 L 467.5 561.5" stroke-opacity="1" stroke-miterlimit="10"/><text fill="none" stroke="rgb(255,255,255)" font-family="geogebra-sans-serif, sans-serif" font-size="12px" font-style="normal" font-weight="normal" text-decoration="normal" x="546" y="574" text-anchor="start" dominant-baseline="alphabetic" stroke-opacity="1" stroke-linejoin="bevel" stroke-miterlimit="10" stroke-width="3">5</text><text fill="rgb(0,0,0)" stroke="none" font-family="geogebra-sans-serif, sans-serif" font-size="12px" font-style="normal" font-weight="normal" text-decoration="normal" x="546" y="574" text-anchor="start" dominant-baseline="alphabetic" fill-opacity="1">5</text><path fill="none" stroke="rgb(0,0,0)" paint-order="fill stroke markers" d=" M 548.5 558.5 L 548.5 561.5" stroke-opacity="1" stroke-miterlimit="10"/><text fill="none" stroke="rgb(255,255,255)" font-family="geogebra-sans-serif, sans-serif" font-size="12px" font-style="normal" font-weight="normal" text-decoration="normal" x="626" y="574" text-anchor="start" dominant-baseline="alphabetic" stroke-opacity="1" stroke-linejoin="bevel" stroke-miterlimit="10" stroke-width="3">6</text><text fill="rgb(0,0,0)" stroke="none" font-family="geogebra-sans-serif, sans-serif" font-size="12px" font-style="normal" font-weight="normal" text-decoration="normal" x="626" y="574" text-anchor="start" dominant-baseline="alphabetic" fill-opacity="1">6</text><path fill="none" stroke="rgb(0,0,0)" paint-order="fill stroke markers" d=" M 628.5 558.5 L 628.5 561.5" stroke-opacity="1" stroke-miterlimit="10"/><text fill="none" stroke="rgb(255,255,255)" font-family="geogebra-sans-serif, sans-serif" font-size="12px" font-style="normal" font-weight="normal" text-decoration="normal" x="707" y="574" text-anchor="start" dominant-baseline="alphabetic" stroke-opacity="1" stroke-linejoin="bevel" stroke-miterlimit="10" stroke-width="3">7</text><text fill="rgb(0,0,0)" stroke="none" font-family="geogebra-sans-serif, sans-serif" font-size="12px" font-style="normal" font-weight="normal" text-decoration="normal" x="707" y="574" text-anchor="start" dominant-baseline="alphabetic" fill-opacity="1">7</text><path fill="none" stroke="rgb(0,0,0)" paint-order="fill stroke markers" d=" M 709.5 558.5 L 709.5 561.5" stroke-opacity="1" stroke-miterlimit="10"/><text fill="none" stroke="rgb(255,255,255)" font-family="geogebra-sans-serif, sans-serif" font-size="12px" font-style="normal" font-weight="normal" text-decoration="normal" x="787" y="574" text-anchor="start" dominant-baseline="alphabetic" stroke-opacity="1" stroke-linejoin="bevel" stroke-miterlimit="10" stroke-width="3">8</text><text fill="rgb(0,0,0)" stroke="none" font-family="geogebra-sans-serif, sans-serif" font-size="12px" font-style="normal" font-weight="normal" text-decoration="normal" x="787" y="574" text-anchor="start" dominant-baseline="alphabetic" fill-opacity="1">8</text><path fill="none" stroke="rgb(0,0,0)" paint-order="fill stroke markers" d=" M 789.5 558.5 L 789.5 561.5" stroke-opacity="1" stroke-miterlimit="10"/><text fill="none" stroke="rgb(255,255,255)" font-family="geogebra-sans-serif, sans-serif" font-size="12px" font-style="normal" font-weight="normal" text-decoration="normal" x="868" y="574" text-anchor="start" dominant-baseline="alphabetic" stroke-opacity="1" stroke-linejoin="bevel" stroke-miterlimit="10" stroke-width="3">9</text><text fill="rgb(0,0,0)" stroke="none" font-family="geogebra-sans-serif, sans-serif" font-size="12px" font-style="normal" font-weight="normal" text-decoration="normal" x="868" y="574" text-anchor="start" dominant-baseline="alphabetic" fill-opacity="1">9</text><path fill="none" stroke="rgb(0,0,0)" paint-order="fill stroke markers" d=" M 870.5 558.5 L 870.5 561.5" stroke-opacity="1" stroke-miterlimit="10"/><text fill="none" stroke="rgb(255,255,255)" font-family="geogebra-sans-serif, sans-serif" font-size="12px" font-style="normal" font-weight="normal" text-decoration="normal" x="945" y="574" text-anchor="start" dominant-baseline="alphabetic" stroke-opacity="1" stroke-linejoin="bevel" stroke-miterlimit="10" stroke-width="3">10</text><text fill="rgb(0,0,0)" stroke="none" font-family="geogebra-sans-serif, sans-serif" font-size="12px" font-style="normal" font-weight="normal" text-decoration="normal" x="945" y="574" text-anchor="start" dominant-baseline="alphabetic" fill-opacity="1">10</text><path fill="none" stroke="rgb(0,0,0)" paint-order="fill stroke markers" d=" M 950.5 558.5 L 950.5 561.5" stroke-opacity="1" stroke-miterlimit="10"/><text fill="none" stroke="rgb(255,255,255)" font-family="geogebra-sans-serif, sans-serif" font-size="12px" font-style="normal" font-weight="normal" text-decoration="normal" x="1026" y="574" text-anchor="start" dominant-baseline="alphabetic" stroke-opacity="1" stroke-linejoin="bevel" stroke-miterlimit="10" stroke-width="3">11</text><text fill="rgb(0,0,0)" stroke="none" font-family="geogebra-sans-serif, sans-serif" font-size="12px" font-style="normal" font-weight="normal" text-decoration="normal" x="1026" y="574" text-anchor="start" dominant-baseline="alphabetic" fill-opacity="1">11</text><path fill="none" stroke="rgb(0,0,0)" paint-order="fill stroke markers" d=" M 1031.5 558.5 L 1031.5 561.5" stroke-opacity="1" stroke-miterlimit="10"/><text fill="none" stroke="rgb(255,255,255)" font-family="geogebra-sans-serif, sans-serif" font-size="12px" font-style="normal" font-weight="normal" text-decoration="normal" x="1106" y="574" text-anchor="start" dominant-baseline="alphabetic" stroke-opacity="1" stroke-linejoin="bevel" stroke-miterlimit="10" stroke-width="3">12</text><text fill="rgb(0,0,0)" stroke="none" font-family="geogebra-sans-serif, sans-serif" font-size="12px" font-style="normal" font-weight="normal" text-decoration="normal" x="1106" y="574" text-anchor="start" dominant-baseline="alphabetic" fill-opacity="1">12</text><path fill="none" stroke="rgb(0,0,0)" paint-order="fill stroke markers" d=" M 1111.5 558.5 L 1111.5 561.5" stroke-opacity="1" stroke-miterlimit="10"/><text fill="none" stroke="rgb(255,255,255)" font-family="geogebra-sans-serif, sans-serif" font-size="12px" font-style="normal" font-weight="normal" text-decoration="normal" x="1187" y="574" text-anchor="start" dominant-baseline="alphabetic" stroke-opacity="1" stroke-linejoin="bevel" stroke-miterlimit="10" stroke-width="3">13</text><text fill="rgb(0,0,0)" stroke="none" font-family="geogebra-sans-serif, sans-serif" font-size="12px" font-style="normal" font-weight="normal" text-decoration="normal" x="1187" y="574" text-anchor="start" dominant-baseline="alphabetic" fill-opacity="1">13</text><path fill="none" stroke="rgb(0,0,0)" paint-order="fill stroke markers" d=" M 1192.5 558.5 L 1192.5 561.5" stroke-opacity="1" stroke-miterlimit="10"/><text fill="none" stroke="rgb(255,255,255)" font-family="geogebra-sans-serif, sans-serif" font-size="12px" font-style="normal" font-weight="normal" text-decoration="normal" x="142" y="574" text-anchor="start" dominant-baseline="alphabetic" stroke-opacity="1" stroke-linejoin="bevel" stroke-miterlimit="10" stroke-width="3">0</text><text fill="rgb(0,0,0)" stroke="none" font-family="geogebra-sans-serif, sans-serif" font-size="12px" font-style="normal" font-weight="normal" text-decoration="normal" x="142" y="574" text-anchor="start" dominant-baseline="alphabetic" fill-opacity="1">0</text><path fill="none" stroke="rgb(204,204,255)" paint-order="fill stroke markers" d=" M 467.75791 156.24040999999983 L 467.75791 558.8679100000002" stroke-opacity="0.8" stroke-linecap="round" stroke-linejoin="round" stroke-miterlimit="10" stroke-width="2.5"/><path fill="none" stroke="rgb(204,204,255)" paint-order="fill stroke markers" d=" M 306.7069099999999 317.29141 L 306.7069099999999 558.8679100000002" stroke-opacity="0.8" stroke-linecap="round" stroke-linejoin="round" stroke-miterlimit="10" stroke-width="2.5"/><path fill="none" stroke="rgb(204,204,255)" paint-order="fill stroke markers" d=" M 789.8599100000001 317.29141 L 789.8599100000001 558.8679100000002" stroke-opacity="0.8" stroke-linecap="round" stroke-linejoin="round" stroke-miterlimit="10" stroke-width="2.5"/><path fill="none" stroke="rgb(97,97,97)" paint-order="fill stroke markers" d=" M 628.8089100000001 397.81691 L 628.8089100000001 558.8679100000002" stroke-opacity="0.8" stroke-linecap="round" stroke-linejoin="round" stroke-miterlimit="10" stroke-width="2.5"/><path fill="none" stroke="rgb(97,97,97)" paint-order="fill stroke markers" d=" M 467.75791 156.24040999999983 L 318.72772528017117 305.2705947198287" stroke-opacity="0.8" stroke-linecap="round" stroke-linejoin="round" stroke-miterlimit="10" stroke-width="2.5"/><path fill="rgb(97,97,97)" stroke="none" paint-order="stroke fill markers" fill-rule="evenodd" d=" M 306.7069099999999 317.29141 L 315.72252146012835 302.26539089978587 L 321.732929100214 308.2757985398715 Z" fill-opacity="0.8"/><path fill="none" stroke="rgb(97,97,97)" paint-order="fill stroke markers" d=" M 467.75791 156.24040999999983 L 774.6546477530015 309.6887788765007" stroke-opacity="0.8" stroke-linecap="round" stroke-linejoin="round" stroke-miterlimit="10" stroke-width="2.5"/><path fill="rgb(97,97,97)" stroke="none" paint-order="stroke fill markers" fill-rule="evenodd" d=" M 789.8599100000001 317.29141 L 772.7539899721268 313.4900944382503 L 776.5553055338763 305.8874633147511 Z" fill-opacity="0.8"/><path fill="none" stroke="rgb(97,97,97)" paint-order="fill stroke markers" d=" M 306.7069099999999 317.29141 L 233.71557209266072 386.1511627427728" stroke-opacity="0.8" stroke-linecap="round" stroke-linejoin="round" stroke-miterlimit="10" stroke-width="2.5"/><path fill="rgb(97,97,97)" stroke="none" paint-order="stroke fill markers" fill-rule="evenodd" d=" M 221.34987999999987 397.81691 L 230.7991352783539 383.0597397196076 L 236.63200890696754 389.242585765938 Z" fill-opacity="0.8"/><path fill="none" stroke="rgb(97,97,97)" paint-order="fill stroke markers" d=" M 306.7069099999999 317.29141 L 375.21159471982867 385.7960947198287" stroke-opacity="0.8" stroke-linecap="round" stroke-linejoin="round" stroke-miterlimit="10" stroke-width="2.5"/><path fill="rgb(97,97,97)" stroke="none" paint-order="stroke fill markers" fill-rule="evenodd" d=" M 387.23240999999996 397.81691 L 372.20639089978584 388.80129853987154 L 378.2167985398715 382.7908908997859 Z" fill-opacity="0.8"/><path fill="none" stroke="rgb(97,97,97)" paint-order="fill stroke markers" d=" M 789.8599100000001 317.29141 L 644.0141722469987 390.2142788765007" stroke-opacity="0.8" stroke-linecap="round" stroke-linejoin="round" stroke-miterlimit="10" stroke-width="2.5"/><path fill="rgb(97,97,97)" stroke="none" paint-order="stroke fill markers" fill-rule="evenodd" d=" M 628.8089100000001 397.81691 L 642.1135144661239 386.4129633147511 L 645.9148300278734 394.01559443825033 Z" fill-opacity="0.8"/><path fill="none" stroke="rgb(97,97,97)" paint-order="fill stroke markers" d=" M 789.8599100000001 317.29141 L 858.3645947198289 385.7960947198287" stroke-opacity="0.8" stroke-linecap="round" stroke-linejoin="round" stroke-miterlimit="10" stroke-width="2.5"/><path fill="rgb(97,97,97)" stroke="none" paint-order="stroke fill markers" fill-rule="evenodd" d=" M 870.3854100000002 397.81691 L 855.359390899786 388.80129853987154 L 861.3697985398718 382.7908908997859 Z" fill-opacity="0.8"/><path fill="none" stroke="rgb(97,97,97)" paint-order="fill stroke markers" d=" M 628.8089100000001 397.81691 L 563.277471079225 466.0788255424739" stroke-opacity="0.8" stroke-linecap="round" stroke-linejoin="round" stroke-miterlimit="10" stroke-width="2.5"/><path fill="rgb(97,97,97)" stroke="none" paint-order="stroke fill markers" fill-rule="evenodd" d=" M 551.50443 478.3424100000001 L 560.2115749648435 463.13556527266763 L 566.3433671936066 469.0220858122802 Z" fill-opacity="0.8"/><path fill="none" stroke="rgb(97,97,97)" paint-order="fill stroke markers" d=" M 628.8089100000001 397.81691 L 692.859409850946 465.955739628666" stroke-opacity="0.8" stroke-linecap="round" stroke-linejoin="round" stroke-miterlimit="10" stroke-width="2.5"/><path fill="rgb(97,97,97)" stroke="none" paint-order="stroke fill markers" fill-rule="evenodd" d=" M 704.5028800000001 478.3424100000001 L 689.7627422581124 468.8666071659295 L 695.9560774437796 463.04487209140245 Z" fill-opacity="0.8"/><path fill="rgb(255,0,51)" stroke="none" paint-order="stroke fill markers" d=" M 472.75791 156.24040999999983 C 472.75791 159.0018337491538 470.51933374915393 161.24040999999983 467.75791 161.24040999999983 C 464.99648625084603 161.24040999999983 462.75791 159.0018337491538 462.75791 156.24040999999983 C 462.75791 153.47898625084585 464.99648625084603 151.24040999999983 467.75791 151.24040999999983 C 470.51933374915393 151.24040999999983 472.75791 153.47898625084585 472.75791 156.24040999999983 Z" fill-opacity="1"/><path fill="none" stroke="rgb(0,0,0)" paint-order="fill stroke markers" d=" M 472.75791 156.24040999999983 C 472.75791 159.0018337491538 470.51933374915393 161.24040999999983 467.75791 161.24040999999983 C 464.99648625084603 161.24040999999983 462.75791 159.0018337491538 462.75791 156.24040999999983 C 462.75791 153.47898625084585 464.99648625084603 151.24040999999983 467.75791 151.24040999999983 C 470.51933374915393 151.24040999999983 472.75791 153.47898625084585 472.75791 156.24040999999983 Z" stroke-opacity="1" stroke-linecap="round" stroke-linejoin="round" stroke-miterlimit="10"/><path fill="rgb(0,0,0)" stroke="none" paint-order="stroke fill markers" d=" M 311.7069099999999 317.29141 C 311.7069099999999 320.05283374915393 309.4683337491538 322.29141 306.7069099999999 322.29141 C 303.94548625084593 322.29141 301.7069099999999 320.05283374915393 301.7069099999999 317.29141 C 301.7069099999999 314.52998625084604 303.94548625084593 312.29141 306.7069099999999 312.29141 C 309.4683337491538 312.29141 311.7069099999999 314.52998625084604 311.7069099999999 317.29141 Z" fill-opacity="1"/><path fill="none" stroke="rgb(0,0,0)" paint-order="fill stroke markers" d=" M 311.7069099999999 317.29141 C 311.7069099999999 320.05283374915393 309.4683337491538 322.29141 306.7069099999999 322.29141 C 303.94548625084593 322.29141 301.7069099999999 320.05283374915393 301.7069099999999 317.29141 C 301.7069099999999 314.52998625084604 303.94548625084593 312.29141 306.7069099999999 312.29141 C 309.4683337491538 312.29141 311.7069099999999 314.52998625084604 311.7069099999999 317.29141 Z" stroke-opacity="1" stroke-linecap="round" stroke-linejoin="round" stroke-miterlimit="10"/><path fill="rgb(0,0,0)" stroke="none" paint-order="stroke fill markers" d=" M 794.8599100000001 317.29141 C 794.8599100000001 320.05283374915393 792.6213337491541 322.29141 789.8599100000001 322.29141 C 787.0984862508461 322.29141 784.8599100000001 320.05283374915393 784.8599100000001 317.29141 C 784.8599100000001 314.52998625084604 787.0984862508461 312.29141 789.8599100000001 312.29141 C 792.6213337491541 312.29141 794.8599100000001 314.52998625084604 794.8599100000001 317.29141 Z" fill-opacity="1"/><path fill="none" stroke="rgb(0,0,0)" paint-order="fill stroke markers" d=" M 794.8599100000001 317.29141 C 794.8599100000001 320.05283374915393 792.6213337491541 322.29141 789.8599100000001 322.29141 C 787.0984862508461 322.29141 784.8599100000001 320.05283374915393 784.8599100000001 317.29141 C 784.8599100000001 314.52998625084604 787.0984862508461 312.29141 789.8599100000001 312.29141 C 792.6213337491541 312.29141 794.8599100000001 314.52998625084604 794.8599100000001 317.29141 Z" stroke-opacity="1" stroke-linecap="round" stroke-linejoin="round" stroke-miterlimit="10"/><path fill="rgb(219,97,20)" stroke="none" paint-order="stroke fill markers" d=" M 226.34987999999987 397.81691 C 226.34987999999987 400.57833374915396 224.11130374915385 402.81691 221.34987999999987 402.81691 C 218.5884562508459 402.81691 216.34987999999987 400.57833374915396 216.34987999999987 397.81691 C 216.34987999999987 395.05548625084606 218.5884562508459 392.81691 221.34987999999987 392.81691 C 224.11130374915385 392.81691 226.34987999999987 395.05548625084606 226.34987999999987 397.81691 Z" fill-opacity="1"/><path fill="none" stroke="rgb(0,0,0)" paint-order="fill stroke markers" d=" M 226.34987999999987 397.81691 C 226.34987999999987 400.57833374915396 224.11130374915385 402.81691 221.34987999999987 402.81691 C 218.5884562508459 402.81691 216.34987999999987 400.57833374915396 216.34987999999987 397.81691 C 216.34987999999987 395.05548625084606 218.5884562508459 392.81691 221.34987999999987 392.81691 C 224.11130374915385 392.81691 226.34987999999987 395.05548625084606 226.34987999999987 397.81691 Z" stroke-opacity="1" stroke-linecap="round" stroke-linejoin="round" stroke-miterlimit="10"/><path fill="rgb(219,97,20)" stroke="none" paint-order="stroke fill markers" d=" M 392.23240999999996 397.81691 C 392.23240999999996 400.57833374915396 389.9938337491539 402.81691 387.23240999999996 402.81691 C 384.470986250846 402.81691 382.23240999999996 400.57833374915396 382.23240999999996 397.81691 C 382.23240999999996 395.05548625084606 384.470986250846 392.81691 387.23240999999996 392.81691 C 389.9938337491539 392.81691 392.23240999999996 395.05548625084606 392.23240999999996 397.81691 Z" fill-opacity="1"/><path fill="none" stroke="rgb(0,0,0)" paint-order="fill stroke markers" d=" M 392.23240999999996 397.81691 C 392.23240999999996 400.57833374915396 389.9938337491539 402.81691 387.23240999999996 402.81691 C 384.470986250846 402.81691 382.23240999999996 400.57833374915396 382.23240999999996 397.81691 C 382.23240999999996 395.05548625084606 384.470986250846 392.81691 387.23240999999996 392.81691 C 389.9938337491539 392.81691 392.23240999999996 395.05548625084606 392.23240999999996 397.81691 Z" stroke-opacity="1" stroke-linecap="round" stroke-linejoin="round" stroke-miterlimit="10"/><path fill="rgb(219,97,20)" stroke="none" paint-order="stroke fill markers" d=" M 633.8089100000001 397.81691 C 633.8089100000001 400.57833374915396 631.5703337491541 402.81691 628.8089100000001 402.81691 C 626.0474862508461 402.81691 623.8089100000001 400.57833374915396 623.8089100000001 397.81691 C 623.8089100000001 395.05548625084606 626.0474862508461 392.81691 628.8089100000001 392.81691 C 631.5703337491541 392.81691 633.8089100000001 395.05548625084606 633.8089100000001 397.81691 Z" fill-opacity="1"/><path fill="none" stroke="rgb(0,0,0)" paint-order="fill stroke markers" d=" M 633.8089100000001 397.81691 C 633.8089100000001 400.57833374915396 631.5703337491541 402.81691 628.8089100000001 402.81691 C 626.0474862508461 402.81691 623.8089100000001 400.57833374915396 623.8089100000001 397.81691 C 623.8089100000001 395.05548625084606 626.0474862508461 392.81691 628.8089100000001 392.81691 C 631.5703337491541 392.81691 633.8089100000001 395.05548625084606 633.8089100000001 397.81691 Z" stroke-opacity="1" stroke-linecap="round" stroke-linejoin="round" stroke-miterlimit="10"/><path fill="rgb(219,97,20)" stroke="none" paint-order="stroke fill markers" d=" M 875.3854100000002 397.81691 C 875.3854100000002 400.57833374915396 873.1468337491542 402.81691 870.3854100000002 402.81691 C 867.6239862508462 402.81691 865.3854100000002 400.57833374915396 865.3854100000002 397.81691 C 865.3854100000002 395.05548625084606 867.6239862508462 392.81691 870.3854100000002 392.81691 C 873.1468337491542 392.81691 875.3854100000002 395.05548625084606 875.3854100000002 397.81691 Z" fill-opacity="1"/><path fill="none" stroke="rgb(0,0,0)" paint-order="fill stroke markers" d=" M 875.3854100000002 397.81691 C 875.3854100000002 400.57833374915396 873.1468337491542 402.81691 870.3854100000002 402.81691 C 867.6239862508462 402.81691 865.3854100000002 400.57833374915396 865.3854100000002 397.81691 C 865.3854100000002 395.05548625084606 867.6239862508462 392.81691 870.3854100000002 392.81691 C 873.1468337491542 392.81691 875.3854100000002 395.05548625084606 875.3854100000002 397.81691 Z" stroke-opacity="1" stroke-linecap="round" stroke-linejoin="round" stroke-miterlimit="10"/><path fill="rgb(101,87,210)" stroke="none" paint-order="stroke fill markers" d=" M 556.50443 478.3424100000001 C 556.50443 481.10383374915403 554.265853749154 483.3424100000001 551.50443 483.3424100000001 C 548.743006250846 483.3424100000001 546.50443 481.10383374915403 546.50443 478.3424100000001 C 546.50443 475.58098625084614 548.743006250846 473.3424100000001 551.50443 473.3424100000001 C 554.265853749154 473.3424100000001 556.50443 475.58098625084614 556.50443 478.3424100000001 Z" fill-opacity="1"/><path fill="none" stroke="rgb(0,0,0)" paint-order="fill stroke markers" d=" M 556.50443 478.3424100000001 C 556.50443 481.10383374915403 554.265853749154 483.3424100000001 551.50443 483.3424100000001 C 548.743006250846 483.3424100000001 546.50443 481.10383374915403 546.50443 478.3424100000001 C 546.50443 475.58098625084614 548.743006250846 473.3424100000001 551.50443 473.3424100000001 C 554.265853749154 473.3424100000001 556.50443 475.58098625084614 556.50443 478.3424100000001 Z" stroke-opacity="1" stroke-linecap="round" stroke-linejoin="round" stroke-miterlimit="10"/><path fill="rgb(101,87,210)" stroke="none" paint-order="stroke fill markers" d=" M 709.5028800000001 478.3424100000001 C 709.5028800000001 481.10383374915403 707.2643037491541 483.3424100000001 704.5028800000001 483.3424100000001 C 701.7414562508461 483.3424100000001 699.5028800000001 481.10383374915403 699.5028800000001 478.3424100000001 C 699.5028800000001 475.58098625084614 701.7414562508461 473.3424100000001 704.5028800000001 473.3424100000001 C 707.2643037491541 473.3424100000001 709.5028800000001 475.58098625084614 709.5028800000001 478.3424100000001 Z" fill-opacity="1"/><path fill="none" stroke="rgb(0,0,0)" paint-order="fill stroke markers" d=" M 709.5028800000001 478.3424100000001 C 709.5028800000001 481.10383374915403 707.2643037491541 483.3424100000001 704.5028800000001 483.3424100000001 C 701.7414562508461 483.3424100000001 699.5028800000001 481.10383374915403 699.5028800000001 478.3424100000001 C 699.5028800000001 475.58098625084614 701.7414562508461 473.3424100000001 704.5028800000001 473.3424100000001 C 707.2643037491541 473.3424100000001 709.5028800000001 475.58098625084614 709.5028800000001 478.3424100000001 Z" stroke-opacity="1" stroke-linecap="round" stroke-linejoin="round" stroke-miterlimit="10"/><path fill="rgb(0,0,0)" stroke="none" paint-order="stroke fill markers" d=" M 468.75791 558.8679100000002 C 468.75791 559.420194749831 468.31019474983077 559.8679100000002 467.75791 559.8679100000002 C 467.2056252501692 559.8679100000002 466.75791 559.420194749831 466.75791 558.8679100000002 C 466.75791 558.3156252501693 467.2056252501692 557.8679100000002 467.75791 557.8679100000002 C 468.31019474983077 557.8679100000002 468.75791 558.3156252501693 468.75791 558.8679100000002 Z" fill-opacity="1"/><path fill="rgb(21,101,192)" stroke="none" paint-order="stroke fill markers" d=" M 307.7069099999999 558.8679100000002 C 307.7069099999999 559.420194749831 307.25919474983067 559.8679100000002 306.7069099999999 559.8679100000002 C 306.1546252501691 559.8679100000002 305.7069099999999 559.420194749831 305.7069099999999 558.8679100000002 C 305.7069099999999 558.3156252501693 306.1546252501691 557.8679100000002 306.7069099999999 557.8679100000002 C 307.25919474983067 557.8679100000002 307.7069099999999 558.3156252501693 307.7069099999999 558.8679100000002 Z" fill-opacity="1"/><path fill="none" stroke="rgb(0,0,0)" paint-order="fill stroke markers" d=" M 307.7069099999999 558.8679100000002 C 307.7069099999999 559.420194749831 307.25919474983067 559.8679100000002 306.7069099999999 559.8679100000002 C 306.1546252501691 559.8679100000002 305.7069099999999 559.420194749831 305.7069099999999 558.8679100000002 C 305.7069099999999 558.3156252501693 306.1546252501691 557.8679100000002 306.7069099999999 557.8679100000002 C 307.25919474983067 557.8679100000002 307.7069099999999 558.3156252501693 307.7069099999999 558.8679100000002 Z" stroke-opacity="1" stroke-linecap="round" stroke-linejoin="round" stroke-miterlimit="10"/><path fill="rgb(21,101,192)" stroke="none" paint-order="stroke fill markers" d=" M 790.8599100000001 558.8679100000002 C 790.8599100000001 559.420194749831 790.412194749831 559.8679100000002 789.8599100000001 559.8679100000002 C 789.3076252501693 559.8679100000002 788.8599100000001 559.420194749831 788.8599100000001 558.8679100000002 C 788.8599100000001 558.3156252501693 789.3076252501693 557.8679100000002 789.8599100000001 557.8679100000002 C 790.412194749831 557.8679100000002 790.8599100000001 558.3156252501693 790.8599100000001 558.8679100000002 Z" fill-opacity="1"/><path fill="none" stroke="rgb(0,0,0)" paint-order="fill stroke markers" d=" M 790.8599100000001 558.8679100000002 C 790.8599100000001 559.420194749831 790.412194749831 559.8679100000002 789.8599100000001 559.8679100000002 C 789.3076252501693 559.8679100000002 788.8599100000001 559.420194749831 788.8599100000001 558.8679100000002 C 788.8599100000001 558.3156252501693 789.3076252501693 557.8679100000002 789.8599100000001 557.8679100000002 C 790.412194749831 557.8679100000002 790.8599100000001 558.3156252501693 790.8599100000001 558.8679100000002 Z" stroke-opacity="1" stroke-linecap="round" stroke-linejoin="round" stroke-miterlimit="10"/><path fill="rgb(21,101,192)" stroke="none" paint-order="stroke fill markers" d=" M 629.8089100000001 558.8679100000002 C 629.8089100000001 559.420194749831 629.3611947498309 559.8679100000002 628.8089100000001 559.8679100000002 C 628.2566252501692 559.8679100000002 627.8089100000001 559.420194749831 627.8089100000001 558.8679100000002 C 627.8089100000001 558.3156252501693 628.2566252501692 557.8679100000002 628.8089100000001 557.8679100000002 C 629.3611947498309 557.8679100000002 629.8089100000001 558.3156252501693 629.8089100000001 558.8679100000002 Z" fill-opacity="1"/><path fill="none" stroke="rgb(0,0,0)" paint-order="fill stroke markers" d=" M 629.8089100000001 558.8679100000002 C 629.8089100000001 559.420194749831 629.3611947498309 559.8679100000002 628.8089100000001 559.8679100000002 C 628.2566252501692 559.8679100000002 627.8089100000001 559.420194749831 627.8089100000001 558.8679100000002 C 627.8089100000001 558.3156252501693 628.2566252501692 557.8679100000002 628.8089100000001 557.8679100000002 C 629.3611947498309 557.8679100000002 629.8089100000001 558.3156252501693 629.8089100000001 558.8679100000002 Z" stroke-opacity="1" stroke-linecap="round" stroke-linejoin="round" stroke-miterlimit="10"/><g transform="scale(25,25)"><g transform="translate(17.84,5.09508)"><path fill="rgb(0,0,0)" stroke="none" paint-order="stroke fill markers" d=" M 0.17200000000000001 -0.078 Q 0.17200000000000001 -0.047 0.184 -0.04 L 0.184 -0.04 L 0.185 -0.039 Q 0.199 -0.031 0.248 -0.031 L 0.269 -0.031 L 0.269 0 Q 0.229 -0.003 0.14200000000000002 -0.003 Q 0.145 -0.003 0.028 0 L 0.028 -0.031 Q 0.08700000000000001 -0.031 0.097 -0.04 L 0.099 -0.042 Q 0.106 -0.05 0.106 -0.076 L 0.106 -0.34400000000000003 Q 0.106 -0.383 0.091 -0.392 Q 0.079 -0.399 0.048 -0.4 L 0.028 -0.4 L 0.028 -0.431 L 0.167 -0.442 L 0.167 -0.332 Q 0.194 -0.41600000000000004 0.256 -0.437 Q 0.272 -0.442 0.29 -0.442 Q 0.337 -0.442 0.357 -0.40700000000000003 Q 0.364 -0.395 0.364 -0.381 Q 0.364 -0.34600000000000003 0.331 -0.338 Q 0.326 -0.337 0.321 -0.337 Q 0.29 -0.337 0.281 -0.364 Q 0.278 -0.371 0.278 -0.38 Q 0.278 -0.40700000000000003 0.301 -0.419 Q 0.299 -0.42 0.29 -0.42 Q 0.223 -0.42 0.191 -0.338 Q 0.17200000000000001 -0.291 0.17200000000000001 -0.232 L 0.17200000000000001 -0.078 Z"/></g><g transform="translate(18.231668,5.09508)"><path fill="rgb(0,0,0)" stroke="none" paint-order="stroke fill markers" d=" M 0.47100000000000003 -0.214 L 0.47100000000000003 -0.214 Q 0.47100000000000003 -0.111 0.395 -0.044 Q 0.332 0.011 0.249 0.011 Q 0.153 0.011 0.08700000000000001 -0.061 Q 0.028 -0.126 0.028 -0.214 Q 0.028 -0.316 0.101 -0.386 Q 0.164 -0.448 0.25 -0.448 Q 0.34700000000000003 -0.448 0.41300000000000003 -0.371 Q 0.47100000000000003 -0.304 0.47100000000000003 -0.214 M 0.25 -0.014 L 0.25 -0.014 Q 0.317 -0.014 0.356 -0.07 L 0.366 -0.088 Q 0.388 -0.132 0.388 -0.222 Q 0.388 -0.318 0.362 -0.361 Q 0.319 -0.423 0.249 -0.426 Q 0.187 -0.426 0.147 -0.376 Q 0.14 -0.368 0.135 -0.359 Q 0.111 -0.315 0.111 -0.222 Q 0.111 -0.125 0.136 -0.081 Q 0.178 -0.016 0.25 -0.014 Z"/></g><g transform="translate(18.759448999999996,5.09508)"><path fill="rgb(0,0,0)" stroke="none" paint-order="stroke fill markers" d=" M 0.47100000000000003 -0.214 L 0.47100000000000003 -0.214 Q 0.47100000000000003 -0.111 0.395 -0.044 Q 0.332 0.011 0.249 0.011 Q 0.153 0.011 0.08700000000000001 -0.061 Q 0.028 -0.126 0.028 -0.214 Q 0.028 -0.316 0.101 -0.386 Q 0.164 -0.448 0.25 -0.448 Q 0.34700000000000003 -0.448 0.41300000000000003 -0.371 Q 0.47100000000000003 -0.304 0.47100000000000003 -0.214 M 0.25 -0.014 L 0.25 -0.014 Q 0.317 -0.014 0.356 -0.07 L 0.366 -0.088 Q 0.388 -0.132 0.388 -0.222 Q 0.388 -0.318 0.362 -0.361 Q 0.319 -0.423 0.249 -0.426 Q 0.187 -0.426 0.147 -0.376 Q 0.14 -0.368 0.135 -0.359 Q 0.111 -0.315 0.111 -0.222 Q 0.111 -0.125 0.136 -0.081 Q 0.178 -0.016 0.25 -0.014 Z"/></g><g transform="translate(19.259450999999995,5.09508)"><path fill="rgb(0,0,0)" stroke="none" paint-order="stroke fill markers" d=" M 0.17300000000000001 -0.4 L 0.17300000000000001 -0.4 L 0.17300000000000001 -0.122 Q 0.17300000000000001 -0.022 0.231 -0.015 Q 0.23500000000000001 -0.014 0.24 -0.014 Q 0.28300000000000003 -0.014 0.3 -0.07 Q 0.307 -0.094 0.307 -0.126 L 0.307 -0.181 L 0.332 -0.181 L 0.332 -0.124 Q 0.332 -0.042 0.28600000000000003 -0.006 Q 0.264 0.011 0.233 0.011 Q 0.149 0.011 0.11800000000000001 -0.052000000000000005 Q 0.10400000000000001 -0.082 0.10400000000000001 -0.124 L 0.10400000000000001 -0.4 L 0.019 -0.4 L 0.019 -0.422 Q 0.108 -0.426 0.137 -0.534 Q 0.147 -0.5720000000000001 0.148 -0.615 L 0.17300000000000001 -0.615 L 0.17300000000000001 -0.431 L 0.316 -0.431 L 0.316 -0.4 L 0.17300000000000001 -0.4 Z"/></g></g><g transform="scale(25,25)"/></g></g></svg>