<svg version="1.1" xmlns="http://www.w3.org/2000/svg" xmlns:xlink="http://www.w3.org/1999/xlink" width="1544" height="838"><defs><clipPath id="qpmtXSgRIPCo"><path fill="none" stroke="none" d=" M 0 0 L 1544 0 L 1544 838 L 0 838 L 0 0 Z"/></clipPath></defs><g transform="scale(1,1)" clip-path="url(#qpmtXSgRIPCo)"><g><rect fill="rgb(255,255,255)" stroke="none" x="0" y="0" width="1544" height="838" fill-opacity="1"/><path fill="none" stroke="rgb(192,192,192)" paint-order="fill stroke markers" d=" M 26.5 0.5 L 26.5 838.5 M 26.5 0.5 L 26.5 838.5 M 213.5 0.5 L 213.5 838.5 M 306.5 0.5 L 306.5 838.5 M 400.5 0.5 L 400.5 838.5 M 493.5 0.5 L 493.5 838.5 M 587.5 0.5 L 587.5 838.5 M 680.5 0.5 L 680.5 838.5 M 773.5 0.5 L 773.5 838.5 M 867.5 0.5 L 867.5 838.5 M 960.5 0.5 L 960.5 838.5 M 1054.5 0.5 L 1054.5 838.5 M 1147.5 0.5 L 1147.5 838.5 M 1240.5 0.5 L 1240.5 838.5 M 1334.5 0.5 L 1334.5 838.5 M 1427.5 0.5 L 1427.5 838.5 M 1520.5 0.5 L 1520.5 838.5" stroke-opacity="1" stroke-linecap="round" stroke-linejoin="round" stroke-miterlimit="10"/><path fill="none" stroke="rgb(192,192,192)" paint-order="fill stroke markers" d="" stroke-opacity="0.23529411764705882" stroke-linecap="round" stroke-linejoin="round" stroke-miterlimit="10"/><path fill="none" stroke="rgb(192,192,192)" paint-order="fill stroke markers" d=" M 0.5 29.5 L 1544.5 29.5 M 0.5 29.5 L 1544.5 29.5 M 0.5 122.5 L 1544.5 122.5 M 0.5 215.5 L 1544.5 215.5 M 0.5 309.5 L 1544.5 309.5 M 0.5 402.5 L 1544.5 402.5 M 0.5 495.5 L 1544.5 495.5 M 0.5 589.5 L 1544.5 589.5 M 0.5 776.5 L 1544.5 776.5" stroke-opacity="1" stroke-linecap="round" stroke-linejoin="round" stroke-miterlimit="10"/><path fill="none" stroke="rgb(192,192,192)" paint-order="fill stroke markers" d="" stroke-opacity="0.23529411764705882" stroke-linecap="round" stroke-linejoin="round" stroke-miterlimit="10"/><path fill="none" stroke="rgb(0,0,0)" paint-order="fill stroke markers" d=" M 120.5 2.5 L 120.5 838.5" stroke-opacity="1" stroke-miterlimit="10"/><path fill="none" stroke="rgb(0,0,0)" paint-order="fill stroke markers" d=" M 120.5 1.5 L 116.5 5.5" stroke-opacity="1" stroke-miterlimit="10"/><path fill="none" stroke="rgb(0,0,0)" paint-order="fill stroke markers" d=" M 120.5 1.5 L 124.5 5.5" stroke-opacity="1" stroke-miterlimit="10"/><path fill="none" stroke="rgb(0,0,0)" paint-order="fill stroke markers" d=" M 0.5 682.5 L 1542.5 682.5" stroke-opacity="1" stroke-miterlimit="10"/><path fill="none" stroke="rgb(0,0,0)" paint-order="fill stroke markers" d=" M 1543.5 682.5 L 1539.5 678.5" stroke-opacity="1" stroke-miterlimit="10"/><path fill="none" stroke="rgb(0,0,0)" paint-order="fill stroke markers" d=" M 1543.5 682.5 L 1539.5 686.5" stroke-opacity="1" stroke-miterlimit="10"/><text fill="none" stroke="rgb(255,255,255)" font-family="geogebra-sans-serif, sans-serif" font-size="12px" font-style="normal" font-weight="normal" text-decoration="normal" x="21" y="698" text-anchor="start" dominant-baseline="alphabetic" stroke-opacity="1" stroke-linejoin="bevel" stroke-miterlimit="10" stroke-width="3">–2</text><text fill="rgb(0,0,0)" stroke="none" font-family="geogebra-sans-serif, sans-serif" font-size="12px" font-style="normal" font-weight="normal" text-decoration="normal" x="21" y="698" text-anchor="start" dominant-baseline="alphabetic" fill-opacity="1">–2</text><text fill="none" stroke="rgb(255,255,255)" font-family="geogebra-sans-serif, sans-serif" font-size="12px" font-style="normal" font-weight="normal" text-decoration="normal" x="211" y="698" text-anchor="start" dominant-baseline="alphabetic" stroke-opacity="1" stroke-linejoin="bevel" stroke-miterlimit="10" stroke-width="3">2</text><text fill="rgb(0,0,0)" stroke="none" font-family="geogebra-sans-serif, sans-serif" font-size="12px" font-style="normal" font-weight="normal" text-decoration="normal" x="211" y="698" text-anchor="start" dominant-baseline="alphabetic" fill-opacity="1">2</text><text fill="none" stroke="rgb(255,255,255)" font-family="geogebra-sans-serif, sans-serif" font-size="12px" font-style="normal" font-weight="normal" text-decoration="normal" x="304" y="698" text-anchor="start" dominant-baseline="alphabetic" stroke-opacity="1" stroke-linejoin="bevel" stroke-miterlimit="10" stroke-width="3">4</text><text fill="rgb(0,0,0)" stroke="none" font-family="geogebra-sans-serif, sans-serif" font-size="12px" font-style="normal" font-weight="normal" text-decoration="normal" x="304" y="698" text-anchor="start" dominant-baseline="alphabetic" fill-opacity="1">4</text><text fill="none" stroke="rgb(255,255,255)" font-family="geogebra-sans-serif, sans-serif" font-size="12px" font-style="normal" font-weight="normal" text-decoration="normal" x="398" y="698" text-anchor="start" dominant-baseline="alphabetic" stroke-opacity="1" stroke-linejoin="bevel" stroke-miterlimit="10" stroke-width="3">6</text><text fill="rgb(0,0,0)" stroke="none" font-family="geogebra-sans-serif, sans-serif" font-size="12px" font-style="normal" font-weight="normal" text-decoration="normal" x="398" y="698" text-anchor="start" dominant-baseline="alphabetic" fill-opacity="1">6</text><text fill="none" stroke="rgb(255,255,255)" font-family="geogebra-sans-serif, sans-serif" font-size="12px" font-style="normal" font-weight="normal" text-decoration="normal" x="491" y="698" text-anchor="start" dominant-baseline="alphabetic" stroke-opacity="1" stroke-linejoin="bevel" stroke-miterlimit="10" stroke-width="3">8</text><text fill="rgb(0,0,0)" stroke="none" font-family="geogebra-sans-serif, sans-serif" font-size="12px" font-style="normal" font-weight="normal" text-decoration="normal" x="491" y="698" text-anchor="start" dominant-baseline="alphabetic" fill-opacity="1">8</text><text fill="none" stroke="rgb(255,255,255)" font-family="geogebra-sans-serif, sans-serif" font-size="12px" font-style="normal" font-weight="normal" text-decoration="normal" x="582" y="698" text-anchor="start" dominant-baseline="alphabetic" stroke-opacity="1" stroke-linejoin="bevel" stroke-miterlimit="10" stroke-width="3">10</text><text fill="rgb(0,0,0)" stroke="none" font-family="geogebra-sans-serif, sans-serif" font-size="12px" font-style="normal" font-weight="normal" text-decoration="normal" x="582" y="698" text-anchor="start" dominant-baseline="alphabetic" fill-opacity="1">10</text><text fill="none" stroke="rgb(255,255,255)" font-family="geogebra-sans-serif, sans-serif" font-size="12px" font-style="normal" font-weight="normal" text-decoration="normal" x="675" y="698" text-anchor="start" dominant-baseline="alphabetic" stroke-opacity="1" stroke-linejoin="bevel" stroke-miterlimit="10" stroke-width="3">12</text><text fill="rgb(0,0,0)" stroke="none" font-family="geogebra-sans-serif, sans-serif" font-size="12px" font-style="normal" font-weight="normal" text-decoration="normal" x="675" y="698" text-anchor="start" dominant-baseline="alphabetic" fill-opacity="1">12</text><text fill="none" stroke="rgb(255,255,255)" font-family="geogebra-sans-serif, sans-serif" font-size="12px" font-style="normal" font-weight="normal" text-decoration="normal" x="768" y="698" text-anchor="start" dominant-baseline="alphabetic" stroke-opacity="1" stroke-linejoin="bevel" stroke-miterlimit="10" stroke-width="3">14</text><text fill="rgb(0,0,0)" stroke="none" font-family="geogebra-sans-serif, sans-serif" font-size="12px" font-style="normal" font-weight="normal" text-decoration="normal" x="768" y="698" text-anchor="start" dominant-baseline="alphabetic" fill-opacity="1">14</text><text fill="none" stroke="rgb(255,255,255)" font-family="geogebra-sans-serif, sans-serif" font-size="12px" font-style="normal" font-weight="normal" text-decoration="normal" x="862" y="698" text-anchor="start" dominant-baseline="alphabetic" stroke-opacity="1" stroke-linejoin="bevel" stroke-miterlimit="10" stroke-width="3">16</text><text fill="rgb(0,0,0)" stroke="none" font-family="geogebra-sans-serif, sans-serif" font-size="12px" font-style="normal" font-weight="normal" text-decoration="normal" x="862" y="698" text-anchor="start" dominant-baseline="alphabetic" fill-opacity="1">16</text><text fill="none" stroke="rgb(255,255,255)" font-family="geogebra-sans-serif, sans-serif" font-size="12px" font-style="normal" font-weight="normal" text-decoration="normal" x="955" y="698" text-anchor="start" dominant-baseline="alphabetic" stroke-opacity="1" stroke-linejoin="bevel" stroke-miterlimit="10" stroke-width="3">18</text><text fill="rgb(0,0,0)" stroke="none" font-family="geogebra-sans-serif, sans-serif" font-size="12px" font-style="normal" font-weight="normal" text-decoration="normal" x="955" y="698" text-anchor="start" dominant-baseline="alphabetic" fill-opacity="1">18</text><text fill="none" stroke="rgb(255,255,255)" font-family="geogebra-sans-serif, sans-serif" font-size="12px" font-style="normal" font-weight="normal" text-decoration="normal" x="1049" y="698" text-anchor="start" dominant-baseline="alphabetic" stroke-opacity="1" stroke-linejoin="bevel" stroke-miterlimit="10" stroke-width="3">20</text><text fill="rgb(0,0,0)" stroke="none" font-family="geogebra-sans-serif, sans-serif" font-size="12px" font-style="normal" font-weight="normal" text-decoration="normal" x="1049" y="698" text-anchor="start" dominant-baseline="alphabetic" fill-opacity="1">20</text><text fill="none" stroke="rgb(255,255,255)" font-family="geogebra-sans-serif, sans-serif" font-size="12px" font-style="normal" font-weight="normal" text-decoration="normal" x="1142" y="698" text-anchor="start" dominant-baseline="alphabetic" stroke-opacity="1" stroke-linejoin="bevel" stroke-miterlimit="10" stroke-width="3">22</text><text fill="rgb(0,0,0)" stroke="none" font-family="geogebra-sans-serif, sans-serif" font-size="12px" font-style="normal" font-weight="normal" text-decoration="normal" x="1142" y="698" text-anchor="start" dominant-baseline="alphabetic" fill-opacity="1">22</text><text fill="none" stroke="rgb(255,255,255)" font-family="geogebra-sans-serif, sans-serif" font-size="12px" font-style="normal" font-weight="normal" text-decoration="normal" x="1235" y="698" text-anchor="start" dominant-baseline="alphabetic" stroke-opacity="1" stroke-linejoin="bevel" stroke-miterlimit="10" stroke-width="3">24</text><text fill="rgb(0,0,0)" stroke="none" font-family="geogebra-sans-serif, sans-serif" font-size="12px" font-style="normal" font-weight="normal" text-decoration="normal" x="1235" y="698" text-anchor="start" dominant-baseline="alphabetic" fill-opacity="1">24</text><text fill="none" stroke="rgb(255,255,255)" font-family="geogebra-sans-serif, sans-serif" font-size="12px" font-style="normal" font-weight="normal" text-decoration="normal" x="1329" y="698" text-anchor="start" dominant-baseline="alphabetic" stroke-opacity="1" stroke-linejoin="bevel" stroke-miterlimit="10" stroke-width="3">26</text><text fill="rgb(0,0,0)" stroke="none" font-family="geogebra-sans-serif, sans-serif" font-size="12px" font-style="normal" font-weight="normal" text-decoration="normal" x="1329" y="698" text-anchor="start" dominant-baseline="alphabetic" fill-opacity="1">26</text><text fill="none" stroke="rgb(255,255,255)" font-family="geogebra-sans-serif, sans-serif" font-size="12px" font-style="normal" font-weight="normal" text-decoration="normal" x="1422" y="698" text-anchor="start" dominant-baseline="alphabetic" stroke-opacity="1" stroke-linejoin="bevel" stroke-miterlimit="10" stroke-width="3">28</text><text fill="rgb(0,0,0)" stroke="none" font-family="geogebra-sans-serif, sans-serif" font-size="12px" font-style="normal" font-weight="normal" text-decoration="normal" x="1422" y="698" text-anchor="start" dominant-baseline="alphabetic" fill-opacity="1">28</text><text fill="none" stroke="rgb(255,255,255)" font-family="geogebra-sans-serif, sans-serif" font-size="12px" font-style="normal" font-weight="normal" text-decoration="normal" x="1515" y="698" text-anchor="start" dominant-baseline="alphabetic" stroke-opacity="1" stroke-linejoin="bevel" stroke-miterlimit="10" stroke-width="3">30</text><text fill="rgb(0,0,0)" stroke="none" font-family="geogebra-sans-serif, sans-serif" font-size="12px" font-style="normal" font-weight="normal" text-decoration="normal" x="1515" y="698" text-anchor="start" dominant-baseline="alphabetic" fill-opacity="1">30</text><text fill="none" stroke="rgb(255,255,255)" font-family="geogebra-sans-serif, sans-serif" font-size="12px" font-style="normal" font-weight="normal" text-decoration="normal" x="99" y="781" text-anchor="start" dominant-baseline="alphabetic" stroke-opacity="1" stroke-linejoin="bevel" stroke-miterlimit="10" stroke-width="3">–2</text><text fill="rgb(0,0,0)" stroke="none" font-family="geogebra-sans-serif, sans-serif" font-size="12px" font-style="normal" font-weight="normal" text-decoration="normal" x="99" y="781" text-anchor="start" dominant-baseline="alphabetic" fill-opacity="1">–2</text><text fill="none" stroke="rgb(255,255,255)" font-family="geogebra-sans-serif, sans-serif" font-size="12px" font-style="normal" font-weight="normal" text-decoration="normal" x="106" y="594" text-anchor="start" dominant-baseline="alphabetic" stroke-opacity="1" stroke-linejoin="bevel" stroke-miterlimit="10" stroke-width="3">2</text><text fill="rgb(0,0,0)" stroke="none" font-family="geogebra-sans-serif, sans-serif" font-size="12px" font-style="normal" font-weight="normal" text-decoration="normal" x="106" y="594" text-anchor="start" dominant-baseline="alphabetic" fill-opacity="1">2</text><text fill="none" stroke="rgb(255,255,255)" font-family="geogebra-sans-serif, sans-serif" font-size="12px" font-style="normal" font-weight="normal" text-decoration="normal" x="106" y="500" text-anchor="start" dominant-baseline="alphabetic" stroke-opacity="1" stroke-linejoin="bevel" stroke-miterlimit="10" stroke-width="3">4</text><text fill="rgb(0,0,0)" stroke="none" font-family="geogebra-sans-serif, sans-serif" font-size="12px" font-style="normal" font-weight="normal" text-decoration="normal" x="106" y="500" text-anchor="start" dominant-baseline="alphabetic" fill-opacity="1">4</text><text fill="none" stroke="rgb(255,255,255)" font-family="geogebra-sans-serif, sans-serif" font-size="12px" font-style="normal" font-weight="normal" text-decoration="normal" x="106" y="407" text-anchor="start" dominant-baseline="alphabetic" stroke-opacity="1" stroke-linejoin="bevel" stroke-miterlimit="10" stroke-width="3">6</text><text fill="rgb(0,0,0)" stroke="none" font-family="geogebra-sans-serif, sans-serif" font-size="12px" font-style="normal" font-weight="normal" text-decoration="normal" x="106" y="407" text-anchor="start" dominant-baseline="alphabetic" fill-opacity="1">6</text><text fill="none" stroke="rgb(255,255,255)" font-family="geogebra-sans-serif, sans-serif" font-size="12px" font-style="normal" font-weight="normal" text-decoration="normal" x="106" y="314" text-anchor="start" dominant-baseline="alphabetic" stroke-opacity="1" stroke-linejoin="bevel" stroke-miterlimit="10" stroke-width="3">8</text><text fill="rgb(0,0,0)" stroke="none" font-family="geogebra-sans-serif, sans-serif" font-size="12px" font-style="normal" font-weight="normal" text-decoration="normal" x="106" y="314" text-anchor="start" dominant-baseline="alphabetic" fill-opacity="1">8</text><text fill="none" stroke="rgb(255,255,255)" font-family="geogebra-sans-serif, sans-serif" font-size="12px" font-style="normal" font-weight="normal" text-decoration="normal" x="99" y="220" text-anchor="start" dominant-baseline="alphabetic" stroke-opacity="1" stroke-linejoin="bevel" stroke-miterlimit="10" stroke-width="3">10</text><text fill="rgb(0,0,0)" stroke="none" font-family="geogebra-sans-serif, sans-serif" font-size="12px" font-style="normal" font-weight="normal" text-decoration="normal" x="99" y="220" text-anchor="start" dominant-baseline="alphabetic" fill-opacity="1">10</text><text fill="none" stroke="rgb(255,255,255)" font-family="geogebra-sans-serif, sans-serif" font-size="12px" font-style="normal" font-weight="normal" text-decoration="normal" x="99" y="127" text-anchor="start" dominant-baseline="alphabetic" stroke-opacity="1" stroke-linejoin="bevel" stroke-miterlimit="10" stroke-width="3">12</text><text fill="rgb(0,0,0)" stroke="none" font-family="geogebra-sans-serif, sans-serif" font-size="12px" font-style="normal" font-weight="normal" text-decoration="normal" x="99" y="127" text-anchor="start" dominant-baseline="alphabetic" fill-opacity="1">12</text><text fill="none" stroke="rgb(255,255,255)" font-family="geogebra-sans-serif, sans-serif" font-size="12px" font-style="normal" font-weight="normal" text-decoration="normal" x="99" y="34" text-anchor="start" dominant-baseline="alphabetic" stroke-opacity="1" stroke-linejoin="bevel" stroke-miterlimit="10" stroke-width="3">14</text><text fill="rgb(0,0,0)" stroke="none" font-family="geogebra-sans-serif, sans-serif" font-size="12px" font-style="normal" font-weight="normal" text-decoration="normal" x="99" y="34" text-anchor="start" dominant-baseline="alphabetic" fill-opacity="1">14</text><text fill="none" stroke="rgb(255,255,255)" font-family="geogebra-sans-serif, sans-serif" font-size="12px" font-style="normal" font-weight="normal" text-decoration="normal" x="106" y="698" text-anchor="start" dominant-baseline="alphabetic" stroke-opacity="1" stroke-linejoin="bevel" stroke-miterlimit="10" stroke-width="3">0</text><text fill="rgb(0,0,0)" stroke="none" font-family="geogebra-sans-serif, sans-serif" font-size="12px" font-style="normal" font-weight="normal" text-decoration="normal" x="106" y="698" text-anchor="start" dominant-baseline="alphabetic" fill-opacity="1">0</text><path fill="none" stroke="rgb(211,47,47)" paint-order="fill stroke markers" d=" M 493.3773665779651 843 L 495.0708879943944 -5" stroke-opacity="0.8" stroke-linecap="round" stroke-linejoin="round" stroke-miterlimit="10" stroke-width="2.5"/><path fill="none" stroke="rgb(219,97,20)" paint-order="fill stroke markers" d=" M 166.84510448388653 495.9456177867122 L 494.0707935602687 495.77907011461525" stroke-opacity="0.8" stroke-linecap="round" stroke-linejoin="round" stroke-miterlimit="10" stroke-width="2.5"/><path fill="none" stroke="rgb(21,101,192)" paint-order="fill stroke markers" d=" M 353.6178798138699 262.47964862423254 L 353.83121252753347 495.8504476883711" stroke-opacity="0.8" stroke-linecap="round" stroke-linejoin="round" stroke-miterlimit="10" stroke-width="2.5"/><path fill="none" stroke="rgb(21,101,192)" paint-order="fill stroke markers" d=" M 306.924685981374 682.718393116696 L 307.08468551662173 495.8742402129564" stroke-opacity="0.8" stroke-linecap="round" stroke-linejoin="round" stroke-miterlimit="10" stroke-width="2.5"/><path fill="none" stroke="rgb(219,97,20)" paint-order="fill stroke markers" d=" M 493.6974613113573 542.6388116192081 L 680.4702366413406 542.6388116192081" stroke-opacity="0.8" stroke-linecap="round" stroke-linejoin="round" stroke-miterlimit="10" stroke-width="2.5"/><path fill="none" stroke="rgb(21,101,192)" paint-order="fill stroke markers" d=" M 633.7770428088448 402.55923012172036 L 633.7770428088448 542.6388116192081" stroke-opacity="0.8" stroke-linecap="round" stroke-linejoin="round" stroke-miterlimit="10" stroke-width="2.5"/><path fill="none" stroke="rgb(21,101,192)" paint-order="fill stroke markers" d=" M 540.3906551438531 589.3320054517042 L 540.3906551438531 542.6388116192081" stroke-opacity="0.8" stroke-linecap="round" stroke-linejoin="round" stroke-miterlimit="10" stroke-width="2.5"/><path fill="none" stroke="rgb(255,102,0)" paint-order="fill stroke markers" d=" M 307.08468551662173 495.8742402129564 L 0 496.03053674228386" stroke-opacity="0.8" stroke-linecap="round" stroke-linejoin="round" stroke-miterlimit="10" stroke-width="2.5"/><path fill="none" stroke="rgb(255,102,0)" paint-order="fill stroke markers" d=" M 493.6974613113573 542.6388116192081 L 1544 542.6388116192081" stroke-opacity="0.8" stroke-linecap="round" stroke-linejoin="round" stroke-miterlimit="10" stroke-width="2.5"/><path fill="none" stroke="rgb(0,0,255)" paint-order="fill stroke markers" d=" M 353.83121252753347 495.8504476883711 L 353.0755489467147 0" stroke-opacity="0.8" stroke-linecap="round" stroke-linejoin="round" stroke-miterlimit="10" stroke-width="2.5"/><path fill="none" stroke="rgb(0,0,255)" paint-order="fill stroke markers" d=" M 307.08468551662173 495.8742402129564 L 306.498966797344 838" stroke-opacity="0.8" stroke-linecap="round" stroke-linejoin="round" stroke-miterlimit="10" stroke-width="2.5"/><path fill="none" stroke="rgb(0,0,255)" paint-order="fill stroke markers" d=" M 633.7770428088448 542.6388116192081 L 633.7770428088448 0" stroke-opacity="0.8" stroke-linecap="round" stroke-linejoin="round" stroke-miterlimit="10" stroke-width="2.5"/><path fill="none" stroke="rgb(0,0,255)" paint-order="fill stroke markers" d=" M 540.3906551438531 542.6388116192081 L 540.3906551438531 838" stroke-opacity="0.8" stroke-linecap="round" stroke-linejoin="round" stroke-miterlimit="10" stroke-width="2.5"/><path fill="none" stroke="rgb(97,97,97)" paint-order="fill stroke markers" d=" M 120.1519106513907 215.78645479173656 L 820.5498181388282 215.78645479173656" stroke-opacity="0.8" stroke-linecap="round" stroke-linejoin="round" stroke-miterlimit="10" stroke-width="2.5"/><path fill="none" stroke="rgb(97,97,97)" paint-order="fill stroke markers" d=" M 820.5498181388282 682.718393116696 L 820.5498181388282 215.78645479173656" stroke-opacity="0.8" stroke-linecap="round" stroke-linejoin="round" stroke-miterlimit="10" stroke-width="2.5"/><path fill="none" stroke="rgb(97,97,97)" paint-order="fill stroke markers" d=" M 820.5498181388282 682.718393116696 L 120.1519106513907 682.718393116696" stroke-opacity="0.8" stroke-linecap="round" stroke-linejoin="round" stroke-miterlimit="10" stroke-width="2.5"/><path fill="none" stroke="rgb(97,97,97)" paint-order="fill stroke markers" d=" M 120.1519106513907 682.718393116696 L 120.1519106513907 215.78645479173656" stroke-opacity="0.8" stroke-linecap="round" stroke-linejoin="round" stroke-miterlimit="10" stroke-width="2.5"/><path fill="none" stroke="rgb(97,97,97)" paint-order="fill stroke markers" d=" M 1194.0953687987947 169.09326095924064 L 1054.0157873013072 215.78645479173656" stroke-opacity="0.8" stroke-linecap="round" stroke-linejoin="round" stroke-miterlimit="10" stroke-width="2.5"/><path fill="none" stroke="rgb(97,97,97)" paint-order="fill stroke markers" d=" M 1054.0157873013072 215.78645479173656 L 1100.708981133803 262.47964862423254" stroke-opacity="0.8" stroke-linecap="round" stroke-linejoin="round" stroke-miterlimit="10" stroke-width="2.5"/><path fill="none" stroke="rgb(97,97,97)" paint-order="fill stroke markers" d=" M 1100.708981133803 262.47964862423254 L 1054.0157873013072 309.17284245672846" stroke-opacity="0.8" stroke-linecap="round" stroke-linejoin="round" stroke-miterlimit="10" stroke-width="2.5"/><path fill="none" stroke="rgb(97,97,97)" paint-order="fill stroke markers" d=" M 1100.708981133803 262.47964862423254 L 1147.4021749662988 309.17284245672846" stroke-opacity="0.8" stroke-linecap="round" stroke-linejoin="round" stroke-miterlimit="10" stroke-width="2.5"/><path fill="none" stroke="rgb(97,97,97)" paint-order="fill stroke markers" d=" M 1054.0157873013072 215.78645479173656 L 915.3592041142024 265.3314927985639" stroke-opacity="0.8" stroke-linecap="round" stroke-linejoin="round" stroke-miterlimit="10" stroke-width="2.5"/><path fill="none" stroke="rgb(97,97,97)" paint-order="fill stroke markers" d=" M 915.3592041142024 265.3314927985639 L 867.243011971324 309.17284245672846" stroke-opacity="0.8" stroke-linecap="round" stroke-linejoin="round" stroke-miterlimit="10" stroke-width="2.5"/><path fill="none" stroke="rgb(97,97,97)" paint-order="fill stroke markers" d=" M 915.3592041142024 265.3314927985639 L 960.6293996363156 309.17284245672846" stroke-opacity="0.8" stroke-linecap="round" stroke-linejoin="round" stroke-miterlimit="10" stroke-width="2.5"/><path fill="none" stroke="rgb(97,97,97)" paint-order="fill stroke markers" d=" M 1194.0953687987947 169.09326095924064 L 1287.4817564637863 215.78645479173656" stroke-opacity="0.8" stroke-linecap="round" stroke-linejoin="round" stroke-miterlimit="10" stroke-width="2.5"/><path fill="none" stroke="rgb(97,97,97)" paint-order="fill stroke markers" d=" M 1287.4817564637863 215.78645479173656 L 1380.868144128778 262.47964862423254" stroke-opacity="0.8" stroke-linecap="round" stroke-linejoin="round" stroke-miterlimit="10" stroke-width="2.5"/><path fill="none" stroke="rgb(97,97,97)" paint-order="fill stroke markers" d=" M 1287.4817564637863 215.78645479173656 L 1240.7885626312905 262.47964862423254" stroke-opacity="0.8" stroke-linecap="round" stroke-linejoin="round" stroke-miterlimit="10" stroke-width="2.5"/><path fill="none" stroke="rgb(97,97,97)" paint-order="fill stroke markers" d=" M 1380.868144128778 262.47964862423254 L 1334.174950296282 309.17284245672846" stroke-opacity="0.8" stroke-linecap="round" stroke-linejoin="round" stroke-miterlimit="10" stroke-width="2.5"/><path fill="none" stroke="rgb(97,97,97)" paint-order="fill stroke markers" d=" M 1380.868144128778 262.47964862423254 L 1427.561337961274 309.17284245672846" stroke-opacity="0.8" stroke-linecap="round" stroke-linejoin="round" stroke-miterlimit="10" stroke-width="2.5"/><path fill="none" stroke="rgb(97,97,97)" paint-order="fill stroke markers" d=" M 1240.7885626312905 262.47964862423254 L 1240.7885626312905 309.17284245672846" stroke-opacity="0.8" stroke-linecap="round" stroke-linejoin="round" stroke-miterlimit="10" stroke-width="2.5"/><path fill="rgb(21,101,192)" stroke="none" paint-order="stroke fill markers" d=" M 499.1641266224965 449.0442393640951 C 499.1641266224965 451.80566311324907 496.92555037165044 454.0442393640951 494.1641266224965 454.0442393640951 C 491.40270287334255 454.0442393640951 489.1641266224965 451.80566311324907 489.1641266224965 449.0442393640951 C 489.1641266224965 446.28281561494117 491.40270287334255 444.0442393640951 494.1641266224965 444.0442393640951 C 496.92555037165044 444.0442393640951 499.1641266224965 446.28281561494117 499.1641266224965 449.0442393640951 Z" fill-opacity="1"/><path fill="none" stroke="rgb(0,0,0)" paint-order="fill stroke markers" d=" M 499.1641266224965 449.0442393640951 C 499.1641266224965 451.80566311324907 496.92555037165044 454.0442393640951 494.1641266224965 454.0442393640951 C 491.40270287334255 454.0442393640951 489.1641266224965 451.80566311324907 489.1641266224965 449.0442393640951 C 489.1641266224965 446.28281561494117 491.40270287334255 444.0442393640951 494.1641266224965 444.0442393640951 C 496.92555037165044 444.0442393640951 499.1641266224965 446.28281561494117 499.1641266224965 449.0442393640951 Z" stroke-opacity="1" stroke-linecap="round" stroke-linejoin="round" stroke-miterlimit="10"/><text fill="none" stroke="rgb(255,255,255)" font-family="geogebra-sans-serif, sans-serif" font-size="16px" font-style="normal" font-weight="normal" text-decoration="normal" x="498" y="439" text-anchor="start" dominant-baseline="alphabetic" stroke-opacity="1" stroke-linecap="round" stroke-linejoin="bevel" stroke-miterlimit="10" stroke-width="3">A = (8, 5)</text><text fill="rgb(21,101,192)" stroke="none" font-family="geogebra-sans-serif, sans-serif" font-size="16px" font-style="normal" font-weight="normal" text-decoration="normal" x="498" y="439" text-anchor="start" dominant-baseline="alphabetic" fill-opacity="1">A = (8, 5)</text><path fill="rgb(21,101,192)" stroke="none" paint-order="stroke fill markers" d=" M 358.6178798138699 355.8660362892244 C 358.6178798138699 358.62746003837833 356.3793035630238 360.8660362892244 353.6178798138699 360.8660362892244 C 350.8564560647159 360.8660362892244 348.6178798138699 358.62746003837833 348.6178798138699 355.8660362892244 C 348.6178798138699 353.10461254007043 350.8564560647159 350.8660362892244 353.6178798138699 350.8660362892244 C 356.3793035630238 350.8660362892244 358.6178798138699 353.10461254007043 358.6178798138699 355.8660362892244 Z" fill-opacity="1"/><path fill="none" stroke="rgb(0,0,0)" paint-order="fill stroke markers" d=" M 358.6178798138699 355.8660362892244 C 358.6178798138699 358.62746003837833 356.3793035630238 360.8660362892244 353.6178798138699 360.8660362892244 C 350.8564560647159 360.8660362892244 348.6178798138699 358.62746003837833 348.6178798138699 355.8660362892244 C 348.6178798138699 353.10461254007043 350.8564560647159 350.8660362892244 353.6178798138699 350.8660362892244 C 356.3793035630238 350.8660362892244 358.6178798138699 353.10461254007043 358.6178798138699 355.8660362892244 Z" stroke-opacity="1" stroke-linecap="round" stroke-linejoin="round" stroke-miterlimit="10"/><text fill="none" stroke="rgb(255,255,255)" font-family="geogebra-sans-serif, sans-serif" font-size="16px" font-style="normal" font-weight="normal" text-decoration="normal" x="358" y="346" text-anchor="start" dominant-baseline="alphabetic" stroke-opacity="1" stroke-linecap="round" stroke-linejoin="bevel" stroke-miterlimit="10" stroke-width="3">D = (5, 7)</text><text fill="rgb(21,101,192)" stroke="none" font-family="geogebra-sans-serif, sans-serif" font-size="16px" font-style="normal" font-weight="normal" text-decoration="normal" x="358" y="346" text-anchor="start" dominant-baseline="alphabetic" fill-opacity="1">D = (5, 7)</text><path fill="rgb(21,101,192)" stroke="none" paint-order="stroke fill markers" d=" M 685.4702366413406 542.6388116192081 C 685.4702366413406 545.4002353683621 683.2316603904947 547.6388116192081 680.4702366413406 547.6388116192081 C 677.7088128921866 547.6388116192081 675.4702366413406 545.4002353683621 675.4702366413406 542.6388116192081 C 675.4702366413406 539.8773878700541 677.7088128921866 537.6388116192081 680.4702366413406 537.6388116192081 C 683.2316603904947 537.6388116192081 685.4702366413406 539.8773878700541 685.4702366413406 542.6388116192081 Z" fill-opacity="1"/><path fill="none" stroke="rgb(0,0,0)" paint-order="fill stroke markers" d=" M 685.4702366413406 542.6388116192081 C 685.4702366413406 545.4002353683621 683.2316603904947 547.6388116192081 680.4702366413406 547.6388116192081 C 677.7088128921866 547.6388116192081 675.4702366413406 545.4002353683621 675.4702366413406 542.6388116192081 C 675.4702366413406 539.8773878700541 677.7088128921866 537.6388116192081 680.4702366413406 537.6388116192081 C 683.2316603904947 537.6388116192081 685.4702366413406 539.8773878700541 685.4702366413406 542.6388116192081 Z" stroke-opacity="1" stroke-linecap="round" stroke-linejoin="round" stroke-miterlimit="10"/><text fill="none" stroke="rgb(255,255,255)" font-family="geogebra-sans-serif, sans-serif" font-size="16px" font-style="normal" font-weight="normal" text-decoration="normal" x="684" y="533" text-anchor="start" dominant-baseline="alphabetic" stroke-opacity="1" stroke-linecap="round" stroke-linejoin="bevel" stroke-miterlimit="10" stroke-width="3">C = (12, 3)</text><text fill="rgb(21,101,192)" stroke="none" font-family="geogebra-sans-serif, sans-serif" font-size="16px" font-style="normal" font-weight="normal" text-decoration="normal" x="684" y="533" text-anchor="start" dominant-baseline="alphabetic" fill-opacity="1">C = (12, 3)</text><path fill="rgb(21,101,192)" stroke="none" paint-order="stroke fill markers" d=" M 685.4702366413406 495.9456177867122 C 685.4702366413406 498.70704153586615 683.2316603904947 500.9456177867122 680.4702366413406 500.9456177867122 C 677.7088128921866 500.9456177867122 675.4702366413406 498.70704153586615 675.4702366413406 495.9456177867122 C 675.4702366413406 493.18419403755826 677.7088128921866 490.9456177867122 680.4702366413406 490.9456177867122 C 683.2316603904947 490.9456177867122 685.4702366413406 493.18419403755826 685.4702366413406 495.9456177867122 Z" fill-opacity="1"/><path fill="none" stroke="rgb(0,0,0)" paint-order="fill stroke markers" d=" M 685.4702366413406 495.9456177867122 C 685.4702366413406 498.70704153586615 683.2316603904947 500.9456177867122 680.4702366413406 500.9456177867122 C 677.7088128921866 500.9456177867122 675.4702366413406 498.70704153586615 675.4702366413406 495.9456177867122 C 675.4702366413406 493.18419403755826 677.7088128921866 490.9456177867122 680.4702366413406 490.9456177867122 C 683.2316603904947 490.9456177867122 685.4702366413406 493.18419403755826 685.4702366413406 495.9456177867122 Z" stroke-opacity="1" stroke-linecap="round" stroke-linejoin="round" stroke-miterlimit="10"/><text fill="none" stroke="rgb(255,255,255)" font-family="geogebra-sans-serif, sans-serif" font-size="16px" font-style="normal" font-weight="normal" text-decoration="normal" x="684" y="486" text-anchor="start" dominant-baseline="alphabetic" stroke-opacity="1" stroke-linecap="round" stroke-linejoin="bevel" stroke-miterlimit="10" stroke-width="3">M = (12, 4)</text><text fill="rgb(21,101,192)" stroke="none" font-family="geogebra-sans-serif, sans-serif" font-size="16px" font-style="normal" font-weight="normal" text-decoration="normal" x="684" y="486" text-anchor="start" dominant-baseline="alphabetic" fill-opacity="1">M = (12, 4)</text><path fill="rgb(21,101,192)" stroke="none" paint-order="stroke fill markers" d=" M 545.3906551438531 589.3320054517042 C 545.3906551438531 592.0934292008582 543.1520788930071 594.3320054517042 540.3906551438531 594.3320054517042 C 537.6292313946991 594.3320054517042 535.3906551438531 592.0934292008582 535.3906551438531 589.3320054517042 C 535.3906551438531 586.5705817025502 537.6292313946991 584.3320054517042 540.3906551438531 584.3320054517042 C 543.1520788930071 584.3320054517042 545.3906551438531 586.5705817025502 545.3906551438531 589.3320054517042 Z" fill-opacity="1"/><path fill="none" stroke="rgb(0,0,0)" paint-order="fill stroke markers" d=" M 545.3906551438531 589.3320054517042 C 545.3906551438531 592.0934292008582 543.1520788930071 594.3320054517042 540.3906551438531 594.3320054517042 C 537.6292313946991 594.3320054517042 535.3906551438531 592.0934292008582 535.3906551438531 589.3320054517042 C 535.3906551438531 586.5705817025502 537.6292313946991 584.3320054517042 540.3906551438531 584.3320054517042 C 543.1520788930071 584.3320054517042 545.3906551438531 586.5705817025502 545.3906551438531 589.3320054517042 Z" stroke-opacity="1" stroke-linecap="round" stroke-linejoin="round" stroke-miterlimit="10"/><text fill="none" stroke="rgb(255,255,255)" font-family="geogebra-sans-serif, sans-serif" font-size="16px" font-style="normal" font-weight="normal" text-decoration="normal" x="544" y="579" text-anchor="start" dominant-baseline="alphabetic" stroke-opacity="1" stroke-linecap="round" stroke-linejoin="bevel" stroke-miterlimit="10" stroke-width="3">G = (9, 2)</text><text fill="rgb(21,101,192)" stroke="none" font-family="geogebra-sans-serif, sans-serif" font-size="16px" font-style="normal" font-weight="normal" text-decoration="normal" x="544" y="579" text-anchor="start" dominant-baseline="alphabetic" fill-opacity="1">G = (9, 2)</text><path fill="rgb(21,101,192)" stroke="none" paint-order="stroke fill markers" d=" M 405.3110736463657 449.2524239542163 C 405.3110736463657 452.01384770337023 403.07249739551963 454.2524239542163 400.3110736463657 454.2524239542163 C 397.54964989721174 454.2524239542163 395.3110736463657 452.01384770337023 395.3110736463657 449.2524239542163 C 395.3110736463657 446.49100020506233 397.54964989721174 444.2524239542163 400.3110736463657 444.2524239542163 C 403.07249739551963 444.2524239542163 405.3110736463657 446.49100020506233 405.3110736463657 449.2524239542163 Z" fill-opacity="1"/><path fill="none" stroke="rgb(0,0,0)" paint-order="fill stroke markers" d=" M 405.3110736463657 449.2524239542163 C 405.3110736463657 452.01384770337023 403.07249739551963 454.2524239542163 400.3110736463657 454.2524239542163 C 397.54964989721174 454.2524239542163 395.3110736463657 452.01384770337023 395.3110736463657 449.2524239542163 C 395.3110736463657 446.49100020506233 397.54964989721174 444.2524239542163 400.3110736463657 444.2524239542163 C 403.07249739551963 444.2524239542163 405.3110736463657 446.49100020506233 405.3110736463657 449.2524239542163 Z" stroke-opacity="1" stroke-linecap="round" stroke-linejoin="round" stroke-miterlimit="10"/><text fill="none" stroke="rgb(255,255,255)" font-family="geogebra-sans-serif, sans-serif" font-size="16px" font-style="normal" font-weight="normal" text-decoration="normal" x="404" y="439" text-anchor="start" dominant-baseline="alphabetic" stroke-opacity="1" stroke-linecap="round" stroke-linejoin="bevel" stroke-miterlimit="10" stroke-width="3">I = (6, 5)</text><text fill="rgb(21,101,192)" stroke="none" font-family="geogebra-sans-serif, sans-serif" font-size="16px" font-style="normal" font-weight="normal" text-decoration="normal" x="404" y="439" text-anchor="start" dominant-baseline="alphabetic" fill-opacity="1">I = (6, 5)</text><path fill="rgb(21,101,192)" stroke="none" paint-order="stroke fill markers" d=" M 494.6974613113573 682.718393116696 C 494.6974613113573 683.2706778665269 494.2497460611881 683.718393116696 493.6974613113573 683.718393116696 C 493.1451765615265 683.718393116696 492.6974613113573 683.2706778665269 492.6974613113573 682.718393116696 C 492.6974613113573 682.1661083668652 493.1451765615265 681.718393116696 493.6974613113573 681.718393116696 C 494.2497460611881 681.718393116696 494.6974613113573 682.1661083668652 494.6974613113573 682.718393116696 Z" fill-opacity="1"/><path fill="none" stroke="rgb(0,0,0)" paint-order="fill stroke markers" d=" M 494.6974613113573 682.718393116696 C 494.6974613113573 683.2706778665269 494.2497460611881 683.718393116696 493.6974613113573 683.718393116696 C 493.1451765615265 683.718393116696 492.6974613113573 683.2706778665269 492.6974613113573 682.718393116696 C 492.6974613113573 682.1661083668652 493.1451765615265 681.718393116696 493.6974613113573 681.718393116696 C 494.2497460611881 681.718393116696 494.6974613113573 682.1661083668652 494.6974613113573 682.718393116696 Z" stroke-opacity="1" stroke-linecap="round" stroke-linejoin="round" stroke-miterlimit="10"/><path fill="rgb(21,101,192)" stroke="none" paint-order="stroke fill markers" d=" M 218.53829831638234 309.17284245672846 C 218.53829831638234 311.9342662058824 216.29972206553632 314.17284245672846 213.53829831638234 314.17284245672846 C 210.77687456722836 314.17284245672846 208.53829831638234 311.9342662058824 208.53829831638234 309.17284245672846 C 208.53829831638234 306.4114187075745 210.77687456722836 304.17284245672846 213.53829831638234 304.17284245672846 C 216.29972206553632 304.17284245672846 218.53829831638234 306.4114187075745 218.53829831638234 309.17284245672846 Z" fill-opacity="1"/><path fill="none" stroke="rgb(0,0,0)" paint-order="fill stroke markers" d=" M 218.53829831638234 309.17284245672846 C 218.53829831638234 311.9342662058824 216.29972206553632 314.17284245672846 213.53829831638234 314.17284245672846 C 210.77687456722836 314.17284245672846 208.53829831638234 311.9342662058824 208.53829831638234 309.17284245672846 C 208.53829831638234 306.4114187075745 210.77687456722836 304.17284245672846 213.53829831638234 304.17284245672846 C 216.29972206553632 304.17284245672846 218.53829831638234 306.4114187075745 218.53829831638234 309.17284245672846 Z" stroke-opacity="1" stroke-linecap="round" stroke-linejoin="round" stroke-miterlimit="10"/><text fill="none" stroke="rgb(255,255,255)" font-family="geogebra-sans-serif, sans-serif" font-size="16px" font-style="normal" font-weight="normal" text-decoration="normal" x="218" y="299" text-anchor="start" dominant-baseline="alphabetic" stroke-opacity="1" stroke-linecap="round" stroke-linejoin="bevel" stroke-miterlimit="10" stroke-width="3">H = (2, 8)</text><text fill="rgb(21,101,192)" stroke="none" font-family="geogebra-sans-serif, sans-serif" font-size="16px" font-style="normal" font-weight="normal" text-decoration="normal" x="218" y="299" text-anchor="start" dominant-baseline="alphabetic" fill-opacity="1">H = (2, 8)</text><path fill="rgb(21,101,192)" stroke="none" paint-order="stroke fill markers" d=" M 311.924685981374 589.3320054517042 C 311.924685981374 592.0934292008582 309.68610973052796 594.3320054517042 306.924685981374 594.3320054517042 C 304.16326223222006 594.3320054517042 301.924685981374 592.0934292008582 301.924685981374 589.3320054517042 C 301.924685981374 586.5705817025502 304.16326223222006 584.3320054517042 306.924685981374 584.3320054517042 C 309.68610973052796 584.3320054517042 311.924685981374 586.5705817025502 311.924685981374 589.3320054517042 Z" fill-opacity="1"/><path fill="none" stroke="rgb(0,0,0)" paint-order="fill stroke markers" d=" M 311.924685981374 589.3320054517042 C 311.924685981374 592.0934292008582 309.68610973052796 594.3320054517042 306.924685981374 594.3320054517042 C 304.16326223222006 594.3320054517042 301.924685981374 592.0934292008582 301.924685981374 589.3320054517042 C 301.924685981374 586.5705817025502 304.16326223222006 584.3320054517042 306.924685981374 584.3320054517042 C 309.68610973052796 584.3320054517042 311.924685981374 586.5705817025502 311.924685981374 589.3320054517042 Z" stroke-opacity="1" stroke-linecap="round" stroke-linejoin="round" stroke-miterlimit="10"/><text fill="none" stroke="rgb(255,255,255)" font-family="geogebra-sans-serif, sans-serif" font-size="16px" font-style="normal" font-weight="normal" text-decoration="normal" x="311" y="579" text-anchor="start" dominant-baseline="alphabetic" stroke-opacity="1" stroke-linecap="round" stroke-linejoin="bevel" stroke-miterlimit="10" stroke-width="3">E = (4, 2)</text><text fill="rgb(21,101,192)" stroke="none" font-family="geogebra-sans-serif, sans-serif" font-size="16px" font-style="normal" font-weight="normal" text-decoration="normal" x="311" y="579" text-anchor="start" dominant-baseline="alphabetic" fill-opacity="1">E = (4, 2)</text><path fill="rgb(21,101,192)" stroke="none" paint-order="stroke fill markers" d=" M 452.0042674788615 636.0251992842001 C 452.0042674788615 638.7866230333541 449.76569122801544 641.0251992842001 447.0042674788615 641.0251992842001 C 444.24284372970754 641.0251992842001 442.0042674788615 638.7866230333541 442.0042674788615 636.0251992842001 C 442.0042674788615 633.2637755350461 444.24284372970754 631.0251992842001 447.0042674788615 631.0251992842001 C 449.76569122801544 631.0251992842001 452.0042674788615 633.2637755350461 452.0042674788615 636.0251992842001 Z" fill-opacity="1"/><path fill="none" stroke="rgb(0,0,0)" paint-order="fill stroke markers" d=" M 452.0042674788615 636.0251992842001 C 452.0042674788615 638.7866230333541 449.76569122801544 641.0251992842001 447.0042674788615 641.0251992842001 C 444.24284372970754 641.0251992842001 442.0042674788615 638.7866230333541 442.0042674788615 636.0251992842001 C 442.0042674788615 633.2637755350461 444.24284372970754 631.0251992842001 447.0042674788615 631.0251992842001 C 449.76569122801544 631.0251992842001 452.0042674788615 633.2637755350461 452.0042674788615 636.0251992842001 Z" stroke-opacity="1" stroke-linecap="round" stroke-linejoin="round" stroke-miterlimit="10"/><text fill="none" stroke="rgb(255,255,255)" font-family="geogebra-sans-serif, sans-serif" font-size="16px" font-style="normal" font-weight="normal" text-decoration="normal" x="451" y="626" text-anchor="start" dominant-baseline="alphabetic" stroke-opacity="1" stroke-linecap="round" stroke-linejoin="bevel" stroke-miterlimit="10" stroke-width="3">K</text><text fill="rgb(21,101,192)" stroke="none" font-family="geogebra-sans-serif, sans-serif" font-size="16px" font-style="normal" font-weight="normal" text-decoration="normal" x="451" y="626" text-anchor="start" dominant-baseline="alphabetic" fill-opacity="1">K</text><path fill="rgb(21,101,192)" stroke="none" paint-order="stroke fill markers" d=" M 592.083848976349 449.2524239542163 C 592.083848976349 452.01384770337023 589.845272725503 454.2524239542163 587.083848976349 454.2524239542163 C 584.322425227195 454.2524239542163 582.083848976349 452.01384770337023 582.083848976349 449.2524239542163 C 582.083848976349 446.49100020506233 584.322425227195 444.2524239542163 587.083848976349 444.2524239542163 C 589.845272725503 444.2524239542163 592.083848976349 446.49100020506233 592.083848976349 449.2524239542163 Z" fill-opacity="1"/><path fill="none" stroke="rgb(0,0,0)" paint-order="fill stroke markers" d=" M 592.083848976349 449.2524239542163 C 592.083848976349 452.01384770337023 589.845272725503 454.2524239542163 587.083848976349 454.2524239542163 C 584.322425227195 454.2524239542163 582.083848976349 452.01384770337023 582.083848976349 449.2524239542163 C 582.083848976349 446.49100020506233 584.322425227195 444.2524239542163 587.083848976349 444.2524239542163 C 589.845272725503 444.2524239542163 592.083848976349 446.49100020506233 592.083848976349 449.2524239542163 Z" stroke-opacity="1" stroke-linecap="round" stroke-linejoin="round" stroke-miterlimit="10"/><text fill="none" stroke="rgb(255,255,255)" font-family="geogebra-sans-serif, sans-serif" font-size="16px" font-style="normal" font-weight="normal" text-decoration="normal" x="558" y="474" text-anchor="start" dominant-baseline="alphabetic" stroke-opacity="1" stroke-linecap="round" stroke-linejoin="bevel" stroke-miterlimit="10" stroke-width="3">L = (10, 5)</text><text fill="rgb(21,101,192)" stroke="none" font-family="geogebra-sans-serif, sans-serif" font-size="16px" font-style="normal" font-weight="normal" text-decoration="normal" x="558" y="474" text-anchor="start" dominant-baseline="alphabetic" fill-opacity="1">L = (10, 5)</text><path fill="rgb(21,101,192)" stroke="none" paint-order="stroke fill markers" d=" M 638.7770428088448 402.55923012172036 C 638.7770428088448 405.3206538708743 636.5384665579988 407.55923012172036 633.7770428088448 407.55923012172036 C 631.0156190596908 407.55923012172036 628.7770428088448 405.3206538708743 628.7770428088448 402.55923012172036 C 628.7770428088448 399.7978063725664 631.0156190596908 397.55923012172036 633.7770428088448 397.55923012172036 C 636.5384665579988 397.55923012172036 638.7770428088448 399.7978063725664 638.7770428088448 402.55923012172036 Z" fill-opacity="1"/><path fill="none" stroke="rgb(0,0,0)" paint-order="fill stroke markers" d=" M 638.7770428088448 402.55923012172036 C 638.7770428088448 405.3206538708743 636.5384665579988 407.55923012172036 633.7770428088448 407.55923012172036 C 631.0156190596908 407.55923012172036 628.7770428088448 405.3206538708743 628.7770428088448 402.55923012172036 C 628.7770428088448 399.7978063725664 631.0156190596908 397.55923012172036 633.7770428088448 397.55923012172036 C 636.5384665579988 397.55923012172036 638.7770428088448 399.7978063725664 638.7770428088448 402.55923012172036 Z" stroke-opacity="1" stroke-linecap="round" stroke-linejoin="round" stroke-miterlimit="10"/><text fill="none" stroke="rgb(255,255,255)" font-family="geogebra-sans-serif, sans-serif" font-size="16px" font-style="normal" font-weight="normal" text-decoration="normal" x="638" y="393" text-anchor="start" dominant-baseline="alphabetic" stroke-opacity="1" stroke-linecap="round" stroke-linejoin="bevel" stroke-miterlimit="10" stroke-width="3">F = (11, 6)</text><text fill="rgb(21,101,192)" stroke="none" font-family="geogebra-sans-serif, sans-serif" font-size="16px" font-style="normal" font-weight="normal" text-decoration="normal" x="638" y="393" text-anchor="start" dominant-baseline="alphabetic" fill-opacity="1">F = (11, 6)</text><path fill="rgb(21,101,192)" stroke="none" paint-order="stroke fill markers" d=" M 778.8566243063324 636.0251992842001 C 778.8566243063324 638.7866230333541 776.6180480554864 641.0251992842001 773.8566243063324 641.0251992842001 C 771.0952005571784 641.0251992842001 768.8566243063324 638.7866230333541 768.8566243063324 636.0251992842001 C 768.8566243063324 633.2637755350461 771.0952005571784 631.0251992842001 773.8566243063324 631.0251992842001 C 776.6180480554864 631.0251992842001 778.8566243063324 633.2637755350461 778.8566243063324 636.0251992842001 Z" fill-opacity="1"/><path fill="none" stroke="rgb(0,0,0)" paint-order="fill stroke markers" d=" M 778.8566243063324 636.0251992842001 C 778.8566243063324 638.7866230333541 776.6180480554864 641.0251992842001 773.8566243063324 641.0251992842001 C 771.0952005571784 641.0251992842001 768.8566243063324 638.7866230333541 768.8566243063324 636.0251992842001 C 768.8566243063324 633.2637755350461 771.0952005571784 631.0251992842001 773.8566243063324 631.0251992842001 C 776.6180480554864 631.0251992842001 778.8566243063324 633.2637755350461 778.8566243063324 636.0251992842001 Z" stroke-opacity="1" stroke-linecap="round" stroke-linejoin="round" stroke-miterlimit="10"/><text fill="none" stroke="rgb(255,255,255)" font-family="geogebra-sans-serif, sans-serif" font-size="16px" font-style="normal" font-weight="normal" text-decoration="normal" x="778" y="626" text-anchor="start" dominant-baseline="alphabetic" stroke-opacity="1" stroke-linecap="round" stroke-linejoin="bevel" stroke-miterlimit="10" stroke-width="3">N = (14, 1)</text><text fill="rgb(21,101,192)" stroke="none" font-family="geogebra-sans-serif, sans-serif" font-size="16px" font-style="normal" font-weight="normal" text-decoration="normal" x="778" y="626" text-anchor="start" dominant-baseline="alphabetic" fill-opacity="1">N = (14, 1)</text><path fill="rgb(21,101,192)" stroke="none" paint-order="stroke fill markers" d=" M 171.84510448388653 495.9456177867122 C 171.84510448388653 498.70704153586615 169.6065282330405 500.9456177867122 166.84510448388653 500.9456177867122 C 164.08368073473255 500.9456177867122 161.84510448388653 498.70704153586615 161.84510448388653 495.9456177867122 C 161.84510448388653 493.18419403755826 164.08368073473255 490.9456177867122 166.84510448388653 490.9456177867122 C 169.6065282330405 490.9456177867122 171.84510448388653 493.18419403755826 171.84510448388653 495.9456177867122 Z" fill-opacity="1"/><path fill="none" stroke="rgb(0,0,0)" paint-order="fill stroke markers" d=" M 171.84510448388653 495.9456177867122 C 171.84510448388653 498.70704153586615 169.6065282330405 500.9456177867122 166.84510448388653 500.9456177867122 C 164.08368073473255 500.9456177867122 161.84510448388653 498.70704153586615 161.84510448388653 495.9456177867122 C 161.84510448388653 493.18419403755826 164.08368073473255 490.9456177867122 166.84510448388653 490.9456177867122 C 169.6065282330405 490.9456177867122 171.84510448388653 493.18419403755826 171.84510448388653 495.9456177867122 Z" stroke-opacity="1" stroke-linecap="round" stroke-linejoin="round" stroke-miterlimit="10"/><text fill="none" stroke="rgb(255,255,255)" font-family="geogebra-sans-serif, sans-serif" font-size="16px" font-style="normal" font-weight="normal" text-decoration="normal" x="171" y="486" text-anchor="start" dominant-baseline="alphabetic" stroke-opacity="1" stroke-linecap="round" stroke-linejoin="bevel" stroke-miterlimit="10" stroke-width="3">B = (1, 4)</text><text fill="rgb(21,101,192)" stroke="none" font-family="geogebra-sans-serif, sans-serif" font-size="16px" font-style="normal" font-weight="normal" text-decoration="normal" x="171" y="486" text-anchor="start" dominant-baseline="alphabetic" fill-opacity="1">B = (1, 4)</text><path fill="rgb(21,101,192)" stroke="none" paint-order="stroke fill markers" d=" M 121.1519106513907 520.2260785796101 C 121.1519106513907 520.7783633294409 120.70419540122148 521.2260785796101 120.1519106513907 521.2260785796101 C 119.5996259015599 521.2260785796101 119.1519106513907 520.7783633294409 119.1519106513907 520.2260785796101 C 119.1519106513907 519.6737938297792 119.5996259015599 519.2260785796101 120.1519106513907 519.2260785796101 C 120.70419540122148 519.2260785796101 121.1519106513907 519.6737938297792 121.1519106513907 520.2260785796101 Z" fill-opacity="1"/><path fill="none" stroke="rgb(0,0,0)" paint-order="fill stroke markers" d=" M 121.1519106513907 520.2260785796101 C 121.1519106513907 520.7783633294409 120.70419540122148 521.2260785796101 120.1519106513907 521.2260785796101 C 119.5996259015599 521.2260785796101 119.1519106513907 520.7783633294409 119.1519106513907 520.2260785796101 C 119.1519106513907 519.6737938297792 119.5996259015599 519.2260785796101 120.1519106513907 519.2260785796101 C 120.70419540122148 519.2260785796101 121.1519106513907 519.6737938297792 121.1519106513907 520.2260785796101 Z" stroke-opacity="1" stroke-linecap="round" stroke-linejoin="round" stroke-miterlimit="10"/><path fill="rgb(21,101,192)" stroke="none" paint-order="stroke fill markers" d=" M 495.0707935602687 495.77907011461525 C 495.0707935602687 496.33135486444604 494.6230783100995 496.77907011461525 494.0707935602687 496.77907011461525 C 493.51850881043794 496.77907011461525 493.0707935602687 496.33135486444604 493.0707935602687 495.77907011461525 C 493.0707935602687 495.22678536478446 493.51850881043794 494.77907011461525 494.0707935602687 494.77907011461525 C 494.6230783100995 494.77907011461525 495.0707935602687 495.22678536478446 495.0707935602687 495.77907011461525 Z" fill-opacity="1"/><path fill="none" stroke="rgb(0,0,0)" paint-order="fill stroke markers" d=" M 495.0707935602687 495.77907011461525 C 495.0707935602687 496.33135486444604 494.6230783100995 496.77907011461525 494.0707935602687 496.77907011461525 C 493.51850881043794 496.77907011461525 493.0707935602687 496.33135486444604 493.0707935602687 495.77907011461525 C 493.0707935602687 495.22678536478446 493.51850881043794 494.77907011461525 494.0707935602687 494.77907011461525 C 494.6230783100995 494.77907011461525 495.0707935602687 495.22678536478446 495.0707935602687 495.77907011461525 Z" stroke-opacity="1" stroke-linecap="round" stroke-linejoin="round" stroke-miterlimit="10"/><path fill="rgb(21,101,192)" stroke="none" paint-order="stroke fill markers" d=" M 354.6178798138699 262.47964862423254 C 354.6178798138699 263.0319333740633 354.17016456370067 263.47964862423254 353.6178798138699 263.47964862423254 C 353.0655950640391 263.47964862423254 352.6178798138699 263.0319333740633 352.6178798138699 262.47964862423254 C 352.6178798138699 261.92736387440175 353.0655950640391 261.47964862423254 353.6178798138699 261.47964862423254 C 354.17016456370067 261.47964862423254 354.6178798138699 261.92736387440175 354.6178798138699 262.47964862423254 Z" fill-opacity="1"/><path fill="none" stroke="rgb(0,0,0)" paint-order="fill stroke markers" d=" M 354.6178798138699 262.47964862423254 C 354.6178798138699 263.0319333740633 354.17016456370067 263.47964862423254 353.6178798138699 263.47964862423254 C 353.0655950640391 263.47964862423254 352.6178798138699 263.0319333740633 352.6178798138699 262.47964862423254 C 352.6178798138699 261.92736387440175 353.0655950640391 261.47964862423254 353.6178798138699 261.47964862423254 C 354.17016456370067 261.47964862423254 354.6178798138699 261.92736387440175 354.6178798138699 262.47964862423254 Z" stroke-opacity="1" stroke-linecap="round" stroke-linejoin="round" stroke-miterlimit="10"/><path fill="rgb(21,101,192)" stroke="none" paint-order="stroke fill markers" d=" M 354.83121252753347 495.8504476883711 C 354.83121252753347 496.4027324382019 354.38349727736426 496.8504476883711 353.83121252753347 496.8504476883711 C 353.2789277777027 496.8504476883711 352.83121252753347 496.4027324382019 352.83121252753347 495.8504476883711 C 352.83121252753347 495.2981629385403 353.2789277777027 494.8504476883711 353.83121252753347 494.8504476883711 C 354.38349727736426 494.8504476883711 354.83121252753347 495.2981629385403 354.83121252753347 495.8504476883711 Z" fill-opacity="1"/><path fill="none" stroke="rgb(0,0,0)" paint-order="fill stroke markers" d=" M 354.83121252753347 495.8504476883711 C 354.83121252753347 496.4027324382019 354.38349727736426 496.8504476883711 353.83121252753347 496.8504476883711 C 353.2789277777027 496.8504476883711 352.83121252753347 496.4027324382019 352.83121252753347 495.8504476883711 C 352.83121252753347 495.2981629385403 353.2789277777027 494.8504476883711 353.83121252753347 494.8504476883711 C 354.38349727736426 494.8504476883711 354.83121252753347 495.2981629385403 354.83121252753347 495.8504476883711 Z" stroke-opacity="1" stroke-linecap="round" stroke-linejoin="round" stroke-miterlimit="10"/><path fill="rgb(21,101,192)" stroke="none" paint-order="stroke fill markers" d=" M 307.924685981374 682.718393116696 C 307.924685981374 683.2706778665269 307.4769707312048 683.718393116696 306.924685981374 683.718393116696 C 306.3724012315432 683.718393116696 305.924685981374 683.2706778665269 305.924685981374 682.718393116696 C 305.924685981374 682.1661083668652 306.3724012315432 681.718393116696 306.924685981374 681.718393116696 C 307.4769707312048 681.718393116696 307.924685981374 682.1661083668652 307.924685981374 682.718393116696 Z" fill-opacity="1"/><path fill="none" stroke="rgb(0,0,0)" paint-order="fill stroke markers" d=" M 307.924685981374 682.718393116696 C 307.924685981374 683.2706778665269 307.4769707312048 683.718393116696 306.924685981374 683.718393116696 C 306.3724012315432 683.718393116696 305.924685981374 683.2706778665269 305.924685981374 682.718393116696 C 305.924685981374 682.1661083668652 306.3724012315432 681.718393116696 306.924685981374 681.718393116696 C 307.4769707312048 681.718393116696 307.924685981374 682.1661083668652 307.924685981374 682.718393116696 Z" stroke-opacity="1" stroke-linecap="round" stroke-linejoin="round" stroke-miterlimit="10"/><path fill="rgb(21,101,192)" stroke="none" paint-order="stroke fill markers" d=" M 308.08468551662173 495.8742402129564 C 308.08468551662173 496.4265249627872 307.6369702664525 496.8742402129564 307.08468551662173 496.8742402129564 C 306.53240076679094 496.8742402129564 306.08468551662173 496.4265249627872 306.08468551662173 495.8742402129564 C 306.08468551662173 495.3219554631256 306.53240076679094 494.8742402129564 307.08468551662173 494.8742402129564 C 307.6369702664525 494.8742402129564 308.08468551662173 495.3219554631256 308.08468551662173 495.8742402129564 Z" fill-opacity="1"/><path fill="none" stroke="rgb(0,0,0)" paint-order="fill stroke markers" d=" M 308.08468551662173 495.8742402129564 C 308.08468551662173 496.4265249627872 307.6369702664525 496.8742402129564 307.08468551662173 496.8742402129564 C 306.53240076679094 496.8742402129564 306.08468551662173 496.4265249627872 306.08468551662173 495.8742402129564 C 306.08468551662173 495.3219554631256 306.53240076679094 494.8742402129564 307.08468551662173 494.8742402129564 C 307.6369702664525 494.8742402129564 308.08468551662173 495.3219554631256 308.08468551662173 495.8742402129564 Z" stroke-opacity="1" stroke-linecap="round" stroke-linejoin="round" stroke-miterlimit="10"/><path fill="rgb(21,101,192)" stroke="none" paint-order="stroke fill markers" d=" M 494.6974613113573 542.6388116192081 C 494.6974613113573 543.191096369039 494.2497460611881 543.6388116192081 493.6974613113573 543.6388116192081 C 493.1451765615265 543.6388116192081 492.6974613113573 543.191096369039 492.6974613113573 542.6388116192081 C 492.6974613113573 542.0865268693773 493.1451765615265 541.6388116192081 493.6974613113573 541.6388116192081 C 494.2497460611881 541.6388116192081 494.6974613113573 542.0865268693773 494.6974613113573 542.6388116192081 Z" fill-opacity="1"/><path fill="none" stroke="rgb(0,0,0)" paint-order="fill stroke markers" d=" M 494.6974613113573 542.6388116192081 C 494.6974613113573 543.191096369039 494.2497460611881 543.6388116192081 493.6974613113573 543.6388116192081 C 493.1451765615265 543.6388116192081 492.6974613113573 543.191096369039 492.6974613113573 542.6388116192081 C 492.6974613113573 542.0865268693773 493.1451765615265 541.6388116192081 493.6974613113573 541.6388116192081 C 494.2497460611881 541.6388116192081 494.6974613113573 542.0865268693773 494.6974613113573 542.6388116192081 Z" stroke-opacity="1" stroke-linecap="round" stroke-linejoin="round" stroke-miterlimit="10"/><path fill="rgb(21,101,192)" stroke="none" paint-order="stroke fill markers" d=" M 634.7770428088448 542.6388116192081 C 634.7770428088448 543.191096369039 634.3293275586757 543.6388116192081 633.7770428088448 543.6388116192081 C 633.224758059014 543.6388116192081 632.7770428088448 543.191096369039 632.7770428088448 542.6388116192081 C 632.7770428088448 542.0865268693773 633.224758059014 541.6388116192081 633.7770428088448 541.6388116192081 C 634.3293275586757 541.6388116192081 634.7770428088448 542.0865268693773 634.7770428088448 542.6388116192081 Z" fill-opacity="1"/><path fill="none" stroke="rgb(0,0,0)" paint-order="fill stroke markers" d=" M 634.7770428088448 542.6388116192081 C 634.7770428088448 543.191096369039 634.3293275586757 543.6388116192081 633.7770428088448 543.6388116192081 C 633.224758059014 543.6388116192081 632.7770428088448 543.191096369039 632.7770428088448 542.6388116192081 C 632.7770428088448 542.0865268693773 633.224758059014 541.6388116192081 633.7770428088448 541.6388116192081 C 634.3293275586757 541.6388116192081 634.7770428088448 542.0865268693773 634.7770428088448 542.6388116192081 Z" stroke-opacity="1" stroke-linecap="round" stroke-linejoin="round" stroke-miterlimit="10"/><path fill="rgb(21,101,192)" stroke="none" paint-order="stroke fill markers" d=" M 541.3906551438531 682.718393116696 C 541.3906551438531 683.2706778665269 540.942939893684 683.718393116696 540.3906551438531 683.718393116696 C 539.8383703940223 683.718393116696 539.3906551438531 683.2706778665269 539.3906551438531 682.718393116696 C 539.3906551438531 682.1661083668652 539.8383703940223 681.718393116696 540.3906551438531 681.718393116696 C 540.942939893684 681.718393116696 541.3906551438531 682.1661083668652 541.3906551438531 682.718393116696 Z" fill-opacity="1"/><path fill="none" stroke="rgb(0,0,0)" paint-order="fill stroke markers" d=" M 541.3906551438531 682.718393116696 C 541.3906551438531 683.2706778665269 540.942939893684 683.718393116696 540.3906551438531 683.718393116696 C 539.8383703940223 683.718393116696 539.3906551438531 683.2706778665269 539.3906551438531 682.718393116696 C 539.3906551438531 682.1661083668652 539.8383703940223 681.718393116696 540.3906551438531 681.718393116696 C 540.942939893684 681.718393116696 541.3906551438531 682.1661083668652 541.3906551438531 682.718393116696 Z" stroke-opacity="1" stroke-linecap="round" stroke-linejoin="round" stroke-miterlimit="10"/><path fill="rgb(21,101,192)" stroke="none" paint-order="stroke fill markers" d=" M 541.3906551438531 542.6388116192081 C 541.3906551438531 543.191096369039 540.942939893684 543.6388116192081 540.3906551438531 543.6388116192081 C 539.8383703940223 543.6388116192081 539.3906551438531 543.191096369039 539.3906551438531 542.6388116192081 C 539.3906551438531 542.0865268693773 539.8383703940223 541.6388116192081 540.3906551438531 541.6388116192081 C 540.942939893684 541.6388116192081 541.3906551438531 542.0865268693773 541.3906551438531 542.6388116192081 Z" fill-opacity="1"/><path fill="none" stroke="rgb(0,0,0)" paint-order="fill stroke markers" d=" M 541.3906551438531 542.6388116192081 C 541.3906551438531 543.191096369039 540.942939893684 543.6388116192081 540.3906551438531 543.6388116192081 C 539.8383703940223 543.6388116192081 539.3906551438531 543.191096369039 539.3906551438531 542.6388116192081 C 539.3906551438531 542.0865268693773 539.8383703940223 541.6388116192081 540.3906551438531 541.6388116192081 C 540.942939893684 541.6388116192081 541.3906551438531 542.0865268693773 541.3906551438531 542.6388116192081 Z" stroke-opacity="1" stroke-linecap="round" stroke-linejoin="round" stroke-miterlimit="10"/><path fill="rgb(21,101,192)" stroke="none" paint-order="stroke fill markers" d=" M 121.1519106513907 215.78645479173656 C 121.1519106513907 216.33873954156735 120.70419540122148 216.78645479173656 120.1519106513907 216.78645479173656 C 119.5996259015599 216.78645479173656 119.1519106513907 216.33873954156735 119.1519106513907 215.78645479173656 C 119.1519106513907 215.23417004190577 119.5996259015599 214.78645479173656 120.1519106513907 214.78645479173656 C 120.70419540122148 214.78645479173656 121.1519106513907 215.23417004190577 121.1519106513907 215.78645479173656 Z" fill-opacity="1"/><path fill="none" stroke="rgb(0,0,0)" paint-order="fill stroke markers" d=" M 121.1519106513907 215.78645479173656 C 121.1519106513907 216.33873954156735 120.70419540122148 216.78645479173656 120.1519106513907 216.78645479173656 C 119.5996259015599 216.78645479173656 119.1519106513907 216.33873954156735 119.1519106513907 215.78645479173656 C 119.1519106513907 215.23417004190577 119.5996259015599 214.78645479173656 120.1519106513907 214.78645479173656 C 120.70419540122148 214.78645479173656 121.1519106513907 215.23417004190577 121.1519106513907 215.78645479173656 Z" stroke-opacity="1" stroke-linecap="round" stroke-linejoin="round" stroke-miterlimit="10"/><path fill="rgb(21,101,192)" stroke="none" paint-order="stroke fill markers" d=" M 821.5498181388282 215.78645479173656 C 821.5498181388282 216.33873954156735 821.102102888659 216.78645479173656 820.5498181388282 216.78645479173656 C 819.9975333889973 216.78645479173656 819.5498181388282 216.33873954156735 819.5498181388282 215.78645479173656 C 819.5498181388282 215.23417004190577 819.9975333889973 214.78645479173656 820.5498181388282 214.78645479173656 C 821.102102888659 214.78645479173656 821.5498181388282 215.23417004190577 821.5498181388282 215.78645479173656 Z" fill-opacity="1"/><path fill="none" stroke="rgb(0,0,0)" paint-order="fill stroke markers" d=" M 821.5498181388282 215.78645479173656 C 821.5498181388282 216.33873954156735 821.102102888659 216.78645479173656 820.5498181388282 216.78645479173656 C 819.9975333889973 216.78645479173656 819.5498181388282 216.33873954156735 819.5498181388282 215.78645479173656 C 819.5498181388282 215.23417004190577 819.9975333889973 214.78645479173656 820.5498181388282 214.78645479173656 C 821.102102888659 214.78645479173656 821.5498181388282 215.23417004190577 821.5498181388282 215.78645479173656 Z" stroke-opacity="1" stroke-linecap="round" stroke-linejoin="round" stroke-miterlimit="10"/><path fill="rgb(21,101,192)" stroke="none" paint-order="stroke fill markers" d=" M 821.5498181388282 682.718393116696 C 821.5498181388282 683.2706778665269 821.102102888659 683.718393116696 820.5498181388282 683.718393116696 C 819.9975333889973 683.718393116696 819.5498181388282 683.2706778665269 819.5498181388282 682.718393116696 C 819.5498181388282 682.1661083668652 819.9975333889973 681.718393116696 820.5498181388282 681.718393116696 C 821.102102888659 681.718393116696 821.5498181388282 682.1661083668652 821.5498181388282 682.718393116696 Z" fill-opacity="1"/><path fill="none" stroke="rgb(0,0,0)" paint-order="fill stroke markers" d=" M 821.5498181388282 682.718393116696 C 821.5498181388282 683.2706778665269 821.102102888659 683.718393116696 820.5498181388282 683.718393116696 C 819.9975333889973 683.718393116696 819.5498181388282 683.2706778665269 819.5498181388282 682.718393116696 C 819.5498181388282 682.1661083668652 819.9975333889973 681.718393116696 820.5498181388282 681.718393116696 C 821.102102888659 681.718393116696 821.5498181388282 682.1661083668652 821.5498181388282 682.718393116696 Z" stroke-opacity="1" stroke-linecap="round" stroke-linejoin="round" stroke-miterlimit="10"/><path fill="rgb(97,97,97)" stroke="none" paint-order="stroke fill markers" d=" M 121.1519106513907 682.718393116696 C 121.1519106513907 683.2706778665269 120.70419540122148 683.718393116696 120.1519106513907 683.718393116696 C 119.5996259015599 683.718393116696 119.1519106513907 683.2706778665269 119.1519106513907 682.718393116696 C 119.1519106513907 682.1661083668652 119.5996259015599 681.718393116696 120.1519106513907 681.718393116696 C 120.70419540122148 681.718393116696 121.1519106513907 682.1661083668652 121.1519106513907 682.718393116696 Z" fill-opacity="1"/><path fill="none" stroke="rgb(0,0,0)" paint-order="fill stroke markers" d=" M 121.1519106513907 682.718393116696 C 121.1519106513907 683.2706778665269 120.70419540122148 683.718393116696 120.1519106513907 683.718393116696 C 119.5996259015599 683.718393116696 119.1519106513907 683.2706778665269 119.1519106513907 682.718393116696 C 119.1519106513907 682.1661083668652 119.5996259015599 681.718393116696 120.1519106513907 681.718393116696 C 120.70419540122148 681.718393116696 121.1519106513907 682.1661083668652 121.1519106513907 682.718393116696 Z" stroke-opacity="1" stroke-linecap="round" stroke-linejoin="round" stroke-miterlimit="10"/><path fill="rgb(21,101,192)" stroke="none" paint-order="stroke fill markers" d=" M 218.53829831638234 589.3320054517042 C 218.53829831638234 592.0934292008582 216.29972206553632 594.3320054517042 213.53829831638234 594.3320054517042 C 210.77687456722836 594.3320054517042 208.53829831638234 592.0934292008582 208.53829831638234 589.3320054517042 C 208.53829831638234 586.5705817025502 210.77687456722836 584.3320054517042 213.53829831638234 584.3320054517042 C 216.29972206553632 584.3320054517042 218.53829831638234 586.5705817025502 218.53829831638234 589.3320054517042 Z" fill-opacity="1"/><path fill="none" stroke="rgb(0,0,0)" paint-order="fill stroke markers" d=" M 218.53829831638234 589.3320054517042 C 218.53829831638234 592.0934292008582 216.29972206553632 594.3320054517042 213.53829831638234 594.3320054517042 C 210.77687456722836 594.3320054517042 208.53829831638234 592.0934292008582 208.53829831638234 589.3320054517042 C 208.53829831638234 586.5705817025502 210.77687456722836 584.3320054517042 213.53829831638234 584.3320054517042 C 216.29972206553632 584.3320054517042 218.53829831638234 586.5705817025502 218.53829831638234 589.3320054517042 Z" stroke-opacity="1" stroke-linecap="round" stroke-linejoin="round" stroke-miterlimit="10"/><text fill="none" stroke="rgb(255,255,255)" font-family="geogebra-sans-serif, sans-serif" font-size="16px" font-style="normal" font-weight="normal" text-decoration="normal" x="218" y="579" text-anchor="start" dominant-baseline="alphabetic" stroke-opacity="1" stroke-linecap="round" stroke-linejoin="bevel" stroke-miterlimit="10" stroke-width="3">J = (2, 2)</text><text fill="rgb(21,101,192)" stroke="none" font-family="geogebra-sans-serif, sans-serif" font-size="16px" font-style="normal" font-weight="normal" text-decoration="normal" x="218" y="579" text-anchor="start" dominant-baseline="alphabetic" fill-opacity="1">J = (2, 2)</text><path fill="rgb(21,101,192)" stroke="none" paint-order="stroke fill markers" d=" M 1199.0953687987947 169.09326095924064 C 1199.0953687987947 171.85468470839461 1196.8567925479485 174.09326095924064 1194.0953687987947 174.09326095924064 C 1191.3339450496408 174.09326095924064 1189.0953687987947 171.85468470839461 1189.0953687987947 169.09326095924064 C 1189.0953687987947 166.33183721008666 1191.3339450496408 164.09326095924064 1194.0953687987947 164.09326095924064 C 1196.8567925479485 164.09326095924064 1199.0953687987947 166.33183721008666 1199.0953687987947 169.09326095924064 Z" fill-opacity="1"/><path fill="none" stroke="rgb(0,0,0)" paint-order="fill stroke markers" d=" M 1199.0953687987947 169.09326095924064 C 1199.0953687987947 171.85468470839461 1196.8567925479485 174.09326095924064 1194.0953687987947 174.09326095924064 C 1191.3339450496408 174.09326095924064 1189.0953687987947 171.85468470839461 1189.0953687987947 169.09326095924064 C 1189.0953687987947 166.33183721008666 1191.3339450496408 164.09326095924064 1194.0953687987947 164.09326095924064 C 1196.8567925479485 164.09326095924064 1199.0953687987947 166.33183721008666 1199.0953687987947 169.09326095924064 Z" stroke-opacity="1" stroke-linecap="round" stroke-linejoin="round" stroke-miterlimit="10"/><text fill="none" stroke="rgb(255,255,255)" font-family="geogebra-sans-serif, sans-serif" font-size="16px" font-style="normal" font-weight="normal" text-decoration="normal" x="1198" y="159" text-anchor="start" dominant-baseline="alphabetic" stroke-opacity="1" stroke-linecap="round" stroke-linejoin="bevel" stroke-miterlimit="10" stroke-width="3">A</text><text fill="rgb(21,101,192)" stroke="none" font-family="geogebra-sans-serif, sans-serif" font-size="16px" font-style="normal" font-weight="normal" text-decoration="normal" x="1198" y="159" text-anchor="start" dominant-baseline="alphabetic" fill-opacity="1">A</text><path fill="rgb(21,101,192)" stroke="none" paint-order="stroke fill markers" d=" M 1059.0157873013072 215.78645479173656 C 1059.0157873013072 218.54787854089054 1056.7772110504611 220.78645479173656 1054.0157873013072 220.78645479173656 C 1051.2543635521533 220.78645479173656 1049.0157873013072 218.54787854089054 1049.0157873013072 215.78645479173656 C 1049.0157873013072 213.02503104258258 1051.2543635521533 210.78645479173656 1054.0157873013072 210.78645479173656 C 1056.7772110504611 210.78645479173656 1059.0157873013072 213.02503104258258 1059.0157873013072 215.78645479173656 Z" fill-opacity="1"/><path fill="none" stroke="rgb(0,0,0)" paint-order="fill stroke markers" d=" M 1059.0157873013072 215.78645479173656 C 1059.0157873013072 218.54787854089054 1056.7772110504611 220.78645479173656 1054.0157873013072 220.78645479173656 C 1051.2543635521533 220.78645479173656 1049.0157873013072 218.54787854089054 1049.0157873013072 215.78645479173656 C 1049.0157873013072 213.02503104258258 1051.2543635521533 210.78645479173656 1054.0157873013072 210.78645479173656 C 1056.7772110504611 210.78645479173656 1059.0157873013072 213.02503104258258 1059.0157873013072 215.78645479173656 Z" stroke-opacity="1" stroke-linecap="round" stroke-linejoin="round" stroke-miterlimit="10"/><text fill="none" stroke="rgb(255,255,255)" font-family="geogebra-sans-serif, sans-serif" font-size="16px" font-style="normal" font-weight="normal" text-decoration="normal" x="1058" y="206" text-anchor="start" dominant-baseline="alphabetic" stroke-opacity="1" stroke-linecap="round" stroke-linejoin="bevel" stroke-miterlimit="10" stroke-width="3">B</text><text fill="rgb(21,101,192)" stroke="none" font-family="geogebra-sans-serif, sans-serif" font-size="16px" font-style="normal" font-weight="normal" text-decoration="normal" x="1058" y="206" text-anchor="start" dominant-baseline="alphabetic" fill-opacity="1">B</text><path fill="rgb(21,101,192)" stroke="none" paint-order="stroke fill markers" d=" M 1292.4817564637863 215.78645479173656 C 1292.4817564637863 218.54787854089054 1290.2431802129402 220.78645479173656 1287.4817564637863 220.78645479173656 C 1284.7203327146324 220.78645479173656 1282.4817564637863 218.54787854089054 1282.4817564637863 215.78645479173656 C 1282.4817564637863 213.02503104258258 1284.7203327146324 210.78645479173656 1287.4817564637863 210.78645479173656 C 1290.2431802129402 210.78645479173656 1292.4817564637863 213.02503104258258 1292.4817564637863 215.78645479173656 Z" fill-opacity="1"/><path fill="none" stroke="rgb(0,0,0)" paint-order="fill stroke markers" d=" M 1292.4817564637863 215.78645479173656 C 1292.4817564637863 218.54787854089054 1290.2431802129402 220.78645479173656 1287.4817564637863 220.78645479173656 C 1284.7203327146324 220.78645479173656 1282.4817564637863 218.54787854089054 1282.4817564637863 215.78645479173656 C 1282.4817564637863 213.02503104258258 1284.7203327146324 210.78645479173656 1287.4817564637863 210.78645479173656 C 1290.2431802129402 210.78645479173656 1292.4817564637863 213.02503104258258 1292.4817564637863 215.78645479173656 Z" stroke-opacity="1" stroke-linecap="round" stroke-linejoin="round" stroke-miterlimit="10"/><text fill="none" stroke="rgb(255,255,255)" font-family="geogebra-sans-serif, sans-serif" font-size="16px" font-style="normal" font-weight="normal" text-decoration="normal" x="1291" y="206" text-anchor="start" dominant-baseline="alphabetic" stroke-opacity="1" stroke-linecap="round" stroke-linejoin="bevel" stroke-miterlimit="10" stroke-width="3">C</text><text fill="rgb(21,101,192)" stroke="none" font-family="geogebra-sans-serif, sans-serif" font-size="16px" font-style="normal" font-weight="normal" text-decoration="normal" x="1291" y="206" text-anchor="start" dominant-baseline="alphabetic" fill-opacity="1">C</text><path fill="rgb(21,101,192)" stroke="none" paint-order="stroke fill markers" d=" M 1105.708981133803 262.47964862423254 C 1105.708981133803 265.2410723733865 1103.470404882957 267.47964862423254 1100.708981133803 267.47964862423254 C 1097.9475573846491 267.47964862423254 1095.708981133803 265.2410723733865 1095.708981133803 262.47964862423254 C 1095.708981133803 259.7182248750786 1097.9475573846491 257.47964862423254 1100.708981133803 257.47964862423254 C 1103.470404882957 257.47964862423254 1105.708981133803 259.7182248750786 1105.708981133803 262.47964862423254 Z" fill-opacity="1"/><path fill="none" stroke="rgb(0,0,0)" paint-order="fill stroke markers" d=" M 1105.708981133803 262.47964862423254 C 1105.708981133803 265.2410723733865 1103.470404882957 267.47964862423254 1100.708981133803 267.47964862423254 C 1097.9475573846491 267.47964862423254 1095.708981133803 265.2410723733865 1095.708981133803 262.47964862423254 C 1095.708981133803 259.7182248750786 1097.9475573846491 257.47964862423254 1100.708981133803 257.47964862423254 C 1103.470404882957 257.47964862423254 1105.708981133803 259.7182248750786 1105.708981133803 262.47964862423254 Z" stroke-opacity="1" stroke-linecap="round" stroke-linejoin="round" stroke-miterlimit="10"/><text fill="none" stroke="rgb(255,255,255)" font-family="geogebra-sans-serif, sans-serif" font-size="16px" font-style="normal" font-weight="normal" text-decoration="normal" x="1105" y="252" text-anchor="start" dominant-baseline="alphabetic" stroke-opacity="1" stroke-linecap="round" stroke-linejoin="bevel" stroke-miterlimit="10" stroke-width="3">D</text><text fill="rgb(21,101,192)" stroke="none" font-family="geogebra-sans-serif, sans-serif" font-size="16px" font-style="normal" font-weight="normal" text-decoration="normal" x="1105" y="252" text-anchor="start" dominant-baseline="alphabetic" fill-opacity="1">D</text><path fill="rgb(21,101,192)" stroke="none" paint-order="stroke fill markers" d=" M 920.3592041142024 265.3314927985639 C 920.3592041142024 268.09291654771783 918.1206278633564 270.3314927985639 915.3592041142024 270.3314927985639 C 912.5977803650484 270.3314927985639 910.3592041142024 268.09291654771783 910.3592041142024 265.3314927985639 C 910.3592041142024 262.57006904940994 912.5977803650484 260.3314927985639 915.3592041142024 260.3314927985639 C 918.1206278633564 260.3314927985639 920.3592041142024 262.57006904940994 920.3592041142024 265.3314927985639 Z" fill-opacity="1"/><path fill="none" stroke="rgb(0,0,0)" paint-order="fill stroke markers" d=" M 920.3592041142024 265.3314927985639 C 920.3592041142024 268.09291654771783 918.1206278633564 270.3314927985639 915.3592041142024 270.3314927985639 C 912.5977803650484 270.3314927985639 910.3592041142024 268.09291654771783 910.3592041142024 265.3314927985639 C 910.3592041142024 262.57006904940994 912.5977803650484 260.3314927985639 915.3592041142024 260.3314927985639 C 918.1206278633564 260.3314927985639 920.3592041142024 262.57006904940994 920.3592041142024 265.3314927985639 Z" stroke-opacity="1" stroke-linecap="round" stroke-linejoin="round" stroke-miterlimit="10"/><text fill="none" stroke="rgb(255,255,255)" font-family="geogebra-sans-serif, sans-serif" font-size="16px" font-style="normal" font-weight="normal" text-decoration="normal" x="919" y="255" text-anchor="start" dominant-baseline="alphabetic" stroke-opacity="1" stroke-linecap="round" stroke-linejoin="bevel" stroke-miterlimit="10" stroke-width="3">E</text><text fill="rgb(21,101,192)" stroke="none" font-family="geogebra-sans-serif, sans-serif" font-size="16px" font-style="normal" font-weight="normal" text-decoration="normal" x="919" y="255" text-anchor="start" dominant-baseline="alphabetic" fill-opacity="1">E</text><path fill="rgb(21,101,192)" stroke="none" paint-order="stroke fill markers" d=" M 1385.868144128778 262.47964862423254 C 1385.868144128778 265.2410723733865 1383.629567877932 267.47964862423254 1380.868144128778 267.47964862423254 C 1378.1067203796242 267.47964862423254 1375.868144128778 265.2410723733865 1375.868144128778 262.47964862423254 C 1375.868144128778 259.7182248750786 1378.1067203796242 257.47964862423254 1380.868144128778 257.47964862423254 C 1383.629567877932 257.47964862423254 1385.868144128778 259.7182248750786 1385.868144128778 262.47964862423254 Z" fill-opacity="1"/><path fill="none" stroke="rgb(0,0,0)" paint-order="fill stroke markers" d=" M 1385.868144128778 262.47964862423254 C 1385.868144128778 265.2410723733865 1383.629567877932 267.47964862423254 1380.868144128778 267.47964862423254 C 1378.1067203796242 267.47964862423254 1375.868144128778 265.2410723733865 1375.868144128778 262.47964862423254 C 1375.868144128778 259.7182248750786 1378.1067203796242 257.47964862423254 1380.868144128778 257.47964862423254 C 1383.629567877932 257.47964862423254 1385.868144128778 259.7182248750786 1385.868144128778 262.47964862423254 Z" stroke-opacity="1" stroke-linecap="round" stroke-linejoin="round" stroke-miterlimit="10"/><text fill="none" stroke="rgb(255,255,255)" font-family="geogebra-sans-serif, sans-serif" font-size="16px" font-style="normal" font-weight="normal" text-decoration="normal" x="1385" y="252" text-anchor="start" dominant-baseline="alphabetic" stroke-opacity="1" stroke-linecap="round" stroke-linejoin="bevel" stroke-miterlimit="10" stroke-width="3">F</text><text fill="rgb(21,101,192)" stroke="none" font-family="geogebra-sans-serif, sans-serif" font-size="16px" font-style="normal" font-weight="normal" text-decoration="normal" x="1385" y="252" text-anchor="start" dominant-baseline="alphabetic" fill-opacity="1">F</text><path fill="rgb(21,101,192)" stroke="none" paint-order="stroke fill markers" d=" M 1245.7885626312905 262.47964862423254 C 1245.7885626312905 265.2410723733865 1243.5499863804444 267.47964862423254 1240.7885626312905 267.47964862423254 C 1238.0271388821366 267.47964862423254 1235.7885626312905 265.2410723733865 1235.7885626312905 262.47964862423254 C 1235.7885626312905 259.7182248750786 1238.0271388821366 257.47964862423254 1240.7885626312905 257.47964862423254 C 1243.5499863804444 257.47964862423254 1245.7885626312905 259.7182248750786 1245.7885626312905 262.47964862423254 Z" fill-opacity="1"/><path fill="none" stroke="rgb(0,0,0)" paint-order="fill stroke markers" d=" M 1245.7885626312905 262.47964862423254 C 1245.7885626312905 265.2410723733865 1243.5499863804444 267.47964862423254 1240.7885626312905 267.47964862423254 C 1238.0271388821366 267.47964862423254 1235.7885626312905 265.2410723733865 1235.7885626312905 262.47964862423254 C 1235.7885626312905 259.7182248750786 1238.0271388821366 257.47964862423254 1240.7885626312905 257.47964862423254 C 1243.5499863804444 257.47964862423254 1245.7885626312905 259.7182248750786 1245.7885626312905 262.47964862423254 Z" stroke-opacity="1" stroke-linecap="round" stroke-linejoin="round" stroke-miterlimit="10"/><text fill="none" stroke="rgb(255,255,255)" font-family="geogebra-sans-serif, sans-serif" font-size="16px" font-style="normal" font-weight="normal" text-decoration="normal" x="1245" y="252" text-anchor="start" dominant-baseline="alphabetic" stroke-opacity="1" stroke-linecap="round" stroke-linejoin="bevel" stroke-miterlimit="10" stroke-width="3">G</text><text fill="rgb(21,101,192)" stroke="none" font-family="geogebra-sans-serif, sans-serif" font-size="16px" font-style="normal" font-weight="normal" text-decoration="normal" x="1245" y="252" text-anchor="start" dominant-baseline="alphabetic" fill-opacity="1">G</text><path fill="rgb(21,101,192)" stroke="none" paint-order="stroke fill markers" d=" M 1059.0157873013072 309.17284245672846 C 1059.0157873013072 311.9342662058824 1056.7772110504611 314.17284245672846 1054.0157873013072 314.17284245672846 C 1051.2543635521533 314.17284245672846 1049.0157873013072 311.9342662058824 1049.0157873013072 309.17284245672846 C 1049.0157873013072 306.4114187075745 1051.2543635521533 304.17284245672846 1054.0157873013072 304.17284245672846 C 1056.7772110504611 304.17284245672846 1059.0157873013072 306.4114187075745 1059.0157873013072 309.17284245672846 Z" fill-opacity="1"/><path fill="none" stroke="rgb(0,0,0)" paint-order="fill stroke markers" d=" M 1059.0157873013072 309.17284245672846 C 1059.0157873013072 311.9342662058824 1056.7772110504611 314.17284245672846 1054.0157873013072 314.17284245672846 C 1051.2543635521533 314.17284245672846 1049.0157873013072 311.9342662058824 1049.0157873013072 309.17284245672846 C 1049.0157873013072 306.4114187075745 1051.2543635521533 304.17284245672846 1054.0157873013072 304.17284245672846 C 1056.7772110504611 304.17284245672846 1059.0157873013072 306.4114187075745 1059.0157873013072 309.17284245672846 Z" stroke-opacity="1" stroke-linecap="round" stroke-linejoin="round" stroke-miterlimit="10"/><text fill="none" stroke="rgb(255,255,255)" font-family="geogebra-sans-serif, sans-serif" font-size="16px" font-style="normal" font-weight="normal" text-decoration="normal" x="1058" y="299" text-anchor="start" dominant-baseline="alphabetic" stroke-opacity="1" stroke-linecap="round" stroke-linejoin="bevel" stroke-miterlimit="10" stroke-width="3">H</text><text fill="rgb(21,101,192)" stroke="none" font-family="geogebra-sans-serif, sans-serif" font-size="16px" font-style="normal" font-weight="normal" text-decoration="normal" x="1058" y="299" text-anchor="start" dominant-baseline="alphabetic" fill-opacity="1">H</text><path fill="rgb(21,101,192)" stroke="none" paint-order="stroke fill markers" d=" M 1152.4021749662988 309.17284245672846 C 1152.4021749662988 311.9342662058824 1150.1635987154527 314.17284245672846 1147.4021749662988 314.17284245672846 C 1144.640751217145 314.17284245672846 1142.4021749662988 311.9342662058824 1142.4021749662988 309.17284245672846 C 1142.4021749662988 306.4114187075745 1144.640751217145 304.17284245672846 1147.4021749662988 304.17284245672846 C 1150.1635987154527 304.17284245672846 1152.4021749662988 306.4114187075745 1152.4021749662988 309.17284245672846 Z" fill-opacity="1"/><path fill="none" stroke="rgb(0,0,0)" paint-order="fill stroke markers" d=" M 1152.4021749662988 309.17284245672846 C 1152.4021749662988 311.9342662058824 1150.1635987154527 314.17284245672846 1147.4021749662988 314.17284245672846 C 1144.640751217145 314.17284245672846 1142.4021749662988 311.9342662058824 1142.4021749662988 309.17284245672846 C 1142.4021749662988 306.4114187075745 1144.640751217145 304.17284245672846 1147.4021749662988 304.17284245672846 C 1150.1635987154527 304.17284245672846 1152.4021749662988 306.4114187075745 1152.4021749662988 309.17284245672846 Z" stroke-opacity="1" stroke-linecap="round" stroke-linejoin="round" stroke-miterlimit="10"/><text fill="none" stroke="rgb(255,255,255)" font-family="geogebra-sans-serif, sans-serif" font-size="16px" font-style="normal" font-weight="normal" text-decoration="normal" x="1151" y="299" text-anchor="start" dominant-baseline="alphabetic" stroke-opacity="1" stroke-linecap="round" stroke-linejoin="bevel" stroke-miterlimit="10" stroke-width="3">I</text><text fill="rgb(21,101,192)" stroke="none" font-family="geogebra-sans-serif, sans-serif" font-size="16px" font-style="normal" font-weight="normal" text-decoration="normal" x="1151" y="299" text-anchor="start" dominant-baseline="alphabetic" fill-opacity="1">I</text><path fill="rgb(21,101,192)" stroke="none" paint-order="stroke fill markers" d=" M 872.243011971324 309.17284245672846 C 872.243011971324 311.9342662058824 870.004435720478 314.17284245672846 867.243011971324 314.17284245672846 C 864.48158822217 314.17284245672846 862.243011971324 311.9342662058824 862.243011971324 309.17284245672846 C 862.243011971324 306.4114187075745 864.48158822217 304.17284245672846 867.243011971324 304.17284245672846 C 870.004435720478 304.17284245672846 872.243011971324 306.4114187075745 872.243011971324 309.17284245672846 Z" fill-opacity="1"/><path fill="none" stroke="rgb(0,0,0)" paint-order="fill stroke markers" d=" M 872.243011971324 309.17284245672846 C 872.243011971324 311.9342662058824 870.004435720478 314.17284245672846 867.243011971324 314.17284245672846 C 864.48158822217 314.17284245672846 862.243011971324 311.9342662058824 862.243011971324 309.17284245672846 C 862.243011971324 306.4114187075745 864.48158822217 304.17284245672846 867.243011971324 304.17284245672846 C 870.004435720478 304.17284245672846 872.243011971324 306.4114187075745 872.243011971324 309.17284245672846 Z" stroke-opacity="1" stroke-linecap="round" stroke-linejoin="round" stroke-miterlimit="10"/><text fill="none" stroke="rgb(255,255,255)" font-family="geogebra-sans-serif, sans-serif" font-size="16px" font-style="normal" font-weight="normal" text-decoration="normal" x="871" y="299" text-anchor="start" dominant-baseline="alphabetic" stroke-opacity="1" stroke-linecap="round" stroke-linejoin="bevel" stroke-miterlimit="10" stroke-width="3">J</text><text fill="rgb(21,101,192)" stroke="none" font-family="geogebra-sans-serif, sans-serif" font-size="16px" font-style="normal" font-weight="normal" text-decoration="normal" x="871" y="299" text-anchor="start" dominant-baseline="alphabetic" fill-opacity="1">J</text><path fill="rgb(21,101,192)" stroke="none" paint-order="stroke fill markers" d=" M 965.6293996363156 309.17284245672846 C 965.6293996363156 311.9342662058824 963.3908233854696 314.17284245672846 960.6293996363156 314.17284245672846 C 957.8679758871616 314.17284245672846 955.6293996363156 311.9342662058824 955.6293996363156 309.17284245672846 C 955.6293996363156 306.4114187075745 957.8679758871616 304.17284245672846 960.6293996363156 304.17284245672846 C 963.3908233854696 304.17284245672846 965.6293996363156 306.4114187075745 965.6293996363156 309.17284245672846 Z" fill-opacity="1"/><path fill="none" stroke="rgb(0,0,0)" paint-order="fill stroke markers" d=" M 965.6293996363156 309.17284245672846 C 965.6293996363156 311.9342662058824 963.3908233854696 314.17284245672846 960.6293996363156 314.17284245672846 C 957.8679758871616 314.17284245672846 955.6293996363156 311.9342662058824 955.6293996363156 309.17284245672846 C 955.6293996363156 306.4114187075745 957.8679758871616 304.17284245672846 960.6293996363156 304.17284245672846 C 963.3908233854696 304.17284245672846 965.6293996363156 306.4114187075745 965.6293996363156 309.17284245672846 Z" stroke-opacity="1" stroke-linecap="round" stroke-linejoin="round" stroke-miterlimit="10"/><text fill="none" stroke="rgb(255,255,255)" font-family="geogebra-sans-serif, sans-serif" font-size="16px" font-style="normal" font-weight="normal" text-decoration="normal" x="965" y="299" text-anchor="start" dominant-baseline="alphabetic" stroke-opacity="1" stroke-linecap="round" stroke-linejoin="bevel" stroke-miterlimit="10" stroke-width="3">K</text><text fill="rgb(21,101,192)" stroke="none" font-family="geogebra-sans-serif, sans-serif" font-size="16px" font-style="normal" font-weight="normal" text-decoration="normal" x="965" y="299" text-anchor="start" dominant-baseline="alphabetic" fill-opacity="1">K</text><path fill="rgb(21,101,192)" stroke="none" paint-order="stroke fill markers" d=" M 1339.174950296282 309.17284245672846 C 1339.174950296282 311.9342662058824 1336.936374045436 314.17284245672846 1334.174950296282 314.17284245672846 C 1331.4135265471282 314.17284245672846 1329.174950296282 311.9342662058824 1329.174950296282 309.17284245672846 C 1329.174950296282 306.4114187075745 1331.4135265471282 304.17284245672846 1334.174950296282 304.17284245672846 C 1336.936374045436 304.17284245672846 1339.174950296282 306.4114187075745 1339.174950296282 309.17284245672846 Z" fill-opacity="1"/><path fill="none" stroke="rgb(0,0,0)" paint-order="fill stroke markers" d=" M 1339.174950296282 309.17284245672846 C 1339.174950296282 311.9342662058824 1336.936374045436 314.17284245672846 1334.174950296282 314.17284245672846 C 1331.4135265471282 314.17284245672846 1329.174950296282 311.9342662058824 1329.174950296282 309.17284245672846 C 1329.174950296282 306.4114187075745 1331.4135265471282 304.17284245672846 1334.174950296282 304.17284245672846 C 1336.936374045436 304.17284245672846 1339.174950296282 306.4114187075745 1339.174950296282 309.17284245672846 Z" stroke-opacity="1" stroke-linecap="round" stroke-linejoin="round" stroke-miterlimit="10"/><text fill="none" stroke="rgb(255,255,255)" font-family="geogebra-sans-serif, sans-serif" font-size="16px" font-style="normal" font-weight="normal" text-decoration="normal" x="1338" y="299" text-anchor="start" dominant-baseline="alphabetic" stroke-opacity="1" stroke-linecap="round" stroke-linejoin="bevel" stroke-miterlimit="10" stroke-width="3">L</text><text fill="rgb(21,101,192)" stroke="none" font-family="geogebra-sans-serif, sans-serif" font-size="16px" font-style="normal" font-weight="normal" text-decoration="normal" x="1338" y="299" text-anchor="start" dominant-baseline="alphabetic" fill-opacity="1">L</text><path fill="rgb(21,101,192)" stroke="none" paint-order="stroke fill markers" d=" M 1245.7885626312905 309.17284245672846 C 1245.7885626312905 311.9342662058824 1243.5499863804444 314.17284245672846 1240.7885626312905 314.17284245672846 C 1238.0271388821366 314.17284245672846 1235.7885626312905 311.9342662058824 1235.7885626312905 309.17284245672846 C 1235.7885626312905 306.4114187075745 1238.0271388821366 304.17284245672846 1240.7885626312905 304.17284245672846 C 1243.5499863804444 304.17284245672846 1245.7885626312905 306.4114187075745 1245.7885626312905 309.17284245672846 Z" fill-opacity="1"/><path fill="none" stroke="rgb(0,0,0)" paint-order="fill stroke markers" d=" M 1245.7885626312905 309.17284245672846 C 1245.7885626312905 311.9342662058824 1243.5499863804444 314.17284245672846 1240.7885626312905 314.17284245672846 C 1238.0271388821366 314.17284245672846 1235.7885626312905 311.9342662058824 1235.7885626312905 309.17284245672846 C 1235.7885626312905 306.4114187075745 1238.0271388821366 304.17284245672846 1240.7885626312905 304.17284245672846 C 1243.5499863804444 304.17284245672846 1245.7885626312905 306.4114187075745 1245.7885626312905 309.17284245672846 Z" stroke-opacity="1" stroke-linecap="round" stroke-linejoin="round" stroke-miterlimit="10"/><text fill="none" stroke="rgb(255,255,255)" font-family="geogebra-sans-serif, sans-serif" font-size="16px" font-style="normal" font-weight="normal" text-decoration="normal" x="1245" y="299" text-anchor="start" dominant-baseline="alphabetic" stroke-opacity="1" stroke-linecap="round" stroke-linejoin="bevel" stroke-miterlimit="10" stroke-width="3">N</text><text fill="rgb(21,101,192)" stroke="none" font-family="geogebra-sans-serif, sans-serif" font-size="16px" font-style="normal" font-weight="normal" text-decoration="normal" x="1245" y="299" text-anchor="start" dominant-baseline="alphabetic" fill-opacity="1">N</text><path fill="rgb(21,101,192)" stroke="none" paint-order="stroke fill markers" d=" M 1432.561337961274 309.17284245672846 C 1432.561337961274 311.9342662058824 1430.3227617104278 314.17284245672846 1427.561337961274 314.17284245672846 C 1424.79991421212 314.17284245672846 1422.561337961274 311.9342662058824 1422.561337961274 309.17284245672846 C 1422.561337961274 306.4114187075745 1424.79991421212 304.17284245672846 1427.561337961274 304.17284245672846 C 1430.3227617104278 304.17284245672846 1432.561337961274 306.4114187075745 1432.561337961274 309.17284245672846 Z" fill-opacity="1"/><path fill="none" stroke="rgb(0,0,0)" paint-order="fill stroke markers" d=" M 1432.561337961274 309.17284245672846 C 1432.561337961274 311.9342662058824 1430.3227617104278 314.17284245672846 1427.561337961274 314.17284245672846 C 1424.79991421212 314.17284245672846 1422.561337961274 311.9342662058824 1422.561337961274 309.17284245672846 C 1422.561337961274 306.4114187075745 1424.79991421212 304.17284245672846 1427.561337961274 304.17284245672846 C 1430.3227617104278 304.17284245672846 1432.561337961274 306.4114187075745 1432.561337961274 309.17284245672846 Z" stroke-opacity="1" stroke-linecap="round" stroke-linejoin="round" stroke-miterlimit="10"/><text fill="none" stroke="rgb(255,255,255)" font-family="geogebra-sans-serif, sans-serif" font-size="16px" font-style="normal" font-weight="normal" text-decoration="normal" x="1432" y="299" text-anchor="start" dominant-baseline="alphabetic" stroke-opacity="1" stroke-linecap="round" stroke-linejoin="bevel" stroke-miterlimit="10" stroke-width="3">M</text><text fill="rgb(21,101,192)" stroke="none" font-family="geogebra-sans-serif, sans-serif" font-size="16px" font-style="normal" font-weight="normal" text-decoration="normal" x="1432" y="299" text-anchor="start" dominant-baseline="alphabetic" fill-opacity="1">M</text><g transform="scale(19,19)"><g transform="translate(24.42105263157895,25.29929052631579)"><path fill="rgb(0,0,0)" stroke="none" paint-order="stroke fill markers" d=" M 0.17200000000000001 -0.078 Q 0.17200000000000001 -0.047 0.184 -0.04 L 0.184 -0.04 L 0.185 -0.039 Q 0.199 -0.031 0.248 -0.031 L 0.269 -0.031 L 0.269 0 Q 0.229 -0.003 0.14200000000000002 -0.003 Q 0.145 -0.003 0.028 0 L 0.028 -0.031 Q 0.08700000000000001 -0.031 0.097 -0.04 L 0.099 -0.042 Q 0.106 -0.05 0.106 -0.076 L 0.106 -0.34400000000000003 Q 0.106 -0.383 0.091 -0.392 Q 0.079 -0.399 0.048 -0.4 L 0.028 -0.4 L 0.028 -0.431 L 0.167 -0.442 L 0.167 -0.332 Q 0.194 -0.41600000000000004 0.256 -0.437 Q 0.272 -0.442 0.29 -0.442 Q 0.337 -0.442 0.357 -0.40700000000000003 Q 0.364 -0.395 0.364 -0.381 Q 0.364 -0.34600000000000003 0.331 -0.338 Q 0.326 -0.337 0.321 -0.337 Q 0.29 -0.337 0.281 -0.364 Q 0.278 -0.371 0.278 -0.38 Q 0.278 -0.40700000000000003 0.301 -0.419 Q 0.299 -0.42 0.29 -0.42 Q 0.223 -0.42 0.191 -0.338 Q 0.17200000000000001 -0.291 0.17200000000000001 -0.232 L 0.17200000000000001 -0.078 Z"/></g><g transform="translate(24.812720631578948,25.29929052631579)"><path fill="rgb(0,0,0)" stroke="none" paint-order="stroke fill markers" d=" M 0.47100000000000003 -0.214 L 0.47100000000000003 -0.214 Q 0.47100000000000003 -0.111 0.395 -0.044 Q 0.332 0.011 0.249 0.011 Q 0.153 0.011 0.08700000000000001 -0.061 Q 0.028 -0.126 0.028 -0.214 Q 0.028 -0.316 0.101 -0.386 Q 0.164 -0.448 0.25 -0.448 Q 0.34700000000000003 -0.448 0.41300000000000003 -0.371 Q 0.47100000000000003 -0.304 0.47100000000000003 -0.214 M 0.25 -0.014 L 0.25 -0.014 Q 0.317 -0.014 0.356 -0.07 L 0.366 -0.088 Q 0.388 -0.132 0.388 -0.222 Q 0.388 -0.318 0.362 -0.361 Q 0.319 -0.423 0.249 -0.426 Q 0.187 -0.426 0.147 -0.376 Q 0.14 -0.368 0.135 -0.359 Q 0.111 -0.315 0.111 -0.222 Q 0.111 -0.125 0.136 -0.081 Q 0.178 -0.016 0.25 -0.014 Z"/></g><g transform="translate(25.340501631578945,25.29929052631579)"><path fill="rgb(0,0,0)" stroke="none" paint-order="stroke fill markers" d=" M 0.47100000000000003 -0.214 L 0.47100000000000003 -0.214 Q 0.47100000000000003 -0.111 0.395 -0.044 Q 0.332 0.011 0.249 0.011 Q 0.153 0.011 0.08700000000000001 -0.061 Q 0.028 -0.126 0.028 -0.214 Q 0.028 -0.316 0.101 -0.386 Q 0.164 -0.448 0.25 -0.448 Q 0.34700000000000003 -0.448 0.41300000000000003 -0.371 Q 0.47100000000000003 -0.304 0.47100000000000003 -0.214 M 0.25 -0.014 L 0.25 -0.014 Q 0.317 -0.014 0.356 -0.07 L 0.366 -0.088 Q 0.388 -0.132 0.388 -0.222 Q 0.388 -0.318 0.362 -0.361 Q 0.319 -0.423 0.249 -0.426 Q 0.187 -0.426 0.147 -0.376 Q 0.14 -0.368 0.135 -0.359 Q 0.111 -0.315 0.111 -0.222 Q 0.111 -0.125 0.136 -0.081 Q 0.178 -0.016 0.25 -0.014 Z"/></g><g transform="translate(25.840503631578944,25.29929052631579)"><path fill="rgb(0,0,0)" stroke="none" paint-order="stroke fill markers" d=" M 0.17300000000000001 -0.4 L 0.17300000000000001 -0.4 L 0.17300000000000001 -0.122 Q 0.17300000000000001 -0.022 0.231 -0.015 Q 0.23500000000000001 -0.014 0.24 -0.014 Q 0.28300000000000003 -0.014 0.3 -0.07 Q 0.307 -0.094 0.307 -0.126 L 0.307 -0.181 L 0.332 -0.181 L 0.332 -0.124 Q 0.332 -0.042 0.28600000000000003 -0.006 Q 0.264 0.011 0.233 0.011 Q 0.149 0.011 0.11800000000000001 -0.052000000000000005 Q 0.10400000000000001 -0.082 0.10400000000000001 -0.124 L 0.10400000000000001 -0.4 L 0.019 -0.4 L 0.019 -0.422 Q 0.108 -0.426 0.137 -0.534 Q 0.147 -0.5720000000000001 0.148 -0.615 L 0.17300000000000001 -0.615 L 0.17300000000000001 -0.431 L 0.316 -0.431 L 0.316 -0.4 L 0.17300000000000001 -0.4 Z"/></g></g></g></g></svg>