<svg version="1.1" xmlns="http://www.w3.org/2000/svg" xmlns:xlink="http://www.w3.org/1999/xlink" width="1544" height="838"><defs><clipPath id="LiNRPwFEANeG"><path fill="none" stroke="none" d=" M 0 0 L 1544 0 L 1544 838 L 0 838 L 0 0 Z"/></clipPath></defs><g transform="scale(1,1)" clip-path="url(#LiNRPwFEANeG)"><g><rect fill="rgb(255,255,255)" stroke="none" x="0" y="0" width="1544" height="838" fill-opacity="1"/><path fill="none" stroke="rgb(192,192,192)" paint-order="fill stroke markers" d=" M 62.5 0.5 L 62.5 838.5 M 62.5 0.5 L 62.5 838.5 M 212.5 0.5 L 212.5 838.5 M 287.5 0.5 L 287.5 838.5 M 362.5 0.5 L 362.5 838.5 M 437.5 0.5 L 437.5 838.5 M 512.5 0.5 L 512.5 838.5 M 587.5 0.5 L 587.5 838.5 M 662.5 0.5 L 662.5 838.5 M 737.5 0.5 L 737.5 838.5 M 812.5 0.5 L 812.5 838.5 M 887.5 0.5 L 887.5 838.5 M 962.5 0.5 L 962.5 838.5 M 1037.5 0.5 L 1037.5 838.5 M 1112.5 0.5 L 1112.5 838.5 M 1187.5 0.5 L 1187.5 838.5 M 1262.5 0.5 L 1262.5 838.5 M 1337.5 0.5 L 1337.5 838.5 M 1412.5 0.5 L 1412.5 838.5 M 1487.5 0.5 L 1487.5 838.5" stroke-opacity="1" stroke-linecap="round" stroke-linejoin="round" stroke-miterlimit="10"/><path fill="none" stroke="rgb(192,192,192)" paint-order="fill stroke markers" d="" stroke-opacity="0.23529411764705882" stroke-linecap="round" stroke-linejoin="round" stroke-miterlimit="10"/><path fill="none" stroke="rgb(192,192,192)" paint-order="fill stroke markers" d=" M 0.5 35.5 L 1544.5 35.5 M 0.5 35.5 L 1544.5 35.5 M 0.5 110.5 L 1544.5 110.5 M 0.5 185.5 L 1544.5 185.5 M 0.5 260.5 L 1544.5 260.5 M 0.5 335.5 L 1544.5 335.5 M 0.5 410.5 L 1544.5 410.5 M 0.5 485.5 L 1544.5 485.5 M 0.5 560.5 L 1544.5 560.5 M 0.5 635.5 L 1544.5 635.5 M 0.5 710.5 L 1544.5 710.5" stroke-opacity="1" stroke-linecap="round" stroke-linejoin="round" stroke-miterlimit="10"/><path fill="none" stroke="rgb(192,192,192)" paint-order="fill stroke markers" d="" stroke-opacity="0.23529411764705882" stroke-linecap="round" stroke-linejoin="round" stroke-miterlimit="10"/><path fill="none" stroke="rgb(0,0,0)" paint-order="fill stroke markers" d=" M 137.5 2.5 L 137.5 838.5" stroke-opacity="1" stroke-miterlimit="10"/><path fill="none" stroke="rgb(0,0,0)" paint-order="fill stroke markers" d=" M 137.5 1.5 L 133.5 5.5" stroke-opacity="1" stroke-miterlimit="10"/><path fill="none" stroke="rgb(0,0,0)" paint-order="fill stroke markers" d=" M 137.5 1.5 L 141.5 5.5" stroke-opacity="1" stroke-miterlimit="10"/><path fill="none" stroke="rgb(0,0,0)" paint-order="fill stroke markers" d=" M 0.5 785.5 L 1542.5 785.5" stroke-opacity="1" stroke-miterlimit="10"/><path fill="none" stroke="rgb(0,0,0)" paint-order="fill stroke markers" d=" M 1543.5 785.5 L 1539.5 781.5" stroke-opacity="1" stroke-miterlimit="10"/><path fill="none" stroke="rgb(0,0,0)" paint-order="fill stroke markers" d=" M 1543.5 785.5 L 1539.5 789.5" stroke-opacity="1" stroke-miterlimit="10"/><text fill="none" stroke="rgb(255,255,255)" font-family="geogebra-sans-serif, sans-serif" font-size="12px" font-style="normal" font-weight="normal" text-decoration="normal" x="57" y="801" text-anchor="start" dominant-baseline="alphabetic" stroke-opacity="1" stroke-linejoin="bevel" stroke-miterlimit="10" stroke-width="3">–1</text><text fill="rgb(0,0,0)" stroke="none" font-family="geogebra-sans-serif, sans-serif" font-size="12px" font-style="normal" font-weight="normal" text-decoration="normal" x="57" y="801" text-anchor="start" dominant-baseline="alphabetic" fill-opacity="1">–1</text><text fill="none" stroke="rgb(255,255,255)" font-family="geogebra-sans-serif, sans-serif" font-size="12px" font-style="normal" font-weight="normal" text-decoration="normal" x="210" y="801" text-anchor="start" dominant-baseline="alphabetic" stroke-opacity="1" stroke-linejoin="bevel" stroke-miterlimit="10" stroke-width="3">1</text><text fill="rgb(0,0,0)" stroke="none" font-family="geogebra-sans-serif, sans-serif" font-size="12px" font-style="normal" font-weight="normal" text-decoration="normal" x="210" y="801" text-anchor="start" dominant-baseline="alphabetic" fill-opacity="1">1</text><text fill="none" stroke="rgb(255,255,255)" font-family="geogebra-sans-serif, sans-serif" font-size="12px" font-style="normal" font-weight="normal" text-decoration="normal" x="285" y="801" text-anchor="start" dominant-baseline="alphabetic" stroke-opacity="1" stroke-linejoin="bevel" stroke-miterlimit="10" stroke-width="3">2</text><text fill="rgb(0,0,0)" stroke="none" font-family="geogebra-sans-serif, sans-serif" font-size="12px" font-style="normal" font-weight="normal" text-decoration="normal" x="285" y="801" text-anchor="start" dominant-baseline="alphabetic" fill-opacity="1">2</text><text fill="none" stroke="rgb(255,255,255)" font-family="geogebra-sans-serif, sans-serif" font-size="12px" font-style="normal" font-weight="normal" text-decoration="normal" x="360" y="801" text-anchor="start" dominant-baseline="alphabetic" stroke-opacity="1" stroke-linejoin="bevel" stroke-miterlimit="10" stroke-width="3">3</text><text fill="rgb(0,0,0)" stroke="none" font-family="geogebra-sans-serif, sans-serif" font-size="12px" font-style="normal" font-weight="normal" text-decoration="normal" x="360" y="801" text-anchor="start" dominant-baseline="alphabetic" fill-opacity="1">3</text><text fill="none" stroke="rgb(255,255,255)" font-family="geogebra-sans-serif, sans-serif" font-size="12px" font-style="normal" font-weight="normal" text-decoration="normal" x="435" y="801" text-anchor="start" dominant-baseline="alphabetic" stroke-opacity="1" stroke-linejoin="bevel" stroke-miterlimit="10" stroke-width="3">4</text><text fill="rgb(0,0,0)" stroke="none" font-family="geogebra-sans-serif, sans-serif" font-size="12px" font-style="normal" font-weight="normal" text-decoration="normal" x="435" y="801" text-anchor="start" dominant-baseline="alphabetic" fill-opacity="1">4</text><text fill="none" stroke="rgb(255,255,255)" font-family="geogebra-sans-serif, sans-serif" font-size="12px" font-style="normal" font-weight="normal" text-decoration="normal" x="510" y="801" text-anchor="start" dominant-baseline="alphabetic" stroke-opacity="1" stroke-linejoin="bevel" stroke-miterlimit="10" stroke-width="3">5</text><text fill="rgb(0,0,0)" stroke="none" font-family="geogebra-sans-serif, sans-serif" font-size="12px" font-style="normal" font-weight="normal" text-decoration="normal" x="510" y="801" text-anchor="start" dominant-baseline="alphabetic" fill-opacity="1">5</text><text fill="none" stroke="rgb(255,255,255)" font-family="geogebra-sans-serif, sans-serif" font-size="12px" font-style="normal" font-weight="normal" text-decoration="normal" x="585" y="801" text-anchor="start" dominant-baseline="alphabetic" stroke-opacity="1" stroke-linejoin="bevel" stroke-miterlimit="10" stroke-width="3">6</text><text fill="rgb(0,0,0)" stroke="none" font-family="geogebra-sans-serif, sans-serif" font-size="12px" font-style="normal" font-weight="normal" text-decoration="normal" x="585" y="801" text-anchor="start" dominant-baseline="alphabetic" fill-opacity="1">6</text><text fill="none" stroke="rgb(255,255,255)" font-family="geogebra-sans-serif, sans-serif" font-size="12px" font-style="normal" font-weight="normal" text-decoration="normal" x="660" y="801" text-anchor="start" dominant-baseline="alphabetic" stroke-opacity="1" stroke-linejoin="bevel" stroke-miterlimit="10" stroke-width="3">7</text><text fill="rgb(0,0,0)" stroke="none" font-family="geogebra-sans-serif, sans-serif" font-size="12px" font-style="normal" font-weight="normal" text-decoration="normal" x="660" y="801" text-anchor="start" dominant-baseline="alphabetic" fill-opacity="1">7</text><text fill="none" stroke="rgb(255,255,255)" font-family="geogebra-sans-serif, sans-serif" font-size="12px" font-style="normal" font-weight="normal" text-decoration="normal" x="735" y="801" text-anchor="start" dominant-baseline="alphabetic" stroke-opacity="1" stroke-linejoin="bevel" stroke-miterlimit="10" stroke-width="3">8</text><text fill="rgb(0,0,0)" stroke="none" font-family="geogebra-sans-serif, sans-serif" font-size="12px" font-style="normal" font-weight="normal" text-decoration="normal" x="735" y="801" text-anchor="start" dominant-baseline="alphabetic" fill-opacity="1">8</text><text fill="none" stroke="rgb(255,255,255)" font-family="geogebra-sans-serif, sans-serif" font-size="12px" font-style="normal" font-weight="normal" text-decoration="normal" x="810" y="801" text-anchor="start" dominant-baseline="alphabetic" stroke-opacity="1" stroke-linejoin="bevel" stroke-miterlimit="10" stroke-width="3">9</text><text fill="rgb(0,0,0)" stroke="none" font-family="geogebra-sans-serif, sans-serif" font-size="12px" font-style="normal" font-weight="normal" text-decoration="normal" x="810" y="801" text-anchor="start" dominant-baseline="alphabetic" fill-opacity="1">9</text><text fill="none" stroke="rgb(255,255,255)" font-family="geogebra-sans-serif, sans-serif" font-size="12px" font-style="normal" font-weight="normal" text-decoration="normal" x="882" y="801" text-anchor="start" dominant-baseline="alphabetic" stroke-opacity="1" stroke-linejoin="bevel" stroke-miterlimit="10" stroke-width="3">10</text><text fill="rgb(0,0,0)" stroke="none" font-family="geogebra-sans-serif, sans-serif" font-size="12px" font-style="normal" font-weight="normal" text-decoration="normal" x="882" y="801" text-anchor="start" dominant-baseline="alphabetic" fill-opacity="1">10</text><text fill="none" stroke="rgb(255,255,255)" font-family="geogebra-sans-serif, sans-serif" font-size="12px" font-style="normal" font-weight="normal" text-decoration="normal" x="957" y="801" text-anchor="start" dominant-baseline="alphabetic" stroke-opacity="1" stroke-linejoin="bevel" stroke-miterlimit="10" stroke-width="3">11</text><text fill="rgb(0,0,0)" stroke="none" font-family="geogebra-sans-serif, sans-serif" font-size="12px" font-style="normal" font-weight="normal" text-decoration="normal" x="957" y="801" text-anchor="start" dominant-baseline="alphabetic" fill-opacity="1">11</text><text fill="none" stroke="rgb(255,255,255)" font-family="geogebra-sans-serif, sans-serif" font-size="12px" font-style="normal" font-weight="normal" text-decoration="normal" x="1032" y="801" text-anchor="start" dominant-baseline="alphabetic" stroke-opacity="1" stroke-linejoin="bevel" stroke-miterlimit="10" stroke-width="3">12</text><text fill="rgb(0,0,0)" stroke="none" font-family="geogebra-sans-serif, sans-serif" font-size="12px" font-style="normal" font-weight="normal" text-decoration="normal" x="1032" y="801" text-anchor="start" dominant-baseline="alphabetic" fill-opacity="1">12</text><text fill="none" stroke="rgb(255,255,255)" font-family="geogebra-sans-serif, sans-serif" font-size="12px" font-style="normal" font-weight="normal" text-decoration="normal" x="1107" y="801" text-anchor="start" dominant-baseline="alphabetic" stroke-opacity="1" stroke-linejoin="bevel" stroke-miterlimit="10" stroke-width="3">13</text><text fill="rgb(0,0,0)" stroke="none" font-family="geogebra-sans-serif, sans-serif" font-size="12px" font-style="normal" font-weight="normal" text-decoration="normal" x="1107" y="801" text-anchor="start" dominant-baseline="alphabetic" fill-opacity="1">13</text><text fill="none" stroke="rgb(255,255,255)" font-family="geogebra-sans-serif, sans-serif" font-size="12px" font-style="normal" font-weight="normal" text-decoration="normal" x="1182" y="801" text-anchor="start" dominant-baseline="alphabetic" stroke-opacity="1" stroke-linejoin="bevel" stroke-miterlimit="10" stroke-width="3">14</text><text fill="rgb(0,0,0)" stroke="none" font-family="geogebra-sans-serif, sans-serif" font-size="12px" font-style="normal" font-weight="normal" text-decoration="normal" x="1182" y="801" text-anchor="start" dominant-baseline="alphabetic" fill-opacity="1">14</text><text fill="none" stroke="rgb(255,255,255)" font-family="geogebra-sans-serif, sans-serif" font-size="12px" font-style="normal" font-weight="normal" text-decoration="normal" x="1257" y="801" text-anchor="start" dominant-baseline="alphabetic" stroke-opacity="1" stroke-linejoin="bevel" stroke-miterlimit="10" stroke-width="3">15</text><text fill="rgb(0,0,0)" stroke="none" font-family="geogebra-sans-serif, sans-serif" font-size="12px" font-style="normal" font-weight="normal" text-decoration="normal" x="1257" y="801" text-anchor="start" dominant-baseline="alphabetic" fill-opacity="1">15</text><text fill="none" stroke="rgb(255,255,255)" font-family="geogebra-sans-serif, sans-serif" font-size="12px" font-style="normal" font-weight="normal" text-decoration="normal" x="1332" y="801" text-anchor="start" dominant-baseline="alphabetic" stroke-opacity="1" stroke-linejoin="bevel" stroke-miterlimit="10" stroke-width="3">16</text><text fill="rgb(0,0,0)" stroke="none" font-family="geogebra-sans-serif, sans-serif" font-size="12px" font-style="normal" font-weight="normal" text-decoration="normal" x="1332" y="801" text-anchor="start" dominant-baseline="alphabetic" fill-opacity="1">16</text><text fill="none" stroke="rgb(255,255,255)" font-family="geogebra-sans-serif, sans-serif" font-size="12px" font-style="normal" font-weight="normal" text-decoration="normal" x="1407" y="801" text-anchor="start" dominant-baseline="alphabetic" stroke-opacity="1" stroke-linejoin="bevel" stroke-miterlimit="10" stroke-width="3">17</text><text fill="rgb(0,0,0)" stroke="none" font-family="geogebra-sans-serif, sans-serif" font-size="12px" font-style="normal" font-weight="normal" text-decoration="normal" x="1407" y="801" text-anchor="start" dominant-baseline="alphabetic" fill-opacity="1">17</text><text fill="none" stroke="rgb(255,255,255)" font-family="geogebra-sans-serif, sans-serif" font-size="12px" font-style="normal" font-weight="normal" text-decoration="normal" x="1482" y="801" text-anchor="start" dominant-baseline="alphabetic" stroke-opacity="1" stroke-linejoin="bevel" stroke-miterlimit="10" stroke-width="3">18</text><text fill="rgb(0,0,0)" stroke="none" font-family="geogebra-sans-serif, sans-serif" font-size="12px" font-style="normal" font-weight="normal" text-decoration="normal" x="1482" y="801" text-anchor="start" dominant-baseline="alphabetic" fill-opacity="1">18</text><text fill="none" stroke="rgb(255,255,255)" font-family="geogebra-sans-serif, sans-serif" font-size="12px" font-style="normal" font-weight="normal" text-decoration="normal" x="123" y="715" text-anchor="start" dominant-baseline="alphabetic" stroke-opacity="1" stroke-linejoin="bevel" stroke-miterlimit="10" stroke-width="3">1</text><text fill="rgb(0,0,0)" stroke="none" font-family="geogebra-sans-serif, sans-serif" font-size="12px" font-style="normal" font-weight="normal" text-decoration="normal" x="123" y="715" text-anchor="start" dominant-baseline="alphabetic" fill-opacity="1">1</text><text fill="none" stroke="rgb(255,255,255)" font-family="geogebra-sans-serif, sans-serif" font-size="12px" font-style="normal" font-weight="normal" text-decoration="normal" x="123" y="640" text-anchor="start" dominant-baseline="alphabetic" stroke-opacity="1" stroke-linejoin="bevel" stroke-miterlimit="10" stroke-width="3">2</text><text fill="rgb(0,0,0)" stroke="none" font-family="geogebra-sans-serif, sans-serif" font-size="12px" font-style="normal" font-weight="normal" text-decoration="normal" x="123" y="640" text-anchor="start" dominant-baseline="alphabetic" fill-opacity="1">2</text><text fill="none" stroke="rgb(255,255,255)" font-family="geogebra-sans-serif, sans-serif" font-size="12px" font-style="normal" font-weight="normal" text-decoration="normal" x="123" y="565" text-anchor="start" dominant-baseline="alphabetic" stroke-opacity="1" stroke-linejoin="bevel" stroke-miterlimit="10" stroke-width="3">3</text><text fill="rgb(0,0,0)" stroke="none" font-family="geogebra-sans-serif, sans-serif" font-size="12px" font-style="normal" font-weight="normal" text-decoration="normal" x="123" y="565" text-anchor="start" dominant-baseline="alphabetic" fill-opacity="1">3</text><text fill="none" stroke="rgb(255,255,255)" font-family="geogebra-sans-serif, sans-serif" font-size="12px" font-style="normal" font-weight="normal" text-decoration="normal" x="123" y="490" text-anchor="start" dominant-baseline="alphabetic" stroke-opacity="1" stroke-linejoin="bevel" stroke-miterlimit="10" stroke-width="3">4</text><text fill="rgb(0,0,0)" stroke="none" font-family="geogebra-sans-serif, sans-serif" font-size="12px" font-style="normal" font-weight="normal" text-decoration="normal" x="123" y="490" text-anchor="start" dominant-baseline="alphabetic" fill-opacity="1">4</text><text fill="none" stroke="rgb(255,255,255)" font-family="geogebra-sans-serif, sans-serif" font-size="12px" font-style="normal" font-weight="normal" text-decoration="normal" x="123" y="415" text-anchor="start" dominant-baseline="alphabetic" stroke-opacity="1" stroke-linejoin="bevel" stroke-miterlimit="10" stroke-width="3">5</text><text fill="rgb(0,0,0)" stroke="none" font-family="geogebra-sans-serif, sans-serif" font-size="12px" font-style="normal" font-weight="normal" text-decoration="normal" x="123" y="415" text-anchor="start" dominant-baseline="alphabetic" fill-opacity="1">5</text><text fill="none" stroke="rgb(255,255,255)" font-family="geogebra-sans-serif, sans-serif" font-size="12px" font-style="normal" font-weight="normal" text-decoration="normal" x="123" y="340" text-anchor="start" dominant-baseline="alphabetic" stroke-opacity="1" stroke-linejoin="bevel" stroke-miterlimit="10" stroke-width="3">6</text><text fill="rgb(0,0,0)" stroke="none" font-family="geogebra-sans-serif, sans-serif" font-size="12px" font-style="normal" font-weight="normal" text-decoration="normal" x="123" y="340" text-anchor="start" dominant-baseline="alphabetic" fill-opacity="1">6</text><text fill="none" stroke="rgb(255,255,255)" font-family="geogebra-sans-serif, sans-serif" font-size="12px" font-style="normal" font-weight="normal" text-decoration="normal" x="123" y="265" text-anchor="start" dominant-baseline="alphabetic" stroke-opacity="1" stroke-linejoin="bevel" stroke-miterlimit="10" stroke-width="3">7</text><text fill="rgb(0,0,0)" stroke="none" font-family="geogebra-sans-serif, sans-serif" font-size="12px" font-style="normal" font-weight="normal" text-decoration="normal" x="123" y="265" text-anchor="start" dominant-baseline="alphabetic" fill-opacity="1">7</text><text fill="none" stroke="rgb(255,255,255)" font-family="geogebra-sans-serif, sans-serif" font-size="12px" font-style="normal" font-weight="normal" text-decoration="normal" x="123" y="190" text-anchor="start" dominant-baseline="alphabetic" stroke-opacity="1" stroke-linejoin="bevel" stroke-miterlimit="10" stroke-width="3">8</text><text fill="rgb(0,0,0)" stroke="none" font-family="geogebra-sans-serif, sans-serif" font-size="12px" font-style="normal" font-weight="normal" text-decoration="normal" x="123" y="190" text-anchor="start" dominant-baseline="alphabetic" fill-opacity="1">8</text><text fill="none" stroke="rgb(255,255,255)" font-family="geogebra-sans-serif, sans-serif" font-size="12px" font-style="normal" font-weight="normal" text-decoration="normal" x="123" y="115" text-anchor="start" dominant-baseline="alphabetic" stroke-opacity="1" stroke-linejoin="bevel" stroke-miterlimit="10" stroke-width="3">9</text><text fill="rgb(0,0,0)" stroke="none" font-family="geogebra-sans-serif, sans-serif" font-size="12px" font-style="normal" font-weight="normal" text-decoration="normal" x="123" y="115" text-anchor="start" dominant-baseline="alphabetic" fill-opacity="1">9</text><text fill="none" stroke="rgb(255,255,255)" font-family="geogebra-sans-serif, sans-serif" font-size="12px" font-style="normal" font-weight="normal" text-decoration="normal" x="116" y="40" text-anchor="start" dominant-baseline="alphabetic" stroke-opacity="1" stroke-linejoin="bevel" stroke-miterlimit="10" stroke-width="3">10</text><text fill="rgb(0,0,0)" stroke="none" font-family="geogebra-sans-serif, sans-serif" font-size="12px" font-style="normal" font-weight="normal" text-decoration="normal" x="116" y="40" text-anchor="start" dominant-baseline="alphabetic" fill-opacity="1">10</text><text fill="none" stroke="rgb(255,255,255)" font-family="geogebra-sans-serif, sans-serif" font-size="12px" font-style="normal" font-weight="normal" text-decoration="normal" x="123" y="801" text-anchor="start" dominant-baseline="alphabetic" stroke-opacity="1" stroke-linejoin="bevel" stroke-miterlimit="10" stroke-width="3">0</text><text fill="rgb(0,0,0)" stroke="none" font-family="geogebra-sans-serif, sans-serif" font-size="12px" font-style="normal" font-weight="normal" text-decoration="normal" x="123" y="801" text-anchor="start" dominant-baseline="alphabetic" fill-opacity="1">0</text><path fill="none" stroke="rgb(211,47,47)" paint-order="fill stroke markers" d=" M 737.5999248685183 843 L 737.5999248685183 -5" stroke-opacity="0.8" stroke-linecap="round" stroke-linejoin="round" stroke-miterlimit="10" stroke-width="2.5"/><path fill="none" stroke="rgb(219,97,20)" paint-order="fill stroke markers" d=" M 212.59992486851962 485.87377911345 L 737.5999248685183 485.87377911345" stroke-opacity="0.8" stroke-linecap="round" stroke-linejoin="round" stroke-miterlimit="10" stroke-width="2.5"/><path fill="none" stroke="rgb(21,101,192)" paint-order="fill stroke markers" d=" M 512.5999248685189 110.87377911345004 L 512.5999248685189 485.87377911345" stroke-opacity="0.8" stroke-linecap="round" stroke-linejoin="round" stroke-miterlimit="10" stroke-width="2.5"/><path fill="none" stroke="rgb(21,101,192)" paint-order="fill stroke markers" d=" M 437.5999248685191 785.8737791134499 L 437.5999248685191 485.87377911345" stroke-opacity="0.8" stroke-linecap="round" stroke-linejoin="round" stroke-miterlimit="10" stroke-width="2.5"/><path fill="none" stroke="rgb(219,97,20)" paint-order="fill stroke markers" d=" M 737.5999248685183 560.8737791134499 L 1037.5999248685175 560.8737791134499" stroke-opacity="0.8" stroke-linecap="round" stroke-linejoin="round" stroke-miterlimit="10" stroke-width="2.5"/><path fill="none" stroke="rgb(21,101,192)" paint-order="fill stroke markers" d=" M 962.5999248685177 335.87377911345004 L 962.5999248685177 560.8737791134499" stroke-opacity="0.8" stroke-linecap="round" stroke-linejoin="round" stroke-miterlimit="10" stroke-width="2.5"/><path fill="none" stroke="rgb(21,101,192)" paint-order="fill stroke markers" d=" M 812.5999248685181 635.8737791134499 L 812.5999248685181 560.8737791134499" stroke-opacity="0.8" stroke-linecap="round" stroke-linejoin="round" stroke-miterlimit="10" stroke-width="2.5"/><path fill="none" stroke="rgb(255,102,0)" paint-order="fill stroke markers" d=" M 437.5999248685191 485.87377911345 L 0 485.87377911345" stroke-opacity="0.8" stroke-linecap="round" stroke-linejoin="round" stroke-miterlimit="10" stroke-width="2.5"/><path fill="none" stroke="rgb(255,102,0)" paint-order="fill stroke markers" d=" M 737.5999248685183 560.8737791134499 L 1544 560.8737791134499" stroke-opacity="0.8" stroke-linecap="round" stroke-linejoin="round" stroke-miterlimit="10" stroke-width="2.5"/><path fill="none" stroke="rgb(0,0,255)" paint-order="fill stroke markers" d=" M 512.5999248685189 485.87377911345 L 512.5999248685189 -5.684341886080802e-14" stroke-opacity="0.8" stroke-linecap="round" stroke-linejoin="round" stroke-miterlimit="10" stroke-width="2.5"/><path fill="none" stroke="rgb(0,0,255)" paint-order="fill stroke markers" d=" M 437.5999248685191 485.87377911345 L 437.5999248685191 838" stroke-opacity="0.8" stroke-linecap="round" stroke-linejoin="round" stroke-miterlimit="10" stroke-width="2.5"/><path fill="none" stroke="rgb(0,0,255)" paint-order="fill stroke markers" d=" M 962.5999248685177 560.8737791134499 L 962.5999248685177 0" stroke-opacity="0.8" stroke-linecap="round" stroke-linejoin="round" stroke-miterlimit="10" stroke-width="2.5"/><path fill="none" stroke="rgb(0,0,255)" paint-order="fill stroke markers" d=" M 812.5999248685181 560.8737791134499 L 812.5999248685181 838" stroke-opacity="0.8" stroke-linecap="round" stroke-linejoin="round" stroke-miterlimit="10" stroke-width="2.5"/><path fill="none" stroke="rgb(97,97,97)" paint-order="fill stroke markers" d=" M 137.59992486851982 35.87377911345004 L 1262.599924868517 35.87377911345004" stroke-opacity="0.8" stroke-linecap="round" stroke-linejoin="round" stroke-miterlimit="10" stroke-width="2.5"/><path fill="none" stroke="rgb(97,97,97)" paint-order="fill stroke markers" d=" M 1262.599924868517 785.8737791134499 L 1262.599924868517 35.87377911345004" stroke-opacity="0.8" stroke-linecap="round" stroke-linejoin="round" stroke-miterlimit="10" stroke-width="2.5"/><path fill="none" stroke="rgb(97,97,97)" paint-order="fill stroke markers" d=" M 1262.599924868517 785.8737791134499 L 137.59992486851982 785.8737791134499" stroke-opacity="0.8" stroke-linecap="round" stroke-linejoin="round" stroke-miterlimit="10" stroke-width="2.5"/><path fill="none" stroke="rgb(97,97,97)" paint-order="fill stroke markers" d=" M 137.59992486851982 785.8737791134499 L 137.59992486851982 35.87377911345004" stroke-opacity="0.8" stroke-linecap="round" stroke-linejoin="round" stroke-miterlimit="10" stroke-width="2.5"/><path fill="rgb(21,101,192)" stroke="none" paint-order="stroke fill markers" d=" M 292.59992486851945 560.8737791134499 C 292.59992486851945 563.6352028626039 290.3613486176734 565.8737791134499 287.59992486851945 565.8737791134499 C 284.8385011193655 565.8737791134499 282.59992486851945 563.6352028626039 282.59992486851945 560.8737791134499 C 282.59992486851945 558.1123553642959 284.8385011193655 555.8737791134499 287.59992486851945 555.8737791134499 C 290.3613486176734 555.8737791134499 292.59992486851945 558.1123553642959 292.59992486851945 560.8737791134499 Z" fill-opacity="1"/><path fill="none" stroke="rgb(0,0,0)" paint-order="fill stroke markers" d=" M 292.59992486851945 560.8737791134499 C 292.59992486851945 563.6352028626039 290.3613486176734 565.8737791134499 287.59992486851945 565.8737791134499 C 284.8385011193655 565.8737791134499 282.59992486851945 563.6352028626039 282.59992486851945 560.8737791134499 C 282.59992486851945 558.1123553642959 284.8385011193655 555.8737791134499 287.59992486851945 555.8737791134499 C 290.3613486176734 555.8737791134499 292.59992486851945 558.1123553642959 292.59992486851945 560.8737791134499 Z" stroke-opacity="1" stroke-linecap="round" stroke-linejoin="round" stroke-miterlimit="10"/><path fill="rgb(21,101,192)" stroke="none" paint-order="stroke fill markers" d=" M 742.5999248685183 410.87377911345 C 742.5999248685183 413.63520286260393 740.3613486176723 415.87377911345 737.5999248685183 415.87377911345 C 734.8385011193643 415.87377911345 732.5999248685183 413.63520286260393 732.5999248685183 410.87377911345 C 732.5999248685183 408.11235536429604 734.8385011193643 405.87377911345 737.5999248685183 405.87377911345 C 740.3613486176723 405.87377911345 742.5999248685183 408.11235536429604 742.5999248685183 410.87377911345 Z" fill-opacity="1"/><path fill="none" stroke="rgb(0,0,0)" paint-order="fill stroke markers" d=" M 742.5999248685183 410.87377911345 C 742.5999248685183 413.63520286260393 740.3613486176723 415.87377911345 737.5999248685183 415.87377911345 C 734.8385011193643 415.87377911345 732.5999248685183 413.63520286260393 732.5999248685183 410.87377911345 C 732.5999248685183 408.11235536429604 734.8385011193643 405.87377911345 737.5999248685183 405.87377911345 C 740.3613486176723 405.87377911345 742.5999248685183 408.11235536429604 742.5999248685183 410.87377911345 Z" stroke-opacity="1" stroke-linecap="round" stroke-linejoin="round" stroke-miterlimit="10"/><path fill="rgb(21,101,192)" stroke="none" paint-order="stroke fill markers" d=" M 517.5999248685189 260.87377911345004 C 517.5999248685189 263.635202862604 515.3613486176729 265.87377911345004 512.5999248685189 265.87377911345004 C 509.83850111936493 265.87377911345004 507.5999248685189 263.635202862604 507.5999248685189 260.87377911345004 C 507.5999248685189 258.1123553642961 509.83850111936493 255.87377911345004 512.5999248685189 255.87377911345004 C 515.3613486176729 255.87377911345004 517.5999248685189 258.1123553642961 517.5999248685189 260.87377911345004 Z" fill-opacity="1"/><path fill="none" stroke="rgb(0,0,0)" paint-order="fill stroke markers" d=" M 517.5999248685189 260.87377911345004 C 517.5999248685189 263.635202862604 515.3613486176729 265.87377911345004 512.5999248685189 265.87377911345004 C 509.83850111936493 265.87377911345004 507.5999248685189 263.635202862604 507.5999248685189 260.87377911345004 C 507.5999248685189 258.1123553642961 509.83850111936493 255.87377911345004 512.5999248685189 255.87377911345004 C 515.3613486176729 255.87377911345004 517.5999248685189 258.1123553642961 517.5999248685189 260.87377911345004 Z" stroke-opacity="1" stroke-linecap="round" stroke-linejoin="round" stroke-miterlimit="10"/><path fill="rgb(21,101,192)" stroke="none" paint-order="stroke fill markers" d=" M 1042.5999248685175 560.8737791134499 C 1042.5999248685175 563.6352028626039 1040.3613486176714 565.8737791134499 1037.5999248685175 565.8737791134499 C 1034.8385011193636 565.8737791134499 1032.5999248685175 563.6352028626039 1032.5999248685175 560.8737791134499 C 1032.5999248685175 558.1123553642959 1034.8385011193636 555.8737791134499 1037.5999248685175 555.8737791134499 C 1040.3613486176714 555.8737791134499 1042.5999248685175 558.1123553642959 1042.5999248685175 560.8737791134499 Z" fill-opacity="1"/><path fill="none" stroke="rgb(0,0,0)" paint-order="fill stroke markers" d=" M 1042.5999248685175 560.8737791134499 C 1042.5999248685175 563.6352028626039 1040.3613486176714 565.8737791134499 1037.5999248685175 565.8737791134499 C 1034.8385011193636 565.8737791134499 1032.5999248685175 563.6352028626039 1032.5999248685175 560.8737791134499 C 1032.5999248685175 558.1123553642959 1034.8385011193636 555.8737791134499 1037.5999248685175 555.8737791134499 C 1040.3613486176714 555.8737791134499 1042.5999248685175 558.1123553642959 1042.5999248685175 560.8737791134499 Z" stroke-opacity="1" stroke-linecap="round" stroke-linejoin="round" stroke-miterlimit="10"/><path fill="rgb(21,101,192)" stroke="none" paint-order="stroke fill markers" d=" M 1042.5999248685175 485.87377911345 C 1042.5999248685175 488.63520286260393 1040.3613486176714 490.87377911345 1037.5999248685175 490.87377911345 C 1034.8385011193636 490.87377911345 1032.5999248685175 488.63520286260393 1032.5999248685175 485.87377911345 C 1032.5999248685175 483.11235536429604 1034.8385011193636 480.87377911345 1037.5999248685175 480.87377911345 C 1040.3613486176714 480.87377911345 1042.5999248685175 483.11235536429604 1042.5999248685175 485.87377911345 Z" fill-opacity="1"/><path fill="none" stroke="rgb(0,0,0)" paint-order="fill stroke markers" d=" M 1042.5999248685175 485.87377911345 C 1042.5999248685175 488.63520286260393 1040.3613486176714 490.87377911345 1037.5999248685175 490.87377911345 C 1034.8385011193636 490.87377911345 1032.5999248685175 488.63520286260393 1032.5999248685175 485.87377911345 C 1032.5999248685175 483.11235536429604 1034.8385011193636 480.87377911345 1037.5999248685175 480.87377911345 C 1040.3613486176714 480.87377911345 1042.5999248685175 483.11235536429604 1042.5999248685175 485.87377911345 Z" stroke-opacity="1" stroke-linecap="round" stroke-linejoin="round" stroke-miterlimit="10"/><path fill="rgb(21,101,192)" stroke="none" paint-order="stroke fill markers" d=" M 817.5999248685181 635.8737791134499 C 817.5999248685181 638.6352028626039 815.3613486176721 640.8737791134499 812.5999248685181 640.8737791134499 C 809.8385011193641 640.8737791134499 807.5999248685181 638.6352028626039 807.5999248685181 635.8737791134499 C 807.5999248685181 633.1123553642959 809.8385011193641 630.8737791134499 812.5999248685181 630.8737791134499 C 815.3613486176721 630.8737791134499 817.5999248685181 633.1123553642959 817.5999248685181 635.8737791134499 Z" fill-opacity="1"/><path fill="none" stroke="rgb(0,0,0)" paint-order="fill stroke markers" d=" M 817.5999248685181 635.8737791134499 C 817.5999248685181 638.6352028626039 815.3613486176721 640.8737791134499 812.5999248685181 640.8737791134499 C 809.8385011193641 640.8737791134499 807.5999248685181 638.6352028626039 807.5999248685181 635.8737791134499 C 807.5999248685181 633.1123553642959 809.8385011193641 630.8737791134499 812.5999248685181 630.8737791134499 C 815.3613486176721 630.8737791134499 817.5999248685181 633.1123553642959 817.5999248685181 635.8737791134499 Z" stroke-opacity="1" stroke-linecap="round" stroke-linejoin="round" stroke-miterlimit="10"/><path fill="rgb(21,101,192)" stroke="none" paint-order="stroke fill markers" d=" M 592.5999248685187 410.87377911345 C 592.5999248685187 413.63520286260393 590.3613486176727 415.87377911345 587.5999248685187 415.87377911345 C 584.8385011193647 415.87377911345 582.5999248685187 413.63520286260393 582.5999248685187 410.87377911345 C 582.5999248685187 408.11235536429604 584.8385011193647 405.87377911345 587.5999248685187 405.87377911345 C 590.3613486176727 405.87377911345 592.5999248685187 408.11235536429604 592.5999248685187 410.87377911345 Z" fill-opacity="1"/><path fill="none" stroke="rgb(0,0,0)" paint-order="fill stroke markers" d=" M 592.5999248685187 410.87377911345 C 592.5999248685187 413.63520286260393 590.3613486176727 415.87377911345 587.5999248685187 415.87377911345 C 584.8385011193647 415.87377911345 582.5999248685187 413.63520286260393 582.5999248685187 410.87377911345 C 582.5999248685187 408.11235536429604 584.8385011193647 405.87377911345 587.5999248685187 405.87377911345 C 590.3613486176727 405.87377911345 592.5999248685187 408.11235536429604 592.5999248685187 410.87377911345 Z" stroke-opacity="1" stroke-linecap="round" stroke-linejoin="round" stroke-miterlimit="10"/><path fill="rgb(21,101,192)" stroke="none" paint-order="stroke fill markers" d=" M 738.5999248685183 785.8737791134499 C 738.5999248685183 786.4260638632808 738.1522096183492 786.8737791134499 737.5999248685183 786.8737791134499 C 737.0476401186875 786.8737791134499 736.5999248685183 786.4260638632808 736.5999248685183 785.8737791134499 C 736.5999248685183 785.3214943636191 737.0476401186875 784.8737791134499 737.5999248685183 784.8737791134499 C 738.1522096183492 784.8737791134499 738.5999248685183 785.3214943636191 738.5999248685183 785.8737791134499 Z" fill-opacity="1"/><path fill="none" stroke="rgb(0,0,0)" paint-order="fill stroke markers" d=" M 738.5999248685183 785.8737791134499 C 738.5999248685183 786.4260638632808 738.1522096183492 786.8737791134499 737.5999248685183 786.8737791134499 C 737.0476401186875 786.8737791134499 736.5999248685183 786.4260638632808 736.5999248685183 785.8737791134499 C 736.5999248685183 785.3214943636191 737.0476401186875 784.8737791134499 737.5999248685183 784.8737791134499 C 738.1522096183492 784.8737791134499 738.5999248685183 785.3214943636191 738.5999248685183 785.8737791134499 Z" stroke-opacity="1" stroke-linecap="round" stroke-linejoin="round" stroke-miterlimit="10"/><path fill="rgb(21,101,192)" stroke="none" paint-order="stroke fill markers" d=" M 292.59992486851945 185.87377911345004 C 292.59992486851945 188.63520286260402 290.3613486176734 190.87377911345004 287.59992486851945 190.87377911345004 C 284.8385011193655 190.87377911345004 282.59992486851945 188.63520286260402 282.59992486851945 185.87377911345004 C 282.59992486851945 183.11235536429606 284.8385011193655 180.87377911345004 287.59992486851945 180.87377911345004 C 290.3613486176734 180.87377911345004 292.59992486851945 183.11235536429606 292.59992486851945 185.87377911345004 Z" fill-opacity="1"/><path fill="none" stroke="rgb(0,0,0)" paint-order="fill stroke markers" d=" M 292.59992486851945 185.87377911345004 C 292.59992486851945 188.63520286260402 290.3613486176734 190.87377911345004 287.59992486851945 190.87377911345004 C 284.8385011193655 190.87377911345004 282.59992486851945 188.63520286260402 282.59992486851945 185.87377911345004 C 282.59992486851945 183.11235536429606 284.8385011193655 180.87377911345004 287.59992486851945 180.87377911345004 C 290.3613486176734 180.87377911345004 292.59992486851945 183.11235536429606 292.59992486851945 185.87377911345004 Z" stroke-opacity="1" stroke-linecap="round" stroke-linejoin="round" stroke-miterlimit="10"/><path fill="rgb(21,101,192)" stroke="none" paint-order="stroke fill markers" d=" M 442.5999248685191 635.8737791134499 C 442.5999248685191 638.6352028626039 440.36134861767306 640.8737791134499 437.5999248685191 640.8737791134499 C 434.83850111936516 640.8737791134499 432.5999248685191 638.6352028626039 432.5999248685191 635.8737791134499 C 432.5999248685191 633.1123553642959 434.83850111936516 630.8737791134499 437.5999248685191 630.8737791134499 C 440.36134861767306 630.8737791134499 442.5999248685191 633.1123553642959 442.5999248685191 635.8737791134499 Z" fill-opacity="1"/><path fill="none" stroke="rgb(0,0,0)" paint-order="fill stroke markers" d=" M 442.5999248685191 635.8737791134499 C 442.5999248685191 638.6352028626039 440.36134861767306 640.8737791134499 437.5999248685191 640.8737791134499 C 434.83850111936516 640.8737791134499 432.5999248685191 638.6352028626039 432.5999248685191 635.8737791134499 C 432.5999248685191 633.1123553642959 434.83850111936516 630.8737791134499 437.5999248685191 630.8737791134499 C 440.36134861767306 630.8737791134499 442.5999248685191 633.1123553642959 442.5999248685191 635.8737791134499 Z" stroke-opacity="1" stroke-linecap="round" stroke-linejoin="round" stroke-miterlimit="10"/><path fill="rgb(21,101,192)" stroke="none" paint-order="stroke fill markers" d=" M 667.5999248685185 710.8737791134499 C 667.5999248685185 713.6352028626039 665.3613486176725 715.8737791134499 662.5999248685185 715.8737791134499 C 659.8385011193645 715.8737791134499 657.5999248685185 713.6352028626039 657.5999248685185 710.8737791134499 C 657.5999248685185 708.1123553642959 659.8385011193645 705.8737791134499 662.5999248685185 705.8737791134499 C 665.3613486176725 705.8737791134499 667.5999248685185 708.1123553642959 667.5999248685185 710.8737791134499 Z" fill-opacity="1"/><path fill="none" stroke="rgb(0,0,0)" paint-order="fill stroke markers" d=" M 667.5999248685185 710.8737791134499 C 667.5999248685185 713.6352028626039 665.3613486176725 715.8737791134499 662.5999248685185 715.8737791134499 C 659.8385011193645 715.8737791134499 657.5999248685185 713.6352028626039 657.5999248685185 710.8737791134499 C 657.5999248685185 708.1123553642959 659.8385011193645 705.8737791134499 662.5999248685185 705.8737791134499 C 665.3613486176725 705.8737791134499 667.5999248685185 708.1123553642959 667.5999248685185 710.8737791134499 Z" stroke-opacity="1" stroke-linecap="round" stroke-linejoin="round" stroke-miterlimit="10"/><path fill="rgb(21,101,192)" stroke="none" paint-order="stroke fill markers" d=" M 892.599924868518 410.87377911345 C 892.599924868518 413.63520286260393 890.361348617672 415.87377911345 887.599924868518 415.87377911345 C 884.838501119364 415.87377911345 882.599924868518 413.63520286260393 882.599924868518 410.87377911345 C 882.599924868518 408.11235536429604 884.838501119364 405.87377911345 887.599924868518 405.87377911345 C 890.361348617672 405.87377911345 892.599924868518 408.11235536429604 892.599924868518 410.87377911345 Z" fill-opacity="1"/><path fill="none" stroke="rgb(0,0,0)" paint-order="fill stroke markers" d=" M 892.599924868518 410.87377911345 C 892.599924868518 413.63520286260393 890.361348617672 415.87377911345 887.599924868518 415.87377911345 C 884.838501119364 415.87377911345 882.599924868518 413.63520286260393 882.599924868518 410.87377911345 C 882.599924868518 408.11235536429604 884.838501119364 405.87377911345 887.599924868518 405.87377911345 C 890.361348617672 405.87377911345 892.599924868518 408.11235536429604 892.599924868518 410.87377911345 Z" stroke-opacity="1" stroke-linecap="round" stroke-linejoin="round" stroke-miterlimit="10"/><path fill="rgb(21,101,192)" stroke="none" paint-order="stroke fill markers" d=" M 967.5999248685177 335.87377911345004 C 967.5999248685177 338.635202862604 965.3613486176718 340.87377911345004 962.5999248685177 340.87377911345004 C 959.8385011193637 340.87377911345004 957.5999248685177 338.635202862604 957.5999248685177 335.87377911345004 C 957.5999248685177 333.1123553642961 959.8385011193637 330.87377911345004 962.5999248685177 330.87377911345004 C 965.3613486176718 330.87377911345004 967.5999248685177 333.1123553642961 967.5999248685177 335.87377911345004 Z" fill-opacity="1"/><path fill="none" stroke="rgb(0,0,0)" paint-order="fill stroke markers" d=" M 967.5999248685177 335.87377911345004 C 967.5999248685177 338.635202862604 965.3613486176718 340.87377911345004 962.5999248685177 340.87377911345004 C 959.8385011193637 340.87377911345004 957.5999248685177 338.635202862604 957.5999248685177 335.87377911345004 C 957.5999248685177 333.1123553642961 959.8385011193637 330.87377911345004 962.5999248685177 330.87377911345004 C 965.3613486176718 330.87377911345004 967.5999248685177 333.1123553642961 967.5999248685177 335.87377911345004 Z" stroke-opacity="1" stroke-linecap="round" stroke-linejoin="round" stroke-miterlimit="10"/><path fill="rgb(21,101,192)" stroke="none" paint-order="stroke fill markers" d=" M 1192.5999248685173 710.8737791134499 C 1192.5999248685173 713.6352028626039 1190.3613486176712 715.8737791134499 1187.5999248685173 715.8737791134499 C 1184.8385011193634 715.8737791134499 1182.5999248685173 713.6352028626039 1182.5999248685173 710.8737791134499 C 1182.5999248685173 708.1123553642959 1184.8385011193634 705.8737791134499 1187.5999248685173 705.8737791134499 C 1190.3613486176712 705.8737791134499 1192.5999248685173 708.1123553642959 1192.5999248685173 710.8737791134499 Z" fill-opacity="1"/><path fill="none" stroke="rgb(0,0,0)" paint-order="fill stroke markers" d=" M 1192.5999248685173 710.8737791134499 C 1192.5999248685173 713.6352028626039 1190.3613486176712 715.8737791134499 1187.5999248685173 715.8737791134499 C 1184.8385011193634 715.8737791134499 1182.5999248685173 713.6352028626039 1182.5999248685173 710.8737791134499 C 1182.5999248685173 708.1123553642959 1184.8385011193634 705.8737791134499 1187.5999248685173 705.8737791134499 C 1190.3613486176712 705.8737791134499 1192.5999248685173 708.1123553642959 1192.5999248685173 710.8737791134499 Z" stroke-opacity="1" stroke-linecap="round" stroke-linejoin="round" stroke-miterlimit="10"/><path fill="rgb(21,101,192)" stroke="none" paint-order="stroke fill markers" d=" M 217.59992486851962 485.87377911345 C 217.59992486851962 488.63520286260393 215.3613486176736 490.87377911345 212.59992486851962 490.87377911345 C 209.83850111936565 490.87377911345 207.59992486851962 488.63520286260393 207.59992486851962 485.87377911345 C 207.59992486851962 483.11235536429604 209.83850111936565 480.87377911345 212.59992486851962 480.87377911345 C 215.3613486176736 480.87377911345 217.59992486851962 483.11235536429604 217.59992486851962 485.87377911345 Z" fill-opacity="1"/><path fill="none" stroke="rgb(0,0,0)" paint-order="fill stroke markers" d=" M 217.59992486851962 485.87377911345 C 217.59992486851962 488.63520286260393 215.3613486176736 490.87377911345 212.59992486851962 490.87377911345 C 209.83850111936565 490.87377911345 207.59992486851962 488.63520286260393 207.59992486851962 485.87377911345 C 207.59992486851962 483.11235536429604 209.83850111936565 480.87377911345 212.59992486851962 480.87377911345 C 215.3613486176736 480.87377911345 217.59992486851962 483.11235536429604 217.59992486851962 485.87377911345 Z" stroke-opacity="1" stroke-linecap="round" stroke-linejoin="round" stroke-miterlimit="10"/><path fill="rgb(21,101,192)" stroke="none" paint-order="stroke fill markers" d=" M 138.59992486851982 524.8737791134499 C 138.59992486851982 525.4260638632808 138.1522096183506 525.8737791134499 137.59992486851982 525.8737791134499 C 137.04764011868903 525.8737791134499 136.59992486851982 525.4260638632808 136.59992486851982 524.8737791134499 C 136.59992486851982 524.3214943636191 137.04764011868903 523.8737791134499 137.59992486851982 523.8737791134499 C 138.1522096183506 523.8737791134499 138.59992486851982 524.3214943636191 138.59992486851982 524.8737791134499 Z" fill-opacity="1"/><path fill="none" stroke="rgb(0,0,0)" paint-order="fill stroke markers" d=" M 138.59992486851982 524.8737791134499 C 138.59992486851982 525.4260638632808 138.1522096183506 525.8737791134499 137.59992486851982 525.8737791134499 C 137.04764011868903 525.8737791134499 136.59992486851982 525.4260638632808 136.59992486851982 524.8737791134499 C 136.59992486851982 524.3214943636191 137.04764011868903 523.8737791134499 137.59992486851982 523.8737791134499 C 138.1522096183506 523.8737791134499 138.59992486851982 524.3214943636191 138.59992486851982 524.8737791134499 Z" stroke-opacity="1" stroke-linecap="round" stroke-linejoin="round" stroke-miterlimit="10"/><path fill="rgb(21,101,192)" stroke="none" paint-order="stroke fill markers" d=" M 738.5999248685183 485.87377911345 C 738.5999248685183 486.4260638632808 738.1522096183492 486.87377911345 737.5999248685183 486.87377911345 C 737.0476401186875 486.87377911345 736.5999248685183 486.4260638632808 736.5999248685183 485.87377911345 C 736.5999248685183 485.3214943636192 737.0476401186875 484.87377911345 737.5999248685183 484.87377911345 C 738.1522096183492 484.87377911345 738.5999248685183 485.3214943636192 738.5999248685183 485.87377911345 Z" fill-opacity="1"/><path fill="none" stroke="rgb(0,0,0)" paint-order="fill stroke markers" d=" M 738.5999248685183 485.87377911345 C 738.5999248685183 486.4260638632808 738.1522096183492 486.87377911345 737.5999248685183 486.87377911345 C 737.0476401186875 486.87377911345 736.5999248685183 486.4260638632808 736.5999248685183 485.87377911345 C 736.5999248685183 485.3214943636192 737.0476401186875 484.87377911345 737.5999248685183 484.87377911345 C 738.1522096183492 484.87377911345 738.5999248685183 485.3214943636192 738.5999248685183 485.87377911345 Z" stroke-opacity="1" stroke-linecap="round" stroke-linejoin="round" stroke-miterlimit="10"/><path fill="rgb(21,101,192)" stroke="none" paint-order="stroke fill markers" d=" M 513.5999248685189 110.87377911345004 C 513.5999248685189 111.42606386328083 513.1522096183497 111.87377911345004 512.5999248685189 111.87377911345004 C 512.047640118688 111.87377911345004 511.5999248685189 111.42606386328083 511.5999248685189 110.87377911345004 C 511.5999248685189 110.32149436361925 512.047640118688 109.87377911345004 512.5999248685189 109.87377911345004 C 513.1522096183497 109.87377911345004 513.5999248685189 110.32149436361925 513.5999248685189 110.87377911345004 Z" fill-opacity="1"/><path fill="none" stroke="rgb(0,0,0)" paint-order="fill stroke markers" d=" M 513.5999248685189 110.87377911345004 C 513.5999248685189 111.42606386328083 513.1522096183497 111.87377911345004 512.5999248685189 111.87377911345004 C 512.047640118688 111.87377911345004 511.5999248685189 111.42606386328083 511.5999248685189 110.87377911345004 C 511.5999248685189 110.32149436361925 512.047640118688 109.87377911345004 512.5999248685189 109.87377911345004 C 513.1522096183497 109.87377911345004 513.5999248685189 110.32149436361925 513.5999248685189 110.87377911345004 Z" stroke-opacity="1" stroke-linecap="round" stroke-linejoin="round" stroke-miterlimit="10"/><path fill="rgb(21,101,192)" stroke="none" paint-order="stroke fill markers" d=" M 513.5999248685189 485.87377911345 C 513.5999248685189 486.4260638632808 513.1522096183497 486.87377911345 512.5999248685189 486.87377911345 C 512.047640118688 486.87377911345 511.5999248685189 486.4260638632808 511.5999248685189 485.87377911345 C 511.5999248685189 485.3214943636192 512.047640118688 484.87377911345 512.5999248685189 484.87377911345 C 513.1522096183497 484.87377911345 513.5999248685189 485.3214943636192 513.5999248685189 485.87377911345 Z" fill-opacity="1"/><path fill="none" stroke="rgb(0,0,0)" paint-order="fill stroke markers" d=" M 513.5999248685189 485.87377911345 C 513.5999248685189 486.4260638632808 513.1522096183497 486.87377911345 512.5999248685189 486.87377911345 C 512.047640118688 486.87377911345 511.5999248685189 486.4260638632808 511.5999248685189 485.87377911345 C 511.5999248685189 485.3214943636192 512.047640118688 484.87377911345 512.5999248685189 484.87377911345 C 513.1522096183497 484.87377911345 513.5999248685189 485.3214943636192 513.5999248685189 485.87377911345 Z" stroke-opacity="1" stroke-linecap="round" stroke-linejoin="round" stroke-miterlimit="10"/><path fill="rgb(21,101,192)" stroke="none" paint-order="stroke fill markers" d=" M 438.5999248685191 785.8737791134499 C 438.5999248685191 786.4260638632808 438.1522096183499 786.8737791134499 437.5999248685191 786.8737791134499 C 437.0476401186883 786.8737791134499 436.5999248685191 786.4260638632808 436.5999248685191 785.8737791134499 C 436.5999248685191 785.3214943636191 437.0476401186883 784.8737791134499 437.5999248685191 784.8737791134499 C 438.1522096183499 784.8737791134499 438.5999248685191 785.3214943636191 438.5999248685191 785.8737791134499 Z" fill-opacity="1"/><path fill="none" stroke="rgb(0,0,0)" paint-order="fill stroke markers" d=" M 438.5999248685191 785.8737791134499 C 438.5999248685191 786.4260638632808 438.1522096183499 786.8737791134499 437.5999248685191 786.8737791134499 C 437.0476401186883 786.8737791134499 436.5999248685191 786.4260638632808 436.5999248685191 785.8737791134499 C 436.5999248685191 785.3214943636191 437.0476401186883 784.8737791134499 437.5999248685191 784.8737791134499 C 438.1522096183499 784.8737791134499 438.5999248685191 785.3214943636191 438.5999248685191 785.8737791134499 Z" stroke-opacity="1" stroke-linecap="round" stroke-linejoin="round" stroke-miterlimit="10"/><path fill="rgb(21,101,192)" stroke="none" paint-order="stroke fill markers" d=" M 438.5999248685191 485.87377911345 C 438.5999248685191 486.4260638632808 438.1522096183499 486.87377911345 437.5999248685191 486.87377911345 C 437.0476401186883 486.87377911345 436.5999248685191 486.4260638632808 436.5999248685191 485.87377911345 C 436.5999248685191 485.3214943636192 437.0476401186883 484.87377911345 437.5999248685191 484.87377911345 C 438.1522096183499 484.87377911345 438.5999248685191 485.3214943636192 438.5999248685191 485.87377911345 Z" fill-opacity="1"/><path fill="none" stroke="rgb(0,0,0)" paint-order="fill stroke markers" d=" M 438.5999248685191 485.87377911345 C 438.5999248685191 486.4260638632808 438.1522096183499 486.87377911345 437.5999248685191 486.87377911345 C 437.0476401186883 486.87377911345 436.5999248685191 486.4260638632808 436.5999248685191 485.87377911345 C 436.5999248685191 485.3214943636192 437.0476401186883 484.87377911345 437.5999248685191 484.87377911345 C 438.1522096183499 484.87377911345 438.5999248685191 485.3214943636192 438.5999248685191 485.87377911345 Z" stroke-opacity="1" stroke-linecap="round" stroke-linejoin="round" stroke-miterlimit="10"/><path fill="rgb(21,101,192)" stroke="none" paint-order="stroke fill markers" d=" M 738.5999248685183 560.8737791134499 C 738.5999248685183 561.4260638632808 738.1522096183492 561.8737791134499 737.5999248685183 561.8737791134499 C 737.0476401186875 561.8737791134499 736.5999248685183 561.4260638632808 736.5999248685183 560.8737791134499 C 736.5999248685183 560.3214943636191 737.0476401186875 559.8737791134499 737.5999248685183 559.8737791134499 C 738.1522096183492 559.8737791134499 738.5999248685183 560.3214943636191 738.5999248685183 560.8737791134499 Z" fill-opacity="1"/><path fill="none" stroke="rgb(0,0,0)" paint-order="fill stroke markers" d=" M 738.5999248685183 560.8737791134499 C 738.5999248685183 561.4260638632808 738.1522096183492 561.8737791134499 737.5999248685183 561.8737791134499 C 737.0476401186875 561.8737791134499 736.5999248685183 561.4260638632808 736.5999248685183 560.8737791134499 C 736.5999248685183 560.3214943636191 737.0476401186875 559.8737791134499 737.5999248685183 559.8737791134499 C 738.1522096183492 559.8737791134499 738.5999248685183 560.3214943636191 738.5999248685183 560.8737791134499 Z" stroke-opacity="1" stroke-linecap="round" stroke-linejoin="round" stroke-miterlimit="10"/><path fill="rgb(21,101,192)" stroke="none" paint-order="stroke fill markers" d=" M 963.5999248685177 560.8737791134499 C 963.5999248685177 561.4260638632808 963.1522096183486 561.8737791134499 962.5999248685177 561.8737791134499 C 962.0476401186869 561.8737791134499 961.5999248685177 561.4260638632808 961.5999248685177 560.8737791134499 C 961.5999248685177 560.3214943636191 962.0476401186869 559.8737791134499 962.5999248685177 559.8737791134499 C 963.1522096183486 559.8737791134499 963.5999248685177 560.3214943636191 963.5999248685177 560.8737791134499 Z" fill-opacity="1"/><path fill="none" stroke="rgb(0,0,0)" paint-order="fill stroke markers" d=" M 963.5999248685177 560.8737791134499 C 963.5999248685177 561.4260638632808 963.1522096183486 561.8737791134499 962.5999248685177 561.8737791134499 C 962.0476401186869 561.8737791134499 961.5999248685177 561.4260638632808 961.5999248685177 560.8737791134499 C 961.5999248685177 560.3214943636191 962.0476401186869 559.8737791134499 962.5999248685177 559.8737791134499 C 963.1522096183486 559.8737791134499 963.5999248685177 560.3214943636191 963.5999248685177 560.8737791134499 Z" stroke-opacity="1" stroke-linecap="round" stroke-linejoin="round" stroke-miterlimit="10"/><path fill="rgb(21,101,192)" stroke="none" paint-order="stroke fill markers" d=" M 813.5999248685181 785.8737791134499 C 813.5999248685181 786.4260638632808 813.1522096183489 786.8737791134499 812.5999248685181 786.8737791134499 C 812.0476401186872 786.8737791134499 811.5999248685181 786.4260638632808 811.5999248685181 785.8737791134499 C 811.5999248685181 785.3214943636191 812.0476401186872 784.8737791134499 812.5999248685181 784.8737791134499 C 813.1522096183489 784.8737791134499 813.5999248685181 785.3214943636191 813.5999248685181 785.8737791134499 Z" fill-opacity="1"/><path fill="none" stroke="rgb(0,0,0)" paint-order="fill stroke markers" d=" M 813.5999248685181 785.8737791134499 C 813.5999248685181 786.4260638632808 813.1522096183489 786.8737791134499 812.5999248685181 786.8737791134499 C 812.0476401186872 786.8737791134499 811.5999248685181 786.4260638632808 811.5999248685181 785.8737791134499 C 811.5999248685181 785.3214943636191 812.0476401186872 784.8737791134499 812.5999248685181 784.8737791134499 C 813.1522096183489 784.8737791134499 813.5999248685181 785.3214943636191 813.5999248685181 785.8737791134499 Z" stroke-opacity="1" stroke-linecap="round" stroke-linejoin="round" stroke-miterlimit="10"/><path fill="rgb(21,101,192)" stroke="none" paint-order="stroke fill markers" d=" M 813.5999248685181 560.8737791134499 C 813.5999248685181 561.4260638632808 813.1522096183489 561.8737791134499 812.5999248685181 561.8737791134499 C 812.0476401186872 561.8737791134499 811.5999248685181 561.4260638632808 811.5999248685181 560.8737791134499 C 811.5999248685181 560.3214943636191 812.0476401186872 559.8737791134499 812.5999248685181 559.8737791134499 C 813.1522096183489 559.8737791134499 813.5999248685181 560.3214943636191 813.5999248685181 560.8737791134499 Z" fill-opacity="1"/><path fill="none" stroke="rgb(0,0,0)" paint-order="fill stroke markers" d=" M 813.5999248685181 560.8737791134499 C 813.5999248685181 561.4260638632808 813.1522096183489 561.8737791134499 812.5999248685181 561.8737791134499 C 812.0476401186872 561.8737791134499 811.5999248685181 561.4260638632808 811.5999248685181 560.8737791134499 C 811.5999248685181 560.3214943636191 812.0476401186872 559.8737791134499 812.5999248685181 559.8737791134499 C 813.1522096183489 559.8737791134499 813.5999248685181 560.3214943636191 813.5999248685181 560.8737791134499 Z" stroke-opacity="1" stroke-linecap="round" stroke-linejoin="round" stroke-miterlimit="10"/><path fill="rgb(21,101,192)" stroke="none" paint-order="stroke fill markers" d=" M 138.59992486851982 35.87377911345004 C 138.59992486851982 36.42606386328083 138.1522096183506 36.87377911345004 137.59992486851982 36.87377911345004 C 137.04764011868903 36.87377911345004 136.59992486851982 36.42606386328083 136.59992486851982 35.87377911345004 C 136.59992486851982 35.321494363619244 137.04764011868903 34.87377911345004 137.59992486851982 34.87377911345004 C 138.1522096183506 34.87377911345004 138.59992486851982 35.321494363619244 138.59992486851982 35.87377911345004 Z" fill-opacity="1"/><path fill="none" stroke="rgb(0,0,0)" paint-order="fill stroke markers" d=" M 138.59992486851982 35.87377911345004 C 138.59992486851982 36.42606386328083 138.1522096183506 36.87377911345004 137.59992486851982 36.87377911345004 C 137.04764011868903 36.87377911345004 136.59992486851982 36.42606386328083 136.59992486851982 35.87377911345004 C 136.59992486851982 35.321494363619244 137.04764011868903 34.87377911345004 137.59992486851982 34.87377911345004 C 138.1522096183506 34.87377911345004 138.59992486851982 35.321494363619244 138.59992486851982 35.87377911345004 Z" stroke-opacity="1" stroke-linecap="round" stroke-linejoin="round" stroke-miterlimit="10"/><path fill="rgb(21,101,192)" stroke="none" paint-order="stroke fill markers" d=" M 1263.599924868517 35.87377911345004 C 1263.599924868517 36.42606386328083 1263.1522096183478 36.87377911345004 1262.599924868517 36.87377911345004 C 1262.0476401186863 36.87377911345004 1261.599924868517 36.42606386328083 1261.599924868517 35.87377911345004 C 1261.599924868517 35.321494363619244 1262.0476401186863 34.87377911345004 1262.599924868517 34.87377911345004 C 1263.1522096183478 34.87377911345004 1263.599924868517 35.321494363619244 1263.599924868517 35.87377911345004 Z" fill-opacity="1"/><path fill="none" stroke="rgb(0,0,0)" paint-order="fill stroke markers" d=" M 1263.599924868517 35.87377911345004 C 1263.599924868517 36.42606386328083 1263.1522096183478 36.87377911345004 1262.599924868517 36.87377911345004 C 1262.0476401186863 36.87377911345004 1261.599924868517 36.42606386328083 1261.599924868517 35.87377911345004 C 1261.599924868517 35.321494363619244 1262.0476401186863 34.87377911345004 1262.599924868517 34.87377911345004 C 1263.1522096183478 34.87377911345004 1263.599924868517 35.321494363619244 1263.599924868517 35.87377911345004 Z" stroke-opacity="1" stroke-linecap="round" stroke-linejoin="round" stroke-miterlimit="10"/><path fill="rgb(21,101,192)" stroke="none" paint-order="stroke fill markers" d=" M 1263.599924868517 785.8737791134499 C 1263.599924868517 786.4260638632808 1263.1522096183478 786.8737791134499 1262.599924868517 786.8737791134499 C 1262.0476401186863 786.8737791134499 1261.599924868517 786.4260638632808 1261.599924868517 785.8737791134499 C 1261.599924868517 785.3214943636191 1262.0476401186863 784.8737791134499 1262.599924868517 784.8737791134499 C 1263.1522096183478 784.8737791134499 1263.599924868517 785.3214943636191 1263.599924868517 785.8737791134499 Z" fill-opacity="1"/><path fill="none" stroke="rgb(0,0,0)" paint-order="fill stroke markers" d=" M 1263.599924868517 785.8737791134499 C 1263.599924868517 786.4260638632808 1263.1522096183478 786.8737791134499 1262.599924868517 786.8737791134499 C 1262.0476401186863 786.8737791134499 1261.599924868517 786.4260638632808 1261.599924868517 785.8737791134499 C 1261.599924868517 785.3214943636191 1262.0476401186863 784.8737791134499 1262.599924868517 784.8737791134499 C 1263.1522096183478 784.8737791134499 1263.599924868517 785.3214943636191 1263.599924868517 785.8737791134499 Z" stroke-opacity="1" stroke-linecap="round" stroke-linejoin="round" stroke-miterlimit="10"/><path fill="rgb(97,97,97)" stroke="none" paint-order="stroke fill markers" d=" M 138.59992486851982 785.8737791134499 C 138.59992486851982 786.4260638632808 138.1522096183506 786.8737791134499 137.59992486851982 786.8737791134499 C 137.04764011868903 786.8737791134499 136.59992486851982 786.4260638632808 136.59992486851982 785.8737791134499 C 136.59992486851982 785.3214943636191 137.04764011868903 784.8737791134499 137.59992486851982 784.8737791134499 C 138.1522096183506 784.8737791134499 138.59992486851982 785.3214943636191 138.59992486851982 785.8737791134499 Z" fill-opacity="1"/><path fill="none" stroke="rgb(0,0,0)" paint-order="fill stroke markers" d=" M 138.59992486851982 785.8737791134499 C 138.59992486851982 786.4260638632808 138.1522096183506 786.8737791134499 137.59992486851982 786.8737791134499 C 137.04764011868903 786.8737791134499 136.59992486851982 786.4260638632808 136.59992486851982 785.8737791134499 C 136.59992486851982 785.3214943636191 137.04764011868903 784.8737791134499 137.59992486851982 784.8737791134499 C 138.1522096183506 784.8737791134499 138.59992486851982 785.3214943636191 138.59992486851982 785.8737791134499 Z" stroke-opacity="1" stroke-linecap="round" stroke-linejoin="round" stroke-miterlimit="10"/><g transform="scale(35,35)"><g transform="translate(21.514285714285716,12.015080000000001)"><path fill="rgb(0,0,0)" stroke="none" paint-order="stroke fill markers" d=" M 0.17200000000000001 -0.078 Q 0.17200000000000001 -0.047 0.184 -0.04 L 0.184 -0.04 L 0.185 -0.039 Q 0.199 -0.031 0.248 -0.031 L 0.269 -0.031 L 0.269 0 Q 0.229 -0.003 0.14200000000000002 -0.003 Q 0.145 -0.003 0.028 0 L 0.028 -0.031 Q 0.08700000000000001 -0.031 0.097 -0.04 L 0.099 -0.042 Q 0.106 -0.05 0.106 -0.076 L 0.106 -0.34400000000000003 Q 0.106 -0.383 0.091 -0.392 Q 0.079 -0.399 0.048 -0.4 L 0.028 -0.4 L 0.028 -0.431 L 0.167 -0.442 L 0.167 -0.332 Q 0.194 -0.41600000000000004 0.256 -0.437 Q 0.272 -0.442 0.29 -0.442 Q 0.337 -0.442 0.357 -0.40700000000000003 Q 0.364 -0.395 0.364 -0.381 Q 0.364 -0.34600000000000003 0.331 -0.338 Q 0.326 -0.337 0.321 -0.337 Q 0.29 -0.337 0.281 -0.364 Q 0.278 -0.371 0.278 -0.38 Q 0.278 -0.40700000000000003 0.301 -0.419 Q 0.299 -0.42 0.29 -0.42 Q 0.223 -0.42 0.191 -0.338 Q 0.17200000000000001 -0.291 0.17200000000000001 -0.232 L 0.17200000000000001 -0.078 Z"/></g><g transform="translate(21.905953714285715,12.015080000000001)"><path fill="rgb(0,0,0)" stroke="none" paint-order="stroke fill markers" d=" M 0.47100000000000003 -0.214 L 0.47100000000000003 -0.214 Q 0.47100000000000003 -0.111 0.395 -0.044 Q 0.332 0.011 0.249 0.011 Q 0.153 0.011 0.08700000000000001 -0.061 Q 0.028 -0.126 0.028 -0.214 Q 0.028 -0.316 0.101 -0.386 Q 0.164 -0.448 0.25 -0.448 Q 0.34700000000000003 -0.448 0.41300000000000003 -0.371 Q 0.47100000000000003 -0.304 0.47100000000000003 -0.214 M 0.25 -0.014 L 0.25 -0.014 Q 0.317 -0.014 0.356 -0.07 L 0.366 -0.088 Q 0.388 -0.132 0.388 -0.222 Q 0.388 -0.318 0.362 -0.361 Q 0.319 -0.423 0.249 -0.426 Q 0.187 -0.426 0.147 -0.376 Q 0.14 -0.368 0.135 -0.359 Q 0.111 -0.315 0.111 -0.222 Q 0.111 -0.125 0.136 -0.081 Q 0.178 -0.016 0.25 -0.014 Z"/></g><g transform="translate(22.433734714285713,12.015080000000001)"><path fill="rgb(0,0,0)" stroke="none" paint-order="stroke fill markers" d=" M 0.47100000000000003 -0.214 L 0.47100000000000003 -0.214 Q 0.47100000000000003 -0.111 0.395 -0.044 Q 0.332 0.011 0.249 0.011 Q 0.153 0.011 0.08700000000000001 -0.061 Q 0.028 -0.126 0.028 -0.214 Q 0.028 -0.316 0.101 -0.386 Q 0.164 -0.448 0.25 -0.448 Q 0.34700000000000003 -0.448 0.41300000000000003 -0.371 Q 0.47100000000000003 -0.304 0.47100000000000003 -0.214 M 0.25 -0.014 L 0.25 -0.014 Q 0.317 -0.014 0.356 -0.07 L 0.366 -0.088 Q 0.388 -0.132 0.388 -0.222 Q 0.388 -0.318 0.362 -0.361 Q 0.319 -0.423 0.249 -0.426 Q 0.187 -0.426 0.147 -0.376 Q 0.14 -0.368 0.135 -0.359 Q 0.111 -0.315 0.111 -0.222 Q 0.111 -0.125 0.136 -0.081 Q 0.178 -0.016 0.25 -0.014 Z"/></g><g transform="translate(22.93373671428571,12.015080000000001)"><path fill="rgb(0,0,0)" stroke="none" paint-order="stroke fill markers" d=" M 0.17300000000000001 -0.4 L 0.17300000000000001 -0.4 L 0.17300000000000001 -0.122 Q 0.17300000000000001 -0.022 0.231 -0.015 Q 0.23500000000000001 -0.014 0.24 -0.014 Q 0.28300000000000003 -0.014 0.3 -0.07 Q 0.307 -0.094 0.307 -0.126 L 0.307 -0.181 L 0.332 -0.181 L 0.332 -0.124 Q 0.332 -0.042 0.28600000000000003 -0.006 Q 0.264 0.011 0.233 0.011 Q 0.149 0.011 0.11800000000000001 -0.052000000000000005 Q 0.10400000000000001 -0.082 0.10400000000000001 -0.124 L 0.10400000000000001 -0.4 L 0.019 -0.4 L 0.019 -0.422 Q 0.108 -0.426 0.137 -0.534 Q 0.147 -0.5720000000000001 0.148 -0.615 L 0.17300000000000001 -0.615 L 0.17300000000000001 -0.431 L 0.316 -0.431 L 0.316 -0.4 L 0.17300000000000001 -0.4 Z"/></g></g></g></g></svg>