<svg version="1.1" xmlns="http://www.w3.org/2000/svg" xmlns:xlink="http://www.w3.org/1999/xlink" width="1544" height="838"><defs><clipPath id="TbTqdKVZTvnw"><path fill="none" stroke="none" d=" M 0 0 L 1544 0 L 1544 838 L 0 838 L 0 0 Z"/></clipPath></defs><g transform="scale(1,1)" clip-path="url(#TbTqdKVZTvnw)"><g><rect fill="rgb(255,255,255)" stroke="none" x="0" y="0" width="1544" height="838" fill-opacity="1"/><path fill="none" stroke="rgb(192,192,192)" paint-order="fill stroke markers" d=" M 23.5 0.5 L 23.5 838.5 M 23.5 0.5 L 23.5 838.5 M 211.5 0.5 L 211.5 838.5 M 305.5 0.5 L 305.5 838.5 M 399.5 0.5 L 399.5 838.5 M 493.5 0.5 L 493.5 838.5 M 588.5 0.5 L 588.5 838.5 M 682.5 0.5 L 682.5 838.5 M 776.5 0.5 L 776.5 838.5 M 870.5 0.5 L 870.5 838.5 M 964.5 0.5 L 964.5 838.5 M 1058.5 0.5 L 1058.5 838.5 M 1153.5 0.5 L 1153.5 838.5 M 1247.5 0.5 L 1247.5 838.5 M 1341.5 0.5 L 1341.5 838.5 M 1435.5 0.5 L 1435.5 838.5 M 1529.5 0.5 L 1529.5 838.5" stroke-opacity="1" stroke-linecap="round" stroke-linejoin="round" stroke-miterlimit="10"/><path fill="none" stroke="rgb(192,192,192)" paint-order="fill stroke markers" d="" stroke-opacity="0.23529411764705882" stroke-linecap="round" stroke-linejoin="round" stroke-miterlimit="10"/><path fill="none" stroke="rgb(192,192,192)" paint-order="fill stroke markers" d=" M 0.5 74.5 L 1544.5 74.5 M 0.5 74.5 L 1544.5 74.5 M 0.5 168.5 L 1544.5 168.5 M 0.5 262.5 L 1544.5 262.5 M 0.5 357.5 L 1544.5 357.5 M 0.5 451.5 L 1544.5 451.5 M 0.5 545.5 L 1544.5 545.5 M 0.5 639.5 L 1544.5 639.5 M 0.5 827.5 L 1544.5 827.5" stroke-opacity="1" stroke-linecap="round" stroke-linejoin="round" stroke-miterlimit="10"/><path fill="none" stroke="rgb(192,192,192)" paint-order="fill stroke markers" d="" stroke-opacity="0.23529411764705882" stroke-linecap="round" stroke-linejoin="round" stroke-miterlimit="10"/><path fill="none" stroke="rgb(0,0,0)" paint-order="fill stroke markers" d=" M 117.5 2.5 L 117.5 838.5" stroke-opacity="1" stroke-miterlimit="10"/><path fill="none" stroke="rgb(0,0,0)" paint-order="fill stroke markers" d=" M 117.5 1.5 L 113.5 5.5" stroke-opacity="1" stroke-miterlimit="10"/><path fill="none" stroke="rgb(0,0,0)" paint-order="fill stroke markers" d=" M 117.5 1.5 L 121.5 5.5" stroke-opacity="1" stroke-miterlimit="10"/><path fill="none" stroke="rgb(0,0,0)" paint-order="fill stroke markers" d=" M 0.5 733.5 L 1542.5 733.5" stroke-opacity="1" stroke-miterlimit="10"/><path fill="none" stroke="rgb(0,0,0)" paint-order="fill stroke markers" d=" M 1543.5 733.5 L 1539.5 729.5" stroke-opacity="1" stroke-miterlimit="10"/><path fill="none" stroke="rgb(0,0,0)" paint-order="fill stroke markers" d=" M 1543.5 733.5 L 1539.5 737.5" stroke-opacity="1" stroke-miterlimit="10"/><text fill="none" stroke="rgb(255,255,255)" font-family="geogebra-sans-serif, sans-serif" font-size="12px" font-style="normal" font-weight="normal" text-decoration="normal" x="18" y="749" text-anchor="start" dominant-baseline="alphabetic" stroke-opacity="1" stroke-linejoin="bevel" stroke-miterlimit="10" stroke-width="3">–2</text><text fill="rgb(0,0,0)" stroke="none" font-family="geogebra-sans-serif, sans-serif" font-size="12px" font-style="normal" font-weight="normal" text-decoration="normal" x="18" y="749" text-anchor="start" dominant-baseline="alphabetic" fill-opacity="1">–2</text><text fill="none" stroke="rgb(255,255,255)" font-family="geogebra-sans-serif, sans-serif" font-size="12px" font-style="normal" font-weight="normal" text-decoration="normal" x="209" y="749" text-anchor="start" dominant-baseline="alphabetic" stroke-opacity="1" stroke-linejoin="bevel" stroke-miterlimit="10" stroke-width="3">2</text><text fill="rgb(0,0,0)" stroke="none" font-family="geogebra-sans-serif, sans-serif" font-size="12px" font-style="normal" font-weight="normal" text-decoration="normal" x="209" y="749" text-anchor="start" dominant-baseline="alphabetic" fill-opacity="1">2</text><text fill="none" stroke="rgb(255,255,255)" font-family="geogebra-sans-serif, sans-serif" font-size="12px" font-style="normal" font-weight="normal" text-decoration="normal" x="303" y="749" text-anchor="start" dominant-baseline="alphabetic" stroke-opacity="1" stroke-linejoin="bevel" stroke-miterlimit="10" stroke-width="3">4</text><text fill="rgb(0,0,0)" stroke="none" font-family="geogebra-sans-serif, sans-serif" font-size="12px" font-style="normal" font-weight="normal" text-decoration="normal" x="303" y="749" text-anchor="start" dominant-baseline="alphabetic" fill-opacity="1">4</text><text fill="none" stroke="rgb(255,255,255)" font-family="geogebra-sans-serif, sans-serif" font-size="12px" font-style="normal" font-weight="normal" text-decoration="normal" x="397" y="749" text-anchor="start" dominant-baseline="alphabetic" stroke-opacity="1" stroke-linejoin="bevel" stroke-miterlimit="10" stroke-width="3">6</text><text fill="rgb(0,0,0)" stroke="none" font-family="geogebra-sans-serif, sans-serif" font-size="12px" font-style="normal" font-weight="normal" text-decoration="normal" x="397" y="749" text-anchor="start" dominant-baseline="alphabetic" fill-opacity="1">6</text><text fill="none" stroke="rgb(255,255,255)" font-family="geogebra-sans-serif, sans-serif" font-size="12px" font-style="normal" font-weight="normal" text-decoration="normal" x="491" y="749" text-anchor="start" dominant-baseline="alphabetic" stroke-opacity="1" stroke-linejoin="bevel" stroke-miterlimit="10" stroke-width="3">8</text><text fill="rgb(0,0,0)" stroke="none" font-family="geogebra-sans-serif, sans-serif" font-size="12px" font-style="normal" font-weight="normal" text-decoration="normal" x="491" y="749" text-anchor="start" dominant-baseline="alphabetic" fill-opacity="1">8</text><text fill="none" stroke="rgb(255,255,255)" font-family="geogebra-sans-serif, sans-serif" font-size="12px" font-style="normal" font-weight="normal" text-decoration="normal" x="583" y="749" text-anchor="start" dominant-baseline="alphabetic" stroke-opacity="1" stroke-linejoin="bevel" stroke-miterlimit="10" stroke-width="3">10</text><text fill="rgb(0,0,0)" stroke="none" font-family="geogebra-sans-serif, sans-serif" font-size="12px" font-style="normal" font-weight="normal" text-decoration="normal" x="583" y="749" text-anchor="start" dominant-baseline="alphabetic" fill-opacity="1">10</text><text fill="none" stroke="rgb(255,255,255)" font-family="geogebra-sans-serif, sans-serif" font-size="12px" font-style="normal" font-weight="normal" text-decoration="normal" x="677" y="749" text-anchor="start" dominant-baseline="alphabetic" stroke-opacity="1" stroke-linejoin="bevel" stroke-miterlimit="10" stroke-width="3">12</text><text fill="rgb(0,0,0)" stroke="none" font-family="geogebra-sans-serif, sans-serif" font-size="12px" font-style="normal" font-weight="normal" text-decoration="normal" x="677" y="749" text-anchor="start" dominant-baseline="alphabetic" fill-opacity="1">12</text><text fill="none" stroke="rgb(255,255,255)" font-family="geogebra-sans-serif, sans-serif" font-size="12px" font-style="normal" font-weight="normal" text-decoration="normal" x="771" y="749" text-anchor="start" dominant-baseline="alphabetic" stroke-opacity="1" stroke-linejoin="bevel" stroke-miterlimit="10" stroke-width="3">14</text><text fill="rgb(0,0,0)" stroke="none" font-family="geogebra-sans-serif, sans-serif" font-size="12px" font-style="normal" font-weight="normal" text-decoration="normal" x="771" y="749" text-anchor="start" dominant-baseline="alphabetic" fill-opacity="1">14</text><text fill="none" stroke="rgb(255,255,255)" font-family="geogebra-sans-serif, sans-serif" font-size="12px" font-style="normal" font-weight="normal" text-decoration="normal" x="865" y="749" text-anchor="start" dominant-baseline="alphabetic" stroke-opacity="1" stroke-linejoin="bevel" stroke-miterlimit="10" stroke-width="3">16</text><text fill="rgb(0,0,0)" stroke="none" font-family="geogebra-sans-serif, sans-serif" font-size="12px" font-style="normal" font-weight="normal" text-decoration="normal" x="865" y="749" text-anchor="start" dominant-baseline="alphabetic" fill-opacity="1">16</text><text fill="none" stroke="rgb(255,255,255)" font-family="geogebra-sans-serif, sans-serif" font-size="12px" font-style="normal" font-weight="normal" text-decoration="normal" x="959" y="749" text-anchor="start" dominant-baseline="alphabetic" stroke-opacity="1" stroke-linejoin="bevel" stroke-miterlimit="10" stroke-width="3">18</text><text fill="rgb(0,0,0)" stroke="none" font-family="geogebra-sans-serif, sans-serif" font-size="12px" font-style="normal" font-weight="normal" text-decoration="normal" x="959" y="749" text-anchor="start" dominant-baseline="alphabetic" fill-opacity="1">18</text><text fill="none" stroke="rgb(255,255,255)" font-family="geogebra-sans-serif, sans-serif" font-size="12px" font-style="normal" font-weight="normal" text-decoration="normal" x="1053" y="749" text-anchor="start" dominant-baseline="alphabetic" stroke-opacity="1" stroke-linejoin="bevel" stroke-miterlimit="10" stroke-width="3">20</text><text fill="rgb(0,0,0)" stroke="none" font-family="geogebra-sans-serif, sans-serif" font-size="12px" font-style="normal" font-weight="normal" text-decoration="normal" x="1053" y="749" text-anchor="start" dominant-baseline="alphabetic" fill-opacity="1">20</text><text fill="none" stroke="rgb(255,255,255)" font-family="geogebra-sans-serif, sans-serif" font-size="12px" font-style="normal" font-weight="normal" text-decoration="normal" x="1148" y="749" text-anchor="start" dominant-baseline="alphabetic" stroke-opacity="1" stroke-linejoin="bevel" stroke-miterlimit="10" stroke-width="3">22</text><text fill="rgb(0,0,0)" stroke="none" font-family="geogebra-sans-serif, sans-serif" font-size="12px" font-style="normal" font-weight="normal" text-decoration="normal" x="1148" y="749" text-anchor="start" dominant-baseline="alphabetic" fill-opacity="1">22</text><text fill="none" stroke="rgb(255,255,255)" font-family="geogebra-sans-serif, sans-serif" font-size="12px" font-style="normal" font-weight="normal" text-decoration="normal" x="1242" y="749" text-anchor="start" dominant-baseline="alphabetic" stroke-opacity="1" stroke-linejoin="bevel" stroke-miterlimit="10" stroke-width="3">24</text><text fill="rgb(0,0,0)" stroke="none" font-family="geogebra-sans-serif, sans-serif" font-size="12px" font-style="normal" font-weight="normal" text-decoration="normal" x="1242" y="749" text-anchor="start" dominant-baseline="alphabetic" fill-opacity="1">24</text><text fill="none" stroke="rgb(255,255,255)" font-family="geogebra-sans-serif, sans-serif" font-size="12px" font-style="normal" font-weight="normal" text-decoration="normal" x="1336" y="749" text-anchor="start" dominant-baseline="alphabetic" stroke-opacity="1" stroke-linejoin="bevel" stroke-miterlimit="10" stroke-width="3">26</text><text fill="rgb(0,0,0)" stroke="none" font-family="geogebra-sans-serif, sans-serif" font-size="12px" font-style="normal" font-weight="normal" text-decoration="normal" x="1336" y="749" text-anchor="start" dominant-baseline="alphabetic" fill-opacity="1">26</text><text fill="none" stroke="rgb(255,255,255)" font-family="geogebra-sans-serif, sans-serif" font-size="12px" font-style="normal" font-weight="normal" text-decoration="normal" x="1430" y="749" text-anchor="start" dominant-baseline="alphabetic" stroke-opacity="1" stroke-linejoin="bevel" stroke-miterlimit="10" stroke-width="3">28</text><text fill="rgb(0,0,0)" stroke="none" font-family="geogebra-sans-serif, sans-serif" font-size="12px" font-style="normal" font-weight="normal" text-decoration="normal" x="1430" y="749" text-anchor="start" dominant-baseline="alphabetic" fill-opacity="1">28</text><text fill="none" stroke="rgb(255,255,255)" font-family="geogebra-sans-serif, sans-serif" font-size="12px" font-style="normal" font-weight="normal" text-decoration="normal" x="1524" y="749" text-anchor="start" dominant-baseline="alphabetic" stroke-opacity="1" stroke-linejoin="bevel" stroke-miterlimit="10" stroke-width="3">30</text><text fill="rgb(0,0,0)" stroke="none" font-family="geogebra-sans-serif, sans-serif" font-size="12px" font-style="normal" font-weight="normal" text-decoration="normal" x="1524" y="749" text-anchor="start" dominant-baseline="alphabetic" fill-opacity="1">30</text><text fill="none" stroke="rgb(255,255,255)" font-family="geogebra-sans-serif, sans-serif" font-size="12px" font-style="normal" font-weight="normal" text-decoration="normal" x="96" y="832" text-anchor="start" dominant-baseline="alphabetic" stroke-opacity="1" stroke-linejoin="bevel" stroke-miterlimit="10" stroke-width="3">–2</text><text fill="rgb(0,0,0)" stroke="none" font-family="geogebra-sans-serif, sans-serif" font-size="12px" font-style="normal" font-weight="normal" text-decoration="normal" x="96" y="832" text-anchor="start" dominant-baseline="alphabetic" fill-opacity="1">–2</text><text fill="none" stroke="rgb(255,255,255)" font-family="geogebra-sans-serif, sans-serif" font-size="12px" font-style="normal" font-weight="normal" text-decoration="normal" x="103" y="644" text-anchor="start" dominant-baseline="alphabetic" stroke-opacity="1" stroke-linejoin="bevel" stroke-miterlimit="10" stroke-width="3">2</text><text fill="rgb(0,0,0)" stroke="none" font-family="geogebra-sans-serif, sans-serif" font-size="12px" font-style="normal" font-weight="normal" text-decoration="normal" x="103" y="644" text-anchor="start" dominant-baseline="alphabetic" fill-opacity="1">2</text><text fill="none" stroke="rgb(255,255,255)" font-family="geogebra-sans-serif, sans-serif" font-size="12px" font-style="normal" font-weight="normal" text-decoration="normal" x="103" y="550" text-anchor="start" dominant-baseline="alphabetic" stroke-opacity="1" stroke-linejoin="bevel" stroke-miterlimit="10" stroke-width="3">4</text><text fill="rgb(0,0,0)" stroke="none" font-family="geogebra-sans-serif, sans-serif" font-size="12px" font-style="normal" font-weight="normal" text-decoration="normal" x="103" y="550" text-anchor="start" dominant-baseline="alphabetic" fill-opacity="1">4</text><text fill="none" stroke="rgb(255,255,255)" font-family="geogebra-sans-serif, sans-serif" font-size="12px" font-style="normal" font-weight="normal" text-decoration="normal" x="103" y="456" text-anchor="start" dominant-baseline="alphabetic" stroke-opacity="1" stroke-linejoin="bevel" stroke-miterlimit="10" stroke-width="3">6</text><text fill="rgb(0,0,0)" stroke="none" font-family="geogebra-sans-serif, sans-serif" font-size="12px" font-style="normal" font-weight="normal" text-decoration="normal" x="103" y="456" text-anchor="start" dominant-baseline="alphabetic" fill-opacity="1">6</text><text fill="none" stroke="rgb(255,255,255)" font-family="geogebra-sans-serif, sans-serif" font-size="12px" font-style="normal" font-weight="normal" text-decoration="normal" x="103" y="362" text-anchor="start" dominant-baseline="alphabetic" stroke-opacity="1" stroke-linejoin="bevel" stroke-miterlimit="10" stroke-width="3">8</text><text fill="rgb(0,0,0)" stroke="none" font-family="geogebra-sans-serif, sans-serif" font-size="12px" font-style="normal" font-weight="normal" text-decoration="normal" x="103" y="362" text-anchor="start" dominant-baseline="alphabetic" fill-opacity="1">8</text><text fill="none" stroke="rgb(255,255,255)" font-family="geogebra-sans-serif, sans-serif" font-size="12px" font-style="normal" font-weight="normal" text-decoration="normal" x="96" y="267" text-anchor="start" dominant-baseline="alphabetic" stroke-opacity="1" stroke-linejoin="bevel" stroke-miterlimit="10" stroke-width="3">10</text><text fill="rgb(0,0,0)" stroke="none" font-family="geogebra-sans-serif, sans-serif" font-size="12px" font-style="normal" font-weight="normal" text-decoration="normal" x="96" y="267" text-anchor="start" dominant-baseline="alphabetic" fill-opacity="1">10</text><text fill="none" stroke="rgb(255,255,255)" font-family="geogebra-sans-serif, sans-serif" font-size="12px" font-style="normal" font-weight="normal" text-decoration="normal" x="96" y="173" text-anchor="start" dominant-baseline="alphabetic" stroke-opacity="1" stroke-linejoin="bevel" stroke-miterlimit="10" stroke-width="3">12</text><text fill="rgb(0,0,0)" stroke="none" font-family="geogebra-sans-serif, sans-serif" font-size="12px" font-style="normal" font-weight="normal" text-decoration="normal" x="96" y="173" text-anchor="start" dominant-baseline="alphabetic" fill-opacity="1">12</text><text fill="none" stroke="rgb(255,255,255)" font-family="geogebra-sans-serif, sans-serif" font-size="12px" font-style="normal" font-weight="normal" text-decoration="normal" x="96" y="79" text-anchor="start" dominant-baseline="alphabetic" stroke-opacity="1" stroke-linejoin="bevel" stroke-miterlimit="10" stroke-width="3">14</text><text fill="rgb(0,0,0)" stroke="none" font-family="geogebra-sans-serif, sans-serif" font-size="12px" font-style="normal" font-weight="normal" text-decoration="normal" x="96" y="79" text-anchor="start" dominant-baseline="alphabetic" fill-opacity="1">14</text><text fill="none" stroke="rgb(255,255,255)" font-family="geogebra-sans-serif, sans-serif" font-size="12px" font-style="normal" font-weight="normal" text-decoration="normal" x="103" y="749" text-anchor="start" dominant-baseline="alphabetic" stroke-opacity="1" stroke-linejoin="bevel" stroke-miterlimit="10" stroke-width="3">0</text><text fill="rgb(0,0,0)" stroke="none" font-family="geogebra-sans-serif, sans-serif" font-size="12px" font-style="normal" font-weight="normal" text-decoration="normal" x="103" y="749" text-anchor="start" dominant-baseline="alphabetic" fill-opacity="1">0</text><path fill="none" stroke="rgb(211,47,47)" paint-order="fill stroke markers" d=" M 493.7482126683767 843 L 495.44173408480594 -5" stroke-opacity="0.8" stroke-linecap="round" stroke-linejoin="round" stroke-miterlimit="10" stroke-width="2.5"/><path fill="none" stroke="rgb(219,97,20)" paint-order="fill stroke markers" d=" M 164.43939519177695 545.321396134927 L 494.34303513437493 545.1534854693437" stroke-opacity="0.8" stroke-linecap="round" stroke-linejoin="round" stroke-miterlimit="10" stroke-width="2.5"/><path fill="none" stroke="rgb(21,101,192)" paint-order="fill stroke markers" d=" M 352.7406822865065 309.9447872665138 L 352.9557608732615 545.2254471831651" stroke-opacity="0.8" stroke-linecap="round" stroke-linejoin="round" stroke-miterlimit="10" stroke-width="2.5"/><path fill="none" stroke="rgb(21,101,192)" paint-order="fill stroke markers" d=" M 305.6653605128241 733.6226832296575 L 305.82666945289037 545.2494344211055" stroke-opacity="0.8" stroke-linecap="round" stroke-linejoin="round" stroke-miterlimit="10" stroke-width="2.5"/><path fill="none" stroke="rgb(219,97,20)" paint-order="fill stroke markers" d=" M 493.96664760755374 592.3967179086096 L 682.2679347022834 592.3967179086096" stroke-opacity="0.8" stroke-linecap="round" stroke-linejoin="round" stroke-miterlimit="10" stroke-width="2.5"/><path fill="none" stroke="rgb(21,101,192)" paint-order="fill stroke markers" d=" M 635.192612928601 451.17075258756165 L 635.192612928601 592.3967179086096" stroke-opacity="0.8" stroke-linecap="round" stroke-linejoin="round" stroke-miterlimit="10" stroke-width="2.5"/><path fill="none" stroke="rgb(21,101,192)" paint-order="fill stroke markers" d=" M 541.0419693812362 639.4720396822922 L 541.0419693812362 592.3967179086096" stroke-opacity="0.8" stroke-linecap="round" stroke-linejoin="round" stroke-miterlimit="10" stroke-width="2.5"/><path fill="none" stroke="rgb(255,102,0)" paint-order="fill stroke markers" d=" M 305.82666945289037 545.2494344211055 L 0 545.4050906594844" stroke-opacity="0.8" stroke-linecap="round" stroke-linejoin="round" stroke-miterlimit="10" stroke-width="2.5"/><path fill="none" stroke="rgb(255,102,0)" paint-order="fill stroke markers" d=" M 493.96664760755374 592.3967179086096 L 1544 592.3967179086096" stroke-opacity="0.8" stroke-linecap="round" stroke-linejoin="round" stroke-miterlimit="10" stroke-width="2.5"/><path fill="none" stroke="rgb(0,0,255)" paint-order="fill stroke markers" d=" M 352.9557608732615 545.2254471831651 L 352.12485103806284 0" stroke-opacity="0.8" stroke-linecap="round" stroke-linejoin="round" stroke-miterlimit="10" stroke-width="2.5"/><path fill="none" stroke="rgb(0,0,255)" paint-order="fill stroke markers" d=" M 305.82666945289037 545.2494344211055 L 305.32548098217876 838" stroke-opacity="0.8" stroke-linecap="round" stroke-linejoin="round" stroke-miterlimit="10" stroke-width="2.5"/><path fill="none" stroke="rgb(0,0,255)" paint-order="fill stroke markers" d=" M 635.192612928601 592.3967179086096 L 635.192612928601 0" stroke-opacity="0.8" stroke-linecap="round" stroke-linejoin="round" stroke-miterlimit="10" stroke-width="2.5"/><path fill="none" stroke="rgb(0,0,255)" paint-order="fill stroke markers" d=" M 541.0419693812362 592.3967179086096 L 541.0419693812362 838" stroke-opacity="0.8" stroke-linecap="round" stroke-linejoin="round" stroke-miterlimit="10" stroke-width="2.5"/><path fill="none" stroke="rgb(97,97,97)" paint-order="fill stroke markers" d=" M 117.36407341809456 262.8694654928312 L 823.4939000233305 262.8694654928312" stroke-opacity="0.8" stroke-linecap="round" stroke-linejoin="round" stroke-miterlimit="10" stroke-width="2.5"/><path fill="none" stroke="rgb(97,97,97)" paint-order="fill stroke markers" d=" M 823.4939000233305 733.6226832296575 L 823.4939000233305 262.8694654928312" stroke-opacity="0.8" stroke-linecap="round" stroke-linejoin="round" stroke-miterlimit="10" stroke-width="2.5"/><path fill="none" stroke="rgb(97,97,97)" paint-order="fill stroke markers" d=" M 823.4939000233305 733.6226832296575 L 117.36407341809456 733.6226832296575" stroke-opacity="0.8" stroke-linecap="round" stroke-linejoin="round" stroke-miterlimit="10" stroke-width="2.5"/><path fill="none" stroke="rgb(97,97,97)" paint-order="fill stroke markers" d=" M 117.36407341809456 733.6226832296575 L 117.36407341809456 262.8694654928312" stroke-opacity="0.8" stroke-linecap="round" stroke-linejoin="round" stroke-miterlimit="10" stroke-width="2.5"/><path fill="none" stroke="rgb(97,97,97)" paint-order="fill stroke markers" d=" M 1200.0964742127899 215.79414371914856 L 1058.8705088917425 262.8694654928312" stroke-opacity="0.8" stroke-linecap="round" stroke-linejoin="round" stroke-miterlimit="10" stroke-width="2.5"/><path fill="none" stroke="rgb(97,97,97)" paint-order="fill stroke markers" d=" M 1058.8705088917425 262.8694654928312 L 1105.9458306654249 309.9447872665138" stroke-opacity="0.8" stroke-linecap="round" stroke-linejoin="round" stroke-miterlimit="10" stroke-width="2.5"/><path fill="none" stroke="rgb(97,97,97)" paint-order="fill stroke markers" d=" M 1105.9458306654249 309.9447872665138 L 1058.8705088917425 357.0201090401964" stroke-opacity="0.8" stroke-linecap="round" stroke-linejoin="round" stroke-miterlimit="10" stroke-width="2.5"/><path fill="none" stroke="rgb(97,97,97)" paint-order="fill stroke markers" d=" M 1105.9458306654249 309.9447872665138 L 1153.0211524391075 357.0201090401964" stroke-opacity="0.8" stroke-linecap="round" stroke-linejoin="round" stroke-miterlimit="10" stroke-width="2.5"/><path fill="none" stroke="rgb(97,97,97)" paint-order="fill stroke markers" d=" M 1058.8705088917425 262.8694654928312 L 919.0791874201817 312.81997037428437" stroke-opacity="0.8" stroke-linecap="round" stroke-linejoin="round" stroke-miterlimit="10" stroke-width="2.5"/><path fill="none" stroke="rgb(97,97,97)" paint-order="fill stroke markers" d=" M 919.0791874201817 312.81997037428437 L 870.5692217970129 357.0201090401964" stroke-opacity="0.8" stroke-linecap="round" stroke-linejoin="round" stroke-miterlimit="10" stroke-width="2.5"/><path fill="none" stroke="rgb(97,97,97)" paint-order="fill stroke markers" d=" M 919.0791874201817 312.81997037428437 L 964.7198653443777 357.0201090401964" stroke-opacity="0.8" stroke-linecap="round" stroke-linejoin="round" stroke-miterlimit="10" stroke-width="2.5"/><path fill="none" stroke="rgb(97,97,97)" paint-order="fill stroke markers" d=" M 1200.0964742127899 215.79414371914856 L 1294.2471177601547 262.8694654928312" stroke-opacity="0.8" stroke-linecap="round" stroke-linejoin="round" stroke-miterlimit="10" stroke-width="2.5"/><path fill="none" stroke="rgb(97,97,97)" paint-order="fill stroke markers" d=" M 1294.2471177601547 262.8694654928312 L 1388.3977613075194 309.9447872665138" stroke-opacity="0.8" stroke-linecap="round" stroke-linejoin="round" stroke-miterlimit="10" stroke-width="2.5"/><path fill="none" stroke="rgb(97,97,97)" paint-order="fill stroke markers" d=" M 1294.2471177601547 262.8694654928312 L 1247.1717959864723 309.9447872665138" stroke-opacity="0.8" stroke-linecap="round" stroke-linejoin="round" stroke-miterlimit="10" stroke-width="2.5"/><path fill="none" stroke="rgb(97,97,97)" paint-order="fill stroke markers" d=" M 1388.3977613075194 309.9447872665138 L 1341.322439533837 357.0201090401964" stroke-opacity="0.8" stroke-linecap="round" stroke-linejoin="round" stroke-miterlimit="10" stroke-width="2.5"/><path fill="none" stroke="rgb(97,97,97)" paint-order="fill stroke markers" d=" M 1388.3977613075194 309.9447872665138 L 1435.4730830812018 357.0201090401964" stroke-opacity="0.8" stroke-linecap="round" stroke-linejoin="round" stroke-miterlimit="10" stroke-width="2.5"/><path fill="none" stroke="rgb(97,97,97)" paint-order="fill stroke markers" d=" M 1247.1717959864723 309.9447872665138 L 1247.1717959864723 357.0201090401964" stroke-opacity="0.8" stroke-linecap="round" stroke-linejoin="round" stroke-miterlimit="10" stroke-width="2.5"/><path fill="rgb(21,101,192)" stroke="none" paint-order="stroke fill markers" d=" M 499.43713201608017 498.0361860292653 C 499.43713201608017 500.79760977841926 497.1985557652341 503.0361860292653 494.43713201608017 503.0361860292653 C 491.6757082669262 503.0361860292653 489.43713201608017 500.79760977841926 489.43713201608017 498.0361860292653 C 489.43713201608017 495.27476228011136 491.6757082669262 493.0361860292653 494.43713201608017 493.0361860292653 C 497.1985557652341 493.0361860292653 499.43713201608017 495.27476228011136 499.43713201608017 498.0361860292653 Z" fill-opacity="1"/><path fill="none" stroke="rgb(0,0,0)" paint-order="fill stroke markers" d=" M 499.43713201608017 498.0361860292653 C 499.43713201608017 500.79760977841926 497.1985557652341 503.0361860292653 494.43713201608017 503.0361860292653 C 491.6757082669262 503.0361860292653 489.43713201608017 500.79760977841926 489.43713201608017 498.0361860292653 C 489.43713201608017 495.27476228011136 491.6757082669262 493.0361860292653 494.43713201608017 493.0361860292653 C 497.1985557652341 493.0361860292653 499.43713201608017 495.27476228011136 499.43713201608017 498.0361860292653 Z" stroke-opacity="1" stroke-linecap="round" stroke-linejoin="round" stroke-miterlimit="10"/><text fill="none" stroke="rgb(255,255,255)" font-family="geogebra-sans-serif, sans-serif" font-size="16px" font-style="normal" font-weight="normal" text-decoration="normal" x="498" y="488" text-anchor="start" dominant-baseline="alphabetic" stroke-opacity="1" stroke-linecap="round" stroke-linejoin="bevel" stroke-miterlimit="10" stroke-width="3">A = (8, 5)</text><text fill="rgb(21,101,192)" stroke="none" font-family="geogebra-sans-serif, sans-serif" font-size="16px" font-style="normal" font-weight="normal" text-decoration="normal" x="498" y="488" text-anchor="start" dominant-baseline="alphabetic" fill-opacity="1">A = (8, 5)</text><path fill="rgb(21,101,192)" stroke="none" paint-order="stroke fill markers" d=" M 357.7406822865065 404.09543081387903 C 357.7406822865065 406.856854563033 355.50210603566046 409.09543081387903 352.7406822865065 409.09543081387903 C 349.97925853735256 409.09543081387903 347.7406822865065 406.856854563033 347.7406822865065 404.09543081387903 C 347.7406822865065 401.3340070647251 349.97925853735256 399.09543081387903 352.7406822865065 399.09543081387903 C 355.50210603566046 399.09543081387903 357.7406822865065 401.3340070647251 357.7406822865065 404.09543081387903 Z" fill-opacity="1"/><path fill="none" stroke="rgb(0,0,0)" paint-order="fill stroke markers" d=" M 357.7406822865065 404.09543081387903 C 357.7406822865065 406.856854563033 355.50210603566046 409.09543081387903 352.7406822865065 409.09543081387903 C 349.97925853735256 409.09543081387903 347.7406822865065 406.856854563033 347.7406822865065 404.09543081387903 C 347.7406822865065 401.3340070647251 349.97925853735256 399.09543081387903 352.7406822865065 399.09543081387903 C 355.50210603566046 399.09543081387903 357.7406822865065 401.3340070647251 357.7406822865065 404.09543081387903 Z" stroke-opacity="1" stroke-linecap="round" stroke-linejoin="round" stroke-miterlimit="10"/><text fill="none" stroke="rgb(255,255,255)" font-family="geogebra-sans-serif, sans-serif" font-size="16px" font-style="normal" font-weight="normal" text-decoration="normal" x="357" y="394" text-anchor="start" dominant-baseline="alphabetic" stroke-opacity="1" stroke-linecap="round" stroke-linejoin="bevel" stroke-miterlimit="10" stroke-width="3">D = (5, 7)</text><text fill="rgb(21,101,192)" stroke="none" font-family="geogebra-sans-serif, sans-serif" font-size="16px" font-style="normal" font-weight="normal" text-decoration="normal" x="357" y="394" text-anchor="start" dominant-baseline="alphabetic" fill-opacity="1">D = (5, 7)</text><path fill="rgb(21,101,192)" stroke="none" paint-order="stroke fill markers" d=" M 687.2679347022834 592.3967179086096 C 687.2679347022834 595.1581416577636 685.0293584514374 597.3967179086096 682.2679347022834 597.3967179086096 C 679.5065109531294 597.3967179086096 677.2679347022834 595.1581416577636 677.2679347022834 592.3967179086096 C 677.2679347022834 589.6352941594556 679.5065109531294 587.3967179086096 682.2679347022834 587.3967179086096 C 685.0293584514374 587.3967179086096 687.2679347022834 589.6352941594556 687.2679347022834 592.3967179086096 Z" fill-opacity="1"/><path fill="none" stroke="rgb(0,0,0)" paint-order="fill stroke markers" d=" M 687.2679347022834 592.3967179086096 C 687.2679347022834 595.1581416577636 685.0293584514374 597.3967179086096 682.2679347022834 597.3967179086096 C 679.5065109531294 597.3967179086096 677.2679347022834 595.1581416577636 677.2679347022834 592.3967179086096 C 677.2679347022834 589.6352941594556 679.5065109531294 587.3967179086096 682.2679347022834 587.3967179086096 C 685.0293584514374 587.3967179086096 687.2679347022834 589.6352941594556 687.2679347022834 592.3967179086096 Z" stroke-opacity="1" stroke-linecap="round" stroke-linejoin="round" stroke-miterlimit="10"/><text fill="none" stroke="rgb(255,255,255)" font-family="geogebra-sans-serif, sans-serif" font-size="16px" font-style="normal" font-weight="normal" text-decoration="normal" x="686" y="582" text-anchor="start" dominant-baseline="alphabetic" stroke-opacity="1" stroke-linecap="round" stroke-linejoin="bevel" stroke-miterlimit="10" stroke-width="3">C = (12, 3)</text><text fill="rgb(21,101,192)" stroke="none" font-family="geogebra-sans-serif, sans-serif" font-size="16px" font-style="normal" font-weight="normal" text-decoration="normal" x="686" y="582" text-anchor="start" dominant-baseline="alphabetic" fill-opacity="1">C = (12, 3)</text><path fill="rgb(21,101,192)" stroke="none" paint-order="stroke fill markers" d=" M 687.2679347022834 545.321396134927 C 687.2679347022834 548.082819884081 685.0293584514374 550.321396134927 682.2679347022834 550.321396134927 C 679.5065109531294 550.321396134927 677.2679347022834 548.082819884081 677.2679347022834 545.321396134927 C 677.2679347022834 542.559972385773 679.5065109531294 540.321396134927 682.2679347022834 540.321396134927 C 685.0293584514374 540.321396134927 687.2679347022834 542.559972385773 687.2679347022834 545.321396134927 Z" fill-opacity="1"/><path fill="none" stroke="rgb(0,0,0)" paint-order="fill stroke markers" d=" M 687.2679347022834 545.321396134927 C 687.2679347022834 548.082819884081 685.0293584514374 550.321396134927 682.2679347022834 550.321396134927 C 679.5065109531294 550.321396134927 677.2679347022834 548.082819884081 677.2679347022834 545.321396134927 C 677.2679347022834 542.559972385773 679.5065109531294 540.321396134927 682.2679347022834 540.321396134927 C 685.0293584514374 540.321396134927 687.2679347022834 542.559972385773 687.2679347022834 545.321396134927 Z" stroke-opacity="1" stroke-linecap="round" stroke-linejoin="round" stroke-miterlimit="10"/><text fill="none" stroke="rgb(255,255,255)" font-family="geogebra-sans-serif, sans-serif" font-size="16px" font-style="normal" font-weight="normal" text-decoration="normal" x="686" y="535" text-anchor="start" dominant-baseline="alphabetic" stroke-opacity="1" stroke-linecap="round" stroke-linejoin="bevel" stroke-miterlimit="10" stroke-width="3">M = (12, 4)</text><text fill="rgb(21,101,192)" stroke="none" font-family="geogebra-sans-serif, sans-serif" font-size="16px" font-style="normal" font-weight="normal" text-decoration="normal" x="686" y="535" text-anchor="start" dominant-baseline="alphabetic" fill-opacity="1">M = (12, 4)</text><path fill="rgb(21,101,192)" stroke="none" paint-order="stroke fill markers" d=" M 546.0419693812362 639.4720396822922 C 546.0419693812362 642.2334634314462 543.8033931303902 644.4720396822922 541.0419693812362 644.4720396822922 C 538.2805456320822 644.4720396822922 536.0419693812362 642.2334634314462 536.0419693812362 639.4720396822922 C 536.0419693812362 636.7106159331382 538.2805456320822 634.4720396822922 541.0419693812362 634.4720396822922 C 543.8033931303902 634.4720396822922 546.0419693812362 636.7106159331382 546.0419693812362 639.4720396822922 Z" fill-opacity="1"/><path fill="none" stroke="rgb(0,0,0)" paint-order="fill stroke markers" d=" M 546.0419693812362 639.4720396822922 C 546.0419693812362 642.2334634314462 543.8033931303902 644.4720396822922 541.0419693812362 644.4720396822922 C 538.2805456320822 644.4720396822922 536.0419693812362 642.2334634314462 536.0419693812362 639.4720396822922 C 536.0419693812362 636.7106159331382 538.2805456320822 634.4720396822922 541.0419693812362 634.4720396822922 C 543.8033931303902 634.4720396822922 546.0419693812362 636.7106159331382 546.0419693812362 639.4720396822922 Z" stroke-opacity="1" stroke-linecap="round" stroke-linejoin="round" stroke-miterlimit="10"/><text fill="none" stroke="rgb(255,255,255)" font-family="geogebra-sans-serif, sans-serif" font-size="16px" font-style="normal" font-weight="normal" text-decoration="normal" x="545" y="629" text-anchor="start" dominant-baseline="alphabetic" stroke-opacity="1" stroke-linecap="round" stroke-linejoin="bevel" stroke-miterlimit="10" stroke-width="3">G = (9, 2)</text><text fill="rgb(21,101,192)" stroke="none" font-family="geogebra-sans-serif, sans-serif" font-size="16px" font-style="normal" font-weight="normal" text-decoration="normal" x="545" y="629" text-anchor="start" dominant-baseline="alphabetic" fill-opacity="1">G = (9, 2)</text><path fill="rgb(21,101,192)" stroke="none" paint-order="stroke fill markers" d=" M 404.81600406018896 498.2460743612443 C 404.81600406018896 501.0074981103983 402.5774278093429 503.2460743612443 399.81600406018896 503.2460743612443 C 397.054580311035 503.2460743612443 394.81600406018896 501.0074981103983 394.81600406018896 498.2460743612443 C 394.81600406018896 495.4846506120904 397.054580311035 493.2460743612443 399.81600406018896 493.2460743612443 C 402.5774278093429 493.2460743612443 404.81600406018896 495.4846506120904 404.81600406018896 498.2460743612443 Z" fill-opacity="1"/><path fill="none" stroke="rgb(0,0,0)" paint-order="fill stroke markers" d=" M 404.81600406018896 498.2460743612443 C 404.81600406018896 501.0074981103983 402.5774278093429 503.2460743612443 399.81600406018896 503.2460743612443 C 397.054580311035 503.2460743612443 394.81600406018896 501.0074981103983 394.81600406018896 498.2460743612443 C 394.81600406018896 495.4846506120904 397.054580311035 493.2460743612443 399.81600406018896 493.2460743612443 C 402.5774278093429 493.2460743612443 404.81600406018896 495.4846506120904 404.81600406018896 498.2460743612443 Z" stroke-opacity="1" stroke-linecap="round" stroke-linejoin="round" stroke-miterlimit="10"/><text fill="none" stroke="rgb(255,255,255)" font-family="geogebra-sans-serif, sans-serif" font-size="16px" font-style="normal" font-weight="normal" text-decoration="normal" x="404" y="488" text-anchor="start" dominant-baseline="alphabetic" stroke-opacity="1" stroke-linecap="round" stroke-linejoin="bevel" stroke-miterlimit="10" stroke-width="3">I = (6, 5)</text><text fill="rgb(21,101,192)" stroke="none" font-family="geogebra-sans-serif, sans-serif" font-size="16px" font-style="normal" font-weight="normal" text-decoration="normal" x="404" y="488" text-anchor="start" dominant-baseline="alphabetic" fill-opacity="1">I = (6, 5)</text><path fill="rgb(21,101,192)" stroke="none" paint-order="stroke fill markers" d=" M 494.96664760755374 733.6226832296575 C 494.96664760755374 734.1749679794883 494.51893235738453 734.6226832296575 493.96664760755374 734.6226832296575 C 493.41436285772295 734.6226832296575 492.96664760755374 734.1749679794883 492.96664760755374 733.6226832296575 C 492.96664760755374 733.0703984798266 493.41436285772295 732.6226832296575 493.96664760755374 732.6226832296575 C 494.51893235738453 732.6226832296575 494.96664760755374 733.0703984798266 494.96664760755374 733.6226832296575 Z" fill-opacity="1"/><path fill="none" stroke="rgb(0,0,0)" paint-order="fill stroke markers" d=" M 494.96664760755374 733.6226832296575 C 494.96664760755374 734.1749679794883 494.51893235738453 734.6226832296575 493.96664760755374 734.6226832296575 C 493.41436285772295 734.6226832296575 492.96664760755374 734.1749679794883 492.96664760755374 733.6226832296575 C 492.96664760755374 733.0703984798266 493.41436285772295 732.6226832296575 493.96664760755374 732.6226832296575 C 494.51893235738453 732.6226832296575 494.96664760755374 733.0703984798266 494.96664760755374 733.6226832296575 Z" stroke-opacity="1" stroke-linecap="round" stroke-linejoin="round" stroke-miterlimit="10"/><path fill="rgb(21,101,192)" stroke="none" paint-order="stroke fill markers" d=" M 216.51471696545934 357.0201090401964 C 216.51471696545934 359.78153278935036 214.27614071461332 362.0201090401964 211.51471696545934 362.0201090401964 C 208.75329321630537 362.0201090401964 206.51471696545934 359.78153278935036 206.51471696545934 357.0201090401964 C 206.51471696545934 354.25868529104247 208.75329321630537 352.0201090401964 211.51471696545934 352.0201090401964 C 214.27614071461332 352.0201090401964 216.51471696545934 354.25868529104247 216.51471696545934 357.0201090401964 Z" fill-opacity="1"/><path fill="none" stroke="rgb(0,0,0)" paint-order="fill stroke markers" d=" M 216.51471696545934 357.0201090401964 C 216.51471696545934 359.78153278935036 214.27614071461332 362.0201090401964 211.51471696545934 362.0201090401964 C 208.75329321630537 362.0201090401964 206.51471696545934 359.78153278935036 206.51471696545934 357.0201090401964 C 206.51471696545934 354.25868529104247 208.75329321630537 352.0201090401964 211.51471696545934 352.0201090401964 C 214.27614071461332 352.0201090401964 216.51471696545934 354.25868529104247 216.51471696545934 357.0201090401964 Z" stroke-opacity="1" stroke-linecap="round" stroke-linejoin="round" stroke-miterlimit="10"/><text fill="none" stroke="rgb(255,255,255)" font-family="geogebra-sans-serif, sans-serif" font-size="16px" font-style="normal" font-weight="normal" text-decoration="normal" x="216" y="347" text-anchor="start" dominant-baseline="alphabetic" stroke-opacity="1" stroke-linecap="round" stroke-linejoin="bevel" stroke-miterlimit="10" stroke-width="3">H = (2, 8)</text><text fill="rgb(21,101,192)" stroke="none" font-family="geogebra-sans-serif, sans-serif" font-size="16px" font-style="normal" font-weight="normal" text-decoration="normal" x="216" y="347" text-anchor="start" dominant-baseline="alphabetic" fill-opacity="1">H = (2, 8)</text><path fill="rgb(21,101,192)" stroke="none" paint-order="stroke fill markers" d=" M 310.6653605128241 639.4720396822922 C 310.6653605128241 642.2334634314462 308.42678426197807 644.4720396822922 305.6653605128241 644.4720396822922 C 302.9039367636702 644.4720396822922 300.6653605128241 642.2334634314462 300.6653605128241 639.4720396822922 C 300.6653605128241 636.7106159331382 302.9039367636702 634.4720396822922 305.6653605128241 634.4720396822922 C 308.42678426197807 634.4720396822922 310.6653605128241 636.7106159331382 310.6653605128241 639.4720396822922 Z" fill-opacity="1"/><path fill="none" stroke="rgb(0,0,0)" paint-order="fill stroke markers" d=" M 310.6653605128241 639.4720396822922 C 310.6653605128241 642.2334634314462 308.42678426197807 644.4720396822922 305.6653605128241 644.4720396822922 C 302.9039367636702 644.4720396822922 300.6653605128241 642.2334634314462 300.6653605128241 639.4720396822922 C 300.6653605128241 636.7106159331382 302.9039367636702 634.4720396822922 305.6653605128241 634.4720396822922 C 308.42678426197807 634.4720396822922 310.6653605128241 636.7106159331382 310.6653605128241 639.4720396822922 Z" stroke-opacity="1" stroke-linecap="round" stroke-linejoin="round" stroke-miterlimit="10"/><text fill="none" stroke="rgb(255,255,255)" font-family="geogebra-sans-serif, sans-serif" font-size="16px" font-style="normal" font-weight="normal" text-decoration="normal" x="310" y="629" text-anchor="start" dominant-baseline="alphabetic" stroke-opacity="1" stroke-linecap="round" stroke-linejoin="bevel" stroke-miterlimit="10" stroke-width="3">E = (4, 2)</text><text fill="rgb(21,101,192)" stroke="none" font-family="geogebra-sans-serif, sans-serif" font-size="16px" font-style="normal" font-weight="normal" text-decoration="normal" x="310" y="629" text-anchor="start" dominant-baseline="alphabetic" fill-opacity="1">E = (4, 2)</text><path fill="rgb(21,101,192)" stroke="none" paint-order="stroke fill markers" d=" M 451.89132583387135 686.5473614559749 C 451.89132583387135 689.3087852051289 449.6527495830253 691.5473614559749 446.89132583387135 691.5473614559749 C 444.1299020847174 691.5473614559749 441.89132583387135 689.3087852051289 441.89132583387135 686.5473614559749 C 441.89132583387135 683.7859377068208 444.1299020847174 681.5473614559749 446.89132583387135 681.5473614559749 C 449.6527495830253 681.5473614559749 451.89132583387135 683.7859377068208 451.89132583387135 686.5473614559749 Z" fill-opacity="1"/><path fill="none" stroke="rgb(0,0,0)" paint-order="fill stroke markers" d=" M 451.89132583387135 686.5473614559749 C 451.89132583387135 689.3087852051289 449.6527495830253 691.5473614559749 446.89132583387135 691.5473614559749 C 444.1299020847174 691.5473614559749 441.89132583387135 689.3087852051289 441.89132583387135 686.5473614559749 C 441.89132583387135 683.7859377068208 444.1299020847174 681.5473614559749 446.89132583387135 681.5473614559749 C 449.6527495830253 681.5473614559749 451.89132583387135 683.7859377068208 451.89132583387135 686.5473614559749 Z" stroke-opacity="1" stroke-linecap="round" stroke-linejoin="round" stroke-miterlimit="10"/><text fill="none" stroke="rgb(255,255,255)" font-family="geogebra-sans-serif, sans-serif" font-size="16px" font-style="normal" font-weight="normal" text-decoration="normal" x="451" y="677" text-anchor="start" dominant-baseline="alphabetic" stroke-opacity="1" stroke-linecap="round" stroke-linejoin="bevel" stroke-miterlimit="10" stroke-width="3">K</text><text fill="rgb(21,101,192)" stroke="none" font-family="geogebra-sans-serif, sans-serif" font-size="16px" font-style="normal" font-weight="normal" text-decoration="normal" x="451" y="677" text-anchor="start" dominant-baseline="alphabetic" fill-opacity="1">K</text><path fill="rgb(21,101,192)" stroke="none" paint-order="stroke fill markers" d=" M 593.1172911549186 498.2460743612443 C 593.1172911549186 501.0074981103983 590.8787149040726 503.2460743612443 588.1172911549186 503.2460743612443 C 585.3558674057646 503.2460743612443 583.1172911549186 501.0074981103983 583.1172911549186 498.2460743612443 C 583.1172911549186 495.4846506120904 585.3558674057646 493.2460743612443 588.1172911549186 493.2460743612443 C 590.8787149040726 493.2460743612443 593.1172911549186 495.4846506120904 593.1172911549186 498.2460743612443 Z" fill-opacity="1"/><path fill="none" stroke="rgb(0,0,0)" paint-order="fill stroke markers" d=" M 593.1172911549186 498.2460743612443 C 593.1172911549186 501.0074981103983 590.8787149040726 503.2460743612443 588.1172911549186 503.2460743612443 C 585.3558674057646 503.2460743612443 583.1172911549186 501.0074981103983 583.1172911549186 498.2460743612443 C 583.1172911549186 495.4846506120904 585.3558674057646 493.2460743612443 588.1172911549186 493.2460743612443 C 590.8787149040726 493.2460743612443 593.1172911549186 495.4846506120904 593.1172911549186 498.2460743612443 Z" stroke-opacity="1" stroke-linecap="round" stroke-linejoin="round" stroke-miterlimit="10"/><text fill="none" stroke="rgb(255,255,255)" font-family="geogebra-sans-serif, sans-serif" font-size="16px" font-style="normal" font-weight="normal" text-decoration="normal" x="559" y="523" text-anchor="start" dominant-baseline="alphabetic" stroke-opacity="1" stroke-linecap="round" stroke-linejoin="bevel" stroke-miterlimit="10" stroke-width="3">L = (10, 5)</text><text fill="rgb(21,101,192)" stroke="none" font-family="geogebra-sans-serif, sans-serif" font-size="16px" font-style="normal" font-weight="normal" text-decoration="normal" x="559" y="523" text-anchor="start" dominant-baseline="alphabetic" fill-opacity="1">L = (10, 5)</text><path fill="rgb(21,101,192)" stroke="none" paint-order="stroke fill markers" d=" M 640.192612928601 451.17075258756165 C 640.192612928601 453.9321763367156 637.954036677755 456.17075258756165 635.192612928601 456.17075258756165 C 632.431189179447 456.17075258756165 630.192612928601 453.9321763367156 630.192612928601 451.17075258756165 C 630.192612928601 448.4093288384077 632.431189179447 446.17075258756165 635.192612928601 446.17075258756165 C 637.954036677755 446.17075258756165 640.192612928601 448.4093288384077 640.192612928601 451.17075258756165 Z" fill-opacity="1"/><path fill="none" stroke="rgb(0,0,0)" paint-order="fill stroke markers" d=" M 640.192612928601 451.17075258756165 C 640.192612928601 453.9321763367156 637.954036677755 456.17075258756165 635.192612928601 456.17075258756165 C 632.431189179447 456.17075258756165 630.192612928601 453.9321763367156 630.192612928601 451.17075258756165 C 630.192612928601 448.4093288384077 632.431189179447 446.17075258756165 635.192612928601 446.17075258756165 C 637.954036677755 446.17075258756165 640.192612928601 448.4093288384077 640.192612928601 451.17075258756165 Z" stroke-opacity="1" stroke-linecap="round" stroke-linejoin="round" stroke-miterlimit="10"/><text fill="none" stroke="rgb(255,255,255)" font-family="geogebra-sans-serif, sans-serif" font-size="16px" font-style="normal" font-weight="normal" text-decoration="normal" x="639" y="441" text-anchor="start" dominant-baseline="alphabetic" stroke-opacity="1" stroke-linecap="round" stroke-linejoin="bevel" stroke-miterlimit="10" stroke-width="3">F = (11, 6)</text><text fill="rgb(21,101,192)" stroke="none" font-family="geogebra-sans-serif, sans-serif" font-size="16px" font-style="normal" font-weight="normal" text-decoration="normal" x="639" y="441" text-anchor="start" dominant-baseline="alphabetic" fill-opacity="1">F = (11, 6)</text><path fill="rgb(21,101,192)" stroke="none" paint-order="stroke fill markers" d=" M 781.4185782496481 686.5473614559749 C 781.4185782496481 689.3087852051289 779.1800019988021 691.5473614559749 776.4185782496481 691.5473614559749 C 773.6571545004941 691.5473614559749 771.4185782496481 689.3087852051289 771.4185782496481 686.5473614559749 C 771.4185782496481 683.7859377068208 773.6571545004941 681.5473614559749 776.4185782496481 681.5473614559749 C 779.1800019988021 681.5473614559749 781.4185782496481 683.7859377068208 781.4185782496481 686.5473614559749 Z" fill-opacity="1"/><path fill="none" stroke="rgb(0,0,0)" paint-order="fill stroke markers" d=" M 781.4185782496481 686.5473614559749 C 781.4185782496481 689.3087852051289 779.1800019988021 691.5473614559749 776.4185782496481 691.5473614559749 C 773.6571545004941 691.5473614559749 771.4185782496481 689.3087852051289 771.4185782496481 686.5473614559749 C 771.4185782496481 683.7859377068208 773.6571545004941 681.5473614559749 776.4185782496481 681.5473614559749 C 779.1800019988021 681.5473614559749 781.4185782496481 683.7859377068208 781.4185782496481 686.5473614559749 Z" stroke-opacity="1" stroke-linecap="round" stroke-linejoin="round" stroke-miterlimit="10"/><text fill="none" stroke="rgb(255,255,255)" font-family="geogebra-sans-serif, sans-serif" font-size="16px" font-style="normal" font-weight="normal" text-decoration="normal" x="780" y="677" text-anchor="start" dominant-baseline="alphabetic" stroke-opacity="1" stroke-linecap="round" stroke-linejoin="bevel" stroke-miterlimit="10" stroke-width="3">N = (14, 1)</text><text fill="rgb(21,101,192)" stroke="none" font-family="geogebra-sans-serif, sans-serif" font-size="16px" font-style="normal" font-weight="normal" text-decoration="normal" x="780" y="677" text-anchor="start" dominant-baseline="alphabetic" fill-opacity="1">N = (14, 1)</text><path fill="rgb(21,101,192)" stroke="none" paint-order="stroke fill markers" d=" M 169.43939519177695 545.321396134927 C 169.43939519177695 548.082819884081 167.20081894093093 550.321396134927 164.43939519177695 550.321396134927 C 161.67797144262298 550.321396134927 159.43939519177695 548.082819884081 159.43939519177695 545.321396134927 C 159.43939519177695 542.559972385773 161.67797144262298 540.321396134927 164.43939519177695 540.321396134927 C 167.20081894093093 540.321396134927 169.43939519177695 542.559972385773 169.43939519177695 545.321396134927 Z" fill-opacity="1"/><path fill="none" stroke="rgb(0,0,0)" paint-order="fill stroke markers" d=" M 169.43939519177695 545.321396134927 C 169.43939519177695 548.082819884081 167.20081894093093 550.321396134927 164.43939519177695 550.321396134927 C 161.67797144262298 550.321396134927 159.43939519177695 548.082819884081 159.43939519177695 545.321396134927 C 159.43939519177695 542.559972385773 161.67797144262298 540.321396134927 164.43939519177695 540.321396134927 C 167.20081894093093 540.321396134927 169.43939519177695 542.559972385773 169.43939519177695 545.321396134927 Z" stroke-opacity="1" stroke-linecap="round" stroke-linejoin="round" stroke-miterlimit="10"/><text fill="none" stroke="rgb(255,255,255)" font-family="geogebra-sans-serif, sans-serif" font-size="16px" font-style="normal" font-weight="normal" text-decoration="normal" x="168" y="535" text-anchor="start" dominant-baseline="alphabetic" stroke-opacity="1" stroke-linecap="round" stroke-linejoin="bevel" stroke-miterlimit="10" stroke-width="3">B = (1, 4)</text><text fill="rgb(21,101,192)" stroke="none" font-family="geogebra-sans-serif, sans-serif" font-size="16px" font-style="normal" font-weight="normal" text-decoration="normal" x="168" y="535" text-anchor="start" dominant-baseline="alphabetic" fill-opacity="1">B = (1, 4)</text><path fill="rgb(21,101,192)" stroke="none" paint-order="stroke fill markers" d=" M 118.36407341809456 569.8005634572419 C 118.36407341809456 570.3528482070727 117.91635816792535 570.8005634572419 117.36407341809456 570.8005634572419 C 116.81178866826377 570.8005634572419 116.36407341809456 570.3528482070727 116.36407341809456 569.8005634572419 C 116.36407341809456 569.248278707411 116.81178866826377 568.8005634572419 117.36407341809456 568.8005634572419 C 117.91635816792535 568.8005634572419 118.36407341809456 569.248278707411 118.36407341809456 569.8005634572419 Z" fill-opacity="1"/><path fill="none" stroke="rgb(0,0,0)" paint-order="fill stroke markers" d=" M 118.36407341809456 569.8005634572419 C 118.36407341809456 570.3528482070727 117.91635816792535 570.8005634572419 117.36407341809456 570.8005634572419 C 116.81178866826377 570.8005634572419 116.36407341809456 570.3528482070727 116.36407341809456 569.8005634572419 C 116.36407341809456 569.248278707411 116.81178866826377 568.8005634572419 117.36407341809456 568.8005634572419 C 117.91635816792535 568.8005634572419 118.36407341809456 569.248278707411 118.36407341809456 569.8005634572419 Z" stroke-opacity="1" stroke-linecap="round" stroke-linejoin="round" stroke-miterlimit="10"/><path fill="rgb(21,101,192)" stroke="none" paint-order="stroke fill markers" d=" M 495.34303513437493 545.1534854693437 C 495.34303513437493 545.7057702191745 494.8953198842057 546.1534854693437 494.34303513437493 546.1534854693437 C 493.79075038454414 546.1534854693437 493.34303513437493 545.7057702191745 493.34303513437493 545.1534854693437 C 493.34303513437493 544.6012007195128 493.79075038454414 544.1534854693437 494.34303513437493 544.1534854693437 C 494.8953198842057 544.1534854693437 495.34303513437493 544.6012007195128 495.34303513437493 545.1534854693437 Z" fill-opacity="1"/><path fill="none" stroke="rgb(0,0,0)" paint-order="fill stroke markers" d=" M 495.34303513437493 545.1534854693437 C 495.34303513437493 545.7057702191745 494.8953198842057 546.1534854693437 494.34303513437493 546.1534854693437 C 493.79075038454414 546.1534854693437 493.34303513437493 545.7057702191745 493.34303513437493 545.1534854693437 C 493.34303513437493 544.6012007195128 493.79075038454414 544.1534854693437 494.34303513437493 544.1534854693437 C 494.8953198842057 544.1534854693437 495.34303513437493 544.6012007195128 495.34303513437493 545.1534854693437 Z" stroke-opacity="1" stroke-linecap="round" stroke-linejoin="round" stroke-miterlimit="10"/><path fill="rgb(21,101,192)" stroke="none" paint-order="stroke fill markers" d=" M 353.7406822865065 309.9447872665138 C 353.7406822865065 310.4970720163446 353.2929670363373 310.9447872665138 352.7406822865065 310.9447872665138 C 352.1883975366757 310.9447872665138 351.7406822865065 310.4970720163446 351.7406822865065 309.9447872665138 C 351.7406822865065 309.392502516683 352.1883975366757 308.9447872665138 352.7406822865065 308.9447872665138 C 353.2929670363373 308.9447872665138 353.7406822865065 309.392502516683 353.7406822865065 309.9447872665138 Z" fill-opacity="1"/><path fill="none" stroke="rgb(0,0,0)" paint-order="fill stroke markers" d=" M 353.7406822865065 309.9447872665138 C 353.7406822865065 310.4970720163446 353.2929670363373 310.9447872665138 352.7406822865065 310.9447872665138 C 352.1883975366757 310.9447872665138 351.7406822865065 310.4970720163446 351.7406822865065 309.9447872665138 C 351.7406822865065 309.392502516683 352.1883975366757 308.9447872665138 352.7406822865065 308.9447872665138 C 353.2929670363373 308.9447872665138 353.7406822865065 309.392502516683 353.7406822865065 309.9447872665138 Z" stroke-opacity="1" stroke-linecap="round" stroke-linejoin="round" stroke-miterlimit="10"/><path fill="rgb(21,101,192)" stroke="none" paint-order="stroke fill markers" d=" M 353.9557608732615 545.2254471831651 C 353.9557608732615 545.777731932996 353.5080456230923 546.2254471831651 352.9557608732615 546.2254471831651 C 352.4034761234307 546.2254471831651 351.9557608732615 545.777731932996 351.9557608732615 545.2254471831651 C 351.9557608732615 544.6731624333343 352.4034761234307 544.2254471831651 352.9557608732615 544.2254471831651 C 353.5080456230923 544.2254471831651 353.9557608732615 544.6731624333343 353.9557608732615 545.2254471831651 Z" fill-opacity="1"/><path fill="none" stroke="rgb(0,0,0)" paint-order="fill stroke markers" d=" M 353.9557608732615 545.2254471831651 C 353.9557608732615 545.777731932996 353.5080456230923 546.2254471831651 352.9557608732615 546.2254471831651 C 352.4034761234307 546.2254471831651 351.9557608732615 545.777731932996 351.9557608732615 545.2254471831651 C 351.9557608732615 544.6731624333343 352.4034761234307 544.2254471831651 352.9557608732615 544.2254471831651 C 353.5080456230923 544.2254471831651 353.9557608732615 544.6731624333343 353.9557608732615 545.2254471831651 Z" stroke-opacity="1" stroke-linecap="round" stroke-linejoin="round" stroke-miterlimit="10"/><path fill="rgb(21,101,192)" stroke="none" paint-order="stroke fill markers" d=" M 306.6653605128241 733.6226832296575 C 306.6653605128241 734.1749679794883 306.2176452626549 734.6226832296575 305.6653605128241 734.6226832296575 C 305.11307576299333 734.6226832296575 304.6653605128241 734.1749679794883 304.6653605128241 733.6226832296575 C 304.6653605128241 733.0703984798266 305.11307576299333 732.6226832296575 305.6653605128241 732.6226832296575 C 306.2176452626549 732.6226832296575 306.6653605128241 733.0703984798266 306.6653605128241 733.6226832296575 Z" fill-opacity="1"/><path fill="none" stroke="rgb(0,0,0)" paint-order="fill stroke markers" d=" M 306.6653605128241 733.6226832296575 C 306.6653605128241 734.1749679794883 306.2176452626549 734.6226832296575 305.6653605128241 734.6226832296575 C 305.11307576299333 734.6226832296575 304.6653605128241 734.1749679794883 304.6653605128241 733.6226832296575 C 304.6653605128241 733.0703984798266 305.11307576299333 732.6226832296575 305.6653605128241 732.6226832296575 C 306.2176452626549 732.6226832296575 306.6653605128241 733.0703984798266 306.6653605128241 733.6226832296575 Z" stroke-opacity="1" stroke-linecap="round" stroke-linejoin="round" stroke-miterlimit="10"/><path fill="rgb(21,101,192)" stroke="none" paint-order="stroke fill markers" d=" M 306.82666945289037 545.2494344211055 C 306.82666945289037 545.8017191709364 306.37895420272116 546.2494344211055 305.82666945289037 546.2494344211055 C 305.2743847030596 546.2494344211055 304.82666945289037 545.8017191709364 304.82666945289037 545.2494344211055 C 304.82666945289037 544.6971496712747 305.2743847030596 544.2494344211055 305.82666945289037 544.2494344211055 C 306.37895420272116 544.2494344211055 306.82666945289037 544.6971496712747 306.82666945289037 545.2494344211055 Z" fill-opacity="1"/><path fill="none" stroke="rgb(0,0,0)" paint-order="fill stroke markers" d=" M 306.82666945289037 545.2494344211055 C 306.82666945289037 545.8017191709364 306.37895420272116 546.2494344211055 305.82666945289037 546.2494344211055 C 305.2743847030596 546.2494344211055 304.82666945289037 545.8017191709364 304.82666945289037 545.2494344211055 C 304.82666945289037 544.6971496712747 305.2743847030596 544.2494344211055 305.82666945289037 544.2494344211055 C 306.37895420272116 544.2494344211055 306.82666945289037 544.6971496712747 306.82666945289037 545.2494344211055 Z" stroke-opacity="1" stroke-linecap="round" stroke-linejoin="round" stroke-miterlimit="10"/><path fill="rgb(21,101,192)" stroke="none" paint-order="stroke fill markers" d=" M 494.96664760755374 592.3967179086096 C 494.96664760755374 592.9490026584405 494.51893235738453 593.3967179086096 493.96664760755374 593.3967179086096 C 493.41436285772295 593.3967179086096 492.96664760755374 592.9490026584405 492.96664760755374 592.3967179086096 C 492.96664760755374 591.8444331587788 493.41436285772295 591.3967179086096 493.96664760755374 591.3967179086096 C 494.51893235738453 591.3967179086096 494.96664760755374 591.8444331587788 494.96664760755374 592.3967179086096 Z" fill-opacity="1"/><path fill="none" stroke="rgb(0,0,0)" paint-order="fill stroke markers" d=" M 494.96664760755374 592.3967179086096 C 494.96664760755374 592.9490026584405 494.51893235738453 593.3967179086096 493.96664760755374 593.3967179086096 C 493.41436285772295 593.3967179086096 492.96664760755374 592.9490026584405 492.96664760755374 592.3967179086096 C 492.96664760755374 591.8444331587788 493.41436285772295 591.3967179086096 493.96664760755374 591.3967179086096 C 494.51893235738453 591.3967179086096 494.96664760755374 591.8444331587788 494.96664760755374 592.3967179086096 Z" stroke-opacity="1" stroke-linecap="round" stroke-linejoin="round" stroke-miterlimit="10"/><path fill="rgb(21,101,192)" stroke="none" paint-order="stroke fill markers" d=" M 636.192612928601 592.3967179086096 C 636.192612928601 592.9490026584405 635.7448976784318 593.3967179086096 635.192612928601 593.3967179086096 C 634.6403281787701 593.3967179086096 634.192612928601 592.9490026584405 634.192612928601 592.3967179086096 C 634.192612928601 591.8444331587788 634.6403281787701 591.3967179086096 635.192612928601 591.3967179086096 C 635.7448976784318 591.3967179086096 636.192612928601 591.8444331587788 636.192612928601 592.3967179086096 Z" fill-opacity="1"/><path fill="none" stroke="rgb(0,0,0)" paint-order="fill stroke markers" d=" M 636.192612928601 592.3967179086096 C 636.192612928601 592.9490026584405 635.7448976784318 593.3967179086096 635.192612928601 593.3967179086096 C 634.6403281787701 593.3967179086096 634.192612928601 592.9490026584405 634.192612928601 592.3967179086096 C 634.192612928601 591.8444331587788 634.6403281787701 591.3967179086096 635.192612928601 591.3967179086096 C 635.7448976784318 591.3967179086096 636.192612928601 591.8444331587788 636.192612928601 592.3967179086096 Z" stroke-opacity="1" stroke-linecap="round" stroke-linejoin="round" stroke-miterlimit="10"/><path fill="rgb(21,101,192)" stroke="none" paint-order="stroke fill markers" d=" M 542.0419693812362 733.6226832296575 C 542.0419693812362 734.1749679794883 541.594254131067 734.6226832296575 541.0419693812362 734.6226832296575 C 540.4896846314053 734.6226832296575 540.0419693812362 734.1749679794883 540.0419693812362 733.6226832296575 C 540.0419693812362 733.0703984798266 540.4896846314053 732.6226832296575 541.0419693812362 732.6226832296575 C 541.594254131067 732.6226832296575 542.0419693812362 733.0703984798266 542.0419693812362 733.6226832296575 Z" fill-opacity="1"/><path fill="none" stroke="rgb(0,0,0)" paint-order="fill stroke markers" d=" M 542.0419693812362 733.6226832296575 C 542.0419693812362 734.1749679794883 541.594254131067 734.6226832296575 541.0419693812362 734.6226832296575 C 540.4896846314053 734.6226832296575 540.0419693812362 734.1749679794883 540.0419693812362 733.6226832296575 C 540.0419693812362 733.0703984798266 540.4896846314053 732.6226832296575 541.0419693812362 732.6226832296575 C 541.594254131067 732.6226832296575 542.0419693812362 733.0703984798266 542.0419693812362 733.6226832296575 Z" stroke-opacity="1" stroke-linecap="round" stroke-linejoin="round" stroke-miterlimit="10"/><path fill="rgb(21,101,192)" stroke="none" paint-order="stroke fill markers" d=" M 542.0419693812362 592.3967179086096 C 542.0419693812362 592.9490026584405 541.594254131067 593.3967179086096 541.0419693812362 593.3967179086096 C 540.4896846314053 593.3967179086096 540.0419693812362 592.9490026584405 540.0419693812362 592.3967179086096 C 540.0419693812362 591.8444331587788 540.4896846314053 591.3967179086096 541.0419693812362 591.3967179086096 C 541.594254131067 591.3967179086096 542.0419693812362 591.8444331587788 542.0419693812362 592.3967179086096 Z" fill-opacity="1"/><path fill="none" stroke="rgb(0,0,0)" paint-order="fill stroke markers" d=" M 542.0419693812362 592.3967179086096 C 542.0419693812362 592.9490026584405 541.594254131067 593.3967179086096 541.0419693812362 593.3967179086096 C 540.4896846314053 593.3967179086096 540.0419693812362 592.9490026584405 540.0419693812362 592.3967179086096 C 540.0419693812362 591.8444331587788 540.4896846314053 591.3967179086096 541.0419693812362 591.3967179086096 C 541.594254131067 591.3967179086096 542.0419693812362 591.8444331587788 542.0419693812362 592.3967179086096 Z" stroke-opacity="1" stroke-linecap="round" stroke-linejoin="round" stroke-miterlimit="10"/><path fill="rgb(21,101,192)" stroke="none" paint-order="stroke fill markers" d=" M 118.36407341809456 262.8694654928312 C 118.36407341809456 263.421750242662 117.91635816792535 263.8694654928312 117.36407341809456 263.8694654928312 C 116.81178866826377 263.8694654928312 116.36407341809456 263.421750242662 116.36407341809456 262.8694654928312 C 116.36407341809456 262.3171807430004 116.81178866826377 261.8694654928312 117.36407341809456 261.8694654928312 C 117.91635816792535 261.8694654928312 118.36407341809456 262.3171807430004 118.36407341809456 262.8694654928312 Z" fill-opacity="1"/><path fill="none" stroke="rgb(0,0,0)" paint-order="fill stroke markers" d=" M 118.36407341809456 262.8694654928312 C 118.36407341809456 263.421750242662 117.91635816792535 263.8694654928312 117.36407341809456 263.8694654928312 C 116.81178866826377 263.8694654928312 116.36407341809456 263.421750242662 116.36407341809456 262.8694654928312 C 116.36407341809456 262.3171807430004 116.81178866826377 261.8694654928312 117.36407341809456 261.8694654928312 C 117.91635816792535 261.8694654928312 118.36407341809456 262.3171807430004 118.36407341809456 262.8694654928312 Z" stroke-opacity="1" stroke-linecap="round" stroke-linejoin="round" stroke-miterlimit="10"/><path fill="rgb(21,101,192)" stroke="none" paint-order="stroke fill markers" d=" M 824.4939000233305 262.8694654928312 C 824.4939000233305 263.421750242662 824.0461847731614 263.8694654928312 823.4939000233305 263.8694654928312 C 822.9416152734997 263.8694654928312 822.4939000233305 263.421750242662 822.4939000233305 262.8694654928312 C 822.4939000233305 262.3171807430004 822.9416152734997 261.8694654928312 823.4939000233305 261.8694654928312 C 824.0461847731614 261.8694654928312 824.4939000233305 262.3171807430004 824.4939000233305 262.8694654928312 Z" fill-opacity="1"/><path fill="none" stroke="rgb(0,0,0)" paint-order="fill stroke markers" d=" M 824.4939000233305 262.8694654928312 C 824.4939000233305 263.421750242662 824.0461847731614 263.8694654928312 823.4939000233305 263.8694654928312 C 822.9416152734997 263.8694654928312 822.4939000233305 263.421750242662 822.4939000233305 262.8694654928312 C 822.4939000233305 262.3171807430004 822.9416152734997 261.8694654928312 823.4939000233305 261.8694654928312 C 824.0461847731614 261.8694654928312 824.4939000233305 262.3171807430004 824.4939000233305 262.8694654928312 Z" stroke-opacity="1" stroke-linecap="round" stroke-linejoin="round" stroke-miterlimit="10"/><path fill="rgb(21,101,192)" stroke="none" paint-order="stroke fill markers" d=" M 824.4939000233305 733.6226832296575 C 824.4939000233305 734.1749679794883 824.0461847731614 734.6226832296575 823.4939000233305 734.6226832296575 C 822.9416152734997 734.6226832296575 822.4939000233305 734.1749679794883 822.4939000233305 733.6226832296575 C 822.4939000233305 733.0703984798266 822.9416152734997 732.6226832296575 823.4939000233305 732.6226832296575 C 824.0461847731614 732.6226832296575 824.4939000233305 733.0703984798266 824.4939000233305 733.6226832296575 Z" fill-opacity="1"/><path fill="none" stroke="rgb(0,0,0)" paint-order="fill stroke markers" d=" M 824.4939000233305 733.6226832296575 C 824.4939000233305 734.1749679794883 824.0461847731614 734.6226832296575 823.4939000233305 734.6226832296575 C 822.9416152734997 734.6226832296575 822.4939000233305 734.1749679794883 822.4939000233305 733.6226832296575 C 822.4939000233305 733.0703984798266 822.9416152734997 732.6226832296575 823.4939000233305 732.6226832296575 C 824.0461847731614 732.6226832296575 824.4939000233305 733.0703984798266 824.4939000233305 733.6226832296575 Z" stroke-opacity="1" stroke-linecap="round" stroke-linejoin="round" stroke-miterlimit="10"/><path fill="rgb(97,97,97)" stroke="none" paint-order="stroke fill markers" d=" M 118.36407341809456 733.6226832296575 C 118.36407341809456 734.1749679794883 117.91635816792535 734.6226832296575 117.36407341809456 734.6226832296575 C 116.81178866826377 734.6226832296575 116.36407341809456 734.1749679794883 116.36407341809456 733.6226832296575 C 116.36407341809456 733.0703984798266 116.81178866826377 732.6226832296575 117.36407341809456 732.6226832296575 C 117.91635816792535 732.6226832296575 118.36407341809456 733.0703984798266 118.36407341809456 733.6226832296575 Z" fill-opacity="1"/><path fill="none" stroke="rgb(0,0,0)" paint-order="fill stroke markers" d=" M 118.36407341809456 733.6226832296575 C 118.36407341809456 734.1749679794883 117.91635816792535 734.6226832296575 117.36407341809456 734.6226832296575 C 116.81178866826377 734.6226832296575 116.36407341809456 734.1749679794883 116.36407341809456 733.6226832296575 C 116.36407341809456 733.0703984798266 116.81178866826377 732.6226832296575 117.36407341809456 732.6226832296575 C 117.91635816792535 732.6226832296575 118.36407341809456 733.0703984798266 118.36407341809456 733.6226832296575 Z" stroke-opacity="1" stroke-linecap="round" stroke-linejoin="round" stroke-miterlimit="10"/><path fill="rgb(21,101,192)" stroke="none" paint-order="stroke fill markers" d=" M 216.51471696545934 639.4720396822922 C 216.51471696545934 642.2334634314462 214.27614071461332 644.4720396822922 211.51471696545934 644.4720396822922 C 208.75329321630537 644.4720396822922 206.51471696545934 642.2334634314462 206.51471696545934 639.4720396822922 C 206.51471696545934 636.7106159331382 208.75329321630537 634.4720396822922 211.51471696545934 634.4720396822922 C 214.27614071461332 634.4720396822922 216.51471696545934 636.7106159331382 216.51471696545934 639.4720396822922 Z" fill-opacity="1"/><path fill="none" stroke="rgb(0,0,0)" paint-order="fill stroke markers" d=" M 216.51471696545934 639.4720396822922 C 216.51471696545934 642.2334634314462 214.27614071461332 644.4720396822922 211.51471696545934 644.4720396822922 C 208.75329321630537 644.4720396822922 206.51471696545934 642.2334634314462 206.51471696545934 639.4720396822922 C 206.51471696545934 636.7106159331382 208.75329321630537 634.4720396822922 211.51471696545934 634.4720396822922 C 214.27614071461332 634.4720396822922 216.51471696545934 636.7106159331382 216.51471696545934 639.4720396822922 Z" stroke-opacity="1" stroke-linecap="round" stroke-linejoin="round" stroke-miterlimit="10"/><text fill="none" stroke="rgb(255,255,255)" font-family="geogebra-sans-serif, sans-serif" font-size="16px" font-style="normal" font-weight="normal" text-decoration="normal" x="216" y="629" text-anchor="start" dominant-baseline="alphabetic" stroke-opacity="1" stroke-linecap="round" stroke-linejoin="bevel" stroke-miterlimit="10" stroke-width="3">J = (2, 2)</text><text fill="rgb(21,101,192)" stroke="none" font-family="geogebra-sans-serif, sans-serif" font-size="16px" font-style="normal" font-weight="normal" text-decoration="normal" x="216" y="629" text-anchor="start" dominant-baseline="alphabetic" fill-opacity="1">J = (2, 2)</text><path fill="rgb(21,101,192)" stroke="none" paint-order="stroke fill markers" d=" M 1205.0964742127899 215.79414371914856 C 1205.0964742127899 218.55556746830254 1202.8578979619438 220.79414371914856 1200.0964742127899 220.79414371914856 C 1197.335050463636 220.79414371914856 1195.0964742127899 218.55556746830254 1195.0964742127899 215.79414371914856 C 1195.0964742127899 213.0327199699946 1197.335050463636 210.79414371914856 1200.0964742127899 210.79414371914856 C 1202.8578979619438 210.79414371914856 1205.0964742127899 213.0327199699946 1205.0964742127899 215.79414371914856 Z" fill-opacity="1"/><path fill="none" stroke="rgb(0,0,0)" paint-order="fill stroke markers" d=" M 1205.0964742127899 215.79414371914856 C 1205.0964742127899 218.55556746830254 1202.8578979619438 220.79414371914856 1200.0964742127899 220.79414371914856 C 1197.335050463636 220.79414371914856 1195.0964742127899 218.55556746830254 1195.0964742127899 215.79414371914856 C 1195.0964742127899 213.0327199699946 1197.335050463636 210.79414371914856 1200.0964742127899 210.79414371914856 C 1202.8578979619438 210.79414371914856 1205.0964742127899 213.0327199699946 1205.0964742127899 215.79414371914856 Z" stroke-opacity="1" stroke-linecap="round" stroke-linejoin="round" stroke-miterlimit="10"/><text fill="none" stroke="rgb(255,255,255)" font-family="geogebra-sans-serif, sans-serif" font-size="16px" font-style="normal" font-weight="normal" text-decoration="normal" x="1204" y="206" text-anchor="start" dominant-baseline="alphabetic" stroke-opacity="1" stroke-linecap="round" stroke-linejoin="bevel" stroke-miterlimit="10" stroke-width="3">A</text><text fill="rgb(21,101,192)" stroke="none" font-family="geogebra-sans-serif, sans-serif" font-size="16px" font-style="normal" font-weight="normal" text-decoration="normal" x="1204" y="206" text-anchor="start" dominant-baseline="alphabetic" fill-opacity="1">A</text><path fill="rgb(21,101,192)" stroke="none" paint-order="stroke fill markers" d=" M 1063.8705088917425 262.8694654928312 C 1063.8705088917425 265.63088924198513 1061.6319326408964 267.8694654928312 1058.8705088917425 267.8694654928312 C 1056.1090851425886 267.8694654928312 1053.8705088917425 265.63088924198513 1053.8705088917425 262.8694654928312 C 1053.8705088917425 260.10804174367723 1056.1090851425886 257.8694654928312 1058.8705088917425 257.8694654928312 C 1061.6319326408964 257.8694654928312 1063.8705088917425 260.10804174367723 1063.8705088917425 262.8694654928312 Z" fill-opacity="1"/><path fill="none" stroke="rgb(0,0,0)" paint-order="fill stroke markers" d=" M 1063.8705088917425 262.8694654928312 C 1063.8705088917425 265.63088924198513 1061.6319326408964 267.8694654928312 1058.8705088917425 267.8694654928312 C 1056.1090851425886 267.8694654928312 1053.8705088917425 265.63088924198513 1053.8705088917425 262.8694654928312 C 1053.8705088917425 260.10804174367723 1056.1090851425886 257.8694654928312 1058.8705088917425 257.8694654928312 C 1061.6319326408964 257.8694654928312 1063.8705088917425 260.10804174367723 1063.8705088917425 262.8694654928312 Z" stroke-opacity="1" stroke-linecap="round" stroke-linejoin="round" stroke-miterlimit="10"/><text fill="none" stroke="rgb(255,255,255)" font-family="geogebra-sans-serif, sans-serif" font-size="16px" font-style="normal" font-weight="normal" text-decoration="normal" x="1063" y="253" text-anchor="start" dominant-baseline="alphabetic" stroke-opacity="1" stroke-linecap="round" stroke-linejoin="bevel" stroke-miterlimit="10" stroke-width="3">B</text><text fill="rgb(21,101,192)" stroke="none" font-family="geogebra-sans-serif, sans-serif" font-size="16px" font-style="normal" font-weight="normal" text-decoration="normal" x="1063" y="253" text-anchor="start" dominant-baseline="alphabetic" fill-opacity="1">B</text><path fill="rgb(21,101,192)" stroke="none" paint-order="stroke fill markers" d=" M 1299.2471177601547 262.8694654928312 C 1299.2471177601547 265.63088924198513 1297.0085415093085 267.8694654928312 1294.2471177601547 267.8694654928312 C 1291.4856940110008 267.8694654928312 1289.2471177601547 265.63088924198513 1289.2471177601547 262.8694654928312 C 1289.2471177601547 260.10804174367723 1291.4856940110008 257.8694654928312 1294.2471177601547 257.8694654928312 C 1297.0085415093085 257.8694654928312 1299.2471177601547 260.10804174367723 1299.2471177601547 262.8694654928312 Z" fill-opacity="1"/><path fill="none" stroke="rgb(0,0,0)" paint-order="fill stroke markers" d=" M 1299.2471177601547 262.8694654928312 C 1299.2471177601547 265.63088924198513 1297.0085415093085 267.8694654928312 1294.2471177601547 267.8694654928312 C 1291.4856940110008 267.8694654928312 1289.2471177601547 265.63088924198513 1289.2471177601547 262.8694654928312 C 1289.2471177601547 260.10804174367723 1291.4856940110008 257.8694654928312 1294.2471177601547 257.8694654928312 C 1297.0085415093085 257.8694654928312 1299.2471177601547 260.10804174367723 1299.2471177601547 262.8694654928312 Z" stroke-opacity="1" stroke-linecap="round" stroke-linejoin="round" stroke-miterlimit="10"/><text fill="none" stroke="rgb(255,255,255)" font-family="geogebra-sans-serif, sans-serif" font-size="16px" font-style="normal" font-weight="normal" text-decoration="normal" x="1298" y="253" text-anchor="start" dominant-baseline="alphabetic" stroke-opacity="1" stroke-linecap="round" stroke-linejoin="bevel" stroke-miterlimit="10" stroke-width="3">C</text><text fill="rgb(21,101,192)" stroke="none" font-family="geogebra-sans-serif, sans-serif" font-size="16px" font-style="normal" font-weight="normal" text-decoration="normal" x="1298" y="253" text-anchor="start" dominant-baseline="alphabetic" fill-opacity="1">C</text><path fill="rgb(21,101,192)" stroke="none" paint-order="stroke fill markers" d=" M 1110.9458306654249 309.9447872665138 C 1110.9458306654249 312.70621101566775 1108.7072544145788 314.9447872665138 1105.9458306654249 314.9447872665138 C 1103.184406916271 314.9447872665138 1100.9458306654249 312.70621101566775 1100.9458306654249 309.9447872665138 C 1100.9458306654249 307.18336351735985 1103.184406916271 304.9447872665138 1105.9458306654249 304.9447872665138 C 1108.7072544145788 304.9447872665138 1110.9458306654249 307.18336351735985 1110.9458306654249 309.9447872665138 Z" fill-opacity="1"/><path fill="none" stroke="rgb(0,0,0)" paint-order="fill stroke markers" d=" M 1110.9458306654249 309.9447872665138 C 1110.9458306654249 312.70621101566775 1108.7072544145788 314.9447872665138 1105.9458306654249 314.9447872665138 C 1103.184406916271 314.9447872665138 1100.9458306654249 312.70621101566775 1100.9458306654249 309.9447872665138 C 1100.9458306654249 307.18336351735985 1103.184406916271 304.9447872665138 1105.9458306654249 304.9447872665138 C 1108.7072544145788 304.9447872665138 1110.9458306654249 307.18336351735985 1110.9458306654249 309.9447872665138 Z" stroke-opacity="1" stroke-linecap="round" stroke-linejoin="round" stroke-miterlimit="10"/><text fill="none" stroke="rgb(255,255,255)" font-family="geogebra-sans-serif, sans-serif" font-size="16px" font-style="normal" font-weight="normal" text-decoration="normal" x="1110" y="300" text-anchor="start" dominant-baseline="alphabetic" stroke-opacity="1" stroke-linecap="round" stroke-linejoin="bevel" stroke-miterlimit="10" stroke-width="3">D</text><text fill="rgb(21,101,192)" stroke="none" font-family="geogebra-sans-serif, sans-serif" font-size="16px" font-style="normal" font-weight="normal" text-decoration="normal" x="1110" y="300" text-anchor="start" dominant-baseline="alphabetic" fill-opacity="1">D</text><path fill="rgb(21,101,192)" stroke="none" paint-order="stroke fill markers" d=" M 924.0791874201817 312.81997037428437 C 924.0791874201817 315.5813941234383 921.8406111693357 317.81997037428437 919.0791874201817 317.81997037428437 C 916.3177636710277 317.81997037428437 914.0791874201817 315.5813941234383 914.0791874201817 312.81997037428437 C 914.0791874201817 310.0585466251304 916.3177636710277 307.81997037428437 919.0791874201817 307.81997037428437 C 921.8406111693357 307.81997037428437 924.0791874201817 310.0585466251304 924.0791874201817 312.81997037428437 Z" fill-opacity="1"/><path fill="none" stroke="rgb(0,0,0)" paint-order="fill stroke markers" d=" M 924.0791874201817 312.81997037428437 C 924.0791874201817 315.5813941234383 921.8406111693357 317.81997037428437 919.0791874201817 317.81997037428437 C 916.3177636710277 317.81997037428437 914.0791874201817 315.5813941234383 914.0791874201817 312.81997037428437 C 914.0791874201817 310.0585466251304 916.3177636710277 307.81997037428437 919.0791874201817 307.81997037428437 C 921.8406111693357 307.81997037428437 924.0791874201817 310.0585466251304 924.0791874201817 312.81997037428437 Z" stroke-opacity="1" stroke-linecap="round" stroke-linejoin="round" stroke-miterlimit="10"/><text fill="none" stroke="rgb(255,255,255)" font-family="geogebra-sans-serif, sans-serif" font-size="16px" font-style="normal" font-weight="normal" text-decoration="normal" x="923" y="303" text-anchor="start" dominant-baseline="alphabetic" stroke-opacity="1" stroke-linecap="round" stroke-linejoin="bevel" stroke-miterlimit="10" stroke-width="3">E</text><text fill="rgb(21,101,192)" stroke="none" font-family="geogebra-sans-serif, sans-serif" font-size="16px" font-style="normal" font-weight="normal" text-decoration="normal" x="923" y="303" text-anchor="start" dominant-baseline="alphabetic" fill-opacity="1">E</text><path fill="rgb(21,101,192)" stroke="none" paint-order="stroke fill markers" d=" M 1393.3977613075194 309.9447872665138 C 1393.3977613075194 312.70621101566775 1391.1591850566733 314.9447872665138 1388.3977613075194 314.9447872665138 C 1385.6363375583655 314.9447872665138 1383.3977613075194 312.70621101566775 1383.3977613075194 309.9447872665138 C 1383.3977613075194 307.18336351735985 1385.6363375583655 304.9447872665138 1388.3977613075194 304.9447872665138 C 1391.1591850566733 304.9447872665138 1393.3977613075194 307.18336351735985 1393.3977613075194 309.9447872665138 Z" fill-opacity="1"/><path fill="none" stroke="rgb(0,0,0)" paint-order="fill stroke markers" d=" M 1393.3977613075194 309.9447872665138 C 1393.3977613075194 312.70621101566775 1391.1591850566733 314.9447872665138 1388.3977613075194 314.9447872665138 C 1385.6363375583655 314.9447872665138 1383.3977613075194 312.70621101566775 1383.3977613075194 309.9447872665138 C 1383.3977613075194 307.18336351735985 1385.6363375583655 304.9447872665138 1388.3977613075194 304.9447872665138 C 1391.1591850566733 304.9447872665138 1393.3977613075194 307.18336351735985 1393.3977613075194 309.9447872665138 Z" stroke-opacity="1" stroke-linecap="round" stroke-linejoin="round" stroke-miterlimit="10"/><text fill="none" stroke="rgb(255,255,255)" font-family="geogebra-sans-serif, sans-serif" font-size="16px" font-style="normal" font-weight="normal" text-decoration="normal" x="1392" y="300" text-anchor="start" dominant-baseline="alphabetic" stroke-opacity="1" stroke-linecap="round" stroke-linejoin="bevel" stroke-miterlimit="10" stroke-width="3">F</text><text fill="rgb(21,101,192)" stroke="none" font-family="geogebra-sans-serif, sans-serif" font-size="16px" font-style="normal" font-weight="normal" text-decoration="normal" x="1392" y="300" text-anchor="start" dominant-baseline="alphabetic" fill-opacity="1">F</text><path fill="rgb(21,101,192)" stroke="none" paint-order="stroke fill markers" d=" M 1252.1717959864723 309.9447872665138 C 1252.1717959864723 312.70621101566775 1249.9332197356262 314.9447872665138 1247.1717959864723 314.9447872665138 C 1244.4103722373184 314.9447872665138 1242.1717959864723 312.70621101566775 1242.1717959864723 309.9447872665138 C 1242.1717959864723 307.18336351735985 1244.4103722373184 304.9447872665138 1247.1717959864723 304.9447872665138 C 1249.9332197356262 304.9447872665138 1252.1717959864723 307.18336351735985 1252.1717959864723 309.9447872665138 Z" fill-opacity="1"/><path fill="none" stroke="rgb(0,0,0)" paint-order="fill stroke markers" d=" M 1252.1717959864723 309.9447872665138 C 1252.1717959864723 312.70621101566775 1249.9332197356262 314.9447872665138 1247.1717959864723 314.9447872665138 C 1244.4103722373184 314.9447872665138 1242.1717959864723 312.70621101566775 1242.1717959864723 309.9447872665138 C 1242.1717959864723 307.18336351735985 1244.4103722373184 304.9447872665138 1247.1717959864723 304.9447872665138 C 1249.9332197356262 304.9447872665138 1252.1717959864723 307.18336351735985 1252.1717959864723 309.9447872665138 Z" stroke-opacity="1" stroke-linecap="round" stroke-linejoin="round" stroke-miterlimit="10"/><text fill="none" stroke="rgb(255,255,255)" font-family="geogebra-sans-serif, sans-serif" font-size="16px" font-style="normal" font-weight="normal" text-decoration="normal" x="1251" y="300" text-anchor="start" dominant-baseline="alphabetic" stroke-opacity="1" stroke-linecap="round" stroke-linejoin="bevel" stroke-miterlimit="10" stroke-width="3">G</text><text fill="rgb(21,101,192)" stroke="none" font-family="geogebra-sans-serif, sans-serif" font-size="16px" font-style="normal" font-weight="normal" text-decoration="normal" x="1251" y="300" text-anchor="start" dominant-baseline="alphabetic" fill-opacity="1">G</text><path fill="rgb(21,101,192)" stroke="none" paint-order="stroke fill markers" d=" M 1063.8705088917425 357.0201090401964 C 1063.8705088917425 359.78153278935036 1061.6319326408964 362.0201090401964 1058.8705088917425 362.0201090401964 C 1056.1090851425886 362.0201090401964 1053.8705088917425 359.78153278935036 1053.8705088917425 357.0201090401964 C 1053.8705088917425 354.25868529104247 1056.1090851425886 352.0201090401964 1058.8705088917425 352.0201090401964 C 1061.6319326408964 352.0201090401964 1063.8705088917425 354.25868529104247 1063.8705088917425 357.0201090401964 Z" fill-opacity="1"/><path fill="none" stroke="rgb(0,0,0)" paint-order="fill stroke markers" d=" M 1063.8705088917425 357.0201090401964 C 1063.8705088917425 359.78153278935036 1061.6319326408964 362.0201090401964 1058.8705088917425 362.0201090401964 C 1056.1090851425886 362.0201090401964 1053.8705088917425 359.78153278935036 1053.8705088917425 357.0201090401964 C 1053.8705088917425 354.25868529104247 1056.1090851425886 352.0201090401964 1058.8705088917425 352.0201090401964 C 1061.6319326408964 352.0201090401964 1063.8705088917425 354.25868529104247 1063.8705088917425 357.0201090401964 Z" stroke-opacity="1" stroke-linecap="round" stroke-linejoin="round" stroke-miterlimit="10"/><text fill="none" stroke="rgb(255,255,255)" font-family="geogebra-sans-serif, sans-serif" font-size="16px" font-style="normal" font-weight="normal" text-decoration="normal" x="1063" y="347" text-anchor="start" dominant-baseline="alphabetic" stroke-opacity="1" stroke-linecap="round" stroke-linejoin="bevel" stroke-miterlimit="10" stroke-width="3">H</text><text fill="rgb(21,101,192)" stroke="none" font-family="geogebra-sans-serif, sans-serif" font-size="16px" font-style="normal" font-weight="normal" text-decoration="normal" x="1063" y="347" text-anchor="start" dominant-baseline="alphabetic" fill-opacity="1">H</text><path fill="rgb(21,101,192)" stroke="none" paint-order="stroke fill markers" d=" M 1158.0211524391075 357.0201090401964 C 1158.0211524391075 359.78153278935036 1155.7825761882614 362.0201090401964 1153.0211524391075 362.0201090401964 C 1150.2597286899536 362.0201090401964 1148.0211524391075 359.78153278935036 1148.0211524391075 357.0201090401964 C 1148.0211524391075 354.25868529104247 1150.2597286899536 352.0201090401964 1153.0211524391075 352.0201090401964 C 1155.7825761882614 352.0201090401964 1158.0211524391075 354.25868529104247 1158.0211524391075 357.0201090401964 Z" fill-opacity="1"/><path fill="none" stroke="rgb(0,0,0)" paint-order="fill stroke markers" d=" M 1158.0211524391075 357.0201090401964 C 1158.0211524391075 359.78153278935036 1155.7825761882614 362.0201090401964 1153.0211524391075 362.0201090401964 C 1150.2597286899536 362.0201090401964 1148.0211524391075 359.78153278935036 1148.0211524391075 357.0201090401964 C 1148.0211524391075 354.25868529104247 1150.2597286899536 352.0201090401964 1153.0211524391075 352.0201090401964 C 1155.7825761882614 352.0201090401964 1158.0211524391075 354.25868529104247 1158.0211524391075 357.0201090401964 Z" stroke-opacity="1" stroke-linecap="round" stroke-linejoin="round" stroke-miterlimit="10"/><text fill="none" stroke="rgb(255,255,255)" font-family="geogebra-sans-serif, sans-serif" font-size="16px" font-style="normal" font-weight="normal" text-decoration="normal" x="1157" y="347" text-anchor="start" dominant-baseline="alphabetic" stroke-opacity="1" stroke-linecap="round" stroke-linejoin="bevel" stroke-miterlimit="10" stroke-width="3">I</text><text fill="rgb(21,101,192)" stroke="none" font-family="geogebra-sans-serif, sans-serif" font-size="16px" font-style="normal" font-weight="normal" text-decoration="normal" x="1157" y="347" text-anchor="start" dominant-baseline="alphabetic" fill-opacity="1">I</text><path fill="rgb(21,101,192)" stroke="none" paint-order="stroke fill markers" d=" M 875.5692217970129 357.0201090401964 C 875.5692217970129 359.78153278935036 873.3306455461669 362.0201090401964 870.5692217970129 362.0201090401964 C 867.8077980478589 362.0201090401964 865.5692217970129 359.78153278935036 865.5692217970129 357.0201090401964 C 865.5692217970129 354.25868529104247 867.8077980478589 352.0201090401964 870.5692217970129 352.0201090401964 C 873.3306455461669 352.0201090401964 875.5692217970129 354.25868529104247 875.5692217970129 357.0201090401964 Z" fill-opacity="1"/><path fill="none" stroke="rgb(0,0,0)" paint-order="fill stroke markers" d=" M 875.5692217970129 357.0201090401964 C 875.5692217970129 359.78153278935036 873.3306455461669 362.0201090401964 870.5692217970129 362.0201090401964 C 867.8077980478589 362.0201090401964 865.5692217970129 359.78153278935036 865.5692217970129 357.0201090401964 C 865.5692217970129 354.25868529104247 867.8077980478589 352.0201090401964 870.5692217970129 352.0201090401964 C 873.3306455461669 352.0201090401964 875.5692217970129 354.25868529104247 875.5692217970129 357.0201090401964 Z" stroke-opacity="1" stroke-linecap="round" stroke-linejoin="round" stroke-miterlimit="10"/><text fill="none" stroke="rgb(255,255,255)" font-family="geogebra-sans-serif, sans-serif" font-size="16px" font-style="normal" font-weight="normal" text-decoration="normal" x="875" y="347" text-anchor="start" dominant-baseline="alphabetic" stroke-opacity="1" stroke-linecap="round" stroke-linejoin="bevel" stroke-miterlimit="10" stroke-width="3">J</text><text fill="rgb(21,101,192)" stroke="none" font-family="geogebra-sans-serif, sans-serif" font-size="16px" font-style="normal" font-weight="normal" text-decoration="normal" x="875" y="347" text-anchor="start" dominant-baseline="alphabetic" fill-opacity="1">J</text><path fill="rgb(21,101,192)" stroke="none" paint-order="stroke fill markers" d=" M 969.7198653443777 357.0201090401964 C 969.7198653443777 359.78153278935036 967.4812890935317 362.0201090401964 964.7198653443777 362.0201090401964 C 961.9584415952237 362.0201090401964 959.7198653443777 359.78153278935036 959.7198653443777 357.0201090401964 C 959.7198653443777 354.25868529104247 961.9584415952237 352.0201090401964 964.7198653443777 352.0201090401964 C 967.4812890935317 352.0201090401964 969.7198653443777 354.25868529104247 969.7198653443777 357.0201090401964 Z" fill-opacity="1"/><path fill="none" stroke="rgb(0,0,0)" paint-order="fill stroke markers" d=" M 969.7198653443777 357.0201090401964 C 969.7198653443777 359.78153278935036 967.4812890935317 362.0201090401964 964.7198653443777 362.0201090401964 C 961.9584415952237 362.0201090401964 959.7198653443777 359.78153278935036 959.7198653443777 357.0201090401964 C 959.7198653443777 354.25868529104247 961.9584415952237 352.0201090401964 964.7198653443777 352.0201090401964 C 967.4812890935317 352.0201090401964 969.7198653443777 354.25868529104247 969.7198653443777 357.0201090401964 Z" stroke-opacity="1" stroke-linecap="round" stroke-linejoin="round" stroke-miterlimit="10"/><text fill="none" stroke="rgb(255,255,255)" font-family="geogebra-sans-serif, sans-serif" font-size="16px" font-style="normal" font-weight="normal" text-decoration="normal" x="969" y="347" text-anchor="start" dominant-baseline="alphabetic" stroke-opacity="1" stroke-linecap="round" stroke-linejoin="bevel" stroke-miterlimit="10" stroke-width="3">K</text><text fill="rgb(21,101,192)" stroke="none" font-family="geogebra-sans-serif, sans-serif" font-size="16px" font-style="normal" font-weight="normal" text-decoration="normal" x="969" y="347" text-anchor="start" dominant-baseline="alphabetic" fill-opacity="1">K</text><path fill="rgb(21,101,192)" stroke="none" paint-order="stroke fill markers" d=" M 1346.322439533837 357.0201090401964 C 1346.322439533837 359.78153278935036 1344.083863282991 362.0201090401964 1341.322439533837 362.0201090401964 C 1338.5610157846831 362.0201090401964 1336.322439533837 359.78153278935036 1336.322439533837 357.0201090401964 C 1336.322439533837 354.25868529104247 1338.5610157846831 352.0201090401964 1341.322439533837 352.0201090401964 C 1344.083863282991 352.0201090401964 1346.322439533837 354.25868529104247 1346.322439533837 357.0201090401964 Z" fill-opacity="1"/><path fill="none" stroke="rgb(0,0,0)" paint-order="fill stroke markers" d=" M 1346.322439533837 357.0201090401964 C 1346.322439533837 359.78153278935036 1344.083863282991 362.0201090401964 1341.322439533837 362.0201090401964 C 1338.5610157846831 362.0201090401964 1336.322439533837 359.78153278935036 1336.322439533837 357.0201090401964 C 1336.322439533837 354.25868529104247 1338.5610157846831 352.0201090401964 1341.322439533837 352.0201090401964 C 1344.083863282991 352.0201090401964 1346.322439533837 354.25868529104247 1346.322439533837 357.0201090401964 Z" stroke-opacity="1" stroke-linecap="round" stroke-linejoin="round" stroke-miterlimit="10"/><text fill="none" stroke="rgb(255,255,255)" font-family="geogebra-sans-serif, sans-serif" font-size="16px" font-style="normal" font-weight="normal" text-decoration="normal" x="1345" y="347" text-anchor="start" dominant-baseline="alphabetic" stroke-opacity="1" stroke-linecap="round" stroke-linejoin="bevel" stroke-miterlimit="10" stroke-width="3">L</text><text fill="rgb(21,101,192)" stroke="none" font-family="geogebra-sans-serif, sans-serif" font-size="16px" font-style="normal" font-weight="normal" text-decoration="normal" x="1345" y="347" text-anchor="start" dominant-baseline="alphabetic" fill-opacity="1">L</text><path fill="rgb(21,101,192)" stroke="none" paint-order="stroke fill markers" d=" M 1252.1717959864723 357.0201090401964 C 1252.1717959864723 359.78153278935036 1249.9332197356262 362.0201090401964 1247.1717959864723 362.0201090401964 C 1244.4103722373184 362.0201090401964 1242.1717959864723 359.78153278935036 1242.1717959864723 357.0201090401964 C 1242.1717959864723 354.25868529104247 1244.4103722373184 352.0201090401964 1247.1717959864723 352.0201090401964 C 1249.9332197356262 352.0201090401964 1252.1717959864723 354.25868529104247 1252.1717959864723 357.0201090401964 Z" fill-opacity="1"/><path fill="none" stroke="rgb(0,0,0)" paint-order="fill stroke markers" d=" M 1252.1717959864723 357.0201090401964 C 1252.1717959864723 359.78153278935036 1249.9332197356262 362.0201090401964 1247.1717959864723 362.0201090401964 C 1244.4103722373184 362.0201090401964 1242.1717959864723 359.78153278935036 1242.1717959864723 357.0201090401964 C 1242.1717959864723 354.25868529104247 1244.4103722373184 352.0201090401964 1247.1717959864723 352.0201090401964 C 1249.9332197356262 352.0201090401964 1252.1717959864723 354.25868529104247 1252.1717959864723 357.0201090401964 Z" stroke-opacity="1" stroke-linecap="round" stroke-linejoin="round" stroke-miterlimit="10"/><text fill="none" stroke="rgb(255,255,255)" font-family="geogebra-sans-serif, sans-serif" font-size="16px" font-style="normal" font-weight="normal" text-decoration="normal" x="1251" y="347" text-anchor="start" dominant-baseline="alphabetic" stroke-opacity="1" stroke-linecap="round" stroke-linejoin="bevel" stroke-miterlimit="10" stroke-width="3">M</text><text fill="rgb(21,101,192)" stroke="none" font-family="geogebra-sans-serif, sans-serif" font-size="16px" font-style="normal" font-weight="normal" text-decoration="normal" x="1251" y="347" text-anchor="start" dominant-baseline="alphabetic" fill-opacity="1">M</text><path fill="rgb(21,101,192)" stroke="none" paint-order="stroke fill markers" d=" M 1440.4730830812018 357.0201090401964 C 1440.4730830812018 359.78153278935036 1438.2345068303557 362.0201090401964 1435.4730830812018 362.0201090401964 C 1432.711659332048 362.0201090401964 1430.4730830812018 359.78153278935036 1430.4730830812018 357.0201090401964 C 1430.4730830812018 354.25868529104247 1432.711659332048 352.0201090401964 1435.4730830812018 352.0201090401964 C 1438.2345068303557 352.0201090401964 1440.4730830812018 354.25868529104247 1440.4730830812018 357.0201090401964 Z" fill-opacity="1"/><path fill="none" stroke="rgb(0,0,0)" paint-order="fill stroke markers" d=" M 1440.4730830812018 357.0201090401964 C 1440.4730830812018 359.78153278935036 1438.2345068303557 362.0201090401964 1435.4730830812018 362.0201090401964 C 1432.711659332048 362.0201090401964 1430.4730830812018 359.78153278935036 1430.4730830812018 357.0201090401964 C 1430.4730830812018 354.25868529104247 1432.711659332048 352.0201090401964 1435.4730830812018 352.0201090401964 C 1438.2345068303557 352.0201090401964 1440.4730830812018 354.25868529104247 1440.4730830812018 357.0201090401964 Z" stroke-opacity="1" stroke-linecap="round" stroke-linejoin="round" stroke-miterlimit="10"/><text fill="none" stroke="rgb(255,255,255)" font-family="geogebra-sans-serif, sans-serif" font-size="16px" font-style="normal" font-weight="normal" text-decoration="normal" x="1439" y="347" text-anchor="start" dominant-baseline="alphabetic" stroke-opacity="1" stroke-linecap="round" stroke-linejoin="bevel" stroke-miterlimit="10" stroke-width="3">N</text><text fill="rgb(21,101,192)" stroke="none" font-family="geogebra-sans-serif, sans-serif" font-size="16px" font-style="normal" font-weight="normal" text-decoration="normal" x="1439" y="347" text-anchor="start" dominant-baseline="alphabetic" fill-opacity="1">N</text><g transform="scale(19,19)"><g transform="translate(24.42105263157895,27.87823789473684)"><path fill="rgb(0,0,0)" stroke="none" paint-order="stroke fill markers" d=" M 0.17200000000000001 -0.078 Q 0.17200000000000001 -0.047 0.184 -0.04 L 0.184 -0.04 L 0.185 -0.039 Q 0.199 -0.031 0.248 -0.031 L 0.269 -0.031 L 0.269 0 Q 0.229 -0.003 0.14200000000000002 -0.003 Q 0.145 -0.003 0.028 0 L 0.028 -0.031 Q 0.08700000000000001 -0.031 0.097 -0.04 L 0.099 -0.042 Q 0.106 -0.05 0.106 -0.076 L 0.106 -0.34400000000000003 Q 0.106 -0.383 0.091 -0.392 Q 0.079 -0.399 0.048 -0.4 L 0.028 -0.4 L 0.028 -0.431 L 0.167 -0.442 L 0.167 -0.332 Q 0.194 -0.41600000000000004 0.256 -0.437 Q 0.272 -0.442 0.29 -0.442 Q 0.337 -0.442 0.357 -0.40700000000000003 Q 0.364 -0.395 0.364 -0.381 Q 0.364 -0.34600000000000003 0.331 -0.338 Q 0.326 -0.337 0.321 -0.337 Q 0.29 -0.337 0.281 -0.364 Q 0.278 -0.371 0.278 -0.38 Q 0.278 -0.40700000000000003 0.301 -0.419 Q 0.299 -0.42 0.29 -0.42 Q 0.223 -0.42 0.191 -0.338 Q 0.17200000000000001 -0.291 0.17200000000000001 -0.232 L 0.17200000000000001 -0.078 Z"/></g><g transform="translate(24.812720631578948,27.87823789473684)"><path fill="rgb(0,0,0)" stroke="none" paint-order="stroke fill markers" d=" M 0.47100000000000003 -0.214 L 0.47100000000000003 -0.214 Q 0.47100000000000003 -0.111 0.395 -0.044 Q 0.332 0.011 0.249 0.011 Q 0.153 0.011 0.08700000000000001 -0.061 Q 0.028 -0.126 0.028 -0.214 Q 0.028 -0.316 0.101 -0.386 Q 0.164 -0.448 0.25 -0.448 Q 0.34700000000000003 -0.448 0.41300000000000003 -0.371 Q 0.47100000000000003 -0.304 0.47100000000000003 -0.214 M 0.25 -0.014 L 0.25 -0.014 Q 0.317 -0.014 0.356 -0.07 L 0.366 -0.088 Q 0.388 -0.132 0.388 -0.222 Q 0.388 -0.318 0.362 -0.361 Q 0.319 -0.423 0.249 -0.426 Q 0.187 -0.426 0.147 -0.376 Q 0.14 -0.368 0.135 -0.359 Q 0.111 -0.315 0.111 -0.222 Q 0.111 -0.125 0.136 -0.081 Q 0.178 -0.016 0.25 -0.014 Z"/></g><g transform="translate(25.340501631578945,27.87823789473684)"><path fill="rgb(0,0,0)" stroke="none" paint-order="stroke fill markers" d=" M 0.47100000000000003 -0.214 L 0.47100000000000003 -0.214 Q 0.47100000000000003 -0.111 0.395 -0.044 Q 0.332 0.011 0.249 0.011 Q 0.153 0.011 0.08700000000000001 -0.061 Q 0.028 -0.126 0.028 -0.214 Q 0.028 -0.316 0.101 -0.386 Q 0.164 -0.448 0.25 -0.448 Q 0.34700000000000003 -0.448 0.41300000000000003 -0.371 Q 0.47100000000000003 -0.304 0.47100000000000003 -0.214 M 0.25 -0.014 L 0.25 -0.014 Q 0.317 -0.014 0.356 -0.07 L 0.366 -0.088 Q 0.388 -0.132 0.388 -0.222 Q 0.388 -0.318 0.362 -0.361 Q 0.319 -0.423 0.249 -0.426 Q 0.187 -0.426 0.147 -0.376 Q 0.14 -0.368 0.135 -0.359 Q 0.111 -0.315 0.111 -0.222 Q 0.111 -0.125 0.136 -0.081 Q 0.178 -0.016 0.25 -0.014 Z"/></g><g transform="translate(25.840503631578944,27.87823789473684)"><path fill="rgb(0,0,0)" stroke="none" paint-order="stroke fill markers" d=" M 0.17300000000000001 -0.4 L 0.17300000000000001 -0.4 L 0.17300000000000001 -0.122 Q 0.17300000000000001 -0.022 0.231 -0.015 Q 0.23500000000000001 -0.014 0.24 -0.014 Q 0.28300000000000003 -0.014 0.3 -0.07 Q 0.307 -0.094 0.307 -0.126 L 0.307 -0.181 L 0.332 -0.181 L 0.332 -0.124 Q 0.332 -0.042 0.28600000000000003 -0.006 Q 0.264 0.011 0.233 0.011 Q 0.149 0.011 0.11800000000000001 -0.052000000000000005 Q 0.10400000000000001 -0.082 0.10400000000000001 -0.124 L 0.10400000000000001 -0.4 L 0.019 -0.4 L 0.019 -0.422 Q 0.108 -0.426 0.137 -0.534 Q 0.147 -0.5720000000000001 0.148 -0.615 L 0.17300000000000001 -0.615 L 0.17300000000000001 -0.431 L 0.316 -0.431 L 0.316 -0.4 L 0.17300000000000001 -0.4 Z"/></g></g></g></g></svg>