<svg version="1.1" xmlns="http://www.w3.org/2000/svg" xmlns:xlink="http://www.w3.org/1999/xlink" width="1220" height="838"><defs><clipPath id="lQWEyKrQToDC"><path fill="none" stroke="none" d=" M 0 0 L 1220 0 L 1220 838 L 0 838 L 0 0 Z"/></clipPath></defs><g transform="scale(1,1)" clip-path="url(#lQWEyKrQToDC)"><g><rect fill="rgb(255,255,255)" stroke="none" x="0" y="0" width="1220" height="838" fill-opacity="1"/><path fill="none" stroke="rgb(192,192,192)" paint-order="fill stroke markers" d=" M 42.5 0.5 L 42.5 838.5 M 42.5 0.5 L 42.5 838.5 M 117.5 0.5 L 117.5 838.5 M 267.5 0.5 L 267.5 838.5 M 342.5 0.5 L 342.5 838.5 M 417.5 0.5 L 417.5 838.5 M 492.5 0.5 L 492.5 838.5 M 567.5 0.5 L 567.5 838.5 M 642.5 0.5 L 642.5 838.5 M 717.5 0.5 L 717.5 838.5 M 792.5 0.5 L 792.5 838.5 M 867.5 0.5 L 867.5 838.5 M 942.5 0.5 L 942.5 838.5 M 1017.5 0.5 L 1017.5 838.5 M 1092.5 0.5 L 1092.5 838.5 M 1167.5 0.5 L 1167.5 838.5" stroke-opacity="1" stroke-linecap="round" stroke-linejoin="round" stroke-miterlimit="10"/><path fill="none" stroke="rgb(192,192,192)" paint-order="fill stroke markers" d="" stroke-opacity="0.23529411764705882" stroke-linecap="round" stroke-linejoin="round" stroke-miterlimit="10"/><path fill="none" stroke="rgb(192,192,192)" paint-order="fill stroke markers" d=" M 0.5 36.5 L 1220.5 36.5 M 0.5 36.5 L 1220.5 36.5 M 0.5 111.5 L 1220.5 111.5 M 0.5 186.5 L 1220.5 186.5 M 0.5 261.5 L 1220.5 261.5 M 0.5 336.5 L 1220.5 336.5 M 0.5 411.5 L 1220.5 411.5 M 0.5 486.5 L 1220.5 486.5 M 0.5 561.5 L 1220.5 561.5 M 0.5 636.5 L 1220.5 636.5 M 0.5 711.5 L 1220.5 711.5" stroke-opacity="1" stroke-linecap="round" stroke-linejoin="round" stroke-miterlimit="10"/><path fill="none" stroke="rgb(192,192,192)" paint-order="fill stroke markers" d="" stroke-opacity="0.23529411764705882" stroke-linecap="round" stroke-linejoin="round" stroke-miterlimit="10"/><path fill="none" stroke="rgb(0,0,0)" paint-order="fill stroke markers" d=" M 192.5 2.5 L 192.5 838.5" stroke-opacity="1" stroke-miterlimit="10"/><path fill="none" stroke="rgb(0,0,0)" paint-order="fill stroke markers" d=" M 192.5 1.5 L 188.5 5.5" stroke-opacity="1" stroke-miterlimit="10"/><path fill="none" stroke="rgb(0,0,0)" paint-order="fill stroke markers" d=" M 192.5 1.5 L 196.5 5.5" stroke-opacity="1" stroke-miterlimit="10"/><path fill="none" stroke="rgb(0,0,0)" paint-order="fill stroke markers" d=" M 0.5 786.5 L 1218.5 786.5" stroke-opacity="1" stroke-miterlimit="10"/><path fill="none" stroke="rgb(0,0,0)" paint-order="fill stroke markers" d=" M 1219.5 786.5 L 1215.5 782.5" stroke-opacity="1" stroke-miterlimit="10"/><path fill="none" stroke="rgb(0,0,0)" paint-order="fill stroke markers" d=" M 1219.5 786.5 L 1215.5 790.5" stroke-opacity="1" stroke-miterlimit="10"/><text fill="none" stroke="rgb(255,255,255)" font-family="geogebra-sans-serif, sans-serif" font-size="12px" font-style="normal" font-weight="normal" text-decoration="normal" x="37" y="802" text-anchor="start" dominant-baseline="alphabetic" stroke-opacity="1" stroke-linejoin="bevel" stroke-miterlimit="10" stroke-width="3">–2</text><text fill="rgb(0,0,0)" stroke="none" font-family="geogebra-sans-serif, sans-serif" font-size="12px" font-style="normal" font-weight="normal" text-decoration="normal" x="37" y="802" text-anchor="start" dominant-baseline="alphabetic" fill-opacity="1">–2</text><text fill="none" stroke="rgb(255,255,255)" font-family="geogebra-sans-serif, sans-serif" font-size="12px" font-style="normal" font-weight="normal" text-decoration="normal" x="112" y="802" text-anchor="start" dominant-baseline="alphabetic" stroke-opacity="1" stroke-linejoin="bevel" stroke-miterlimit="10" stroke-width="3">–1</text><text fill="rgb(0,0,0)" stroke="none" font-family="geogebra-sans-serif, sans-serif" font-size="12px" font-style="normal" font-weight="normal" text-decoration="normal" x="112" y="802" text-anchor="start" dominant-baseline="alphabetic" fill-opacity="1">–1</text><text fill="none" stroke="rgb(255,255,255)" font-family="geogebra-sans-serif, sans-serif" font-size="12px" font-style="normal" font-weight="normal" text-decoration="normal" x="265" y="802" text-anchor="start" dominant-baseline="alphabetic" stroke-opacity="1" stroke-linejoin="bevel" stroke-miterlimit="10" stroke-width="3">1</text><text fill="rgb(0,0,0)" stroke="none" font-family="geogebra-sans-serif, sans-serif" font-size="12px" font-style="normal" font-weight="normal" text-decoration="normal" x="265" y="802" text-anchor="start" dominant-baseline="alphabetic" fill-opacity="1">1</text><text fill="none" stroke="rgb(255,255,255)" font-family="geogebra-sans-serif, sans-serif" font-size="12px" font-style="normal" font-weight="normal" text-decoration="normal" x="340" y="802" text-anchor="start" dominant-baseline="alphabetic" stroke-opacity="1" stroke-linejoin="bevel" stroke-miterlimit="10" stroke-width="3">2</text><text fill="rgb(0,0,0)" stroke="none" font-family="geogebra-sans-serif, sans-serif" font-size="12px" font-style="normal" font-weight="normal" text-decoration="normal" x="340" y="802" text-anchor="start" dominant-baseline="alphabetic" fill-opacity="1">2</text><text fill="none" stroke="rgb(255,255,255)" font-family="geogebra-sans-serif, sans-serif" font-size="12px" font-style="normal" font-weight="normal" text-decoration="normal" x="415" y="802" text-anchor="start" dominant-baseline="alphabetic" stroke-opacity="1" stroke-linejoin="bevel" stroke-miterlimit="10" stroke-width="3">3</text><text fill="rgb(0,0,0)" stroke="none" font-family="geogebra-sans-serif, sans-serif" font-size="12px" font-style="normal" font-weight="normal" text-decoration="normal" x="415" y="802" text-anchor="start" dominant-baseline="alphabetic" fill-opacity="1">3</text><text fill="none" stroke="rgb(255,255,255)" font-family="geogebra-sans-serif, sans-serif" font-size="12px" font-style="normal" font-weight="normal" text-decoration="normal" x="490" y="802" text-anchor="start" dominant-baseline="alphabetic" stroke-opacity="1" stroke-linejoin="bevel" stroke-miterlimit="10" stroke-width="3">4</text><text fill="rgb(0,0,0)" stroke="none" font-family="geogebra-sans-serif, sans-serif" font-size="12px" font-style="normal" font-weight="normal" text-decoration="normal" x="490" y="802" text-anchor="start" dominant-baseline="alphabetic" fill-opacity="1">4</text><text fill="none" stroke="rgb(255,255,255)" font-family="geogebra-sans-serif, sans-serif" font-size="12px" font-style="normal" font-weight="normal" text-decoration="normal" x="565" y="802" text-anchor="start" dominant-baseline="alphabetic" stroke-opacity="1" stroke-linejoin="bevel" stroke-miterlimit="10" stroke-width="3">5</text><text fill="rgb(0,0,0)" stroke="none" font-family="geogebra-sans-serif, sans-serif" font-size="12px" font-style="normal" font-weight="normal" text-decoration="normal" x="565" y="802" text-anchor="start" dominant-baseline="alphabetic" fill-opacity="1">5</text><text fill="none" stroke="rgb(255,255,255)" font-family="geogebra-sans-serif, sans-serif" font-size="12px" font-style="normal" font-weight="normal" text-decoration="normal" x="640" y="802" text-anchor="start" dominant-baseline="alphabetic" stroke-opacity="1" stroke-linejoin="bevel" stroke-miterlimit="10" stroke-width="3">6</text><text fill="rgb(0,0,0)" stroke="none" font-family="geogebra-sans-serif, sans-serif" font-size="12px" font-style="normal" font-weight="normal" text-decoration="normal" x="640" y="802" text-anchor="start" dominant-baseline="alphabetic" fill-opacity="1">6</text><text fill="none" stroke="rgb(255,255,255)" font-family="geogebra-sans-serif, sans-serif" font-size="12px" font-style="normal" font-weight="normal" text-decoration="normal" x="715" y="802" text-anchor="start" dominant-baseline="alphabetic" stroke-opacity="1" stroke-linejoin="bevel" stroke-miterlimit="10" stroke-width="3">7</text><text fill="rgb(0,0,0)" stroke="none" font-family="geogebra-sans-serif, sans-serif" font-size="12px" font-style="normal" font-weight="normal" text-decoration="normal" x="715" y="802" text-anchor="start" dominant-baseline="alphabetic" fill-opacity="1">7</text><text fill="none" stroke="rgb(255,255,255)" font-family="geogebra-sans-serif, sans-serif" font-size="12px" font-style="normal" font-weight="normal" text-decoration="normal" x="790" y="802" text-anchor="start" dominant-baseline="alphabetic" stroke-opacity="1" stroke-linejoin="bevel" stroke-miterlimit="10" stroke-width="3">8</text><text fill="rgb(0,0,0)" stroke="none" font-family="geogebra-sans-serif, sans-serif" font-size="12px" font-style="normal" font-weight="normal" text-decoration="normal" x="790" y="802" text-anchor="start" dominant-baseline="alphabetic" fill-opacity="1">8</text><text fill="none" stroke="rgb(255,255,255)" font-family="geogebra-sans-serif, sans-serif" font-size="12px" font-style="normal" font-weight="normal" text-decoration="normal" x="865" y="802" text-anchor="start" dominant-baseline="alphabetic" stroke-opacity="1" stroke-linejoin="bevel" stroke-miterlimit="10" stroke-width="3">9</text><text fill="rgb(0,0,0)" stroke="none" font-family="geogebra-sans-serif, sans-serif" font-size="12px" font-style="normal" font-weight="normal" text-decoration="normal" x="865" y="802" text-anchor="start" dominant-baseline="alphabetic" fill-opacity="1">9</text><text fill="none" stroke="rgb(255,255,255)" font-family="geogebra-sans-serif, sans-serif" font-size="12px" font-style="normal" font-weight="normal" text-decoration="normal" x="937" y="802" text-anchor="start" dominant-baseline="alphabetic" stroke-opacity="1" stroke-linejoin="bevel" stroke-miterlimit="10" stroke-width="3">10</text><text fill="rgb(0,0,0)" stroke="none" font-family="geogebra-sans-serif, sans-serif" font-size="12px" font-style="normal" font-weight="normal" text-decoration="normal" x="937" y="802" text-anchor="start" dominant-baseline="alphabetic" fill-opacity="1">10</text><text fill="none" stroke="rgb(255,255,255)" font-family="geogebra-sans-serif, sans-serif" font-size="12px" font-style="normal" font-weight="normal" text-decoration="normal" x="1012" y="802" text-anchor="start" dominant-baseline="alphabetic" stroke-opacity="1" stroke-linejoin="bevel" stroke-miterlimit="10" stroke-width="3">11</text><text fill="rgb(0,0,0)" stroke="none" font-family="geogebra-sans-serif, sans-serif" font-size="12px" font-style="normal" font-weight="normal" text-decoration="normal" x="1012" y="802" text-anchor="start" dominant-baseline="alphabetic" fill-opacity="1">11</text><text fill="none" stroke="rgb(255,255,255)" font-family="geogebra-sans-serif, sans-serif" font-size="12px" font-style="normal" font-weight="normal" text-decoration="normal" x="1087" y="802" text-anchor="start" dominant-baseline="alphabetic" stroke-opacity="1" stroke-linejoin="bevel" stroke-miterlimit="10" stroke-width="3">12</text><text fill="rgb(0,0,0)" stroke="none" font-family="geogebra-sans-serif, sans-serif" font-size="12px" font-style="normal" font-weight="normal" text-decoration="normal" x="1087" y="802" text-anchor="start" dominant-baseline="alphabetic" fill-opacity="1">12</text><text fill="none" stroke="rgb(255,255,255)" font-family="geogebra-sans-serif, sans-serif" font-size="12px" font-style="normal" font-weight="normal" text-decoration="normal" x="1162" y="802" text-anchor="start" dominant-baseline="alphabetic" stroke-opacity="1" stroke-linejoin="bevel" stroke-miterlimit="10" stroke-width="3">13</text><text fill="rgb(0,0,0)" stroke="none" font-family="geogebra-sans-serif, sans-serif" font-size="12px" font-style="normal" font-weight="normal" text-decoration="normal" x="1162" y="802" text-anchor="start" dominant-baseline="alphabetic" fill-opacity="1">13</text><text fill="none" stroke="rgb(255,255,255)" font-family="geogebra-sans-serif, sans-serif" font-size="12px" font-style="normal" font-weight="normal" text-decoration="normal" x="178" y="716" text-anchor="start" dominant-baseline="alphabetic" stroke-opacity="1" stroke-linejoin="bevel" stroke-miterlimit="10" stroke-width="3">1</text><text fill="rgb(0,0,0)" stroke="none" font-family="geogebra-sans-serif, sans-serif" font-size="12px" font-style="normal" font-weight="normal" text-decoration="normal" x="178" y="716" text-anchor="start" dominant-baseline="alphabetic" fill-opacity="1">1</text><text fill="none" stroke="rgb(255,255,255)" font-family="geogebra-sans-serif, sans-serif" font-size="12px" font-style="normal" font-weight="normal" text-decoration="normal" x="178" y="641" text-anchor="start" dominant-baseline="alphabetic" stroke-opacity="1" stroke-linejoin="bevel" stroke-miterlimit="10" stroke-width="3">2</text><text fill="rgb(0,0,0)" stroke="none" font-family="geogebra-sans-serif, sans-serif" font-size="12px" font-style="normal" font-weight="normal" text-decoration="normal" x="178" y="641" text-anchor="start" dominant-baseline="alphabetic" fill-opacity="1">2</text><text fill="none" stroke="rgb(255,255,255)" font-family="geogebra-sans-serif, sans-serif" font-size="12px" font-style="normal" font-weight="normal" text-decoration="normal" x="178" y="566" text-anchor="start" dominant-baseline="alphabetic" stroke-opacity="1" stroke-linejoin="bevel" stroke-miterlimit="10" stroke-width="3">3</text><text fill="rgb(0,0,0)" stroke="none" font-family="geogebra-sans-serif, sans-serif" font-size="12px" font-style="normal" font-weight="normal" text-decoration="normal" x="178" y="566" text-anchor="start" dominant-baseline="alphabetic" fill-opacity="1">3</text><text fill="none" stroke="rgb(255,255,255)" font-family="geogebra-sans-serif, sans-serif" font-size="12px" font-style="normal" font-weight="normal" text-decoration="normal" x="178" y="491" text-anchor="start" dominant-baseline="alphabetic" stroke-opacity="1" stroke-linejoin="bevel" stroke-miterlimit="10" stroke-width="3">4</text><text fill="rgb(0,0,0)" stroke="none" font-family="geogebra-sans-serif, sans-serif" font-size="12px" font-style="normal" font-weight="normal" text-decoration="normal" x="178" y="491" text-anchor="start" dominant-baseline="alphabetic" fill-opacity="1">4</text><text fill="none" stroke="rgb(255,255,255)" font-family="geogebra-sans-serif, sans-serif" font-size="12px" font-style="normal" font-weight="normal" text-decoration="normal" x="178" y="416" text-anchor="start" dominant-baseline="alphabetic" stroke-opacity="1" stroke-linejoin="bevel" stroke-miterlimit="10" stroke-width="3">5</text><text fill="rgb(0,0,0)" stroke="none" font-family="geogebra-sans-serif, sans-serif" font-size="12px" font-style="normal" font-weight="normal" text-decoration="normal" x="178" y="416" text-anchor="start" dominant-baseline="alphabetic" fill-opacity="1">5</text><text fill="none" stroke="rgb(255,255,255)" font-family="geogebra-sans-serif, sans-serif" font-size="12px" font-style="normal" font-weight="normal" text-decoration="normal" x="178" y="341" text-anchor="start" dominant-baseline="alphabetic" stroke-opacity="1" stroke-linejoin="bevel" stroke-miterlimit="10" stroke-width="3">6</text><text fill="rgb(0,0,0)" stroke="none" font-family="geogebra-sans-serif, sans-serif" font-size="12px" font-style="normal" font-weight="normal" text-decoration="normal" x="178" y="341" text-anchor="start" dominant-baseline="alphabetic" fill-opacity="1">6</text><text fill="none" stroke="rgb(255,255,255)" font-family="geogebra-sans-serif, sans-serif" font-size="12px" font-style="normal" font-weight="normal" text-decoration="normal" x="178" y="266" text-anchor="start" dominant-baseline="alphabetic" stroke-opacity="1" stroke-linejoin="bevel" stroke-miterlimit="10" stroke-width="3">7</text><text fill="rgb(0,0,0)" stroke="none" font-family="geogebra-sans-serif, sans-serif" font-size="12px" font-style="normal" font-weight="normal" text-decoration="normal" x="178" y="266" text-anchor="start" dominant-baseline="alphabetic" fill-opacity="1">7</text><text fill="none" stroke="rgb(255,255,255)" font-family="geogebra-sans-serif, sans-serif" font-size="12px" font-style="normal" font-weight="normal" text-decoration="normal" x="178" y="191" text-anchor="start" dominant-baseline="alphabetic" stroke-opacity="1" stroke-linejoin="bevel" stroke-miterlimit="10" stroke-width="3">8</text><text fill="rgb(0,0,0)" stroke="none" font-family="geogebra-sans-serif, sans-serif" font-size="12px" font-style="normal" font-weight="normal" text-decoration="normal" x="178" y="191" text-anchor="start" dominant-baseline="alphabetic" fill-opacity="1">8</text><text fill="none" stroke="rgb(255,255,255)" font-family="geogebra-sans-serif, sans-serif" font-size="12px" font-style="normal" font-weight="normal" text-decoration="normal" x="178" y="116" text-anchor="start" dominant-baseline="alphabetic" stroke-opacity="1" stroke-linejoin="bevel" stroke-miterlimit="10" stroke-width="3">9</text><text fill="rgb(0,0,0)" stroke="none" font-family="geogebra-sans-serif, sans-serif" font-size="12px" font-style="normal" font-weight="normal" text-decoration="normal" x="178" y="116" text-anchor="start" dominant-baseline="alphabetic" fill-opacity="1">9</text><text fill="none" stroke="rgb(255,255,255)" font-family="geogebra-sans-serif, sans-serif" font-size="12px" font-style="normal" font-weight="normal" text-decoration="normal" x="171" y="41" text-anchor="start" dominant-baseline="alphabetic" stroke-opacity="1" stroke-linejoin="bevel" stroke-miterlimit="10" stroke-width="3">10</text><text fill="rgb(0,0,0)" stroke="none" font-family="geogebra-sans-serif, sans-serif" font-size="12px" font-style="normal" font-weight="normal" text-decoration="normal" x="171" y="41" text-anchor="start" dominant-baseline="alphabetic" fill-opacity="1">10</text><text fill="none" stroke="rgb(255,255,255)" font-family="geogebra-sans-serif, sans-serif" font-size="12px" font-style="normal" font-weight="normal" text-decoration="normal" x="178" y="802" text-anchor="start" dominant-baseline="alphabetic" stroke-opacity="1" stroke-linejoin="bevel" stroke-miterlimit="10" stroke-width="3">0</text><text fill="rgb(0,0,0)" stroke="none" font-family="geogebra-sans-serif, sans-serif" font-size="12px" font-style="normal" font-weight="normal" text-decoration="normal" x="178" y="802" text-anchor="start" dominant-baseline="alphabetic" fill-opacity="1">0</text><path fill="none" stroke="rgb(211,47,47)" paint-order="fill stroke markers" d=" M 792.5999248685184 843 L 792.5999248685184 -5" stroke-opacity="0.8" stroke-linecap="round" stroke-linejoin="round" stroke-miterlimit="10" stroke-width="2.5"/><path fill="none" stroke="rgb(219,97,20)" paint-order="fill stroke markers" d=" M 267.5999248685197 486.87377911345 L 792.5999248685184 486.87377911345" stroke-opacity="0.8" stroke-linecap="round" stroke-linejoin="round" stroke-miterlimit="10" stroke-width="2.5"/><path fill="none" stroke="rgb(21,101,192)" paint-order="fill stroke markers" d=" M 567.599924868519 111.87377911345004 L 567.599924868519 486.87377911345" stroke-opacity="0.8" stroke-linecap="round" stroke-linejoin="round" stroke-miterlimit="10" stroke-width="2.5"/><path fill="none" stroke="rgb(21,101,192)" paint-order="fill stroke markers" d=" M 492.59992486851917 786.8737791134499 L 492.59992486851917 486.87377911345" stroke-opacity="0.8" stroke-linecap="round" stroke-linejoin="round" stroke-miterlimit="10" stroke-width="2.5"/><path fill="none" stroke="rgb(219,97,20)" paint-order="fill stroke markers" d=" M 792.5999248685184 561.8737791134499 L 1092.5999248685177 561.8737791134499" stroke-opacity="0.8" stroke-linecap="round" stroke-linejoin="round" stroke-miterlimit="10" stroke-width="2.5"/><path fill="none" stroke="rgb(21,101,192)" paint-order="fill stroke markers" d=" M 1017.599924868518 336.87377911345004 L 1017.599924868518 561.8737791134499" stroke-opacity="0.8" stroke-linecap="round" stroke-linejoin="round" stroke-miterlimit="10" stroke-width="2.5"/><path fill="none" stroke="rgb(21,101,192)" paint-order="fill stroke markers" d=" M 867.5999248685182 636.8737791134499 L 867.5999248685182 561.8737791134499" stroke-opacity="0.8" stroke-linecap="round" stroke-linejoin="round" stroke-miterlimit="10" stroke-width="2.5"/><path fill="none" stroke="rgb(255,102,0)" paint-order="fill stroke markers" d=" M 492.59992486851917 486.87377911345 L 0 486.87377911345" stroke-opacity="0.8" stroke-linecap="round" stroke-linejoin="round" stroke-miterlimit="10" stroke-width="2.5"/><path fill="none" stroke="rgb(255,102,0)" paint-order="fill stroke markers" d=" M 792.5999248685184 561.8737791134499 L 1220 561.8737791134499" stroke-opacity="0.8" stroke-linecap="round" stroke-linejoin="round" stroke-miterlimit="10" stroke-width="2.5"/><path fill="none" stroke="rgb(0,0,255)" paint-order="fill stroke markers" d=" M 567.599924868519 486.87377911345 L 567.599924868519 0" stroke-opacity="0.8" stroke-linecap="round" stroke-linejoin="round" stroke-miterlimit="10" stroke-width="2.5"/><path fill="none" stroke="rgb(0,0,255)" paint-order="fill stroke markers" d=" M 492.59992486851917 486.87377911345 L 492.59992486851917 838" stroke-opacity="0.8" stroke-linecap="round" stroke-linejoin="round" stroke-miterlimit="10" stroke-width="2.5"/><path fill="none" stroke="rgb(0,0,255)" paint-order="fill stroke markers" d=" M 1017.599924868518 561.8737791134499 L 1017.599924868518 0" stroke-opacity="0.8" stroke-linecap="round" stroke-linejoin="round" stroke-miterlimit="10" stroke-width="2.5"/><path fill="none" stroke="rgb(0,0,255)" paint-order="fill stroke markers" d=" M 867.5999248685182 561.8737791134499 L 867.5999248685182 838" stroke-opacity="0.8" stroke-linecap="round" stroke-linejoin="round" stroke-miterlimit="10" stroke-width="2.5"/><path fill="none" stroke="rgb(97,97,97)" paint-order="fill stroke markers" d=" M 192.59992486851985 36.87377911345004 L 1225 36.873779113450034" stroke-opacity="0.8" stroke-linecap="round" stroke-linejoin="round" stroke-miterlimit="10" stroke-width="2.5"/><path fill="none" stroke="rgb(97,97,97)" paint-order="fill stroke markers" d=" M 192.59992486851985 786.8737791134499 L 1225 786.8737791134498" stroke-opacity="0.8" stroke-linecap="round" stroke-linejoin="round" stroke-miterlimit="10" stroke-width="2.5"/><path fill="none" stroke="rgb(97,97,97)" paint-order="fill stroke markers" d=" M 192.59992486851985 786.8737791134499 L 192.59992486851985 36.87377911345004" stroke-opacity="0.8" stroke-linecap="round" stroke-linejoin="round" stroke-miterlimit="10" stroke-width="2.5"/><path fill="rgb(21,101,192)" stroke="none" paint-order="stroke fill markers" d=" M 347.5999248685195 561.8737791134499 C 347.5999248685195 564.6352028626039 345.36134861767346 566.8737791134499 342.5999248685195 566.8737791134499 C 339.83850111936556 566.8737791134499 337.5999248685195 564.6352028626039 337.5999248685195 561.8737791134499 C 337.5999248685195 559.1123553642959 339.83850111936556 556.8737791134499 342.5999248685195 556.8737791134499 C 345.36134861767346 556.8737791134499 347.5999248685195 559.1123553642959 347.5999248685195 561.8737791134499 Z" fill-opacity="1"/><path fill="none" stroke="rgb(0,0,0)" paint-order="fill stroke markers" d=" M 347.5999248685195 561.8737791134499 C 347.5999248685195 564.6352028626039 345.36134861767346 566.8737791134499 342.5999248685195 566.8737791134499 C 339.83850111936556 566.8737791134499 337.5999248685195 564.6352028626039 337.5999248685195 561.8737791134499 C 337.5999248685195 559.1123553642959 339.83850111936556 556.8737791134499 342.5999248685195 556.8737791134499 C 345.36134861767346 556.8737791134499 347.5999248685195 559.1123553642959 347.5999248685195 561.8737791134499 Z" stroke-opacity="1" stroke-linecap="round" stroke-linejoin="round" stroke-miterlimit="10"/><path fill="rgb(21,101,192)" stroke="none" paint-order="stroke fill markers" d=" M 797.5999248685184 411.87377911345 C 797.5999248685184 414.63520286260393 795.3613486176724 416.87377911345 792.5999248685184 416.87377911345 C 789.8385011193644 416.87377911345 787.5999248685184 414.63520286260393 787.5999248685184 411.87377911345 C 787.5999248685184 409.11235536429604 789.8385011193644 406.87377911345 792.5999248685184 406.87377911345 C 795.3613486176724 406.87377911345 797.5999248685184 409.11235536429604 797.5999248685184 411.87377911345 Z" fill-opacity="1"/><path fill="none" stroke="rgb(0,0,0)" paint-order="fill stroke markers" d=" M 797.5999248685184 411.87377911345 C 797.5999248685184 414.63520286260393 795.3613486176724 416.87377911345 792.5999248685184 416.87377911345 C 789.8385011193644 416.87377911345 787.5999248685184 414.63520286260393 787.5999248685184 411.87377911345 C 787.5999248685184 409.11235536429604 789.8385011193644 406.87377911345 792.5999248685184 406.87377911345 C 795.3613486176724 406.87377911345 797.5999248685184 409.11235536429604 797.5999248685184 411.87377911345 Z" stroke-opacity="1" stroke-linecap="round" stroke-linejoin="round" stroke-miterlimit="10"/><path fill="rgb(21,101,192)" stroke="none" paint-order="stroke fill markers" d=" M 572.599924868519 261.87377911345004 C 572.599924868519 264.635202862604 570.361348617673 266.87377911345004 567.599924868519 266.87377911345004 C 564.838501119365 266.87377911345004 562.599924868519 264.635202862604 562.599924868519 261.87377911345004 C 562.599924868519 259.1123553642961 564.838501119365 256.87377911345004 567.599924868519 256.87377911345004 C 570.361348617673 256.87377911345004 572.599924868519 259.1123553642961 572.599924868519 261.87377911345004 Z" fill-opacity="1"/><path fill="none" stroke="rgb(0,0,0)" paint-order="fill stroke markers" d=" M 572.599924868519 261.87377911345004 C 572.599924868519 264.635202862604 570.361348617673 266.87377911345004 567.599924868519 266.87377911345004 C 564.838501119365 266.87377911345004 562.599924868519 264.635202862604 562.599924868519 261.87377911345004 C 562.599924868519 259.1123553642961 564.838501119365 256.87377911345004 567.599924868519 256.87377911345004 C 570.361348617673 256.87377911345004 572.599924868519 259.1123553642961 572.599924868519 261.87377911345004 Z" stroke-opacity="1" stroke-linecap="round" stroke-linejoin="round" stroke-miterlimit="10"/><path fill="rgb(21,101,192)" stroke="none" paint-order="stroke fill markers" d=" M 1097.5999248685177 561.8737791134499 C 1097.5999248685177 564.6352028626039 1095.3613486176716 566.8737791134499 1092.5999248685177 566.8737791134499 C 1089.8385011193639 566.8737791134499 1087.5999248685177 564.6352028626039 1087.5999248685177 561.8737791134499 C 1087.5999248685177 559.1123553642959 1089.8385011193639 556.8737791134499 1092.5999248685177 556.8737791134499 C 1095.3613486176716 556.8737791134499 1097.5999248685177 559.1123553642959 1097.5999248685177 561.8737791134499 Z" fill-opacity="1"/><path fill="none" stroke="rgb(0,0,0)" paint-order="fill stroke markers" d=" M 1097.5999248685177 561.8737791134499 C 1097.5999248685177 564.6352028626039 1095.3613486176716 566.8737791134499 1092.5999248685177 566.8737791134499 C 1089.8385011193639 566.8737791134499 1087.5999248685177 564.6352028626039 1087.5999248685177 561.8737791134499 C 1087.5999248685177 559.1123553642959 1089.8385011193639 556.8737791134499 1092.5999248685177 556.8737791134499 C 1095.3613486176716 556.8737791134499 1097.5999248685177 559.1123553642959 1097.5999248685177 561.8737791134499 Z" stroke-opacity="1" stroke-linecap="round" stroke-linejoin="round" stroke-miterlimit="10"/><path fill="rgb(21,101,192)" stroke="none" paint-order="stroke fill markers" d=" M 1097.5999248685177 486.87377911345 C 1097.5999248685177 489.63520286260393 1095.3613486176716 491.87377911345 1092.5999248685177 491.87377911345 C 1089.8385011193639 491.87377911345 1087.5999248685177 489.63520286260393 1087.5999248685177 486.87377911345 C 1087.5999248685177 484.11235536429604 1089.8385011193639 481.87377911345 1092.5999248685177 481.87377911345 C 1095.3613486176716 481.87377911345 1097.5999248685177 484.11235536429604 1097.5999248685177 486.87377911345 Z" fill-opacity="1"/><path fill="none" stroke="rgb(0,0,0)" paint-order="fill stroke markers" d=" M 1097.5999248685177 486.87377911345 C 1097.5999248685177 489.63520286260393 1095.3613486176716 491.87377911345 1092.5999248685177 491.87377911345 C 1089.8385011193639 491.87377911345 1087.5999248685177 489.63520286260393 1087.5999248685177 486.87377911345 C 1087.5999248685177 484.11235536429604 1089.8385011193639 481.87377911345 1092.5999248685177 481.87377911345 C 1095.3613486176716 481.87377911345 1097.5999248685177 484.11235536429604 1097.5999248685177 486.87377911345 Z" stroke-opacity="1" stroke-linecap="round" stroke-linejoin="round" stroke-miterlimit="10"/><path fill="rgb(21,101,192)" stroke="none" paint-order="stroke fill markers" d=" M 872.5999248685182 636.8737791134499 C 872.5999248685182 639.6352028626039 870.3613486176722 641.8737791134499 867.5999248685182 641.8737791134499 C 864.8385011193642 641.8737791134499 862.5999248685182 639.6352028626039 862.5999248685182 636.8737791134499 C 862.5999248685182 634.1123553642959 864.8385011193642 631.8737791134499 867.5999248685182 631.8737791134499 C 870.3613486176722 631.8737791134499 872.5999248685182 634.1123553642959 872.5999248685182 636.8737791134499 Z" fill-opacity="1"/><path fill="none" stroke="rgb(0,0,0)" paint-order="fill stroke markers" d=" M 872.5999248685182 636.8737791134499 C 872.5999248685182 639.6352028626039 870.3613486176722 641.8737791134499 867.5999248685182 641.8737791134499 C 864.8385011193642 641.8737791134499 862.5999248685182 639.6352028626039 862.5999248685182 636.8737791134499 C 862.5999248685182 634.1123553642959 864.8385011193642 631.8737791134499 867.5999248685182 631.8737791134499 C 870.3613486176722 631.8737791134499 872.5999248685182 634.1123553642959 872.5999248685182 636.8737791134499 Z" stroke-opacity="1" stroke-linecap="round" stroke-linejoin="round" stroke-miterlimit="10"/><path fill="rgb(21,101,192)" stroke="none" paint-order="stroke fill markers" d=" M 647.5999248685189 411.87377911345 C 647.5999248685189 414.63520286260393 645.3613486176729 416.87377911345 642.5999248685189 416.87377911345 C 639.8385011193649 416.87377911345 637.5999248685189 414.63520286260393 637.5999248685189 411.87377911345 C 637.5999248685189 409.11235536429604 639.8385011193649 406.87377911345 642.5999248685189 406.87377911345 C 645.3613486176729 406.87377911345 647.5999248685189 409.11235536429604 647.5999248685189 411.87377911345 Z" fill-opacity="1"/><path fill="none" stroke="rgb(0,0,0)" paint-order="fill stroke markers" d=" M 647.5999248685189 411.87377911345 C 647.5999248685189 414.63520286260393 645.3613486176729 416.87377911345 642.5999248685189 416.87377911345 C 639.8385011193649 416.87377911345 637.5999248685189 414.63520286260393 637.5999248685189 411.87377911345 C 637.5999248685189 409.11235536429604 639.8385011193649 406.87377911345 642.5999248685189 406.87377911345 C 645.3613486176729 406.87377911345 647.5999248685189 409.11235536429604 647.5999248685189 411.87377911345 Z" stroke-opacity="1" stroke-linecap="round" stroke-linejoin="round" stroke-miterlimit="10"/><path fill="rgb(21,101,192)" stroke="none" paint-order="stroke fill markers" d=" M 793.5999248685184 786.8737791134499 C 793.5999248685184 787.4260638632808 793.1522096183493 787.8737791134499 792.5999248685184 787.8737791134499 C 792.0476401186876 787.8737791134499 791.5999248685184 787.4260638632808 791.5999248685184 786.8737791134499 C 791.5999248685184 786.3214943636191 792.0476401186876 785.8737791134499 792.5999248685184 785.8737791134499 C 793.1522096183493 785.8737791134499 793.5999248685184 786.3214943636191 793.5999248685184 786.8737791134499 Z" fill-opacity="1"/><path fill="none" stroke="rgb(0,0,0)" paint-order="fill stroke markers" d=" M 793.5999248685184 786.8737791134499 C 793.5999248685184 787.4260638632808 793.1522096183493 787.8737791134499 792.5999248685184 787.8737791134499 C 792.0476401186876 787.8737791134499 791.5999248685184 787.4260638632808 791.5999248685184 786.8737791134499 C 791.5999248685184 786.3214943636191 792.0476401186876 785.8737791134499 792.5999248685184 785.8737791134499 C 793.1522096183493 785.8737791134499 793.5999248685184 786.3214943636191 793.5999248685184 786.8737791134499 Z" stroke-opacity="1" stroke-linecap="round" stroke-linejoin="round" stroke-miterlimit="10"/><path fill="rgb(21,101,192)" stroke="none" paint-order="stroke fill markers" d=" M 347.5999248685195 186.87377911345004 C 347.5999248685195 189.63520286260402 345.36134861767346 191.87377911345004 342.5999248685195 191.87377911345004 C 339.83850111936556 191.87377911345004 337.5999248685195 189.63520286260402 337.5999248685195 186.87377911345004 C 337.5999248685195 184.11235536429606 339.83850111936556 181.87377911345004 342.5999248685195 181.87377911345004 C 345.36134861767346 181.87377911345004 347.5999248685195 184.11235536429606 347.5999248685195 186.87377911345004 Z" fill-opacity="1"/><path fill="none" stroke="rgb(0,0,0)" paint-order="fill stroke markers" d=" M 347.5999248685195 186.87377911345004 C 347.5999248685195 189.63520286260402 345.36134861767346 191.87377911345004 342.5999248685195 191.87377911345004 C 339.83850111936556 191.87377911345004 337.5999248685195 189.63520286260402 337.5999248685195 186.87377911345004 C 337.5999248685195 184.11235536429606 339.83850111936556 181.87377911345004 342.5999248685195 181.87377911345004 C 345.36134861767346 181.87377911345004 347.5999248685195 184.11235536429606 347.5999248685195 186.87377911345004 Z" stroke-opacity="1" stroke-linecap="round" stroke-linejoin="round" stroke-miterlimit="10"/><path fill="rgb(21,101,192)" stroke="none" paint-order="stroke fill markers" d=" M 497.59992486851917 636.8737791134499 C 497.59992486851917 639.6352028626039 495.3613486176731 641.8737791134499 492.59992486851917 641.8737791134499 C 489.8385011193652 641.8737791134499 487.59992486851917 639.6352028626039 487.59992486851917 636.8737791134499 C 487.59992486851917 634.1123553642959 489.8385011193652 631.8737791134499 492.59992486851917 631.8737791134499 C 495.3613486176731 631.8737791134499 497.59992486851917 634.1123553642959 497.59992486851917 636.8737791134499 Z" fill-opacity="1"/><path fill="none" stroke="rgb(0,0,0)" paint-order="fill stroke markers" d=" M 497.59992486851917 636.8737791134499 C 497.59992486851917 639.6352028626039 495.3613486176731 641.8737791134499 492.59992486851917 641.8737791134499 C 489.8385011193652 641.8737791134499 487.59992486851917 639.6352028626039 487.59992486851917 636.8737791134499 C 487.59992486851917 634.1123553642959 489.8385011193652 631.8737791134499 492.59992486851917 631.8737791134499 C 495.3613486176731 631.8737791134499 497.59992486851917 634.1123553642959 497.59992486851917 636.8737791134499 Z" stroke-opacity="1" stroke-linecap="round" stroke-linejoin="round" stroke-miterlimit="10"/><path fill="rgb(21,101,192)" stroke="none" paint-order="stroke fill markers" d=" M 722.5999248685187 711.8737791134499 C 722.5999248685187 714.6352028626039 720.3613486176727 716.8737791134499 717.5999248685187 716.8737791134499 C 714.8385011193647 716.8737791134499 712.5999248685187 714.6352028626039 712.5999248685187 711.8737791134499 C 712.5999248685187 709.1123553642959 714.8385011193647 706.8737791134499 717.5999248685187 706.8737791134499 C 720.3613486176727 706.8737791134499 722.5999248685187 709.1123553642959 722.5999248685187 711.8737791134499 Z" fill-opacity="1"/><path fill="none" stroke="rgb(0,0,0)" paint-order="fill stroke markers" d=" M 722.5999248685187 711.8737791134499 C 722.5999248685187 714.6352028626039 720.3613486176727 716.8737791134499 717.5999248685187 716.8737791134499 C 714.8385011193647 716.8737791134499 712.5999248685187 714.6352028626039 712.5999248685187 711.8737791134499 C 712.5999248685187 709.1123553642959 714.8385011193647 706.8737791134499 717.5999248685187 706.8737791134499 C 720.3613486176727 706.8737791134499 722.5999248685187 709.1123553642959 722.5999248685187 711.8737791134499 Z" stroke-opacity="1" stroke-linecap="round" stroke-linejoin="round" stroke-miterlimit="10"/><path fill="rgb(21,101,192)" stroke="none" paint-order="stroke fill markers" d=" M 947.5999248685182 411.87377911345 C 947.5999248685182 414.63520286260393 945.3613486176722 416.87377911345 942.5999248685182 416.87377911345 C 939.8385011193642 416.87377911345 937.5999248685182 414.63520286260393 937.5999248685182 411.87377911345 C 937.5999248685182 409.11235536429604 939.8385011193642 406.87377911345 942.5999248685182 406.87377911345 C 945.3613486176722 406.87377911345 947.5999248685182 409.11235536429604 947.5999248685182 411.87377911345 Z" fill-opacity="1"/><path fill="none" stroke="rgb(0,0,0)" paint-order="fill stroke markers" d=" M 947.5999248685182 411.87377911345 C 947.5999248685182 414.63520286260393 945.3613486176722 416.87377911345 942.5999248685182 416.87377911345 C 939.8385011193642 416.87377911345 937.5999248685182 414.63520286260393 937.5999248685182 411.87377911345 C 937.5999248685182 409.11235536429604 939.8385011193642 406.87377911345 942.5999248685182 406.87377911345 C 945.3613486176722 406.87377911345 947.5999248685182 409.11235536429604 947.5999248685182 411.87377911345 Z" stroke-opacity="1" stroke-linecap="round" stroke-linejoin="round" stroke-miterlimit="10"/><path fill="rgb(21,101,192)" stroke="none" paint-order="stroke fill markers" d=" M 1022.599924868518 336.87377911345004 C 1022.599924868518 339.635202862604 1020.361348617672 341.87377911345004 1017.599924868518 341.87377911345004 C 1014.838501119364 341.87377911345004 1012.599924868518 339.635202862604 1012.599924868518 336.87377911345004 C 1012.599924868518 334.1123553642961 1014.838501119364 331.87377911345004 1017.599924868518 331.87377911345004 C 1020.361348617672 331.87377911345004 1022.599924868518 334.1123553642961 1022.599924868518 336.87377911345004 Z" fill-opacity="1"/><path fill="none" stroke="rgb(0,0,0)" paint-order="fill stroke markers" d=" M 1022.599924868518 336.87377911345004 C 1022.599924868518 339.635202862604 1020.361348617672 341.87377911345004 1017.599924868518 341.87377911345004 C 1014.838501119364 341.87377911345004 1012.599924868518 339.635202862604 1012.599924868518 336.87377911345004 C 1012.599924868518 334.1123553642961 1014.838501119364 331.87377911345004 1017.599924868518 331.87377911345004 C 1020.361348617672 331.87377911345004 1022.599924868518 334.1123553642961 1022.599924868518 336.87377911345004 Z" stroke-opacity="1" stroke-linecap="round" stroke-linejoin="round" stroke-miterlimit="10"/><path fill="rgb(21,101,192)" stroke="none" paint-order="stroke fill markers" d=" M 272.5999248685197 486.87377911345 C 272.5999248685197 489.63520286260393 270.3613486176736 491.87377911345 267.5999248685197 491.87377911345 C 264.83850111936573 491.87377911345 262.5999248685197 489.63520286260393 262.5999248685197 486.87377911345 C 262.5999248685197 484.11235536429604 264.83850111936573 481.87377911345 267.5999248685197 481.87377911345 C 270.3613486176736 481.87377911345 272.5999248685197 484.11235536429604 272.5999248685197 486.87377911345 Z" fill-opacity="1"/><path fill="none" stroke="rgb(0,0,0)" paint-order="fill stroke markers" d=" M 272.5999248685197 486.87377911345 C 272.5999248685197 489.63520286260393 270.3613486176736 491.87377911345 267.5999248685197 491.87377911345 C 264.83850111936573 491.87377911345 262.5999248685197 489.63520286260393 262.5999248685197 486.87377911345 C 262.5999248685197 484.11235536429604 264.83850111936573 481.87377911345 267.5999248685197 481.87377911345 C 270.3613486176736 481.87377911345 272.5999248685197 484.11235536429604 272.5999248685197 486.87377911345 Z" stroke-opacity="1" stroke-linecap="round" stroke-linejoin="round" stroke-miterlimit="10"/><path fill="rgb(21,101,192)" stroke="none" paint-order="stroke fill markers" d=" M 193.59992486851985 525.8737791134499 C 193.59992486851985 526.4260638632808 193.15220961835064 526.8737791134499 192.59992486851985 526.8737791134499 C 192.04764011868906 526.8737791134499 191.59992486851985 526.4260638632808 191.59992486851985 525.8737791134499 C 191.59992486851985 525.3214943636191 192.04764011868906 524.8737791134499 192.59992486851985 524.8737791134499 C 193.15220961835064 524.8737791134499 193.59992486851985 525.3214943636191 193.59992486851985 525.8737791134499 Z" fill-opacity="1"/><path fill="none" stroke="rgb(0,0,0)" paint-order="fill stroke markers" d=" M 193.59992486851985 525.8737791134499 C 193.59992486851985 526.4260638632808 193.15220961835064 526.8737791134499 192.59992486851985 526.8737791134499 C 192.04764011868906 526.8737791134499 191.59992486851985 526.4260638632808 191.59992486851985 525.8737791134499 C 191.59992486851985 525.3214943636191 192.04764011868906 524.8737791134499 192.59992486851985 524.8737791134499 C 193.15220961835064 524.8737791134499 193.59992486851985 525.3214943636191 193.59992486851985 525.8737791134499 Z" stroke-opacity="1" stroke-linecap="round" stroke-linejoin="round" stroke-miterlimit="10"/><path fill="rgb(21,101,192)" stroke="none" paint-order="stroke fill markers" d=" M 793.5999248685184 486.87377911345 C 793.5999248685184 487.4260638632808 793.1522096183493 487.87377911345 792.5999248685184 487.87377911345 C 792.0476401186876 487.87377911345 791.5999248685184 487.4260638632808 791.5999248685184 486.87377911345 C 791.5999248685184 486.3214943636192 792.0476401186876 485.87377911345 792.5999248685184 485.87377911345 C 793.1522096183493 485.87377911345 793.5999248685184 486.3214943636192 793.5999248685184 486.87377911345 Z" fill-opacity="1"/><path fill="none" stroke="rgb(0,0,0)" paint-order="fill stroke markers" d=" M 793.5999248685184 486.87377911345 C 793.5999248685184 487.4260638632808 793.1522096183493 487.87377911345 792.5999248685184 487.87377911345 C 792.0476401186876 487.87377911345 791.5999248685184 487.4260638632808 791.5999248685184 486.87377911345 C 791.5999248685184 486.3214943636192 792.0476401186876 485.87377911345 792.5999248685184 485.87377911345 C 793.1522096183493 485.87377911345 793.5999248685184 486.3214943636192 793.5999248685184 486.87377911345 Z" stroke-opacity="1" stroke-linecap="round" stroke-linejoin="round" stroke-miterlimit="10"/><path fill="rgb(21,101,192)" stroke="none" paint-order="stroke fill markers" d=" M 568.599924868519 111.87377911345004 C 568.599924868519 112.42606386328083 568.1522096183498 112.87377911345004 567.599924868519 112.87377911345004 C 567.0476401186882 112.87377911345004 566.599924868519 112.42606386328083 566.599924868519 111.87377911345004 C 566.599924868519 111.32149436361925 567.0476401186882 110.87377911345004 567.599924868519 110.87377911345004 C 568.1522096183498 110.87377911345004 568.599924868519 111.32149436361925 568.599924868519 111.87377911345004 Z" fill-opacity="1"/><path fill="none" stroke="rgb(0,0,0)" paint-order="fill stroke markers" d=" M 568.599924868519 111.87377911345004 C 568.599924868519 112.42606386328083 568.1522096183498 112.87377911345004 567.599924868519 112.87377911345004 C 567.0476401186882 112.87377911345004 566.599924868519 112.42606386328083 566.599924868519 111.87377911345004 C 566.599924868519 111.32149436361925 567.0476401186882 110.87377911345004 567.599924868519 110.87377911345004 C 568.1522096183498 110.87377911345004 568.599924868519 111.32149436361925 568.599924868519 111.87377911345004 Z" stroke-opacity="1" stroke-linecap="round" stroke-linejoin="round" stroke-miterlimit="10"/><path fill="rgb(21,101,192)" stroke="none" paint-order="stroke fill markers" d=" M 568.599924868519 486.87377911345 C 568.599924868519 487.4260638632808 568.1522096183498 487.87377911345 567.599924868519 487.87377911345 C 567.0476401186882 487.87377911345 566.599924868519 487.4260638632808 566.599924868519 486.87377911345 C 566.599924868519 486.3214943636192 567.0476401186882 485.87377911345 567.599924868519 485.87377911345 C 568.1522096183498 485.87377911345 568.599924868519 486.3214943636192 568.599924868519 486.87377911345 Z" fill-opacity="1"/><path fill="none" stroke="rgb(0,0,0)" paint-order="fill stroke markers" d=" M 568.599924868519 486.87377911345 C 568.599924868519 487.4260638632808 568.1522096183498 487.87377911345 567.599924868519 487.87377911345 C 567.0476401186882 487.87377911345 566.599924868519 487.4260638632808 566.599924868519 486.87377911345 C 566.599924868519 486.3214943636192 567.0476401186882 485.87377911345 567.599924868519 485.87377911345 C 568.1522096183498 485.87377911345 568.599924868519 486.3214943636192 568.599924868519 486.87377911345 Z" stroke-opacity="1" stroke-linecap="round" stroke-linejoin="round" stroke-miterlimit="10"/><path fill="rgb(21,101,192)" stroke="none" paint-order="stroke fill markers" d=" M 493.59992486851917 786.8737791134499 C 493.59992486851917 787.4260638632808 493.15220961834996 787.8737791134499 492.59992486851917 787.8737791134499 C 492.0476401186884 787.8737791134499 491.59992486851917 787.4260638632808 491.59992486851917 786.8737791134499 C 491.59992486851917 786.3214943636191 492.0476401186884 785.8737791134499 492.59992486851917 785.8737791134499 C 493.15220961834996 785.8737791134499 493.59992486851917 786.3214943636191 493.59992486851917 786.8737791134499 Z" fill-opacity="1"/><path fill="none" stroke="rgb(0,0,0)" paint-order="fill stroke markers" d=" M 493.59992486851917 786.8737791134499 C 493.59992486851917 787.4260638632808 493.15220961834996 787.8737791134499 492.59992486851917 787.8737791134499 C 492.0476401186884 787.8737791134499 491.59992486851917 787.4260638632808 491.59992486851917 786.8737791134499 C 491.59992486851917 786.3214943636191 492.0476401186884 785.8737791134499 492.59992486851917 785.8737791134499 C 493.15220961834996 785.8737791134499 493.59992486851917 786.3214943636191 493.59992486851917 786.8737791134499 Z" stroke-opacity="1" stroke-linecap="round" stroke-linejoin="round" stroke-miterlimit="10"/><path fill="rgb(21,101,192)" stroke="none" paint-order="stroke fill markers" d=" M 493.59992486851917 486.87377911345 C 493.59992486851917 487.4260638632808 493.15220961834996 487.87377911345 492.59992486851917 487.87377911345 C 492.0476401186884 487.87377911345 491.59992486851917 487.4260638632808 491.59992486851917 486.87377911345 C 491.59992486851917 486.3214943636192 492.0476401186884 485.87377911345 492.59992486851917 485.87377911345 C 493.15220961834996 485.87377911345 493.59992486851917 486.3214943636192 493.59992486851917 486.87377911345 Z" fill-opacity="1"/><path fill="none" stroke="rgb(0,0,0)" paint-order="fill stroke markers" d=" M 493.59992486851917 486.87377911345 C 493.59992486851917 487.4260638632808 493.15220961834996 487.87377911345 492.59992486851917 487.87377911345 C 492.0476401186884 487.87377911345 491.59992486851917 487.4260638632808 491.59992486851917 486.87377911345 C 491.59992486851917 486.3214943636192 492.0476401186884 485.87377911345 492.59992486851917 485.87377911345 C 493.15220961834996 485.87377911345 493.59992486851917 486.3214943636192 493.59992486851917 486.87377911345 Z" stroke-opacity="1" stroke-linecap="round" stroke-linejoin="round" stroke-miterlimit="10"/><path fill="rgb(21,101,192)" stroke="none" paint-order="stroke fill markers" d=" M 793.5999248685184 561.8737791134499 C 793.5999248685184 562.4260638632808 793.1522096183493 562.8737791134499 792.5999248685184 562.8737791134499 C 792.0476401186876 562.8737791134499 791.5999248685184 562.4260638632808 791.5999248685184 561.8737791134499 C 791.5999248685184 561.3214943636191 792.0476401186876 560.8737791134499 792.5999248685184 560.8737791134499 C 793.1522096183493 560.8737791134499 793.5999248685184 561.3214943636191 793.5999248685184 561.8737791134499 Z" fill-opacity="1"/><path fill="none" stroke="rgb(0,0,0)" paint-order="fill stroke markers" d=" M 793.5999248685184 561.8737791134499 C 793.5999248685184 562.4260638632808 793.1522096183493 562.8737791134499 792.5999248685184 562.8737791134499 C 792.0476401186876 562.8737791134499 791.5999248685184 562.4260638632808 791.5999248685184 561.8737791134499 C 791.5999248685184 561.3214943636191 792.0476401186876 560.8737791134499 792.5999248685184 560.8737791134499 C 793.1522096183493 560.8737791134499 793.5999248685184 561.3214943636191 793.5999248685184 561.8737791134499 Z" stroke-opacity="1" stroke-linecap="round" stroke-linejoin="round" stroke-miterlimit="10"/><path fill="rgb(21,101,192)" stroke="none" paint-order="stroke fill markers" d=" M 1018.599924868518 561.8737791134499 C 1018.599924868518 562.4260638632808 1018.1522096183488 562.8737791134499 1017.599924868518 562.8737791134499 C 1017.0476401186871 562.8737791134499 1016.599924868518 562.4260638632808 1016.599924868518 561.8737791134499 C 1016.599924868518 561.3214943636191 1017.0476401186871 560.8737791134499 1017.599924868518 560.8737791134499 C 1018.1522096183488 560.8737791134499 1018.599924868518 561.3214943636191 1018.599924868518 561.8737791134499 Z" fill-opacity="1"/><path fill="none" stroke="rgb(0,0,0)" paint-order="fill stroke markers" d=" M 1018.599924868518 561.8737791134499 C 1018.599924868518 562.4260638632808 1018.1522096183488 562.8737791134499 1017.599924868518 562.8737791134499 C 1017.0476401186871 562.8737791134499 1016.599924868518 562.4260638632808 1016.599924868518 561.8737791134499 C 1016.599924868518 561.3214943636191 1017.0476401186871 560.8737791134499 1017.599924868518 560.8737791134499 C 1018.1522096183488 560.8737791134499 1018.599924868518 561.3214943636191 1018.599924868518 561.8737791134499 Z" stroke-opacity="1" stroke-linecap="round" stroke-linejoin="round" stroke-miterlimit="10"/><path fill="rgb(21,101,192)" stroke="none" paint-order="stroke fill markers" d=" M 868.5999248685182 786.8737791134499 C 868.5999248685182 787.4260638632808 868.152209618349 787.8737791134499 867.5999248685182 787.8737791134499 C 867.0476401186874 787.8737791134499 866.5999248685182 787.4260638632808 866.5999248685182 786.8737791134499 C 866.5999248685182 786.3214943636191 867.0476401186874 785.8737791134499 867.5999248685182 785.8737791134499 C 868.152209618349 785.8737791134499 868.5999248685182 786.3214943636191 868.5999248685182 786.8737791134499 Z" fill-opacity="1"/><path fill="none" stroke="rgb(0,0,0)" paint-order="fill stroke markers" d=" M 868.5999248685182 786.8737791134499 C 868.5999248685182 787.4260638632808 868.152209618349 787.8737791134499 867.5999248685182 787.8737791134499 C 867.0476401186874 787.8737791134499 866.5999248685182 787.4260638632808 866.5999248685182 786.8737791134499 C 866.5999248685182 786.3214943636191 867.0476401186874 785.8737791134499 867.5999248685182 785.8737791134499 C 868.152209618349 785.8737791134499 868.5999248685182 786.3214943636191 868.5999248685182 786.8737791134499 Z" stroke-opacity="1" stroke-linecap="round" stroke-linejoin="round" stroke-miterlimit="10"/><path fill="rgb(21,101,192)" stroke="none" paint-order="stroke fill markers" d=" M 868.5999248685182 561.8737791134499 C 868.5999248685182 562.4260638632808 868.152209618349 562.8737791134499 867.5999248685182 562.8737791134499 C 867.0476401186874 562.8737791134499 866.5999248685182 562.4260638632808 866.5999248685182 561.8737791134499 C 866.5999248685182 561.3214943636191 867.0476401186874 560.8737791134499 867.5999248685182 560.8737791134499 C 868.152209618349 560.8737791134499 868.5999248685182 561.3214943636191 868.5999248685182 561.8737791134499 Z" fill-opacity="1"/><path fill="none" stroke="rgb(0,0,0)" paint-order="fill stroke markers" d=" M 868.5999248685182 561.8737791134499 C 868.5999248685182 562.4260638632808 868.152209618349 562.8737791134499 867.5999248685182 562.8737791134499 C 867.0476401186874 562.8737791134499 866.5999248685182 562.4260638632808 866.5999248685182 561.8737791134499 C 866.5999248685182 561.3214943636191 867.0476401186874 560.8737791134499 867.5999248685182 560.8737791134499 C 868.152209618349 560.8737791134499 868.5999248685182 561.3214943636191 868.5999248685182 561.8737791134499 Z" stroke-opacity="1" stroke-linecap="round" stroke-linejoin="round" stroke-miterlimit="10"/><path fill="rgb(21,101,192)" stroke="none" paint-order="stroke fill markers" d=" M 193.59992486851985 36.87377911345004 C 193.59992486851985 37.42606386328083 193.15220961835064 37.87377911345004 192.59992486851985 37.87377911345004 C 192.04764011868906 37.87377911345004 191.59992486851985 37.42606386328083 191.59992486851985 36.87377911345004 C 191.59992486851985 36.321494363619244 192.04764011868906 35.87377911345004 192.59992486851985 35.87377911345004 C 193.15220961835064 35.87377911345004 193.59992486851985 36.321494363619244 193.59992486851985 36.87377911345004 Z" fill-opacity="1"/><path fill="none" stroke="rgb(0,0,0)" paint-order="fill stroke markers" d=" M 193.59992486851985 36.87377911345004 C 193.59992486851985 37.42606386328083 193.15220961835064 37.87377911345004 192.59992486851985 37.87377911345004 C 192.04764011868906 37.87377911345004 191.59992486851985 37.42606386328083 191.59992486851985 36.87377911345004 C 191.59992486851985 36.321494363619244 192.04764011868906 35.87377911345004 192.59992486851985 35.87377911345004 C 193.15220961835064 35.87377911345004 193.59992486851985 36.321494363619244 193.59992486851985 36.87377911345004 Z" stroke-opacity="1" stroke-linecap="round" stroke-linejoin="round" stroke-miterlimit="10"/><path fill="rgb(97,97,97)" stroke="none" paint-order="stroke fill markers" d=" M 193.59992486851985 786.8737791134499 C 193.59992486851985 787.4260638632808 193.15220961835064 787.8737791134499 192.59992486851985 787.8737791134499 C 192.04764011868906 787.8737791134499 191.59992486851985 787.4260638632808 191.59992486851985 786.8737791134499 C 191.59992486851985 786.3214943636191 192.04764011868906 785.8737791134499 192.59992486851985 785.8737791134499 C 193.15220961835064 785.8737791134499 193.59992486851985 786.3214943636191 193.59992486851985 786.8737791134499 Z" fill-opacity="1"/><path fill="none" stroke="rgb(0,0,0)" paint-order="fill stroke markers" d=" M 193.59992486851985 786.8737791134499 C 193.59992486851985 787.4260638632808 193.15220961835064 787.8737791134499 192.59992486851985 787.8737791134499 C 192.04764011868906 787.8737791134499 191.59992486851985 787.4260638632808 191.59992486851985 786.8737791134499 C 191.59992486851985 786.3214943636191 192.04764011868906 785.8737791134499 192.59992486851985 785.8737791134499 C 193.15220961835064 785.8737791134499 193.59992486851985 786.3214943636191 193.59992486851985 786.8737791134499 Z" stroke-opacity="1" stroke-linecap="round" stroke-linejoin="round" stroke-miterlimit="10"/><g transform="scale(35,35)"><g transform="translate(23.085714285714285,12.04365142857143)"><path fill="rgb(0,0,0)" stroke="none" paint-order="stroke fill markers" d=" M 0.17200000000000001 -0.078 Q 0.17200000000000001 -0.047 0.184 -0.04 L 0.184 -0.04 L 0.185 -0.039 Q 0.199 -0.031 0.248 -0.031 L 0.269 -0.031 L 0.269 0 Q 0.229 -0.003 0.14200000000000002 -0.003 Q 0.145 -0.003 0.028 0 L 0.028 -0.031 Q 0.08700000000000001 -0.031 0.097 -0.04 L 0.099 -0.042 Q 0.106 -0.05 0.106 -0.076 L 0.106 -0.34400000000000003 Q 0.106 -0.383 0.091 -0.392 Q 0.079 -0.399 0.048 -0.4 L 0.028 -0.4 L 0.028 -0.431 L 0.167 -0.442 L 0.167 -0.332 Q 0.194 -0.41600000000000004 0.256 -0.437 Q 0.272 -0.442 0.29 -0.442 Q 0.337 -0.442 0.357 -0.40700000000000003 Q 0.364 -0.395 0.364 -0.381 Q 0.364 -0.34600000000000003 0.331 -0.338 Q 0.326 -0.337 0.321 -0.337 Q 0.29 -0.337 0.281 -0.364 Q 0.278 -0.371 0.278 -0.38 Q 0.278 -0.40700000000000003 0.301 -0.419 Q 0.299 -0.42 0.29 -0.42 Q 0.223 -0.42 0.191 -0.338 Q 0.17200000000000001 -0.291 0.17200000000000001 -0.232 L 0.17200000000000001 -0.078 Z"/></g><g transform="translate(23.477382285714285,12.04365142857143)"><path fill="rgb(0,0,0)" stroke="none" paint-order="stroke fill markers" d=" M 0.47100000000000003 -0.214 L 0.47100000000000003 -0.214 Q 0.47100000000000003 -0.111 0.395 -0.044 Q 0.332 0.011 0.249 0.011 Q 0.153 0.011 0.08700000000000001 -0.061 Q 0.028 -0.126 0.028 -0.214 Q 0.028 -0.316 0.101 -0.386 Q 0.164 -0.448 0.25 -0.448 Q 0.34700000000000003 -0.448 0.41300000000000003 -0.371 Q 0.47100000000000003 -0.304 0.47100000000000003 -0.214 M 0.25 -0.014 L 0.25 -0.014 Q 0.317 -0.014 0.356 -0.07 L 0.366 -0.088 Q 0.388 -0.132 0.388 -0.222 Q 0.388 -0.318 0.362 -0.361 Q 0.319 -0.423 0.249 -0.426 Q 0.187 -0.426 0.147 -0.376 Q 0.14 -0.368 0.135 -0.359 Q 0.111 -0.315 0.111 -0.222 Q 0.111 -0.125 0.136 -0.081 Q 0.178 -0.016 0.25 -0.014 Z"/></g><g transform="translate(24.005163285714282,12.04365142857143)"><path fill="rgb(0,0,0)" stroke="none" paint-order="stroke fill markers" d=" M 0.47100000000000003 -0.214 L 0.47100000000000003 -0.214 Q 0.47100000000000003 -0.111 0.395 -0.044 Q 0.332 0.011 0.249 0.011 Q 0.153 0.011 0.08700000000000001 -0.061 Q 0.028 -0.126 0.028 -0.214 Q 0.028 -0.316 0.101 -0.386 Q 0.164 -0.448 0.25 -0.448 Q 0.34700000000000003 -0.448 0.41300000000000003 -0.371 Q 0.47100000000000003 -0.304 0.47100000000000003 -0.214 M 0.25 -0.014 L 0.25 -0.014 Q 0.317 -0.014 0.356 -0.07 L 0.366 -0.088 Q 0.388 -0.132 0.388 -0.222 Q 0.388 -0.318 0.362 -0.361 Q 0.319 -0.423 0.249 -0.426 Q 0.187 -0.426 0.147 -0.376 Q 0.14 -0.368 0.135 -0.359 Q 0.111 -0.315 0.111 -0.222 Q 0.111 -0.125 0.136 -0.081 Q 0.178 -0.016 0.25 -0.014 Z"/></g><g transform="translate(24.50516528571428,12.04365142857143)"><path fill="rgb(0,0,0)" stroke="none" paint-order="stroke fill markers" d=" M 0.17300000000000001 -0.4 L 0.17300000000000001 -0.4 L 0.17300000000000001 -0.122 Q 0.17300000000000001 -0.022 0.231 -0.015 Q 0.23500000000000001 -0.014 0.24 -0.014 Q 0.28300000000000003 -0.014 0.3 -0.07 Q 0.307 -0.094 0.307 -0.126 L 0.307 -0.181 L 0.332 -0.181 L 0.332 -0.124 Q 0.332 -0.042 0.28600000000000003 -0.006 Q 0.264 0.011 0.233 0.011 Q 0.149 0.011 0.11800000000000001 -0.052000000000000005 Q 0.10400000000000001 -0.082 0.10400000000000001 -0.124 L 0.10400000000000001 -0.4 L 0.019 -0.4 L 0.019 -0.422 Q 0.108 -0.426 0.137 -0.534 Q 0.147 -0.5720000000000001 0.148 -0.615 L 0.17300000000000001 -0.615 L 0.17300000000000001 -0.431 L 0.316 -0.431 L 0.316 -0.4 L 0.17300000000000001 -0.4 Z"/></g></g></g></g></svg>